<?xml version="1.0" encoding="UTF-8"?>
<svg width="126px" height="85px" viewBox="0 0 126 85" version="1.1" xmlns="http://www.w3.org/2000/svg" xmlns:xlink="http://www.w3.org/1999/xlink">
    <!-- Generator: Sketch 59.1 (86144) - https://sketch.com -->
    <title>Group 2</title>
    <desc>Created with Sketch.</desc>
    <defs>
        <path d="M107.34416,26.4236914 C107.06752,26.4236914 106.79872,26.4527986 106.52544,26.4651131 C105.0112,11.5991978 92.4504,0 77.17808,0 C63.23296,0 51.576,9.68372371 48.49936,22.6834231 C45.45968,20.5205382 41.75136,19.2364653 37.73616,19.2364653 C27.50272,19.2364653 19.20576,27.4972973 19.14304,37.7116667 C17.4384,36.9403273 15.55232,36.4992421 13.55872,36.4992421 C6.0704,36.4992421 -1.98951966e-13,42.5669626 -1.98951966e-13,50.0530968 C-1.98951966e-13,57.5381114 6.0704,63.605832 13.55872,63.605832 L107.34416,63.605832 C117.6168,63.605832 125.94288,55.2834271 125.94288,45.0153214 C125.94288,34.7472158 117.6168,26.4236914 107.34416,26.4236914" id="path-1"></path>
    </defs>
    <g id="Listing-pages---Eliza" stroke="none" stroke-width="1" fill="none" fill-rule="evenodd">
        <g id="Generic-no-results-state" transform="translate(-598.000000, -356.000000)">
            <g id="empty-states/with-icon/h3-multi-line/p-single-line/2-actions" transform="translate(444.000000, 356.000000)">
                <g id="Group-2" transform="translate(154.000000, 0.000000)">
                    <g id="illustration/product/scene-elements/clouds-2">
                        <mask id="mask-2" fill="white">
                            <use xlink:href="#path-1"></use>
                        </mask>
                        <use id="Mask" fill="#DCDFE1" fill-rule="evenodd" xlink:href="#path-1"></use>
                        <g id="swatch/ui_storm_17%" mask="url(#mask-2)" fill="#DCDFE1" fill-rule="evenodd">
                            <polygon points="0 0 126 0 126 64 0 64"></polygon>
                        </g>
                    </g>
                    <g id="illustration/product/device/52-zoom-magnify-glass" transform="translate(63.000000, 27.000000)">
                        <g id="Group" transform="translate(-0.000320, 0.610306)">
                            <path d="M38.4,19.3333333 C38.4,30.0117778 29.8032,38.6666667 19.2,38.6666667 C8.5968,38.6666667 -1.0658141e-14,30.0117778 -1.0658141e-14,19.3333333 C-1.0658141e-14,8.6565 8.5968,-7.10542736e-14 19.2,-7.10542736e-14 C29.8032,-7.10542736e-14 38.4,8.6565 38.4,19.3333333" id="Fill-1" fill="#FFFFFF"></path>
                            <line x1="32.8008" y1="33.0293889" x2="55.2008" y2="55.5833333" id="Stroke-5" stroke="#8241AA" stroke-width="3.20000005" stroke-linecap="round" stroke-linejoin="round"></line>
                            <path d="M24.34608,0.723711111 C21.87088,13.3580444 14.16368,24.0993222 3.58288,30.5550444 C7.06608,35.4608778 12.75568,38.6686 19.20048,38.6686 C29.80368,38.6686 38.40048,30.0121 38.40048,19.3352667 C38.40048,10.4548222 32.44688,2.99215556 24.34608,0.723711111" id="Fill-11" fill="#E8EAEC"></path>
                            <path d="M38.4,19.3333333 C38.4,30.0117778 29.8032,38.6666667 19.2,38.6666667 C8.5968,38.6666667 -1.0658141e-14,30.0117778 -1.0658141e-14,19.3333333 C-1.0658141e-14,8.6565 8.5968,3.83693077e-13 19.2,3.83693077e-13 C29.8032,3.83693077e-13 38.4,8.6565 38.4,19.3333333 Z" id="Stroke-3" stroke="#8241AA" stroke-width="3.20000005" stroke-linejoin="round"></path>
                        </g>
                    </g>
                </g>
            </g>
        </g>
    </g>
</svg>
