<?xml version="1.0" encoding="UTF-8"?>
<svg width="265px" height="222px" viewBox="0 0 265 222" version="1.1" xmlns="http://www.w3.org/2000/svg" xmlns:xlink="http://www.w3.org/1999/xlink">
    <!-- Generator: Sketch 60 (88103) - https://sketch.com -->
    <title>accountingyoga</title>
    <desc>Created with Sketch.</desc>
    <g id="Wizard-design-exploration-18/11" stroke="none" stroke-width="1" fill="none" fill-rule="evenodd">
        <g id="illustration/product/bespoke/BESPOKE-FINAL-S-10" transform="translate(0.000000, 1.000000)">
            <ellipse id="Oval" stroke="#EDEDED" stroke-width="1.0225" fill="#F0F1F3" fill-rule="nonzero" cx="134.8" cy="198.4" rx="61" ry="8.3"></ellipse>
            <polyline id="Path" stroke="#D5D8DC" stroke-width="7" stroke-linecap="round" stroke-linejoin="round" points="122.3 188.5 71.9 182.7 129 207.9"></polyline>
            <line x1="129" y1="207.9" x2="124.1" y2="217" id="Path" stroke="#D5D8DC" stroke-width="7" stroke-linecap="round" stroke-linejoin="round"></line>
            <rect id="Rectangle" fill="#D5D8DC" fill-rule="nonzero" transform="translate(34.113410, 119.477495) rotate(102.479714) translate(-34.113410, -119.477495) " x="19.0129859" y="97.7268842" width="30.2008482" height="43.5012217"></rect>
            <rect id="Rectangle" fill="#E6E7E8" fill-rule="nonzero" transform="translate(37.209285, 87.996200) rotate(131.420380) translate(-37.209285, -87.996200) " x="22.1087975" y="66.2454978" width="30.200975" height="43.5014044"></rect>
            <rect id="Rectangle" fill="#F0F1F3" fill-rule="nonzero" transform="translate(58.274655, 43.371445) rotate(146.626164) translate(-58.274655, -43.371445) " x="43.1746397" y="21.621423" width="30.2000305" height="43.5000439"></rect>
            <polygon id="Path" fill="#FFFFFF" fill-rule="nonzero" points="54 149.1 51.4 153.3 23 153.3 20.5 149.1 0.4 149.1 0.4 169.2 74 169.2 74 149.1"></polygon>
            <path d="M116.1,206.2 L70.5,186.1 C68.9,185.4 68,183.6 68.5,181.8 C69,180.1 70.6,178.9 72.4,179.1 L122.8,184.9 C124.8,185.1 126.2,186.9 126,188.9 C125.8,190.9 124,192.3 122,192.1 L95.3,189 L119,199.5 L116.1,206.2 Z" id="Path" fill="#ED0677" fill-rule="nonzero"></path>
            <polyline id="Path" stroke="#D5D8DC" stroke-width="7" stroke-linecap="round" stroke-linejoin="round" points="144.5 188.5 194.8 182.7 137.8 207.9"></polyline>
            <line x1="137.8" y1="207.9" x2="142.7" y2="217" id="Path" stroke="#D5D8DC" stroke-width="7" stroke-linecap="round" stroke-linejoin="round"></line>
            <path d="M150.7,206.2 L196.3,186.1 C197.9,185.4 198.8,183.6 198.3,181.8 C197.8,180.1 196.2,178.9 194.4,179.1 L144,184.9 C142,185.1 140.6,186.9 140.8,188.9 C141,190.9 142.8,192.3 144.8,192.1 L171.5,189 L147.8,199.5 L150.7,206.2 Z" id="Path" fill="#ED0677" fill-rule="nonzero"></path>
            <path d="M126.3,159.5 C126.3,159.5 114.3,129.1 114.5,119.6 C114.9,101.5 127.2,98.4 133.4,98.1 C139.6,98.5 151.8,101.6 152.3,119.6 C152.6,129 140.5,159.5 140.5,159.5 L126.3,159.5 Z" id="Path" stroke="#ED0677" stroke-width="7" fill="#ED0677" fill-rule="nonzero"></path>
            <path d="M122.3,188.5 C122.2,177.2 124,167.6 126.3,159.5 L140.5,159.5 C142.8,167.6 144.6,177.2 144.5,188.5 L122.3,188.5 Z" id="Path" stroke="#ED0677" stroke-width="7" fill="#ED0677" fill-rule="nonzero"></path>
            <path d="M122.6,179.4 C122.4,182.3 122.2,185.3 122.3,188.5 L144.4,188.5 C144.4,185.3 144.3,182.3 144.1,179.4 L122.6,179.4 Z" id="Path" fill="#ED0677" fill-rule="nonzero"></path>
            <circle id="Oval" fill="#2E3E4F" fill-rule="nonzero" cx="113.2" cy="56.8" r="10.1"></circle>
            <circle id="Oval" fill="#2E3E4F" fill-rule="nonzero" cx="108.5" cy="69.3" r="8.1"></circle>
            <circle id="Oval" fill="#2E3E4F" fill-rule="nonzero" cx="107.4" cy="81.8" r="6.2"></circle>
            <circle id="Oval" fill="#2E3E4F" fill-rule="nonzero" cx="107.5" cy="91.8" r="5.6"></circle>
            <path d="M112.9,63 L113.2,63 C111.3,63 109.8,64.5 109.8,66.4 C109.8,68.3 111.3,69.8 113.2,69.8 C113.2,81 122.3,90.1 133.5,90.1 C144.7,90.1 153.8,81 153.8,69.8 L153.8,42.7 L133.5,42.7 C122.3,42.7 113.2,51.8 113.2,63 L112.9,63 Z" id="Path" fill="#D5D8DC" fill-rule="nonzero"></path>
            <path d="M153.6,69.9 L153.6,60.2 L143.5,60.2 C139.5,60.2 136.3,63.4 136.3,67.4 L136.3,74.6 L133.4,74.6 L133.4,90.1 C144.6,90.2 153.6,81.1 153.6,69.9 Z" id="Path" fill="#ABB2B9" fill-rule="nonzero"></path>
            <path d="M126.9,68.8 C126.9,69.9 126,70.8 124.9,70.8 C123.8,70.8 122.9,69.9 122.9,68.8" id="Path" fill="#2E3E4F" fill-rule="nonzero"></path>
            <path d="M125.8,78.8 C130,83 136.8,83 140.9,78.8 L125.8,78.8 Z" id="Path" fill="#ABB2B9" fill-rule="nonzero"></path>
            <path d="M144.9,68.8 C144.9,69.9 144,70.8 142.9,70.8 C141.8,70.8 140.9,69.9 140.9,68.8" id="Path" fill="#2E3E4F" fill-rule="nonzero"></path>
            <path d="M133.4,42.7 C122.2,42.7 113.1,51.8 113.1,63 L113,63 C118.2,64.4 125.9,63.1 133.3,61.2 C143.5,58.5 152.5,53.1 153.5,42.8 L133.4,42.8 L133.4,42.7 Z" id="Path" fill="#2E3E4F" fill-rule="nonzero"></path>
            <path d="M138.8,42.7 L138.8,49.1 C147,49.1 153.6,59.7 153.6,67.8 L153.6,42.7 L138.8,42.7 Z" id="Path" fill="#2E3E4F" fill-rule="nonzero"></path>
            <path d="M60.2,178.9 C71.8,178.2 94.8,172.4 95.6,138.5" id="Path" stroke="#D5D8DC" stroke-width="7" stroke-linecap="round" stroke-linejoin="round"></path>
            <path d="M131,98.1 C119.4,98.8 96.4,104.6 95.6,138.5" id="Path" stroke="#ED0677" stroke-width="7"></path>
            <path d="M104.2,108.5 C104.1,108.2 104,107.8 104,107.5 C104,105.6 105.5,104.1 107.4,104.1 C109.3,104.1 110.8,105.6 110.8,107.5 C111.3,111.2 106.8,114.9 103.1,114.7 C104.4,113.9 104.5,110.7 104.2,108.5 Z" id="Path" fill="#2E3E4F" fill-rule="nonzero"></path>
            <circle id="Oval" fill="#2E3E4F" fill-rule="nonzero" cx="107.5" cy="99.7" r="4.3"></circle>
            <g id="Group" stroke-width="1" fill-rule="evenodd" transform="translate(44.000000, 0.000000)">
                <path d="M0.5,66.9 C15.1,-11.4 135.4,-29 164.2,61.8" id="Path" stroke="#ED0677" stroke-width="1.96" stroke-dasharray="8.4,2.1"></path>
                <polygon id="Path" fill="#ED0677" fill-rule="nonzero" points="157.3 59.3 158 58.1 163.9 61.3 166.7 55.1 167.9 55.7 164.6 63.2"></polygon>
            </g>
            <path d="M204.1,178.9 C192.5,178.2 169.5,172.4 168.7,138.5" id="Path" stroke="#D5D8DC" stroke-width="7" stroke-linecap="round" stroke-linejoin="round"></path>
            <path d="M133.4,98.1 C145,98.8 168,104.6 168.8,138.5" id="Path" stroke="#ED0677" stroke-width="7"></path>
            <g id="Group" stroke-width="1" fill-rule="evenodd" transform="translate(176.000000, 119.000000)" fill="#B93499">
                <path d="M0.6,48.7 C0.6,51.2 4.6,53.2 9.4,53.2 L80,53.2 C84.9,53.2 88.9,51.2 88.9,48.7 L0.6,48.7 Z" id="Path" fill-rule="nonzero"></path>
                <path d="M78.7,46.3 L78.7,7.1 C78.7,3.2 75.5,2.84217094e-14 71.6,2.84217094e-14 L15.2,2.84217094e-14 C11.3,2.84217094e-14 8.1,3.2 8.1,7.1 C8.1,7.1 8.2,45.6 8.5,46.3 L78.7,46.3 Z" id="Path" fill-rule="nonzero"></path>
            </g>
            <path d="M188.8,160.9 C188.7,153.4 188.6,137 188.5,126.1 C188.5,124.7 189.7,123.5 191.1,123.5 L247.5,123.5 C249,123.5 250.2,124.7 250.2,126.1 L250.2,160.9 L188.8,160.9 L188.8,160.9 Z" id="Path" fill="#F0F1F3" fill-rule="nonzero"></path>
            <path d="M250.3,129.3 L250.3,126.1 C250.3,124.6 249.1,123.5 247.6,123.5 L191.2,123.5 C189.7,123.5 188.6,124.7 188.6,126.1 C188.6,128.5 188.6,126.6 188.6,129.3 L250.3,129.3 Z" id="Path" fill="#FFFFFF" fill-rule="nonzero"></path>
            <path d="M186.3,172.1 L256,172.1 C260.9,172.1 264.9,170.1 264.9,167.6 L190.8,167.6 L186.3,172.1 Z" id="Path" fill="#F0F1F3" fill-rule="nonzero" style="mix-blend-mode: multiply;"></path>
            <g id="Group" stroke-width="1" fill-rule="evenodd" transform="translate(208.000000, 131.000000)">
                <path d="M10.5,3.3 L23.9,3.3 C24.2,3.3 24.5,3.6 24.5,3.9 L24.5,24.3 C24.5,24.6 24.2,24.9 23.9,24.9 L1.1,24.9 C0.8,24.9 0.5,24.6 0.5,24.3 L0.5,1.5 C0.5,1.2 0.8,0.9 1.1,0.9 L8.5,0.9 C8.7,0.9 8.9,1 9,1.2 L9.9,2.9 C10.1,3.2 10.3,3.3 10.5,3.3 Z" id="Path" fill="#C0C5CA" fill-rule="nonzero"></path>
                <path d="M23.9,24.9 L1.1,24.9 C0.8,24.9 0.5,24.6 0.5,24.3 L0.5,6.9 L24.5,6.9 L24.5,24.3 C24.5,24.6 24.2,24.9 23.9,24.9 Z" id="Path" fill="#FFFFFF" fill-rule="nonzero"></path>
            </g>
            <path d="M247.6,119 L239.4,119 L193.1,165.3 L254.7,165.3 L254.7,126.1 C254.7,122.2 251.5,119 247.6,119 Z" id="Path" fill="#F0F1F3" fill-rule="nonzero" style="mix-blend-mode: multiply;"></path>
            <g id="Group" stroke-width="1" fill-rule="evenodd" transform="translate(198.000000, 72.000000)" stroke="#ED0677" stroke-linecap="round" stroke-linejoin="round">
                <circle id="Oval" stroke-width="1.96" fill="#FFFFFF" fill-rule="nonzero" cx="16.8" cy="16.9" r="16.5"></circle>
                <polyline id="Path" stroke-width="1.96" points="9.7 17.4 15.7 21.9 23.3 10.1"></polyline>
            </g>
            <polygon id="Path" fill="#C0C5CA" fill-rule="nonzero" points="46.3 155.3 44.1 158.9 19.8 158.9 17.6 155.3 0.5 155.3 0.5 172.5 63.4 172.5 63.4 155.3"></polygon>
        </g>
    </g>
</svg>