<svg id="Layer_1" data-name="Layer 1" xmlns="http://www.w3.org/2000/svg" viewBox="0 0 700 770"><defs><style>.cls-1{fill:#fff;fill-opacity:0}.cls-2{fill:#f0f1f3}.cls-3{fill:#a1a8b0}.cls-4{fill:#828b95}.cls-5{fill:#d5d8dc}.cls-6{fill:#ed0677}.cls-19,.cls-7{fill:#2e3e4f}.cls-8{fill:#abb2b9}.cls-9{fill:#b93499}.cls-10{fill:#6100a5}.cls-11{fill:#8241aa}.cls-14{fill:#6d7884}.cls-15{fill:#c0c5ca}.cls-17,.cls-18,.cls-20{fill:none}.cls-17{stroke:#d5d8dc;stroke-linecap:round;stroke-linejoin:round}.cls-17,.cls-18,.cls-19{stroke-width:2.8px}.cls-18{stroke:#ed0677}.cls-18,.cls-19,.cls-20{stroke-miterlimit:10}.cls-19{stroke:#2e3e4f}.cls-20{stroke:#b93499;stroke-width:.84px}</style></defs><path class="cls-1" d="M0 0h700v770H0z"/><ellipse class="cls-2" cx="551.83" cy="494.86" rx="16.69" ry="2.27"/><ellipse class="cls-2" cx="245.92" cy="369.1" rx="16.69" ry="2.27"/><path class="cls-3" d="M239.4 325.9l-2.4-25.35c.21-9.05 6.33-10.59 9.43-10.78 3.1.19 9.22 1.73 9.43 10.78l-2.36 25.35z"/><path class="cls-4" d="M254.77 327.31h-16.64l-2.51-26.71v-.08c.24-10.38 7.59-11.95 10.74-12.14h.18c3.15.19 10.5 1.76 10.74 12.14v.16zm-14.1-2.81h11.55l2.26-24c-.2-7.25-4.45-9.08-8-9.32-3.58.24-7.83 2.07-8 9.32z"/><path class="cls-4" d="M239.4 368a1.4 1.4 0 01-1.4-1.4v-40.69a1.4 1.4 0 112.8 0v40.64a1.4 1.4 0 01-1.4 1.45zM253.5 368a1.4 1.4 0 01-1.4-1.4v-40.69a1.4 1.4 0 112.8 0v40.64a1.4 1.4 0 01-1.4 1.45z"/><path class="cls-4" d="M239.06 322.31l.34 3.59h14.1l.34-3.59h-14.78z"/><path class="cls-4" d="M254.77 327.31h-16.64l-.61-6.41h17.86zm-14.1-2.81h11.55l.08-.79h-11.7z"/><path class="cls-5" d="M264.37 311.41a1.4 1.4 0 01-1.4-1.36c-.36-15.54-10.41-18.47-16.37-18.84a1.4 1.4 0 01-1.31-1.48 1.39 1.39 0 011.49-1.32c5.56.35 18.56 3.13 19 21.57a1.39 1.39 0 01-1.36 1.43z"/><path class="cls-3" d="M264.37 311.41a1.4 1.4 0 01-1.4-1.36c-.36-15.54-10.41-18.47-16.37-18.84a1.4 1.4 0 01.18-2.8c5.57.35 18.57 3.13 19 21.57a1.39 1.39 0 01-1.36 1.43z"/><path class="cls-5" d="M229 325.88a1.39 1.39 0 01-1.4-1.4V310c.42-18.47 13.42-21.25 19-21.6a1.4 1.4 0 01.18 2.8c-6 .37-16 3.3-16.37 18.84v14.43a1.4 1.4 0 01-1.41 1.41z"/><path class="cls-3" d="M227.61 321.7V310c.43-18.44 13.43-21.22 19-21.57a1.4 1.4 0 01.18 2.8c-6 .37-16 3.3-16.37 18.82v11.65z"/><path class="cls-6" d="M250.62 289l-2.55 5.81v30h9.07l.55-32.7a19.91 19.91 0 00-7.07-3.11zM242.75 289a20 20 0 00-7.21 3.14l.55 32.69h9.07v-30.24z"/><path class="cls-1" d="M245.2 318.01h-9.23l.04 2.24h9.19v-2.24zM248.07 318.01v2.24h9.19l.04-2.24h-9.23zM245.2 303.17h-9.48l.04 2.24h9.44v-2.24zM248.07 303.17v2.24h9.44l.03-2.24h-9.47zM237.84 290.7v4.41h2.24v-5.38a20.5 20.5 0 00-2.24.97zM253.12 289.72v5.39h2.24v-4.43a18.63 18.63 0 00-2.24-.96z"/><circle class="cls-7" cx="255.07" cy="271.85" r="1.14"/><circle class="cls-7" cx="255.02" cy="273.63" r="1.14"/><circle class="cls-7" cx="254.74" cy="270.09" r="1.14"/><circle class="cls-7" cx="254.6" cy="275.37" r="1.14"/><circle class="cls-7" cx="238.79" cy="275.37" r="1.14"/><circle class="cls-7" cx="246.69" cy="272.52" r="9.03"/><circle class="cls-7" cx="246.69" cy="264.11" r="1.14"/><circle class="cls-7" cx="244.92" cy="264.3" r="1.14"/><circle class="cls-7" cx="243.22" cy="264.86" r="1.14"/><circle class="cls-7" cx="241.68" cy="265.77" r="1.14"/><circle class="cls-7" cx="240.37" cy="266.98" r="1.14"/><circle class="cls-7" cx="239.34" cy="268.44" r="1.14"/><circle class="cls-7" cx="254.04" cy="268.44" r="1.14"/><circle class="cls-7" cx="238.65" cy="270.09" r="1.14"/><circle class="cls-7" cx="238.31" cy="271.85" r="1.14"/><circle class="cls-7" cx="238.36" cy="273.63" r="1.14"/><circle class="cls-7" cx="248.47" cy="264.3" r="1.14"/><circle class="cls-7" cx="250.16" cy="264.86" r="1.14"/><circle class="cls-7" cx="251.7" cy="265.77" r="1.14"/><circle class="cls-7" cx="253.02" cy="266.98" r="1.14"/><path class="cls-5" d="M238.48 275.77h.11a1.38 1.38 0 000 2.76 8.11 8.11 0 1016.21 0v-10.86h-8.11a8.1 8.1 0 00-8.1 8.1z"/><path class="cls-8" d="M254.8 278.53v-3.86h-4.05a2.87 2.87 0 00-2.88 2.88v2.89h-1.18v6.2a8.11 8.11 0 008.11-8.11z"/><circle class="cls-7" cx="243.32" cy="278.08" r=".8"/><path class="cls-8" d="M243.66 282.11a4.29 4.29 0 006.06 0z"/><circle class="cls-7" cx="250.5" cy="278.08" r=".8"/><path class="cls-7" d="M254.8 267.67a1.5 1.5 0 00-1.19-.3c-1.56.69-2.31-2.57-3.91-3.12h-5.65a8.79 8.79 0 00-5 4.4 7.89 7.89 0 001 1.4 8 8 0 00-1.4 4.55v1.17a2.05 2.05 0 002-2 2.08 2.08 0 011.3-1.92 9 9 0 0012.86-3 1 1 0 00-.01-1.18zM235.52 370.44V369a1.45 1.45 0 111.45 1.45h-1.45"/><path class="cls-7" d="M237 370.44a1.46 1.46 0 01-1-2.48l2.43-2.43a1.45 1.45 0 112.06 2.05L238 370a1.41 1.41 0 01-1 .44z"/><path class="cls-7" d="M237.95 362.5h2.9v3.96h-2.9z"/><path class="cls-3" d="M238.86 369c-.39.47-.52.55-.88.56h-2.46v.89H238c.36 0 .49-.09.88-.56l2-2.53v-.89z"/><path class="cls-7" d="M257.38 370.44V369a1.45 1.45 0 10-1.45 1.45h1.45"/><path class="cls-7" d="M255.93 370.44a1.46 1.46 0 001-2.48l-2.43-2.43a1.45 1.45 0 10-2.06 2.05l2.46 2.42a1.45 1.45 0 001.03.44z"/><path class="cls-7" d="M252.05 362.5h2.9v3.96h-2.9z"/><path class="cls-3" d="M254 369c.39.47.52.55.88.56h2.46v.89h-2.46c-.36 0-.49-.09-.88-.56l-2-2.53v-.89z"/><path class="cls-5" d="M251.75 299.3L249 315.72a1.55 1.55 0 001.27 1.78l9.59 1.63a1.54 1.54 0 001.78-1.26l2.49-14.87a1.56 1.56 0 00-1.26-1.79z"/><path class="cls-1" transform="rotate(9.64 256.54 309.437)" d="M251.18 301.86h10.72v15.15h-10.72z"/><path class="cls-7" d="M259.23 301.44a1.32 1.32 0 10-2.6-.44l-2.34-.4-.19 1.14 7.27 1.24.2-1.14z"/><path class="cls-5" d="M264.37 311.41h-17.18a1.4 1.4 0 010-2.8h17.18a1.4 1.4 0 110 2.8z"/><path class="cls-3" d="M249.9 308.61h14.47a1.4 1.4 0 110 2.8H249.9z"/><ellipse class="cls-2" cx="449.13" cy="369.1" rx="16.69" ry="2.27"/><path class="cls-5" d="M456.7 368a1.4 1.4 0 01-1.4-1.4v-40.69a1.4 1.4 0 112.8 0v40.64a1.4 1.4 0 01-1.4 1.45z"/><path class="cls-5" d="M459.13 370.44a1.46 1.46 0 001-2.48l-2.43-2.43a1.45 1.45 0 00-2.06 2.05l2.44 2.43a1.41 1.41 0 001.05.43z"/><path class="cls-7" d="M459.13 370.44a1.46 1.46 0 001-2.48l-1.66-1.66a1.45 1.45 0 00-2.05 2.05l1.66 1.66a1.41 1.41 0 001.05.43z"/><path class="cls-7" d="M455.25 365.11l2.86 2.85a1.44 1.44 0 002.05 0 1.45 1.45 0 01-2.05 2.05l-2.86-2.85z"/><path class="cls-5" d="M442.6 368a1.4 1.4 0 01-1.4-1.4v-40.69a1.4 1.4 0 112.8 0v40.64a1.4 1.4 0 01-1.4 1.45z"/><path class="cls-5" d="M440.17 370.44a1.46 1.46 0 01-1-2.48l2.44-2.43a1.45 1.45 0 112.05 2.05L441.2 370a1.45 1.45 0 01-1.03.44z"/><path class="cls-7" d="M440.17 370.44a1.46 1.46 0 01-1-2.48l1.67-1.66a1.44 1.44 0 012.05 0 1.46 1.46 0 010 2.05L441.2 370a1.45 1.45 0 01-1.03.44z"/><path class="cls-7" d="M444.05 365.11L441.2 368a1.45 1.45 0 01-2.06 0 1.45 1.45 0 102.06 2l2.85-2.85z"/><path class="cls-6" d="M458 274.67a9.52 9.52 0 00-1.44-4l1.44-3h-8.11a9.71 9.71 0 00-9.62 8.52l-.06 6.29a2.27 2.27 0 002.27 2.26l13.3-.05a2.27 2.27 0 002.27-2.27z"/><path class="cls-5" d="M441.68 275.77h.11a1.38 1.38 0 000 2.76 8.11 8.11 0 1016.21 0v-10.86h-8.11a8.1 8.1 0 00-8.1 8.1z"/><path class="cls-8" d="M458 278.53v-3.86h-4a2.88 2.88 0 00-2.88 2.88v2.89h-1.18v6.2a8.11 8.11 0 008.06-8.11z"/><circle class="cls-7" cx="446.52" cy="278.08" r=".8"/><path class="cls-8" d="M446.86 282.11a4.29 4.29 0 006.06 0z"/><circle class="cls-7" cx="453.71" cy="278.08" r=".8"/><path class="cls-6" d="M453.88 267.67a8.09 8.09 0 004.12 7.05v-7.05z"/><path class="cls-6" d="M449.89 267.67a9.68 9.68 0 00-8.1 4.38v3.72h4a8.1 8.1 0 008.1-8.1z"/><path class="cls-5" d="M432.21 325.88a1.4 1.4 0 01-1.4-1.4V310c.43-18.47 13.43-21.25 19-21.6a1.4 1.4 0 01.17 2.8c-6 .37-16 3.3-16.37 18.84v14.43a1.4 1.4 0 01-1.4 1.41z"/><path class="cls-5" d="M467.58 325.88a1.4 1.4 0 01-1.41-1.4V310c-.35-15.5-10.4-18.43-16.36-18.8a1.4 1.4 0 01.17-2.8c5.57.35 18.57 3.13 19 21.57v14.5a1.4 1.4 0 01-1.4 1.41z"/><path class="cls-9" d="M442.6 325.9l-2.38-25.35c.21-9.05 6.33-10.59 9.43-10.78 3.1.19 9.22 1.73 9.43 10.78l-2.38 25.35z"/><path class="cls-9" d="M458 327.31h-16.67l-2.51-26.71v-.08c.24-10.38 7.6-11.95 10.75-12.14h.17c3.15.19 10.5 1.76 10.74 12.14v.16zm-14.1-2.81h11.55l2.25-24c-.2-7.25-4.45-9.08-8-9.32-3.58.24-7.83 2.07-8 9.32z"/><path class="cls-4" d="M442.26 322.31l.34 3.59h14.1l.34-3.59h-14.78z"/><path class="cls-4" d="M458 327.31h-16.67l-.6-6.41h17.85zm-14.1-2.81h11.55l.07-.79H443.8z"/><path class="cls-9" d="M449.8 288.36c-5.58.35-18.61 3.14-19 21.62v8.13h2.9V310c.3-15.45 10.3-18.37 16.3-18.74a1.45 1.45 0 00-.18-2.9z"/><path class="cls-9" d="M466.12 318.11H469V310c-.43-18.48-13.47-21.27-19-21.62a1.45 1.45 0 10-.18 2.9c13.83.85 16.17 12.12 16.32 18.77z"/><path class="cls-4" d="M455.3 325.91h2.8v36.86h-2.8zM441.2 325.91h2.8v36.86h-2.8z"/><path class="cls-9" d="M440.64 322.54l-.42-22c.21-9.05 6.33-10.59 9.43-10.78 3.1.19 9.22 1.73 9.43 10.78l-.42 22z"/><path class="cls-9" d="M460 323.94h-20.73l-.45-23.37c.24-10.43 7.6-12 10.75-12.19h.17c3.15.19 10.5 1.76 10.74 12.14zm-18-2.81h15.28l.39-20.61c-.17-7.26-4.44-9.1-8-9.34-3.59.24-7.86 2.09-8 9.4z"/><ellipse class="cls-2" cx="347.87" cy="369.1" rx="16.69" ry="2.27"/><path class="cls-5" d="M340.43 275.77h.11a1.38 1.38 0 000 2.76 8.11 8.11 0 1016.21 0v-10.86h-8.11a8.1 8.1 0 00-8.1 8.1z"/><circle class="cls-7" cx="342.54" cy="268.82" r="2.21"/><circle class="cls-7" cx="342.68" cy="272.09" r="3.68"/><circle class="cls-7" cx="351.33" cy="266.86" r="3.68"/><circle class="cls-7" cx="354.83" cy="269.87" r="3.68"/><circle class="cls-7" cx="348.62" cy="268.54" r="4.39"/><path class="cls-8" d="M356.75 278.53v-3.86h-4.05a2.88 2.88 0 00-2.88 2.88v2.89h-1.18v6.2a8.11 8.11 0 008.11-8.11z"/><circle class="cls-7" cx="345.27" cy="278.08" r=".8"/><path class="cls-8" d="M345.61 282.11a4.29 4.29 0 006.06 0z"/><circle class="cls-7" cx="352.45" cy="278.08" r=".8"/><path class="cls-5" d="M331 325.88a1.39 1.39 0 01-1.4-1.4V310c.43-18.47 13.42-21.25 19-21.6a1.4 1.4 0 01.18 2.8c-6 .37-16 3.3-16.37 18.84v14.43a1.4 1.4 0 01-1.41 1.41z"/><path class="cls-6" d="M333.38 296.36c4.37-6.37 11.38-7.71 15.17-7.95a1.42 1.42 0 011.49 1.32 1.4 1.4 0 01-1.31 1.48c-3.29.2-9.34 1.34-13 6.74z"/><path class="cls-5" d="M348.64 291.21a1.4 1.4 0 01-.09-2.8c6-.36 16-3.29 16.37-18.83v-10.47a1.4 1.4 0 112.8 0v10.5c-.42 18.47-13.42 21.26-19 21.6z"/><path class="cls-6" d="M363.9 283.26c-4.37 6.37-11.38 7.72-15.17 7.95a1.4 1.4 0 01-.18-2.8c3.29-.2 9.34-1.34 13-6.73z"/><path class="cls-7" d="M337.47 370.44V369a1.45 1.45 0 111.45 1.45h-1.45"/><path class="cls-5" d="M341.35 368a1.4 1.4 0 01-1.4-1.4v-40.69a1.4 1.4 0 112.8 0v40.64a1.4 1.4 0 01-1.4 1.45z"/><path class="cls-7" d="M338.92 370.44a1.46 1.46 0 01-1-2.48l2.43-2.43a1.45 1.45 0 112.06 2.05l-2.47 2.42a1.41 1.41 0 01-1.02.44z"/><path class="cls-7" d="M339.9 362.5h2.9v3.96h-2.9z"/><path class="cls-3" d="M340.81 369c-.39.47-.52.55-.88.56h-2.46v.89h2.46c.36 0 .49-.09.88-.56l2-2.53v-.89z"/><path class="cls-7" d="M359.33 370.44V369a1.45 1.45 0 10-1.45 1.45h1.45"/><path class="cls-5" d="M355.45 368a1.4 1.4 0 01-1.4-1.4v-40.69a1.4 1.4 0 112.8 0v40.64a1.4 1.4 0 01-1.4 1.45z"/><path class="cls-10" d="M341.35 368a1.4 1.4 0 01-1.4-1.4v-40.69a1.4 1.4 0 112.8 0v40.64a1.4 1.4 0 01-1.4 1.45zM355.45 368a1.4 1.4 0 01-1.4-1.4v-40.69a1.4 1.4 0 112.8 0v40.64a1.4 1.4 0 01-1.4 1.45z"/><path class="cls-7" d="M357.88 370.44a1.46 1.46 0 001-2.48l-2.43-2.43a1.45 1.45 0 00-2.06 2.05l2.43 2.43a1.45 1.45 0 001.06.43z"/><path class="cls-7" d="M354 362.5h2.9v3.96H354z"/><path class="cls-3" d="M356 369c.39.47.52.55.88.56h2.46v.89h-2.46c-.36 0-.49-.09-.88-.56l-2-2.53v-.89z"/><path class="cls-6" d="M341.35 325.9L339 300.55c.21-9.05 6.33-10.59 9.43-10.78 3.1.19 9.22 1.73 9.43 10.78l-2.38 25.35z"/><path class="cls-6" d="M356.72 327.31h-16.64l-2.51-26.71v-.08c.24-10.38 7.59-11.95 10.74-12.14h.18c3.15.19 10.5 1.76 10.74 12.14v.16zm-14.1-2.81h11.56l2.25-24c-.2-7.25-4.45-9.08-8-9.32-3.58.24-7.83 2.07-8 9.32z"/><path class="cls-10" d="M341.01 322.31l.34 3.59h14.1l.34-3.59h-14.78z"/><path class="cls-10" d="M356.72 327.31h-16.64l-.61-6.41h17.86zm-14.1-2.81h11.56l.07-.79h-11.7z"/><path class="cls-7" d="M351.39 288.05a24.83 24.83 0 011.81 8.25h-7.93a40 40 0 00-.22-7.41c-.53.11-1.08.25-1.64.41 1.08 22.26-6.52 35.12-6.52 35.12l5.78 2a5.76 5.76 0 001.88.32h.38a5.61 5.61 0 002.12-.56 5.69 5.69 0 001.76-1.32 6 6 0 001.15-1.94c2.41-6.26 5-19.81 5.16-25.76a24.6 24.6 0 00-2.08-9.5c-.57.15-1.12.28-1.65.39z"/><path class="cls-4" d="M371.26 257.49h-9.87a.28.28 0 010-.56h9.87a.28.28 0 010 .56z"/><path class="cls-5" d="M555.57 494.24a1.4 1.4 0 01-1.4-1.4v-40.65a1.4 1.4 0 012.8 0v40.65a1.4 1.4 0 01-1.4 1.4zM546.72 494.24a1.4 1.4 0 01-1.4-1.4v-40.65a1.4 1.4 0 012.8 0v40.65a1.4 1.4 0 01-1.4 1.4z"/><path class="cls-4" d="M545.32 452.19h2.8v37.91h-2.8zM554.17 452.11h2.8v37.91h-2.8z"/><path class="cls-7" d="M559.45 496.72v-1.45a1.45 1.45 0 10-1.45 1.45h1.45"/><path class="cls-7" d="M558 496.72a1.45 1.45 0 001-2.48l-2.43-2.43a1.45 1.45 0 10-2.06 2.05l2.49 2.44a1.44 1.44 0 001 .42z"/><path class="cls-7" d="M554.12 488.79h2.9v3.96h-2.9z"/><path class="cls-3" d="M556.11 495.27c.39.47.52.55.88.56h2.46v.89H557c-.36 0-.49-.09-.88-.55l-2-2.53v-.9z"/><path class="cls-7" d="M542.83 496.72v-1.45a1.45 1.45 0 111.45 1.45h-1.45"/><path class="cls-7" d="M544.28 496.72a1.44 1.44 0 01-1-.42 1.45 1.45 0 010-2.06l2.43-2.43a1.45 1.45 0 012 2.05l-2.43 2.44a1.44 1.44 0 01-1 .42z"/><path class="cls-7" d="M545.26 488.79h2.9v3.96h-2.9z"/><path class="cls-3" d="M546.17 495.27c-.38.47-.51.55-.88.56h-2.46v.89h2.46c.37 0 .5-.09.88-.55l2-2.53v-.9z"/><path class="cls-7" d="M546.72 452.19a40.64 40.64 0 011.58-11.6h5.7a40.62 40.62 0 011.59 11.6z"/><path class="cls-4" d="M557 453.59h-11.67v-1.39a41.53 41.53 0 011.64-12l.28-1H555l.29 1a41.88 41.88 0 011.64 12zm-8.83-2.8h6a39.24 39.24 0 00-1.25-8.8h-3.54a38.66 38.66 0 00-1.25 8.8z"/><path class="cls-7" d="M549.56 393.88a9.7 9.7 0 00-9.7 9.69v11.29a3.28 3.28 0 01-2.83 3.26h18.17a4.05 4.05 0 004-4.05v-20.19z"/><path class="cls-7" d="M552.93 393.88v22.61a1.64 1.64 0 01-1.41 1.63h3.68a4.05 4.05 0 004-4.05v-20.19z"/><path class="cls-5" d="M568.83 452.09a1.4 1.4 0 01-1.4-1.4v-14.47c-.36-15.43-10.32-18.41-16.29-18.8-6 .39-15.92 3.37-16.28 18.83v14.44a1.4 1.4 0 01-2.8 0v-14.47c.43-18.47 13.43-21.26 19-21.6h.17c5.57.34 18.57 3.13 19 21.57v14.5a1.4 1.4 0 01-1.4 1.4z"/><path class="cls-9" d="M534.86 448.76h-2.8v-12.54c.43-18.47 13.43-21.26 19-21.6l1.39-.08.18 2.79-1.4.09c-6 .36-16 3.3-16.37 18.83z"/><path class="cls-9" d="M570.23 448.76h-2.8v-12.54c-.36-15.5-10.41-18.44-16.37-18.8l-1.4-.09.17-2.79 1.4.08c5.57.34 18.57 3.13 19 21.57z"/><path class="cls-11" d="M543.85 452.27l-2.38-25.51c.21-9.05 6.33-10.59 9.43-10.78 3.1.19 9.22 1.73 9.43 10.78L558 452.27z"/><path class="cls-9" d="M559.23 453.67h-16.65l-2.51-26.87v-.08c.24-10.37 7.6-11.94 10.75-12.14h.18c3.15.2 10.5 1.77 10.74 12.14v.17z"/><path class="cls-11" d="M548.22 414.8h5.85v2.45h-5.85z"/><path class="cls-9" d="M546.82 413.4h8.65v5.25h-8.65z"/><path class="cls-5" d="M542.93 402h.07a1.38 1.38 0 100 2.76 8.11 8.11 0 0016.21 0v-10.88h-8.11A8.1 8.1 0 00543 402z"/><path class="cls-8" d="M559.25 401.46v-.59h-4a2.92 2.92 0 00-1.67.54H559a1 1 0 01.25.05zM554.89 406.59a2.72 2.72 0 01-1.84-.85l-.73-.86v1.76h-1.18v1.68h-3a4.31 4.31 0 003 1.25v3.27a8.11 8.11 0 007.89-6.25h-4.14z"/><path class="cls-3" d="M559.25 401.46v3.28a8.08 8.08 0 01-.22 1.85 1.13 1.13 0 001.09-1.12v-2.94a1.11 1.11 0 00-.87-1.07z"/><path d="M553.53 401.41h-9.37a1.12 1.12 0 00-1.12 1.12v2.94a1.12 1.12 0 001.12 1.12h4.11a2.76 2.76 0 001.84-.85l.75-.88a.91.91 0 011.44 0v-1.13a2.88 2.88 0 011.23-2.32z" fill="#8c959e"/><path d="M559.25 401.46a1 1 0 00-.25 0h-5.47a2.88 2.88 0 00-1.21 2.34v1.13l.73.86a2.72 2.72 0 001.84.85H559a8.08 8.08 0 00.22-1.85z" fill="#77828d"/><path class="cls-9" d="M564.75 399.38l-4.67-1.45a9.33 9.33 0 00-1.42-5v-3.68a.79.79 0 00-.78-.79h-7.22a9.43 9.43 0 00-9.43 9.43 1.46 1.46 0 000 2.91h23.52a.73.73 0 000-1.46z"/><ellipse class="cls-2" cx="145.35" cy="368.61" rx="16.69" ry="2.27"/><circle class="cls-7" cx="147.4" cy="261.98" r="1.44"/><circle class="cls-7" cx="149.54" cy="262.7" r="1.44"/><circle class="cls-7" cx="145.16" cy="261.73" r="1.44"/><circle class="cls-7" cx="151.48" cy="263.86" r="1.44"/><circle class="cls-7" cx="153.13" cy="265.41" r="1.44"/><circle class="cls-7" cx="153.13" cy="265.41" r="1.44"/><circle class="cls-7" cx="154.42" cy="267.26" r="1.44"/><circle class="cls-7" cx="155.28" cy="269.35" r="1.44"/><circle class="cls-7" cx="155.28" cy="269.35" r="1.44"/><circle class="cls-7" cx="155.69" cy="271.57" r="1.44"/><circle class="cls-7" cx="155.61" cy="273.83" r="1.44"/><circle class="cls-7" cx="155.61" cy="273.83" r="1.44"/><circle class="cls-7" cx="155.06" cy="276.02" r="1.44"/><circle class="cls-7" cx="154.06" cy="278.05" r="1.44"/><circle class="cls-7" cx="154.06" cy="278.05" r="1.44"/><circle class="cls-7" cx="152.65" cy="279.82" r="1.44"/><circle class="cls-7" cx="150.91" cy="281.25" r="1.44"/><circle class="cls-7" cx="150.91" cy="281.25" r="1.44"/><circle class="cls-7" cx="148.9" cy="282.28" r="1.44"/><circle class="cls-7" cx="146.71" cy="282.86" r="1.44"/><circle class="cls-7" cx="145.58" cy="282.97" r="1.44"/><circle class="cls-7" cx="145.09" cy="272.35" r="11.42"/><circle class="cls-7" cx="134.93" cy="269.22" r="1.44"/><circle class="cls-7" cx="134.5" cy="271.44" r="1.44"/><circle class="cls-7" cx="134.55" cy="273.7" r="1.44"/><circle class="cls-7" cx="135.07" cy="275.89" r="1.44"/><circle class="cls-7" cx="136.04" cy="277.93" r="1.44"/><circle class="cls-7" cx="137.43" cy="279.72" r="1.44"/><circle class="cls-7" cx="142.91" cy="261.95" r="1.44"/><circle class="cls-7" cx="139.16" cy="281.17" r="1.44"/><circle class="cls-7" cx="141.15" cy="282.23" r="1.44"/><circle class="cls-7" cx="143.33" cy="282.83" r="1.44"/><circle class="cls-7" cx="135.82" cy="267.14" r="1.44"/><circle class="cls-7" cx="137.14" cy="265.3" r="1.44"/><circle class="cls-7" cx="138.81" cy="263.78" r="1.44"/><circle class="cls-7" cx="140.76" cy="262.65" r="1.44"/><path class="cls-5" d="M136.88 275.77h.1a1.38 1.38 0 000 2.76 8.11 8.11 0 1016.21 0v-10.86h-8.1a8.11 8.11 0 00-8.11 8.1z"/><path class="cls-8" d="M153.19 278.53v-3.86h-4.05a2.88 2.88 0 00-2.88 2.88v2.89h-1.17v6.2a8.1 8.1 0 008.1-8.11z"/><circle class="cls-7" cx="141.72" cy="278.08" r=".8"/><path class="cls-8" d="M142.06 282.11a4.29 4.29 0 006.06 0z"/><circle class="cls-7" cx="148.9" cy="278.08" r=".8"/><path class="cls-9" d="M145.09 270.92a9.21 9.21 0 018.1 4.82v-8.07h-8.1a8.11 8.11 0 00-8.11 8.07 9.24 9.24 0 018.11-4.82z"/><path class="cls-5" d="M140.66 367.67a1.4 1.4 0 01-1.4-1.4V326a1.4 1.4 0 112.8 0v40.29a1.4 1.4 0 01-1.4 1.38zM149.52 367.6a1.4 1.4 0 01-1.4-1.4v-40.29a1.4 1.4 0 112.8 0v40.29a1.4 1.4 0 01-1.4 1.4z"/><path class="cls-5" d="M137.17 370c-.57-.57-.53-.93 0-1.5l2.43-2.43a1.45 1.45 0 012.06 0c.56.57-.65 1.18-1.22 1.75.03-.03-2.99 2.44-3.27 2.18z"/><path class="cls-7" d="M142.07 368.21v-2.91a2.37 2.37 0 01-.83 1.37 11 11 0 01-2.45 2 2.51 2.51 0 01-1.58-.16l-1.53 1.17c.29.74 1.95.75 2.69.46 2.71-1.05 1.41-2 3.24-2.67l.06.78z"/><path class="cls-5" d="M153 369.9c.57-.57.53-.94 0-1.5l-2.46-2.4a1.46 1.46 0 00-2 0c-.57.57.65 1.19 1.21 1.75-.05-.04 2.98 2.43 3.25 2.15z"/><path class="cls-7" d="M148.11 368.13v-2.9a2.36 2.36 0 00.82 1.36 11.18 11.18 0 002.45 2 2.6 2.6 0 001.59-.15l1.53 1.16c-.29.75-1.95.75-2.7.46-2.7-1-1.4-2-3.23-2.66l-.06.77z"/><path class="cls-5" d="M162.77 325.88a1.4 1.4 0 01-1.4-1.4V310c-.36-15.42-10.31-18.41-16.28-18.8-6 .39-15.93 3.37-16.28 18.84v14.43a1.4 1.4 0 11-2.8 0V310c.42-18.47 13.42-21.25 19-21.6h.17c5.57.35 18.57 3.13 19 21.57v14.5a1.39 1.39 0 01-1.41 1.41z"/><path class="cls-2" d="M161.37 320.51V310c-.36-15.45-10.31-18.43-16.28-18.82-6 .39-15.92 3.37-16.28 18.82v10.48H126V310c.42-18.44 13.42-21.22 19-21.57h.17c5.57.35 18.57 3.13 19 21.57v10.53z"/><path class="cls-9" d="M151.9 340.63h-13.63V326c0-4 1.5-8 2.64-12l.29-1h7.8l.29 1c1.14 4 2.67 7.95 2.64 12z"/><ellipse class="cls-2" cx="551.75" cy="241.61" rx="16.69" ry="2.27"/><path class="cls-5" d="M543.28 148.77h.11a1.38 1.38 0 000 2.76 8.11 8.11 0 1016.21 0v-10.86h-8.11a8.1 8.1 0 00-8.1 8.1z"/><circle class="cls-7" cx="550.12" cy="140.61" r="6.49"/><path class="cls-8" d="M559.6 151.53v-3.87h-4.05a2.88 2.88 0 00-2.88 2.88v2.89h-1.18v6.21a8.11 8.11 0 008.11-8.11z"/><path class="cls-8" d="M548.46 155.11a4.29 4.29 0 006.06 0z"/><circle class="cls-7" cx="548.12" cy="151.08" r=".8"/><circle class="cls-7" cx="555.31" cy="151.08" r=".8"/><path class="cls-5" d="M545 196.72a1.4 1.4 0 01-1-.41l-6-6a15.14 15.14 0 010-21.38l7.13-7.13a1.4 1.4 0 012 2l-7.13 7.13a12.34 12.34 0 000 17.42l6 6a1.4 1.4 0 01-1 2.39z"/><path class="cls-6" d="M538 168.91l7.13-7.13a1.45 1.45 0 012.05 2.06l-7.11 7.16z"/><path class="cls-5" d="M561.29 241h-4.77a1.4 1.4 0 01-1.4-1.4V199a1.4 1.4 0 012.8 0v39.25h3.37a1.4 1.4 0 010 2.8z"/><path class="cls-7" d="M561.29 238.18a1.45 1.45 0 01-1.46 1.45h-4.76v1.45h6.22a1.45 1.45 0 100-2.9z"/><path class="cls-5" d="M552.13 241h-4.77a1.4 1.4 0 01-1.4-1.4V199a1.4 1.4 0 112.8 0v39.25h3.37a1.4 1.4 0 010 2.8z"/><path class="cls-7" d="M552.13 238.18a1.45 1.45 0 01-1.46 1.45h-4.76v1.45h6.22a1.45 1.45 0 100-2.9z"/><path class="cls-9" d="M555.12 197.58h2.8v37.89h-2.8zM545.96 197.58h2.8v37.89h-2.8z"/><path class="cls-6" d="M547.36 199a41 41 0 011.59-11.6h6a40.64 40.64 0 011.58 11.6z"/><path class="cls-6" d="M556.52 200.38h-9.16A1.41 1.41 0 01546 199a42.28 42.28 0 011.64-12 1.39 1.39 0 011.35-1h6a1.39 1.39 0 011.34 1 41.92 41.92 0 011.64 12 1.4 1.4 0 01-1.45 1.38zm-7.74-2.8h6.33a39.24 39.24 0 00-1.25-8.8H550a38.66 38.66 0 00-1.22 8.8z"/><path class="cls-6" d="M554.94 187.38c.77-4.47 3.74-13.41 3.73-16.46 0-4.48-3-8.11-7.47-8.11h-5l2.8 24.57h6"/><path class="cls-6" d="M554.94 188.78h-6a1.4 1.4 0 01-1.39-1.24L544.78 163a1.39 1.39 0 01.35-1.09 1.37 1.37 0 011-.47h5c5 0 8.87 4.09 8.87 9.51 0 2-1 5.72-2.05 9.69-.69 2.57-1.39 5.22-1.7 7a1.4 1.4 0 01-1.31 1.14zM550.2 186h3.58c.37-1.74.94-3.87 1.53-6.09.92-3.45 2-7.36 2-9 0-3.89-2.56-6.71-6.07-6.71h-3.46z"/><path class="cls-9" d="M547.5 195.34c-.1 1.16-.15 2.38-.14 3.64h9.16a35.82 35.82 0 00-.13-3.64z"/><path class="cls-9" d="M557.91 200.38H546v-1.39c0-1.24 0-2.51.14-3.76l.1-1.29h11.48l.11 1.29c.1 1.26.15 2.53.13 3.76zm-9.13-2.8h6.33v-.84h-6.27q-.06.42-.06.84z"/><path class="cls-7" d="M551.49 140.67a8.1 8.1 0 00-8.1 8.1h3.85l1-2.47 1 2.47h10.36v-8.1z"/><path class="cls-5" d="M557.31 164.21h-10.08a1.4 1.4 0 110-2.8h10.08a12.34 12.34 0 0012.32-12.32v-8.45a1.4 1.4 0 012.8 0v8.45a15.13 15.13 0 01-15.12 15.12z"/><path class="cls-6" d="M559.69 164.26h-12.46a1.45 1.45 0 010-2.9h12.46z"/><ellipse class="cls-2" cx="450.4" cy="242.18" rx="16.69" ry="2.27"/><path class="cls-7" d="M441.58 243.51v-1.45a1.45 1.45 0 111.45 1.45h-1.45"/><path class="cls-5" d="M445.46 241a1.4 1.4 0 01-1.4-1.4V199a1.4 1.4 0 012.8 0v40.65a1.4 1.4 0 01-1.4 1.35z"/><path class="cls-9" d="M443 243.51a1.44 1.44 0 01-1-.42 1.45 1.45 0 010-2.06l2.43-2.43a1.45 1.45 0 112.05 2.05l-2.43 2.44a1.46 1.46 0 01-1.05.42z"/><path class="cls-9" d="M444.01 235.58h2.9v3.96h-2.9z"/><path class="cls-3" d="M444.92 242.07c-.38.46-.51.54-.88.55h-2.46v.89H444c.37 0 .5-.09.88-.55l2-2.53v-.9z"/><path class="cls-7" d="M458.2 243.51v-1.45a1.45 1.45 0 10-1.45 1.45h1.45"/><path class="cls-5" d="M454.32 241a1.4 1.4 0 01-1.4-1.4V199a1.4 1.4 0 012.8 0v40.65a1.4 1.4 0 01-1.4 1.35z"/><path class="cls-9" d="M456.75 243.51a1.48 1.48 0 001-.42 1.45 1.45 0 000-2.06l-2.43-2.43a1.45 1.45 0 00-2.06 2.05l2.44 2.44a1.44 1.44 0 001.05.42z"/><path class="cls-9" d="M452.87 235.58h2.9v3.96h-2.9z"/><path class="cls-3" d="M454.86 242.07c.39.46.52.54.88.55h2.46v.89h-2.46c-.36 0-.49-.09-.88-.55l-2-2.53v-.9z"/><path class="cls-2" d="M469.11 132.46a1.43 1.43 0 01-1-.41l-4.66-4.66a.39.39 0 01-.1-.25.35.35 0 01.1-.24l1.47-1.48a.39.39 0 01.25-.1.35.35 0 01.24.1l4.67 4.67a1.39 1.39 0 01-1 2.37zm-4.91-5.32l4.41 4.42a.72.72 0 00.5.2.68.68 0 00.69-.69.68.68 0 00-.2-.49l-4.42-4.42z"/><path class="cls-2" d="M462 127.67a5.84 5.84 0 01-1-.1 8.52 8.52 0 01-6.35-6.35 3.67 3.67 0 014.57-4.57 8 8 0 014.08 2.27 8 8 0 012.27 4.08 4 4 0 01-.92 3.65 3.65 3.65 0 01-2.65 1.02zm-3.78-10.42a2.93 2.93 0 00-2.16.81 3.26 3.26 0 00-.73 3 7.84 7.84 0 005.79 5.8 3 3 0 003.77-3.76 7.43 7.43 0 00-2.08-3.72 7.28 7.28 0 00-3.72-2.08 4.4 4.4 0 00-.83-.05z"/><path class="cls-2" d="M463.73 127c-1.29 0-3.37-1.25-5.3-3.17a14.12 14.12 0 01-2.67-3.56c-.62-1.26-.67-2.19-.15-2.7 1.11-1.12 4.05.62 6.25 2.82s3.94 5.14 2.83 6.26a1.3 1.3 0 01-1 .35zm-7.17-9.09a.61.61 0 00-.46.15c-.27.27-.16 1 .28 1.9a13.45 13.45 0 002.54 3.38c1.75 1.74 3.73 3 4.81 3a.69.69 0 00.47-.14c.51-.51-.32-2.77-2.83-5.28-2.04-2.08-3.91-3.01-4.81-3.01z"/><path class="cls-2" transform="rotate(-45 460.15 122.11)" d="M459.8 116.03h.69v12.15h-.69z"/><path class="cls-5" d="M449.89 164.21a1.4 1.4 0 01-.08-2.8c6-.36 16-3.3 16.37-18.83v-14.44a1.41 1.41 0 012.81 0v14.47c-.43 18.47-13.43 21.26-19 21.6zM454.32 200.38h-8.86a1.41 1.41 0 01-1.4-1.39 42.28 42.28 0 011.64-12 1.4 1.4 0 011.35-1h5.68a1.39 1.39 0 011.35 1 41.88 41.88 0 011.64 12 1.4 1.4 0 01-1.4 1.39zm-7.44-2.8h6a39.24 39.24 0 00-1.25-8.8h-3.54a38.66 38.66 0 00-1.21 8.8z"/><path class="cls-7" d="M445.6 195.34c-.1 1.16-.15 2.38-.14 3.64h8.86c0-1.26 0-2.48-.13-3.64z"/><path class="cls-7" d="M455.71 200.38h-11.63v-1.39c0-1.24 0-2.51.14-3.76l.11-1.29h11.17l.1 1.29c.11 1.26.15 2.52.14 3.76zm-8.83-2.8h6v-.84h-6c.02.26 0 .56 0 .84z"/><path class="cls-7" d="M444.06 198.98h2.8v39.5h-2.8zM452.92 198.9h2.8v39.5h-2.8z"/><path class="cls-5" d="M452.73 188.78h-5.68a1.4 1.4 0 01-1.3-.89c-.5-1.27-4.91-12.55-4.8-16.5.05-2.21.84-9.48 8.86-10h.19c8 .5 8.81 7.77 8.86 10 .11 3.94-4.3 15.22-4.81 16.49a1.39 1.39 0 01-1.32.9zM448 186h3.77c1.47-3.84 4.33-11.87 4.26-14.51-.13-5.64-3.4-7.06-6.15-7.26-2.75.2-6 1.62-6.14 7.25-.07 2.63 2.79 10.66 4.26 14.52z"/><path class="cls-2" d="M458.84 171.4c0-2.22-.85-9.49-8.86-10h-.17c-8 .5-8.81 7.77-8.86 9.93l-1.67 26.49h20.5z"/><path class="cls-5" d="M441.68 148.77h.11a1.38 1.38 0 000 2.76 8.11 8.11 0 1016.21 0v-10.86h-8.11a8.1 8.1 0 00-8.1 8.1z"/><path class="cls-8" d="M458 151.53v-3.87h-4a2.88 2.88 0 00-2.88 2.88v2.89h-1.18v6.21a8.11 8.11 0 008.06-8.11z"/><path class="cls-8" d="M446.86 155.11a4.29 4.29 0 006.06 0z"/><circle class="cls-7" cx="446.52" cy="151.08" r=".8"/><circle class="cls-7" cx="453.71" cy="151.08" r=".8"/><path class="cls-7" d="M449.89 140.67a8.1 8.1 0 00-8.1 8.1h3.85l1-2.47 1 2.47H458v-8.1z"/><path class="cls-2" d="M458 130a4.57 4.57 0 00-2.18.54 6.09 6.09 0 00-11.5 0 4.61 4.61 0 10-2.18 8.68v7.16H458v-7.16a4.55 4.55 0 004.61-4.61A4.6 4.6 0 00458 130z"/><path class="cls-5" d="M432.21 198.88a1.4 1.4 0 01-1.4-1.4V183c.43-18.47 13.43-21.25 19-21.6a1.4 1.4 0 01.17 2.8c-6 .36-16 3.3-16.37 18.84v14.43a1.4 1.4 0 01-1.4 1.41z"/><path class="cls-2" d="M433.61 183.05l-2.8-.07c.43-18.44 13.43-21.22 19-21.57l.17 2.8c-5.98.36-15.98 3.3-16.37 18.84z"/><circle class="cls-6" cx="451.73" cy="167.59" r=".8"/><circle class="cls-6" cx="446.87" cy="167.59" r=".8"/><circle class="cls-6" cx="451.73" cy="174.96" r=".8"/><circle class="cls-6" cx="446.87" cy="174.96" r=".8"/><circle class="cls-6" cx="451.73" cy="182.33" r=".8"/><circle class="cls-6" cx="446.87" cy="182.33" r=".8"/><circle class="cls-6" cx="451.73" cy="189.71" r=".8"/><circle class="cls-6" cx="446.87" cy="189.71" r=".8"/><path class="cls-2" d="M450 164.21l-.17-2.8c5.95-.36 16-3.3 16.37-18.83l2.79.06c-.44 18.44-13.44 21.23-18.99 21.57z"/><path class="cls-1" d="M446.17 163.91l-.37-1.91-.54.14.45 2.31 7.79.42v32.91h.56v-33.44z"/><ellipse class="cls-2" cx="158.73" cy="489.59" rx="17.46" ry=".79"/><ellipse class="cls-2" cx="144.53" cy="494.82" rx="16.69" ry="2.27"/><path class="cls-5" d="M136.88 402h.1a1.38 1.38 0 000 2.76 8.11 8.11 0 0016.21 0v-10.88h-8.1A8.11 8.11 0 00137 402z"/><path class="cls-8" d="M153.19 404.74v-3.87h-4.05a2.88 2.88 0 00-2.88 2.88v2.89h-1.17v6.2a8.09 8.09 0 008.1-8.1z"/><circle class="cls-7" cx="141.72" cy="404.29" r=".8"/><path class="cls-8" d="M142.06 408.32a4.29 4.29 0 006.06 0z"/><circle class="cls-7" cx="148.9" cy="404.29" r=".8"/><path class="cls-14" d="M139 405.83a1.09 1.09 0 00-1.09-1.09H137a8.11 8.11 0 0016.21 0h-.91a1.09 1.09 0 00-1.09 1.09 1.11 1.11 0 01-1.07.88h-10a1.1 1.1 0 01-1.07-.88z"/><path class="cls-5" d="M142.06 408.32a4.29 4.29 0 006.06 0z"/><path class="cls-7" d="M146.89 489.72a.67.67 0 01-.67-.67v-5.27a.67.67 0 111.34 0v5.27a.67.67 0 01-.67.67zM144.66 489.72a.67.67 0 01-.67-.67v-5.27a.67.67 0 111.34 0v5.27a.67.67 0 01-.67.67zM172.17 489.72a.67.67 0 01-.67-.67v-5.27a.67.67 0 111.34 0v5.27a.67.67 0 01-.67.67zM169.93 489.72a.67.67 0 01-.67-.67v-5.27a.67.67 0 011.34 0v5.27a.67.67 0 01-.67.67z"/><path class="cls-7" d="M146.2 480.86h25.36a2.92 2.92 0 010 5.84H146.2a2.92 2.92 0 010-5.84z"/><path class="cls-7" d="M150.57 482.81h-6.45a3.3 3.3 0 01-3.3-3.3.67.67 0 111.34 0 2 2 0 002 2h6.45a.67.67 0 010 1.34zM181 477.28a4.63 4.63 0 01-4.64 4.64 4.73 4.73 0 01-.93-.09 4.64 4.64 0 01-3.71-4.55z"/><circle class="cls-7" cx="180.22" cy="477.28" r=".76"/><circle class="cls-1" cx="176.22" cy="478.45" r=".57"/><path class="cls-7" d="M176.34 481.92h-1.12a.74.74 0 00-.74.74v1.12l-1.87-1v-1.62l.81-1 2.91.22v1.47"/><path class="cls-5" d="M171.73 483.09a3.1 3.1 0 003.09-3.09v-1.69a1 1 0 00-1-1h-2.06a1 1 0 00-1 1v3.75a1 1 0 001 1"/><path class="cls-7" d="M133.91 496.65v-1.46a1.46 1.46 0 111.46 1.46h-1.46"/><path class="cls-9" d="M136.4 452.11h2.8v40.65h-2.8z"/><path class="cls-7" d="M135.37 496.64a1.46 1.46 0 01-1-.42 1.44 1.44 0 010-2.05l2.43-2.44a1.46 1.46 0 112.06 2.06l-2.44 2.43a1.44 1.44 0 01-1.05.42z"/><path class="cls-7" d="M136.35 490.3h2.9v2.37h-2.9z"/><path class="cls-3" d="M137.26 495.2c-.39.47-.52.54-.88.55h-2.47v.9h2.47c.36 0 .49-.09.88-.56l2-2.53v-.89z"/><path class="cls-7" d="M155.78 496.65v-1.46a1.45 1.45 0 10-1.45 1.46h1.45"/><path class="cls-9" d="M151.9 452.11v40.65M150.5 452.11h2.8v40.65h-2.8zM136.4 452.11h2.8v18.73h-2.8z"/><path class="cls-9" d="M150.5 452.11h2.8v18.73h-2.8z"/><path class="cls-7" d="M154.33 496.64a1.48 1.48 0 001-.42 1.46 1.46 0 000-2.05l-2.44-2.44a1.45 1.45 0 10-2 2.06l2.43 2.43a1.48 1.48 0 001.01.42z"/><path class="cls-7" d="M150.45 490.3h2.9v2.37h-2.9z"/><path class="cls-3" d="M152.44 495.2c.38.47.52.54.88.55h2.46v.9h-2.46c-.36 0-.5-.09-.88-.56l-2-2.53v-.89z"/><path class="cls-5" d="M127.41 452.09a1.4 1.4 0 01-1.4-1.4v-14.47c.42-18.47 13.42-21.26 19-21.6a1.4 1.4 0 11.18 2.8c-6 .36-16 3.3-16.37 18.83v14.44a1.4 1.4 0 01-1.41 1.4z"/><path class="cls-6" d="M132 424.33l-2.33-1.55c4.35-6.55 11.46-7.92 15.31-8.16l.18 2.8c-3.32.2-9.46 1.37-13.16 6.91z"/><path class="cls-5" d="M162.77 452.09a1.4 1.4 0 01-1.4-1.4v-14.47c-.37-15.5-10.37-18.44-16.37-18.8a1.4 1.4 0 01.18-2.8c5.56.34 18.56 3.13 19 21.57v14.5a1.4 1.4 0 01-1.41 1.4z"/><path class="cls-6" d="M158.16 424.33c-3.69-5.54-9.83-6.71-13.16-6.91l.18-2.8c3.85.24 10.95 1.61 15.31 8.16z"/><path class="cls-6" d="M137.8 452.11l-2.38-25.35c.21-9.05 6.33-10.59 9.43-10.78 3.1.19 9.22 1.73 9.43 10.78l-2.38 25.35z"/><path class="cls-6" d="M153.17 453.51h-16.65l-2.5-26.7v-.09c.24-10.37 7.59-11.94 10.74-12.14h.17c3.15.2 10.51 1.77 10.75 12.14v.17zm-14.1-2.8h11.55l2.26-24c-.2-7.25-4.45-9.08-8-9.33-3.58.25-7.83 2.08-8 9.33z"/><path class="cls-9" d="M137.46 448.51l.34 3.6h14.1l.34-3.6h-14.78z"/><path class="cls-9" d="M153.17 453.51h-16.65l-.6-6.4h17.85zm-14.1-2.8h11.55l.08-.8H139z"/><path class="cls-7" d="M153 442.26v15.51h2.37a4.05 4.05 0 004.06-4v-11.51z"/><path class="cls-7" d="M156.28 446.26a1.39 1.39 0 01-1.17-.64l-18.3-28.57a1.4 1.4 0 112.36-1.5l18.29 28.56a1.39 1.39 0 01-1.18 2.15z"/><ellipse class="cls-2" cx="450.4" cy="622.39" rx="16.69" ry="2.27"/><path class="cls-7" d="M441.58 623.72v-1.45a1.45 1.45 0 111.45 1.45h-1.45"/><path class="cls-5" d="M445.46 621.24a1.4 1.4 0 01-1.4-1.4v-40.65a1.4 1.4 0 112.8 0v40.65a1.4 1.4 0 01-1.4 1.4z"/><path class="cls-9" d="M443 623.72a1.44 1.44 0 01-1-.42 1.45 1.45 0 010-2.06l2.43-2.43a1.46 1.46 0 012.05 0 1.44 1.44 0 010 2.05l-2.43 2.44a1.46 1.46 0 01-1.05.42z"/><path class="cls-9" d="M444.01 615.79h2.9v3.96h-2.9z"/><path class="cls-3" d="M444.92 622.28c-.38.46-.51.54-.88.55h-2.46v.89H444c.37 0 .5-.09.88-.55l2-2.53v-.89z"/><path class="cls-7" d="M458.2 623.72v-1.45a1.45 1.45 0 10-1.45 1.45h1.45"/><path class="cls-5" d="M454.32 621.24a1.4 1.4 0 01-1.4-1.4v-40.65a1.4 1.4 0 112.8 0v40.65a1.4 1.4 0 01-1.4 1.4z"/><path class="cls-9" d="M456.75 623.72a1.48 1.48 0 001-.42 1.45 1.45 0 000-2.06l-2.43-2.43a1.45 1.45 0 00-2.06 2.05l2.44 2.44a1.44 1.44 0 001.05.42z"/><path class="cls-9" d="M452.87 615.79h2.9v3.96h-2.9z"/><path class="cls-3" d="M454.86 622.28c.39.46.52.54.88.55h2.46v.89h-2.46c-.36 0-.49-.09-.88-.55l-2-2.53v-.89z"/><path class="cls-14" d="M445.46 579.19a41 41 0 011.59-11.6h5.68a40.62 40.62 0 011.59 11.6z"/><path class="cls-14" d="M454.32 580.59h-8.86a1.41 1.41 0 01-1.4-1.39 41.94 41.94 0 011.65-12 1.39 1.39 0 011.34-1h5.68a1.39 1.39 0 011.35 1 41.92 41.92 0 011.64 12 1.4 1.4 0 01-1.4 1.39zm-7.44-2.8h6a39.24 39.24 0 00-1.25-8.8h-3.54a38.66 38.66 0 00-1.21 8.8z"/><path class="cls-14" d="M445.6 575.55c-.1 1.16-.15 2.38-.14 3.64h8.86c0-1.26 0-2.48-.13-3.64z"/><path class="cls-14" d="M455.71 580.59h-11.63v-1.39c0-1.24 0-2.5.14-3.76l.11-1.29h11.17l.1 1.29c.11 1.25.15 2.52.14 3.76zm-8.83-2.8h6v-.84h-6c.02.28 0 .56 0 .84z"/><path class="cls-5" d="M467.58 579.09a1.4 1.4 0 01-1.4-1.4v-14.47c-.36-15.43-10.32-18.41-16.29-18.8-6 .39-15.92 3.37-16.28 18.83v14.44a1.4 1.4 0 01-2.8 0v-14.47c.43-18.47 13.43-21.25 19-21.6h.19c5.57.35 18.57 3.13 19 21.57v14.5a1.4 1.4 0 01-1.42 1.4z"/><path class="cls-6" d="M466.18 573.72v-10.48c-.37-15.45-10.32-18.43-16.29-18.82-6 .39-15.91 3.37-16.28 18.82v10.48h-2.8v-10.53c.43-18.44 13.43-21.22 19-21.57h.19c5.57.35 18.57 3.13 19 21.57v10.53z"/><circle class="cls-7" cx="441.88" cy="526.65" r="4.19"/><circle class="cls-7" cx="440.13" cy="532.48" r="3.36"/><circle class="cls-7" cx="439.85" cy="537.43" r="2.58"/><circle class="cls-7" cx="440.14" cy="541.25" r="1.81"/><path class="cls-5" d="M441.68 529h.11a1.38 1.38 0 100 2.76 8.11 8.11 0 1016.21 0v-10.88h-8.11a8.1 8.1 0 00-8.1 8.1z"/><path class="cls-8" d="M458 531.74v-3.86h-4a2.87 2.87 0 00-2.88 2.87v2.89h-1.18v6.21a8.11 8.11 0 008.06-8.11z"/><circle class="cls-7" cx="446.52" cy="531.29" r=".8"/><path class="cls-8" d="M446.86 535.32a4.29 4.29 0 006.06 0z"/><circle class="cls-7" cx="453.71" cy="531.29" r=".8"/><path class="cls-7" d="M449.89 520.88a8.1 8.1 0 00-8.1 8.1c2.08.56 5.16 0 8.14-.73 4.09-1.07 7.7-3.24 8.07-7.37z"/><path class="cls-7" d="M452.05 520.88V525a5.9 5.9 0 015.95 6v-10.12z"/><path class="cls-6" d="M447.05 567.59s-4.81-12.17-4.7-16c.17-7.24 5.06-8.47 7.54-8.62 2.48.15 7.38 1.38 7.55 8.62.1 3.78-4.71 16-4.71 16z"/><path class="cls-6" d="M453.69 569h-7.59l-.35-.89c-.5-1.27-4.91-12.55-4.8-16.5.05-2.21.84-9.48 8.86-10h.19c8 .5 8.81 7.77 8.86 10 .11 3.94-4.3 15.22-4.81 16.49zm-5.68-2.8h3.77c1.47-3.84 4.33-11.87 4.26-14.51-.13-5.64-3.4-7.06-6.15-7.26-2.75.2-6 1.62-6.14 7.25-.08 2.64 2.79 10.67 4.25 14.51z"/><path class="cls-6" d="M443.88 567.59s-1.64-12.17-1.53-16c.17-7.24 5.06-8.47 7.54-8.62 2.48.15 7.38 1.38 7.55 8.62.1 3.78-1.53 16-1.53 16z"/><path class="cls-6" d="M457.13 569h-14.48l-.16-1.21c-.07-.51-1.65-12.33-1.54-16.18.05-2.21.84-9.48 8.86-10h.19c8 .5 8.81 7.77 8.86 10 .1 3.84-1.48 15.66-1.54 16.17zm-12-2.8h9.57c.4-3.16 1.44-11.58 1.36-14.51-.13-5.64-3.4-7.06-6.15-7.26-2.75.2-6 1.62-6.14 7.25-.1 2.93.93 11.32 1.34 14.51z"/><circle class="cls-7" cx="440.35" cy="544.53" r="1.47"/><path class="cls-7" d="M439.27 547.84a1.43 1.43 0 112.79-.42c.19 1.55-1.66 3.08-3.22 3 .52-.34.54-1.66.43-2.58z"/><path class="cls-14" d="M444.06 612.19v-33a1.4 1.4 0 112.8 0v33zM452.92 612.19v-33a1.4 1.4 0 112.8 0v33z"/><ellipse class="cls-2" cx="448.86" cy="494.86" rx="16.69" ry="2.27"/><path class="cls-5" d="M441.68 402h.11a1.38 1.38 0 000 2.76 8.11 8.11 0 0016.21 0v-10.88h-8.11a8.1 8.1 0 00-8.1 8.1zM432.21 452.09a1.4 1.4 0 01-1.4-1.4v-14.47c.43-18.47 13.43-21.26 19-21.6a1.4 1.4 0 01.17 2.8c-6 .36-16 3.3-16.37 18.83v14.44a1.4 1.4 0 01-1.4 1.4z"/><path class="cls-5" d="M467.57 437.62a1.39 1.39 0 01-1.39-1.37c-.36-15.53-10.41-18.47-16.37-18.83a1.4 1.4 0 11.17-2.8c5.57.34 18.57 3.13 19 21.57a1.41 1.41 0 01-1.37 1.43z"/><path class="cls-2" d="M430.81 436.19c.43-18.44 13.43-21.23 19-21.57a1.4 1.4 0 01.17 2.8c-6 .36-16 3.3-16.37 18.83z"/><path class="cls-2" d="M460.78 426.74c-.24-10.38-7.59-11.95-10.74-12.14h-.18c-3.15.19-10.5 1.76-10.74 12.14v.08l2.51 26.71h16.64l2.5-26.63v-.16z"/><path class="cls-7" d="M439 496.68v-1.45a1.45 1.45 0 111.45 1.45H439"/><path class="cls-10" d="M441.44 452.15h2.8v40.65h-2.8z"/><path class="cls-7" d="M440.41 496.68a1.45 1.45 0 01-1-2.48l2.44-2.43a1.45 1.45 0 112.05 2.06l-2.43 2.43a1.48 1.48 0 01-1.06.42z"/><path class="cls-7" d="M441.39 490.34h2.9v2.37h-2.9z"/><path class="cls-3" d="M442.3 495.24c-.38.46-.51.54-.88.55H439v.89h2.46c.37 0 .5-.08.88-.55l2-2.53v-.89z"/><path class="cls-7" d="M460.83 496.68v-1.45a1.46 1.46 0 10-1.46 1.45h1.46"/><path class="cls-10" d="M455.54 452.15h2.8v40.65h-2.8z"/><path class="cls-7" d="M459.37 496.68a1.45 1.45 0 001-2.48l-2.37-2.43a1.45 1.45 0 00-2.05 2.06l2.43 2.43a1.44 1.44 0 00.99.42z"/><path class="cls-7" d="M455.49 490.34h2.9v2.37h-2.9z"/><path class="cls-3" d="M457.48 495.24c.39.46.52.54.88.55h2.47v.89h-2.47c-.36 0-.49-.08-.88-.55l-2-2.53v-.89z"/><path class="cls-8" d="M458 404.74v-3.87h-4a2.88 2.88 0 00-2.88 2.88v2.89h-1.18v6.2a8.1 8.1 0 008.06-8.1z"/><circle class="cls-7" cx="446.52" cy="404.29" r=".8"/><path class="cls-8" d="M446.86 408.32a4.29 4.29 0 006.06 0z"/><circle class="cls-7" cx="453.71" cy="404.29" r=".8"/><path class="cls-10" d="M458.22 453.55h-16.65l-.6-6.4h17.85z"/><path class="cls-2" d="M429.84 433.53h4.83v2.66h-4.83zM464.78 431.22h4.83v2.66h-4.83z"/><path class="cls-2" d="M468.8 433.4c-1.61-15.93-13.55-18.4-18.8-18.78a1.4 1.4 0 10-.17 2.8c5.57.34 14.72 2.93 16.18 16z"/><path class="cls-15" transform="rotate(-144.01 464.595 425.44)" d="M462.63 401.08h3.92v48.72h-3.92z"/><path class="cls-5" d="M467.57 437.62a1.45 1.45 0 01-.69-.18L452 428.88a1.4 1.4 0 111.39-2.42l14.9 8.55a1.4 1.4 0 01-.7 2.61z"/><path class="cls-10" d="M440.77 397.93a9.43 9.43 0 1118.85 0z"/><circle class="cls-10" cx="440.77" cy="399.38" r="1.46"/><path class="cls-10" d="M464.29 400.84h-23.52v-2.91h18.86l4.66 1.45v1.46z"/><circle class="cls-10" cx="464.29" cy="400.11" r=".73"/><path class="cls-10" d="M458.21 393.54v-4.25a.8.8 0 00-.79-.79h-7.22a.8.8 0 00-.79.79v4.25z"/><ellipse class="cls-2" cx="347.73" cy="241.61" rx="16.69" ry="2.27"/><path class="cls-5" d="M340.08 148.77h.11a1.38 1.38 0 000 2.76 8.11 8.11 0 1016.21 0v-10.86h-8.11a8.1 8.1 0 00-8.1 8.1z"/><path class="cls-8" d="M356.4 151.53v-3.87h-4a2.88 2.88 0 00-2.88 2.88v2.89h-1.18v6.21a8.11 8.11 0 008.06-8.11z"/><circle class="cls-7" cx="344.92" cy="151.08" r=".8"/><path class="cls-8" d="M345.26 155.11a4.29 4.29 0 006.06 0z"/><circle class="cls-7" cx="352.11" cy="151.08" r=".8"/><path class="cls-6" d="M348.29 140.67a8.1 8.1 0 00-8.1 8.06v2h.9a1 1 0 001-1v-1h12.71a8.1 8.1 0 008.1-8.1z"/><path class="cls-7" d="M356.78 152.74h-.84v-8.09a7.68 7.68 0 10-15.36 0v8.09h-.84v-8.09a8.52 8.52 0 1117 0z"/><path class="cls-7" d="M340.16 152.74a4.34 4.34 0 010-8.68zM356.37 152.74a4.34 4.34 0 000-8.68z"/><path class="cls-9" d="M340.66 195.3l.34 3.6h14.1l.34-3.6h-14.78z"/><path class="cls-9" d="M356.37 200.3h-16.64l-.61-6.4H357zm-14.09-2.8h11.55l.07-.8h-11.7z"/><path class="cls-7" d="M337.12 243.44V242a1.45 1.45 0 111.45 1.46h-1.45"/><path class="cls-9" d="M339.6 198.9h2.8v40.65h-2.8z"/><path class="cls-7" d="M338.57 243.44a1.49 1.49 0 01-1-.43 1.46 1.46 0 010-2l2.43-2.43a1.45 1.45 0 012.06 2.05L339.6 243a1.49 1.49 0 01-1.03.44z"/><path class="cls-7" d="M339.55 237.09h2.9v2.37h-2.9z"/><path class="cls-3" d="M340.46 242c-.39.47-.52.54-.88.55h-2.46v.9h2.46c.36 0 .49-.09.88-.56l2-2.53v-.89z"/><path class="cls-7" d="M359 243.44V242a1.45 1.45 0 10-1.45 1.46H359"/><path class="cls-9" d="M355.1 198.9v40.65M353.7 198.9h2.8v40.65h-2.8zM339.6 198.9h2.8v18.73h-2.8z"/><path class="cls-9" d="M353.7 198.9h2.8v18.73h-2.8z"/><path class="cls-7" d="M357.53 243.44a1.49 1.49 0 001-.43 1.44 1.44 0 000-2l-2.43-2.43a1.45 1.45 0 00-2.06 2.05l2.44 2.43a1.45 1.45 0 001.05.38z"/><path class="cls-7" d="M353.65 237.09h2.9v2.37h-2.9z"/><path class="cls-3" d="M355.64 242c.39.47.52.54.88.55H359v.9h-2.46c-.36 0-.49-.09-.88-.56l-2-2.53v-.89z"/><path class="cls-5" d="M330.61 198.88a1.4 1.4 0 01-1.4-1.4V183c.43-18.47 13.43-21.25 19-21.6a1.4 1.4 0 11.18 2.8c-6 .36-16 3.3-16.37 18.84v14.43a1.4 1.4 0 01-1.41 1.41z"/><path class="cls-5" d="M366 198.88a1.4 1.4 0 01-1.4-1.4V183c-.36-15.5-10.41-18.44-16.37-18.8a1.4 1.4 0 01.18-2.8c5.57.35 18.57 3.13 19 21.57v14.5a1.4 1.4 0 01-1.41 1.41z"/><path class="cls-11" d="M332 195.55h-2.8V183c.43-18.47 13.43-21.25 19-21.6l1.4-.08.17 2.79-1.39.09c-6 .36-16 3.3-16.37 18.84z"/><path class="cls-11" d="M367.37 195.55h-2.8V183c-.36-15.5-10.41-18.44-16.37-18.8l-1.39-.09.17-2.79 1.4.08c5.57.35 18.57 3.13 19 21.57z"/><path class="cls-11" d="M341 198.9l-2.38-25.35c.21-9.05 6.33-10.59 9.43-10.78 3.1.19 9.22 1.73 9.43 10.78l-2.38 25.35z"/><path class="cls-11" d="M356.37 200.3h-16.82l-2.33-26.7v-.09c.24-10.37 7.59-11.94 10.74-12.13h.18c3.15.19 10.5 1.76 10.74 12.13v.17zm-14.09-2.8h11.55l2.25-24c-.2-7.25-4.45-9.08-8-9.32-3.58.24-7.83 2.07-8 9.32z"/><path class="cls-8" d="M356.31 204.38v-15.51h2.38a4.05 4.05 0 014.05 4v11.46z"/><path class="cls-11" d="M345.37 161.59h5.85v2.45h-5.85z"/><path class="cls-11" d="M343.97 160.19h8.65v5.25h-8.65z"/><ellipse class="cls-2" cx="245.92" cy="622.31" rx="16.69" ry="2.27"/><path class="cls-5" d="M238.48 529h.11a1.38 1.38 0 100 2.76 8.11 8.11 0 1016.21 0v-10.88h-8.11a8.1 8.1 0 00-8.1 8.1z"/><path class="cls-8" d="M254.8 531.74v-3.86h-4.05a2.87 2.87 0 00-2.88 2.87v3h-1.18v6.14a8.11 8.11 0 008.11-8.15z"/><circle class="cls-7" cx="243.32" cy="531.29" r=".8"/><circle class="cls-7" cx="250.5" cy="531.29" r=".8"/><path class="cls-11" d="M242.56 527.02h15.68v1.96h-15.68z"/><path class="cls-11" d="M254.8 520.88h-8.11a8.1 8.1 0 00-8.1 8.1h16.21z"/><path class="cls-8" d="M243.66 535.32a4.29 4.29 0 006.06 0z"/><path class="cls-5" d="M229 579.09a1.4 1.4 0 01-1.4-1.4v-14.47c.43-18.47 13.42-21.25 19-21.6a1.4 1.4 0 01.18 2.8c-6 .36-16 3.3-16.37 18.83v14.44a1.4 1.4 0 01-1.41 1.4z"/><path class="cls-11" d="M232.14 548.6c4.41-5.57 11-6.76 14.46-7a1.4 1.4 0 01.18 2.8c-3.72.23-8.89 1.44-12.44 5.92z"/><path class="cls-4" d="M239.4 620.46a1.4 1.4 0 01-1.4-1.4v-39.95a1.4 1.4 0 012.8 0v39.95a1.4 1.4 0 01-1.4 1.4zM253.5 620.46a1.4 1.4 0 01-1.4-1.4v-39.95a1.4 1.4 0 012.8 0v39.95a1.4 1.4 0 01-1.4 1.4z"/><path class="cls-5" d="M264.37 579.09a1.4 1.4 0 01-1.4-1.4v-14.47c-.36-15.5-10.41-18.44-16.37-18.8a1.4 1.4 0 11.18-2.8c5.57.35 18.57 3.13 19 21.57v14.5a1.4 1.4 0 01-1.41 1.4z"/><path class="cls-11" d="M239.4 579.11l-2.4-25.35c.21-9 6.33-10.59 9.43-10.78 3.1.19 9.22 1.73 9.43 10.78l-2.38 25.35z"/><path class="cls-11" d="M254.77 580.51h-16.64l-2.51-26.7v-.09c.24-10.37 7.59-11.94 10.74-12.13h.18c3.15.19 10.5 1.76 10.74 12.13v.17zm-14.1-2.8h11.55l2.26-24c-.2-7.25-4.45-9.08-8-9.32-3.58.24-7.83 2.07-8 9.32z"/><path class="cls-4" d="M239.06 575.51l.34 3.6h14.1l.34-3.6h-14.78z"/><path class="cls-4" d="M254.77 580.51h-16.64l-.61-6.4h17.86zm-14.1-2.8h11.55l.08-.8h-11.7z"/><path class="cls-11" d="M261.24 548.6c-4.41-5.57-11-6.76-14.46-7a1.4 1.4 0 10-.18 2.8c3.72.23 8.9 1.44 12.44 5.92z"/><rect class="cls-1" x="239.55" y="547.7" width="4.9" height="2.52" rx="1.26"/><path class="cls-7" d="M252.05 612.95h2.9v7.42h-2.9z"/><path class="cls-7" d="M257.28 621.67v-.06a.89.89 0 00-.08-.17.25.25 0 010-.07 1.63 1.63 0 00-.17-.2l-2.43-2.43a1.45 1.45 0 00-2.06 0l-.42-.42v2l.65.64v-.63a1.94 1.94 0 01.66 1.29l1.54 1.55.21.17h.07l.16.09h.07l.24.07h.24a1.49 1.49 0 001-.43l.09-.11.06-.08a.24.24 0 00.06-.09 1 1 0 00.09-.17 2.17 2.17 0 00.07-.24v-.08a1.1 1.1 0 000-.18v-.07a1.24 1.24 0 00-.05-.38zM237.94 612.95h2.9v7.42h-2.9z"/><path class="cls-7" d="M235.61 621.67v-.06l.09-.17a.25.25 0 000-.07 1.63 1.63 0 01.17-.2l2.43-2.43a1.45 1.45 0 012.06 0l.42-.42v2l-.65.64v-.63a1.94 1.94 0 00-.66 1.29l-1.47 1.6-.2.17h-.07l-.16.09h-.07l-.24.07h-.24a1.49 1.49 0 01-1-.43l-.09-.11-.07-.08a.41.41 0 01-.05-.09 1 1 0 01-.09-.17 2.17 2.17 0 01-.07-.24v-.08a1.1 1.1 0 010-.18v-.07a1.43 1.43 0 01-.04-.43z"/><ellipse class="cls-2" cx="247.34" cy="494.82" rx="16.69" ry="2.27"/><path class="cls-6" d="M235.75 396.57a3.29 3.29 0 00-2.84 3.26v13.29a3.28 3.28 0 01-2.84 3.26 8.51 8.51 0 008.52-8.52v-8a3.29 3.29 0 00-2.84-3.26"/><path class="cls-5" d="M238.48 402h.11a1.38 1.38 0 000 2.76 8.11 8.11 0 0016.21 0v-10.88h-8.11a8.1 8.1 0 00-8.1 8.1zM242.57 493.8a1.39 1.39 0 01-1.39-1.4v-40.29a1.4 1.4 0 112.79 0v40.29a1.39 1.39 0 01-1.4 1.4zM250.32 493.8a1.4 1.4 0 01-1.4-1.4v-40.29a1.4 1.4 0 112.8 0v40.29a1.39 1.39 0 01-1.4 1.4z"/><path class="cls-8" d="M254.8 404.74v-3.87h-4.05a2.87 2.87 0 00-2.88 2.88v2.89h-1.18v6.2a8.1 8.1 0 008.11-8.1z"/><circle class="cls-7" cx="243.32" cy="404.29" r=".8"/><path class="cls-8" d="M243.66 408.32a4.29 4.29 0 006.06 0z"/><circle class="cls-7" cx="250.5" cy="404.29" r=".8"/><path class="cls-6" d="M248.77 393.88V402h1.9a8.11 8.11 0 008.11-8.1z"/><path class="cls-5" d="M229 452.09a1.4 1.4 0 01-1.4-1.4v-14.47c.42-18.47 13.42-21.26 19-21.6a1.4 1.4 0 11.18 2.8c-6 .36-16 3.3-16.37 18.83v14.44a1.4 1.4 0 01-1.41 1.4z"/><path class="cls-11" d="M227.61 436.19c.43-18.44 13.43-21.23 19-21.57a1.4 1.4 0 11.18 2.8c-6 .36-16 3.3-16.37 18.83z"/><path class="cls-5" d="M246.69 417.42a1.4 1.4 0 01-.09-2.8c6-.36 16-3.3 16.37-18.83v-14.44a1.4 1.4 0 112.8 0v14.47c-.42 18.47-13.42 21.25-19 21.6z"/><path class="cls-11" d="M265.77 395.85c-.42 18.44-13.42 21.22-19 21.57h-.09a1.4 1.4 0 01-.09-2.8c6-.36 16-3.3 16.37-18.83z"/><path class="cls-11" d="M236.73 462.91l2.42-38.27c.16-7.24 5.06-8.47 7.54-8.62 2.48.15 7.38 1.38 7.54 8.62l1.36 38.27z"/><path class="cls-11" d="M256.75 464h-21.21l2.46-39.43c.19-8.26 6.07-9.51 8.59-9.67h.14c2.52.16 8.4 1.41 8.59 9.71zm-18.83-2.24h16.51l-1.31-37.11c-.14-5.87-3.56-7.34-6.43-7.54-2.87.2-6.29 1.67-6.43 7.53z"/><path class="cls-6" d="M235.75 396.57h5.04v5.05h-5.04z"/><path class="cls-6" d="M250.6 393.88h-3.91a8.1 8.1 0 00-8.1 8.1h12z"/><path class="cls-5" d="M240.14 496.29a1.41 1.41 0 01-1-.43 1.44 1.44 0 010-2.05l2.43-2.43a1.45 1.45 0 112 2.05l-2.43 2.43a1.43 1.43 0 01-1 .43z"/><path class="cls-7" d="M244 491l-2.85 2.85a1.44 1.44 0 01-2 0 1.45 1.45 0 102 2.05L244 493z"/><path class="cls-5" d="M252.76 496.29a1.41 1.41 0 001-.43 1.44 1.44 0 000-2.05l-2.43-2.43a1.45 1.45 0 10-2 2.05l2.43 2.43a1.41 1.41 0 001 .43z"/><path class="cls-7" d="M248.88 491l2.85 2.85a1.44 1.44 0 002.05 0 1.45 1.45 0 11-2.05 2.05l-2.85-2.9z"/><ellipse class="cls-2" cx="245.41" cy="241.61" rx="16.69" ry="2.27"/><path class="cls-5" d="M229 198.88a1.4 1.4 0 01-1.4-1.4V183c.42-18.47 13.42-21.25 19-21.6a1.4 1.4 0 01.18 2.8c-6 .36-16 3.3-16.37 18.84v14.43a1.4 1.4 0 01-1.41 1.41z"/><path class="cls-5" d="M264.37 198.88a1.4 1.4 0 01-1.4-1.4V183c-.36-15.5-10.41-18.44-16.37-18.8a1.4 1.4 0 01.18-2.8c5.57.35 18.56 3.13 19 21.57v14.5a1.4 1.4 0 01-1.41 1.41z"/><path class="cls-1" d="M229 184.41a1.4 1.4 0 01-1.36-1.43c.42-18.44 13.42-21.22 19-21.57a1.4 1.4 0 01.18 2.8c-6 .36-16 3.3-16.37 18.84a1.4 1.4 0 01-1.45 1.36z"/><path class="cls-1" d="M264.37 184.41a1.4 1.4 0 01-1.4-1.36c-.36-15.54-10.41-18.48-16.37-18.84a1.4 1.4 0 01.18-2.8c5.57.35 18.56 3.13 19 21.57a1.4 1.4 0 01-1.37 1.43z"/><path class="cls-1" d="M239.47 198.94l-2.39-25.35c.21-9.05 6.34-10.59 9.44-10.78 3.1.19 9.22 1.73 9.43 10.78l-2.38 25.35z"/><path class="cls-7" d="M235.52 243.44V242a1.45 1.45 0 111.45 1.46h-1.45M238 198.9h2.8v40.65H238z"/><path class="cls-7" d="M237 243.44a1.49 1.49 0 01-1-.43 1.44 1.44 0 010-2l2.43-2.43a1.45 1.45 0 012.06 2.05L238 243a1.45 1.45 0 01-1 .44z"/><path class="cls-7" d="M237.95 237.09h2.9v2.37h-2.9z"/><path class="cls-3" d="M238.86 242c-.39.47-.52.54-.88.55h-2.46v.9H238c.36 0 .49-.09.88-.56l2-2.53v-.89z"/><path class="cls-7" d="M257.38 243.44V242a1.45 1.45 0 10-1.45 1.46h1.45M252.1 198.9h2.8v40.65h-2.8z"/><path class="cls-7" d="M255.93 243.44a1.49 1.49 0 001-.43 1.46 1.46 0 000-2l-2.43-2.43a1.45 1.45 0 00-2.06 2.05l2.46 2.37a1.49 1.49 0 001.03.44z"/><path class="cls-7" d="M252.05 237.09h2.9v2.37h-2.9z"/><path class="cls-3" d="M254 242c.39.47.52.54.88.55h2.46v.9h-2.46c-.36 0-.49-.09-.88-.56l-2-2.53v-.89z"/><path class="cls-10" d="M239.06 195.35l.34 3.6h14.1l.34-3.6h-14.78z"/><path class="cls-7" d="M254.77 200.35h-16.65l-.6-6.4h17.85zm-14.1-2.8h11.55l.08-.8h-11.7z"/><path class="cls-14" d="M243.41 161.83c-6.24 1.23-15.44 5.69-15.8 21.15v11.33h2.8V183c.19-8 2.92-12.61 6.34-15.3a15.52 15.52 0 00-1.13 5.78v.09l2.5 26.7h5.29zM265.77 183c-.35-15.33-9.4-19.84-15.64-21.12v38.42h4.64l2.51-26.7v-.09a15 15 0 00-1.37-6.31c3.75 2.59 6.86 7.32 7.06 15.83v11.28h2.8V183z"/><path class="cls-9" d="M245.99 161.45h1.4v21.94h-1.4z"/><ellipse class="cls-2" cx="348.55" cy="494.82" rx="16.69" ry="2.27"/><path class="cls-7" d="M357.31 406.71a2.38 2.38 0 000-3.38 1.9 1.9 0 010-2.68 4.79 4.79 0 10-8.14-2.83l-.65 6.74a7.31 7.31 0 00-8.4 11.76 7.3 7.3 0 0012.33 7.48 4.64 4.64 0 004.86-7.64 1.9 1.9 0 010-2.68 4.79 4.79 0 000-6.77z"/><path class="cls-5" d="M366 452.09a1.4 1.4 0 01-1.4-1.4v-14.47c-.35-15.43-10.31-18.41-16.28-18.8-6 .39-15.92 3.37-16.28 18.83v14.44a1.4 1.4 0 11-2.8 0v-14.47c.43-18.47 13.43-21.26 19-21.6h.17c5.57.34 18.57 3.13 19 21.57v14.5a1.4 1.4 0 01-1.41 1.4z"/><path class="cls-9" d="M364.57 446.72v-10.48c-.36-15.45-10.31-18.43-16.28-18.82-6 .39-15.92 3.37-16.28 18.82v10.48h-2.8v-10.53c.43-18.44 13.43-21.23 19-21.57h.17c5.57.34 18.57 3.13 19 21.57v10.53z"/><path class="cls-5" d="M340.08 402h.11a1.38 1.38 0 100 2.76 8.11 8.11 0 0016.21 0v-10.88h-8.11a8.1 8.1 0 00-8.1 8.1z"/><path class="cls-5" d="M340.08 402h.11a1.38 1.38 0 100 2.76 8.11 8.11 0 0016.21 0v-10.88h-8.11a8.1 8.1 0 00-8.1 8.1z"/><path class="cls-8" d="M356.4 404.74v-3.87h-4a2.88 2.88 0 00-2.88 2.88v2.89h-1.18v6.2a8.1 8.1 0 008.06-8.1z"/><path class="cls-8" d="M345.26 408.32a4.29 4.29 0 006.06 0z"/><circle class="cls-7" cx="344.92" cy="404.29" r=".8"/><circle class="cls-7" cx="352.11" cy="404.29" r=".8"/><path class="cls-6" d="M352.08 442h-7.58l-.35-.89c-.5-1.27-4.91-12.55-4.8-16.5 0-2.21.84-9.49 8.86-10h.17c8 .49 8.8 7.77 8.86 10 .11 3.94-4.3 15.22-4.81 16.49z"/><path class="cls-5" d="M343.86 493.88a1.4 1.4 0 01-1.4-1.4v-40.29a1.4 1.4 0 012.8 0v40.29a1.4 1.4 0 01-1.4 1.4zM352.72 493.8a1.4 1.4 0 01-1.4-1.4v-40.29a1.4 1.4 0 112.8 0v40.29a1.4 1.4 0 01-1.4 1.4z"/><path class="cls-5" d="M366 452.09a1.4 1.4 0 01-1.4-1.4v-14.47c-.35-15.43-10.31-18.41-16.28-18.8-6 .39-15.92 3.37-16.28 18.83v14.44a1.4 1.4 0 11-2.8 0v-14.47c.43-18.47 13.43-21.26 19-21.6h.17c5.57.34 18.57 3.13 19 21.57v14.5a1.4 1.4 0 01-1.41 1.4z"/><path class="cls-6" d="M364.57 436.25c-.35-15.46-10.31-18.44-16.28-18.83-6 .39-15.92 3.37-16.28 18.83l-2.8-.06c.43-18.44 13.43-21.23 19-21.57h.17c5.57.34 18.57 3.13 19 21.57zM343.86 452.19a41 41 0 011.59-11.6h5.68a40.62 40.62 0 011.59 11.6z"/><path class="cls-6" d="M352.72 453.59h-8.86a1.4 1.4 0 01-1.4-1.39 42.23 42.23 0 011.64-12 1.39 1.39 0 011.35-1h5.68a1.39 1.39 0 011.35 1 41.88 41.88 0 011.64 12 1.4 1.4 0 01-1.4 1.39zm-7.44-2.8h6a39.24 39.24 0 00-1.25-8.8h-3.54a38.66 38.66 0 00-1.21 8.8z"/><path class="cls-7" d="M344 448.55c-.1 1.16-.15 2.37-.14 3.64h8.86c0-1.27 0-2.48-.13-3.64z"/><path class="cls-7" d="M354.11 453.59h-11.63v-1.39c0-1.24 0-2.5.14-3.76l.1-1.29h11.18l.1 1.29c.1 1.26.15 2.52.14 3.76zm-8.83-2.8h6v-.84h-6v.84z"/><path class="cls-5" d="M340.37 496.18c-.57-.57-.53-.93 0-1.5l2.43-2.43a1.44 1.44 0 012.05 0c.57.56-.65 1.18-1.21 1.75.04 0-2.99 2.46-3.27 2.18z"/><path class="cls-7" d="M345.27 494.42v-2.91a2.35 2.35 0 01-.82 1.37 11.8 11.8 0 01-2.45 2 2.68 2.68 0 01-1.59-.16l-1.53 1.16c.29.75 1.95.76 2.7.47 2.7-1.05 1.4-2 3.23-2.67l.06.78z"/><path class="cls-5" d="M356.21 496.1c.57-.56.53-.93 0-1.5l-2.43-2.43a1.45 1.45 0 00-2.06 0c-.56.57.65 1.18 1.22 1.75-.03 0 2.99 2.47 3.27 2.18z"/><path class="cls-7" d="M351.31 494.34v-2.91a2.37 2.37 0 00.83 1.37 11 11 0 002.45 2 2.51 2.51 0 001.58-.16l1.53 1.17c-.29.75-1.95.75-2.69.46-2.71-1.05-1.41-2-3.24-2.66l-.06.77zM353 393.58a3.92 3.92 0 00-6.81-2h-2.92a2.52 2.52 0 00-2.42 1.85h-.68a2.9 2.9 0 00-2.34 4.62 2.59 2.59 0 00-2 4.28 2 2 0 01-.21 2.8 2.51 2.51 0 00-.26 3.54 5 5 0 00-.53 7.09 2 2 0 01-.2 2.8 4.87 4.87 0 006.36 7.39 5.22 5.22 0 00.72-.77 3.3 3.3 0 01-.81-.69 3.6 3.6 0 01-.8-3.07l.52.08a3.55 3.55 0 001-7V405.37a3.09 3.09 0 00-1.27-2.14 1.44 1.44 0 011.43-1.37h6.55a2.9 2.9 0 002.91-2.9v-.05a5.91 5.91 0 015.28 5.87v-11.2z"/><path class="cls-6" d="M354.31 453.59h-12a1.4 1.4 0 01-1.4-1.39 23.5 23.5 0 012.15-9c.42-1.07.81-2.08 1.07-3a1.39 1.39 0 011.35-1h5.68a1.39 1.39 0 011.35 1c.26.92.66 1.93 1.07 3a23.68 23.68 0 012.16 9 1.41 1.41 0 01-1.43 1.39z"/><path class="cls-6" d="M355.71 452.2h-14.83l-1.79 13.34h18.4z"/><ellipse class="cls-2" cx="143.81" cy="621.82" rx="16.69" ry="2.27"/><path class="cls-5" d="M138.78 527.78h.1a1.37 1.37 0 00-1.58 1.13 1.38 1.38 0 001.13 1.59 8.11 8.11 0 1016 2.67l1.79-10.72-8-1.33a8.1 8.1 0 00-9.33 6.66z"/><path class="cls-8" d="M146.75 535.53a4.28 4.28 0 006 1z"/><path class="cls-8" d="M154.42 533.19l.63-3.78a2.88 2.88 0 00-2.84 2.41l-.48 2.85-1.16-.2-.79 4.76a8.09 8.09 0 004.64-6.04z"/><circle class="cls-7" cx="148.18" cy="531.69" r=".8"/><circle class="cls-7" cx="153.37" cy="532.55" r=".8"/><path class="cls-2" d="M156.21 522.47l-8-1.33a8.1 8.1 0 00-9.33 6.66l-.19 1.15a2.06 2.06 0 002.37-1.69 2.06 2.06 0 012.37-1.69l9.9 1.65a2.06 2.06 0 002.37-1.69z"/><path class="cls-5" d="M162.77 564.62a1.4 1.4 0 01-1.4-1.37C161 547.72 151 544.78 145 544.42a1.4 1.4 0 01.17-2.8c5.57.35 18.57 3.13 19 21.57a1.4 1.4 0 01-1.37 1.43z"/><path class="cls-1" d="M162.77 564.62a1.4 1.4 0 01-1.4-1.37C161 547.72 151 544.78 145 544.42a1.4 1.4 0 01.17-2.8c5.57.35 18.57 3.13 19 21.57a1.4 1.4 0 01-1.37 1.43z"/><path class="cls-1" d="M137.86 579.15l-2.38-25.35c.21-9 6.33-10.59 9.43-10.78 3.1.19 9.23 1.73 9.44 10.78L152 579.15z"/><path class="cls-7" d="M133.92 623.65v-1.46a1.45 1.45 0 111.45 1.46h-1.45"/><path class="cls-10" d="M136.4 579.11h2.8v40.65h-2.8z"/><path class="cls-7" d="M135.37 623.65a1.47 1.47 0 01-1-.43 1.44 1.44 0 010-2.05l2.43-2.43a1.45 1.45 0 012.06 2l-2.44 2.43a1.45 1.45 0 01-1.05.48z"/><path class="cls-7" d="M136.35 617.3h2.9v2.37h-2.9z"/><path class="cls-3" d="M137.26 622.2c-.39.47-.52.55-.88.56h-2.46v.89h2.46c.36 0 .49-.09.88-.56l2-2.53v-.89z"/><path class="cls-7" d="M155.78 623.65v-1.46a1.45 1.45 0 10-1.45 1.46h1.45"/><path class="cls-10" d="M150.5 579.11h2.8v40.65h-2.8z"/><path class="cls-7" d="M154.33 623.65a1.49 1.49 0 001-.43 1.46 1.46 0 000-2.05l-2.44-2.43a1.44 1.44 0 00-2 0 1.46 1.46 0 000 2l2.43 2.43a1.49 1.49 0 001.01.48z"/><path class="cls-7" d="M150.45 617.3h2.9v2.37h-2.9z"/><path class="cls-3" d="M152.44 622.2c.38.47.52.55.88.56h2.46v.89h-2.46c-.36 0-.5-.09-.88-.56l-2-2.53v-.89z"/><path class="cls-10" d="M137.46 575.56l.34 3.6h14.1l.34-3.6h-14.78z"/><path class="cls-10" d="M153.17 580.56h-16.65l-.6-6.4h17.85zm-14.1-2.8h11.55l.08-.8H139z"/><path class="cls-10" d="M164.17 563.22c-.35-15.33-9.4-19.84-15.64-21.12v38.44h4.64l2.51-26.7v-.09a15 15 0 00-1.37-6.31c3.75 2.59 6.86 7.32 7.06 15.83"/><path class="cls-1" d="M127.41 564.62a1.4 1.4 0 01-1.36-1.43c.42-18.44 13.42-21.22 19-21.57a1.4 1.4 0 11.17 2.8c-5.95.36-16 3.3-16.36 18.83a1.4 1.4 0 01-1.45 1.37z"/><path class="cls-10" d="M128.81 563.24c.18-8 2.92-12.61 6.34-15.3a15.52 15.52 0 00-1.13 5.78v.09l2.5 26.7h5.29V542c-6.24 1.23-15.44 5.69-15.8 21.15"/><path class="cls-5" d="M141 566.31h-.17l-13.63-1.69a1.4 1.4 0 01.35-2.78l13.62 1.69a1.4 1.4 0 01-.17 2.79z"/><path class="cls-10" d="M137 565.81h-.17l-9.58-1.19a1.4 1.4 0 01.35-2.78l9.57 1.19z"/><path class="cls-7" d="M144.39 541.66h1.4v21.94h-1.4z"/><path class="cls-8" d="M165.1 550.17h-22.82a2.86 2.86 0 00-2.86 2.86v15.87H168V553a2.88 2.88 0 00-2.9-2.83z"/><ellipse class="cls-2" cx="351.15" cy="621.39" rx="16.69" ry="2.27"/><path class="cls-5" d="M342.08 529h.11a1.38 1.38 0 100 2.76 8.11 8.11 0 1016.21 0v-10.88h-8.11a8.1 8.1 0 00-8.1 8.1z"/><path class="cls-8" d="M358.4 531.74v-3.86h-4a2.87 2.87 0 00-2.88 2.87v2.89h-1.18v6.21a8.11 8.11 0 008.06-8.11z"/><circle class="cls-7" cx="346.92" cy="531.29" r=".8"/><path class="cls-8" d="M347.26 535.32a4.29 4.29 0 006.06 0z"/><circle class="cls-7" cx="354.11" cy="531.29" r=".8"/><path class="cls-7" d="M358.4 520.88h-8.11a8.09 8.09 0 00-7.46 4.94 3 3 0 002.79 1.85 2.06 2.06 0 012.06-2.06h10.72z"/><path class="cls-10" d="M341.36 621.2h-.14a1.39 1.39 0 01-1.26-1.52l4-40.65a1.4 1.4 0 112.79.27l-4 40.65a1.4 1.4 0 01-1.39 1.25z"/><path class="cls-7" d="M342.76 620.36l.52-5.39-2.89-.29-.55 5.68h2.92z"/><path class="cls-7" d="M346.12 618.35H340l-.28 2.9h7.81v-1.45a1.45 1.45 0 00-1.41-1.45z"/><circle class="cls-1" cx="341.38" cy="618.37" r=".68"/><path class="cls-10" d="M354.66 621.2a1.4 1.4 0 01-1.4-1.4v-40.65a1.4 1.4 0 112.8 0v40.65a1.4 1.4 0 01-1.4 1.4z"/><path class="cls-7" d="M353.21 615.12h2.9v3.23h-2.9z"/><path class="cls-7" d="M359.42 618.35h-6.21v2.9h7.66v-1.45a1.45 1.45 0 00-1.45-1.45z"/><path class="cls-3" d="M353.21 620.36h7.67v.89h-7.67z"/><path class="cls-9" d="M355.07 575.51l2.74-24.42a8.11 8.11 0 00-8.1-8.11h-4.39v32.53z"/><path class="cls-9" d="M355.07 576.91h-9.75a1.4 1.4 0 01-1.4-1.4V543a1.4 1.4 0 011.4-1.4h4.39a9.52 9.52 0 019.5 9.51.76.76 0 010 .15l-2.74 24.43a1.4 1.4 0 01-1.4 1.22zm-8.35-2.8h7.1l2.59-23.1a6.71 6.71 0 00-6.7-6.63h-3z"/><path class="cls-10" d="M345.32 575.51v3.64h9.34l.41-3.64h-9.75z"/><path class="cls-10" d="M355.91 580.55h-12v-6.44h12.71zm-9.19-2.8h6.69l.09-.84h-6.78z"/><path class="cls-3" d="M339.85 620.36l-.09.89h7.81v-.89h-7.72z"/><path class="cls-5" d="M344.17 576.89a1.4 1.4 0 01-1-.41l-6-6a15.15 15.15 0 010-21.39l7.13-7.13a1.41 1.41 0 012 0 1.39 1.39 0 010 2l-7.13 7.13a12.35 12.35 0 000 17.43l6 6a1.4 1.4 0 01-1 2.39z"/><path class="cls-9" d="M337.17 570.54a15.19 15.19 0 010-21.46l7.13-7.08a1.45 1.45 0 112.05 2l-7.13 7.13a12.29 12.29 0 000 17.35z"/><ellipse class="cls-2" cx="540.29" cy="622.59" rx="16.69" ry="2.27"/><path class="cls-7" d="M547.59 532.16h19.06c.44 4 1.22 7.93 2 11.83a133.41 133.41 0 004.15 15.65 5 5 0 003.63 3.26h-16.18c-4.47 0-7.54-4-8.77-8.1-.84-3-1.58-6.12-2.2-9.22a133.58 133.58 0 01-2-13.42h.32z"/><path class="cls-5" d="M534.74 566.59a1.4 1.4 0 01-1.4-1.4v-8.45a15.13 15.13 0 0115.12-15.12h10.08a1.4 1.4 0 110 2.8h-10.08a12.34 12.34 0 00-12.32 12.32v8.45a1.4 1.4 0 01-1.4 1.4z"/><path class="cls-5" d="M534.74 558.14a1.4 1.4 0 01-1.4-1.4 15.13 15.13 0 0115.12-15.12h10.08a1.4 1.4 0 110 2.8h-10.08a12.34 12.34 0 00-12.32 12.32 1.39 1.39 0 01-1.4 1.4zM540.4 601.12h-8a1.4 1.4 0 010-2.8h8A12.33 12.33 0 00552.72 586v-6.81a1.4 1.4 0 112.8 0V586a15.14 15.14 0 01-15.12 15.12z"/><path class="cls-5" d="M531.3 604.09l1.65-5.82-1.64.58-1.24 5.37 1.23-.13z"/><path class="cls-7" d="M533 598.27c-.75 0-1 .38-1.31 1.45a14.22 14.22 0 00-.72 3.16 1.7 1.7 0 00.38 1.21l-.53 1.85a1.7 1.7 0 01-1.47-1.68c-.09-3.2 1.49-3.22 1.47-5.18l-1.15-.28v-.53z"/><path class="cls-5" d="M546.78 620.31a1.39 1.39 0 01-1.09-2.27c.16-.2 15.93-20.14 15.88-38.85a1.4 1.4 0 011.4-1.4 1.4 1.4 0 011.4 1.4c0 10.33-4.47 20.83-8.24 27.82a93.18 93.18 0 01-8.26 12.78 1.39 1.39 0 01-1.09.52z"/><path class="cls-7" d="M530.91 562.47l-13.42.27a1.15 1.15 0 01-1.18-1.13l-.31-15.35a5.9 5.9 0 015.79-6l8.67-.18a1.15 1.15 0 011.18 1.13l.42 20.11a1.17 1.17 0 01-1.15 1.15z"/><path class="cls-5" d="M550.27 623.1c.57-.56.53-.93 0-1.5l-2.43-2.43a1.47 1.47 0 00-2.06 0c-.56.57.65 1.19 1.22 1.75 0 0 3 2.47 3.27 2.18z"/><path class="cls-7" d="M545.37 621.34v-2.9a2.37 2.37 0 00.83 1.36 11 11 0 002.45 2 2.51 2.51 0 001.58-.16l1.53 1.17c-.29.75-2 .75-2.69.46-2.71-1.05-1.41-2-3.24-2.66l-.06.77zM528.51 558.26a1.32 1.32 0 01-1.31-1.26l-.2-10.05a1.3 1.3 0 011.27-1.33l5.5-.12a3.65 3.65 0 013.75 3.61l.16 7.67a1.28 1.28 0 01-.36.93 1.24 1.24 0 01-.92.4l-7.87.17zm0-.73zm-.06-10.53l.2 9.76 7.58-.15-.16-7.53a2.23 2.23 0 00-2.23-2.19z"/><path class="cls-5" d="M568.62 544.42h-10.08a1.4 1.4 0 010-2.8h10.08a12.33 12.33 0 0012.32-12.32v-8.45a1.41 1.41 0 012.81 0v8.45a15.14 15.14 0 01-15.13 15.12z"/><path class="cls-9" d="M583.8 529.3a15.19 15.19 0 01-15.18 15.17h-10.08a1.45 1.45 0 110-2.9h10.08a12.28 12.28 0 0012.27-12.27z"/><path d="M555.7 567.59s-4.81-12.17-4.7-16c.17-7.24 5.06-8.47 7.54-8.62 2.48.15 7.38 1.38 7.55 8.62.1 3.78-4.71 16-4.71 16z" fill="none"/><path class="cls-5" d="M554.12 579.19a40.64 40.64 0 011.58-11.6h5.68a40.62 40.62 0 011.59 11.6z"/><path class="cls-15" d="M563 580.59h-8.85a1.4 1.4 0 01-1.4-1.39 41.57 41.57 0 011.64-12 1.39 1.39 0 011.34-1h5.68a1.39 1.39 0 011.35 1 41.92 41.92 0 011.64 12 1.4 1.4 0 01-1.4 1.39zm-7.44-2.8h6a39.24 39.24 0 00-1.25-8.8h-3.53a38.67 38.67 0 00-1.25 8.8z"/><path class="cls-5" d="M554.25 575.55a35.82 35.82 0 00-.13 3.64H563c0-1.26 0-2.48-.13-3.64z"/><path class="cls-15" d="M564.36 580.59h-11.63v-1.39c0-1.24 0-2.51.13-3.76l.11-1.29h11.17l.11 1.29c.1 1.25.14 2.52.13 3.76zm-8.83-2.8h6v-.84h-6z"/><path class="cls-7" d="M566.65 532.16v-11.28H557a9.71 9.71 0 00-9.7 9.69v1.59z"/><path class="cls-5" d="M550.33 529h.11a1.38 1.38 0 000 2.76 8.11 8.11 0 1016.21 0v-10.88h-8.11a8.1 8.1 0 00-8.1 8.1z"/><path class="cls-8" d="M566.65 531.74v-3.86h-4a2.87 2.87 0 00-2.88 2.87v2.89h-1.18v6.21a8.11 8.11 0 008.06-8.11z"/><path class="cls-8" d="M555.51 535.32a4.29 4.29 0 006.06 0z"/><path class="cls-7" d="M566.65 520.88h-8.11a8.1 8.1 0 00-8.1 8.1h17.75z"/><path class="cls-9" d="M551 551.64c1.13-7.53 5.06-8.47 7.54-8.62 2.48.15 7.38 1.38 7.55 8.62 1.17 11.06-2 33-4.91 41.48l-20.39-6.44c3.64-6.16 8.96-26.89 10.21-35.04z"/><path class="cls-9" d="M561.88 594.51l-22.77-7.19.71-1.21c3.52-6 8.84-26.6 10.07-34.64.92-6.14 3.73-9.27 8.59-9.57h.13c2.52.16 8.41 1.41 8.6 9.71 1.15 10.85-1.82 32.82-5 41.87zM542.41 586l18.05 5.7c2.9-9.25 5.59-29.87 4.51-40-.14-6-3.55-7.42-6.43-7.62-2.5.17-5.47 1.22-6.43 7.67-1.17 7.67-5.99 26.76-9.7 34.25z"/><circle class="cls-7" cx="555.17" cy="531.29" r=".8"/><circle class="cls-7" cx="562.36" cy="531.29" r=".8"/><path class="cls-9" d="M533.29 556.74a15.19 15.19 0 0115.17-15.17h10.08a1.45 1.45 0 110 2.9h-10.08a12.29 12.29 0 00-12.27 12.27z"/><path class="cls-1" d="M554.2 555.37a2.5 2.5 0 01-1.78-.7c-1.77-1.65-.53-3.59.9-5.84 1.28-2 2.87-4.5 2.88-7.56a.42.42 0 01.42-.42.42.42 0 01.41.43c0 3.29-1.68 5.9-3 8-1.51 2.37-2.24 3.66-1 4.78a2.36 2.36 0 002.71 0c2.76-1.44 6.12-6.58 5.27-12.49a.41.41 0 01.35-.47.42.42 0 01.48.35c.86 6-2.29 11.57-5.71 13.36a4.09 4.09 0 01-1.93.56z"/><circle class="cls-7" cx="547.77" cy="404.29" r=".8"/><circle class="cls-7" cx="554.96" cy="404.29" r=".8"/><path class="cls-1" d="M550.79 413.4h.7v40.28h-.7z"/><path class="cls-6" d="M450 414.6h-.18l-.67.06v21.94h1.4v-22z"/><path class="cls-5" d="M238.48 148.77h.11a1.38 1.38 0 000 2.76 8.1 8.1 0 1016.2 0v-10.86h-8.1a8.1 8.1 0 00-8.1 8.1z"/><circle class="cls-7" cx="240.59" cy="141.82" r="2.21"/><circle class="cls-7" cx="240.73" cy="145.09" r="3.68"/><circle class="cls-7" cx="249.38" cy="139.86" r="3.68"/><circle class="cls-7" cx="252.88" cy="142.87" r="3.68"/><circle class="cls-7" cx="246.67" cy="141.54" r="4.39"/><path class="cls-8" d="M254.79 151.53v-3.87h-4a2.87 2.87 0 00-2.88 2.88v2.89h-1.18v6.21a8.1 8.1 0 008.06-8.11z"/><circle class="cls-7" cx="243.32" cy="151.08" r=".8"/><path class="cls-8" d="M243.66 155.11a4.29 4.29 0 006.06 0z"/><circle class="cls-7" cx="250.5" cy="151.08" r=".8"/><path class="cls-2" d="M149.43 314.38c1-2.57 4.7-12.36 4.6-16-.05-2.22-.84-9.49-8.86-10H145c-8 .5-8.8 7.77-8.86 10-.1 3.63 3.61 13.42 4.61 16z"/><path class="cls-5" d="M145.17 288.41H145c-.54 0-1.15.09-1.81.19l1.9 5.46 1.9-5.46c-.66-.1-1.27-.15-1.82-.19z"/><path class="cls-8" d="M571.53 123.91l-.37.75c3.56 1.76 4.65 5.82 2.65 9.88l-6.55 13.29.76.37 6.54-13.29c2.22-4.5.98-9.03-3.03-11z"/><path class="cls-9" d="M572.56 119.69a4.25 4.25 0 01-4.38 7.29z"/><path class="cls-8" d="M570.07 130.31a6.38 6.38 0 012.77 7c-4 .13-2.77-7-2.77-7zM582.77 129.68a8.7 8.7 0 00-8.69 5.47c4.29 3.42 8.69-5.47 8.69-5.47z"/><ellipse class="cls-2" cx="551.15" cy="368.61" rx="16.69" ry="2.27"/><path class="cls-17" d="M555.32 325.9v39.63M546.46 325.98v39.62"/><path class="cls-5" d="M544 369.49a1.46 1.46 0 01-1-2.48l2.43-2.43a1.45 1.45 0 012 2.05l-2.43 2.43a1.47 1.47 0 01-1 .43z"/><path class="cls-6" d="M546.39 365.67l-1.42-.62-.56.56 1.34.7-.69.7a1.46 1.46 0 01-2 0 1.45 1.45 0 002 2.05l2.85-2.85v-2z"/><path class="cls-18" d="M546.46 326zM555.32 325.9v34.74"/><path class="cls-19" d="M546.46 326a41 41 0 011.59-11.6h5.68a40.62 40.62 0 011.59 11.6zM548.05 314.38s-4.81-12.17-4.7-15.95c.17-7.24 5.06-8.47 7.54-8.62 2.48.15 7.38 1.38 7.55 8.62.1 3.78-4.71 15.95-4.71 15.95z"/><path class="cls-17" d="M533.21 324.48V310c.39-17 11.87-19.84 17.68-20.2 5.82.36 17.29 3.24 17.69 20.2v14.47"/><path class="cls-7" d="M567.18 320.51V310c-.37-15.45-10.32-18.43-16.29-18.82-6 .39-15.91 3.37-16.28 18.82v10.48h-2.8V310c.43-18.44 13.43-21.22 19-21.57h.19c5.57.35 18.57 3.13 19 21.57v10.53z"/><path class="cls-5" d="M542.68 275.77h.11a1.38 1.38 0 100 2.76 8.11 8.11 0 1016.21 0v-10.86h-8.11a8.1 8.1 0 00-8.1 8.1z"/><path class="cls-5" d="M542.68 275.77h.11a1.38 1.38 0 100 2.76 8.11 8.11 0 1016.21 0v-10.86h-8.11a8.1 8.1 0 00-8.1 8.1z"/><path class="cls-8" d="M559 278.53v-3.86h-4a2.88 2.88 0 00-2.88 2.88v2.89h-1.18v6.2a8.11 8.11 0 008.06-8.11z"/><path class="cls-8" d="M547.86 282.11a4.29 4.29 0 006.06 0z"/><circle class="cls-7" cx="547.52" cy="278.08" r=".8"/><circle class="cls-7" cx="554.71" cy="278.08" r=".8"/><path class="cls-7" d="M559 267.67h-14a2.26 2.26 0 00-1.07.27l-.18.11a2.25 2.25 0 00-1 1.86v5.86A2.24 2.24 0 00545 278a2.05 2.05 0 012.06-2.05h2.73a4.23 4.23 0 003.74-4.2 2.29 2.29 0 002.57 2.25h2.9z"/><path class="cls-20" d="M542.76 279.74v-8.09a8.11 8.11 0 1116.21 0v8.09"/><path class="cls-20" d="M551.81 288.92c4.47 0 7.16-3.62 7.16-8.1V279"/><path class="cls-9" d="M542.76 279.74a4.34 4.34 0 010-8.68zM559 279.74a4.34 4.34 0 000-8.68z"/><path class="cls-7" d="M555.25 264.56H550a3.43 3.43 0 000 6.85h6.87l.32-1.71a3.43 3.43 0 00-.27-6.84 1.7 1.7 0 01-1.67 1.7z"/><circle cx="550.86" cy="288.92" r=".95" stroke="#b93499" stroke-width=".84" stroke-miterlimit="10" fill="#b93499"/><path class="cls-5" d="M557.75 369.41a1.46 1.46 0 001-2.48l-2.43-2.43a1.45 1.45 0 10-2.06 2.05l2.44 2.43a1.41 1.41 0 001.05.43z"/><path class="cls-6" d="M555.39 365.6l1.43-.63.56.56-1.35.71.7.69a1.44 1.44 0 002 0 1.45 1.45 0 11-2 2.05l-2.86-2.85v-2.05z"/><path class="cls-8" d="M168 568.9h-31.63c0 1 1.6 1.8 3.58 1.8h28z"/><ellipse class="cls-2" cx="156.71" cy="242.38" rx="21.7" ry="2.27"/><path class="cls-5" d="M161.08 181a1.38 1.38 0 01-.92-.34l-19.1-16.57a1.4 1.4 0 011.83-2.11L161 177.71l8.91-8.85a1.4 1.4 0 012 2l-9.84 9.78a1.38 1.38 0 01-.99.36zM140.73 147.39h.11a1.38 1.38 0 00-.54 2.71 8.11 8.11 0 1015.91 3.13l2.1-10.66-8-1.56a8.09 8.09 0 00-9.51 6.38z"/><path class="cls-8" d="M156.21 153.25l.74-3.75a2.86 2.86 0 00-2.91 2.32l-.6 3-1.15-.23-.9 4.55a8.08 8.08 0 004.82-5.89z"/><circle class="cls-7" cx="150.02" cy="151.57" r=".8"/><circle class="cls-7" cx="155.18" cy="152.59" r=".8"/><path class="cls-9" d="M157.12 148.62l1.19-6-8-1.56a8.09 8.09 0 00-9.51 6.38l3.9.77 12 2.36 3.38.67.38-1.92z"/><path class="cls-14" d="M143 152.65a1.11 1.11 0 01-.88-1.07 1.1 1.1 0 00-.86-1.29l-.9-.17a8.11 8.11 0 0015.29 5z"/><path class="cls-5" d="M148.48 155.37a4.28 4.28 0 006 1.17z"/><path class="cls-7" d="M145.78 243.75v-1.45a1.45 1.45 0 10-1.45 1.45h1.45"/><path class="cls-4" d="M141.89 241.27a1.4 1.4 0 01-1.4-1.4v-40.65a1.4 1.4 0 112.8 0v40.65a1.4 1.4 0 01-1.4 1.4z"/><path class="cls-7" d="M144.33 243.75a1.45 1.45 0 001-2.47l-2.43-2.44a1.45 1.45 0 10-2 2.06l2.43 2.43a1.44 1.44 0 001 .42z"/><path class="cls-7" d="M140.44 235.82h2.9v3.96h-2.9z"/><path class="cls-3" d="M142.44 242.31c.38.47.51.54.88.55h2.46v.89h-2.46c-.37 0-.5-.08-.88-.55l-2-2.53v-.89z"/><path class="cls-4" d="M156.14 241.27a1.4 1.4 0 01-1.4-1.4v-23.06l-4.86-17.21a1.4 1.4 0 112.7-.76l4.91 17.39a1.73 1.73 0 010 .38v23.26a1.4 1.4 0 01-1.35 1.4z"/><path class="cls-7" d="M154.69 235.19h2.9v3.23h-2.9z"/><path class="cls-7" d="M160.9 238.42h-6.21v2.9h7.67v-1.45a1.45 1.45 0 00-1.46-1.45z"/><path class="cls-3" d="M154.69 240.43h7.67v.89h-7.67z"/><path class="cls-9" d="M151.64 195.58l2.82-24.42a8.1 8.1 0 00-8.1-8.11H142l-.08 32.53z"/><path class="cls-9" d="M151.64 197h-9.75a1.38 1.38 0 01-1-.41 1.41 1.41 0 01-.41-1l.08-32.53a1.41 1.41 0 011.4-1.4h4.39a9.52 9.52 0 019.5 9.51.86.86 0 010 .16L153 195.75a1.4 1.4 0 01-1.36 1.25zm-8.34-2.8h7.09l2.67-23.1a6.71 6.71 0 00-6.7-6.63h-3z"/><path class="cls-4" d="M141.9 195.58v3.64h9.33l.41-3.64h-9.74z"/><path class="cls-4" d="M152.48 200.62h-12v-6.44h12.72zm-9.19-2.8H150l.09-.84h-6.78z"/><path class="cls-5" d="M152.15 180.77H152a1.37 1.37 0 01-1-.65l-10.17-16.32a1.4 1.4 0 112.37-1.48l9.22 14.8 9.82-10.19a1.4 1.4 0 112 1.94l-11.07 11.48a1.37 1.37 0 01-1.02.42z"/><path class="cls-9" d="M146.07 172.27l-5.28-8.48a1.4 1.4 0 112.37-1.48l5.29 8.48z"/><path class="cls-7" d="M166.68 170.52a.66.66 0 01-.49-.2.7.7 0 010-1l5.07-5.15a.7.7 0 011 0 .71.71 0 010 1l-5.07 5.15a.7.7 0 01-.51.2z"/><path class="cls-10" d="M179.48 227.44c0-1.83-2.47-3.32-5.52-3.32h-5.53v15.47a2.21 2.21 0 002.21 2.21h6.63a2.21 2.21 0 002.21-2.21z"/><path class="cls-10" d="M167.81 239.59v-15.47a.62.62 0 01.62-.62H174c3.44 0 6.14 1.73 6.14 3.94v12.15a2.83 2.83 0 01-2.83 2.83h-6.63a2.83 2.83 0 01-2.87-2.83zm1.24-14.85v14.85a1.59 1.59 0 001.59 1.58h6.63a1.59 1.59 0 001.59-1.58v-12.15c0-1.46-2.25-2.7-4.9-2.7z"/><path class="cls-10" d="M168.43 235.79a.62.62 0 00.62-.62.61.61 0 00-.62-.62 4.91 4.91 0 010-9.81H174a.62.62 0 100-1.24h-5.53a6.15 6.15 0 000 12.29zM179.48 239.11a.63.63 0 00.56-.35l6.85-13.87a.62.62 0 10-1.11-.55l-6.86 13.87a.62.62 0 00.28.83.58.58 0 00.28.07z"/><path class="cls-10" d="M188.32 226.22a.59.59 0 00.55-.34.62.62 0 00-.28-.84l-4-2a.62.62 0 00-.55 1.12l4 2a.67.67 0 00.28.06z"/><path class="cls-4" d="M369.17 251.15h-5.56v3.19a2.41 2.41 0 002.41 2.4h.74a2.39 2.39 0 002.25-1.58 2 2 0 00.16-4zm0 3.44a2.42 2.42 0 000-.25v-2.63a1.47 1.47 0 010 2.88z"/><path class="cls-1" d="M347.94 160.19h.7v40.12h-.7z"/><path class="cls-8" d="M358.93 194.61a1.39 1.39 0 01-1.21-.69L340 163.8a1.4 1.4 0 112.41-1.42l17.73 30.12a1.4 1.4 0 01-.49 1.92 1.43 1.43 0 01-.72.19z"/></svg>
