<svg xmlns="http://www.w3.org/2000/svg" width="220" height="204" viewBox="0 0 220 204">
  <g fill="none" transform="translate(-.5)">
    <path fill="#E8EAEC" d="M110.5,-3.26738636e-13 C171.251322,-3.26738636e-13 220.5,49.2486775 220.5,110 C220.5,129.553793 215.397945,147.915937 206.452463,163.827805 C193.273825,152.892898 176.349104,146.320001 157.889201,146.320001 L157.889201,146.320001 L6.63776189,146.321217 C2.66161891,134.950415 0.5,122.727644 0.5,110 C0.5,49.2486775 49.7486775,-3.26738636e-13 110.5,-3.26738636e-13 Z"/>
    <path fill="#FFF" d="M107.115114 176.365201C107.115128 177.969729 105.805286 179.272374 104.185012 179.279229L38.3453892 179.279229C36.7112434 179.286087 35.3789764 177.983409 35.3652008 176.365201L35.3652008 136.263601 104.2351 136.263601C105.855373 136.270429 107.165201 137.573073 107.165201 139.177601L107.115114 176.365201zM71.1140005 42.5444011C92.293063 42.5444011 109.504948 59.5299109 109.870469 80.6217468 109.883822 80.6561278 109.895641 80.6914391 109.906384 80.7272569 110.096585 81.3614025 109.917669 82.0486913 109.442401 82.5096006L86.3784007 108.227201C86.047374 108.606906 85.5677383 108.824099 85.0640007 108.822415 84.6273972 108.824188 84.2063849 108.660215 83.8860006 108.363601 83.537161 108.05396 83.3265091 107.617767 83.3008936 107.152031 83.2752781 106.686294 83.4368229 106.229631 83.7496006 105.883601L106.354694 80.6536774C106.011618 71.7111448 98.6537347 64.5668005 89.6272007 64.5668005 80.5418644 64.5668005 73.1469904 71.8045299 72.8938974 80.8286699 72.9386774 80.9805012 72.9616006 81.1409739 72.9616006 81.3068006L72.9616006 107.049201C72.9652797 107.529285 72.7727664 107.990055 72.4286357 108.324822 72.0845049 108.659588 71.618601 108.83932 71.1388005 108.822401 70.1858035 108.788852 69.4326948 108.00276 69.4400005 107.049201L69.4390611 81.8117096C69.3912708 81.6517691 69.3656005 81.4822827 69.3656005 81.3068006 69.3656003 72.061554 61.8708471 64.5668008 52.6256004 64.5668008 43.6118725 64.5668008 36.2620642 71.6908879 35.8996099 80.6156279L58.5404005 105.871201C59.0044544 106.393301 59.1187503 107.139197 58.8323238 107.776295 58.5458973 108.413393 57.9121231 108.822972 57.2136004 108.822401 56.7105608 108.820865 56.2321977 108.604247 55.8992004 108.227201L33.3185936 83.0374525C33.2748364 83.0153198 33.2317756 82.9912607 33.1895325 82.965275 32.7347586 82.6855228 32.4365393 82.2204978 32.3630918 81.7052187 32.278566 81.4059276 32.2729645 81.0845858 32.3546293 80.773829L32.3516002 81.3068006C32.3516007 59.8989184 49.7061183 42.5444011 71.1140005 42.5444011z"/>
    <path fill="#C5C9CE" d="M51.6212004,107.049201 L51.6212004,155.930001 L84.4564006,155.930001 C86.7505915,155.930001 88.6104007,154.070192 88.6104007,151.776001 L88.6104007,107.049201 L51.6212004,107.049201 Z"/>
    <ellipse cx="56.135" cy="197.358" fill="#F3F4F5" rx="26.747" ry="3.633"/>
    <path fill="#EC0677" d="M103.664001,131.440001 L30.6652002,131.440001 L30.6652002,176.402401 C30.6856937,180.700309 34.179249,184.171683 38.4772003,184.164801 L61.3428005,184.164801 L61.3428005,191.493201 L52.5016004,191.493201 L52.5016004,195.746402 L89.6024007,195.746402 L89.6024007,191.456001 L80.7488006,191.456001 L80.7488006,184.127601 L103.664001,184.127601 C107.951056,184.127601 111.426401,180.652257 111.426401,176.365201 L111.426401,139.165201 C111.399167,134.895512 107.933772,131.446724 103.664001,131.440001 Z M106.640001,176.365201 C106.640001,177.974559 105.335359,179.279307 103.726001,179.279307 L38.4400003,179.279307 C37.6605738,179.285807 36.9104496,178.982501 36.3546607,178.436014 C35.7988718,177.889527 35.48295,177.144628 35.4764003,176.365201 L35.4764003,136.263178 L103.676401,136.263178 C104.457799,136.250299 105.211793,136.551426 105.769049,137.099355 C106.326305,137.647285 106.640001,138.396089 106.640001,139.177601 L106.640001,176.365201 Z"/>
    <path fill="#969EA7" d="M80.3148006,151.776001 L80.3148006,149.705201 L47.4672004,149.705201 L47.4672004,151.776001 C47.4672004,154.070192 49.3270095,155.930001 51.6212004,155.930001 L84.4564006,155.930001 C83.3558282,155.930001 82.3005125,155.491958 81.5234544,154.712574 C80.7463963,153.933189 80.3115055,152.876569 80.3148006,151.776001 Z"/>
    <path fill="#F3F4F5" d="M121.867201,46.9216004 C123.18208,46.9216004 124.248001,45.8556799 124.248001,44.5408003 L124.248001,39.7916003 C124.248001,35.8606583 127.434659,32.6740003 131.365601,32.6740003 C135.296543,32.6740003 138.483201,35.8606583 138.483201,39.7916003 C138.482374,40.4529338 139.000694,40.9985341 139.661201,41.0316003 L145.600801,41.0316003 C148.220884,41.0384146 150.343187,43.1607174 150.350001,45.7808004 C150.349174,46.4421339 150.867494,46.9877342 151.528001,47.0208004 L166.804801,47.0208004 C168.770272,47.0208004 170.363601,48.6141294 170.363601,50.5796004 C170.363601,52.5450714 168.770272,54.1384004 166.804801,54.1384004 L121.867201,54.1384004 C119.90173,54.1384004 118.308401,52.5450714 118.308401,50.5796004 C118.308401,48.6141294 119.90173,47.0208004 121.867201,47.0208004 L121.867201,46.9216004 Z"/>
    <path fill="#FFF" d="M176.514001,65.9928005 C189.220584,65.9928005 199.547688,76.1805628 199.772655,88.8334305 C199.779722,88.8488503 199.785155,88.8654411 199.790195,88.8822176 C199.905923,89.2673916 199.795105,89.6849132 199.503602,89.9620007 L185.652801,105.400001 C185.45537,105.625482 185.171284,105.756251 184.871601,105.759692 C184.609656,105.763113 184.356462,105.665389 184.164801,105.486801 C183.952232,105.300624 183.823322,105.03689 183.807002,104.754789 C183.790683,104.472688 183.88832,104.195848 184.078001,103.986401 L197.636007,88.861224 C197.429096,83.5035375 193.020365,79.2236006 187.612001,79.2236006 C182.12517,79.2236006 177.667188,83.6286303 177.581653,89.0950925 C177.588338,89.1560613 177.587126,89.2179075 177.580401,89.2800007 L177.580401,104.693201 C177.580401,105.282157 177.102958,105.759601 176.514001,105.759601 C176.232301,105.759601 175.962316,105.646874 175.764292,105.44652 C175.566269,105.246167 175.456687,104.974881 175.460001,104.693201 L175.460001,89.2800007 C175.450188,89.1893952 175.452115,89.0993155 175.464875,89.0116285 L175.460001,89.2552007 C175.589022,85.5848996 173.704548,82.1368125 170.545736,80.2634024 C167.386924,78.3899924 163.457478,78.3899924 160.298666,80.2634024 C157.257499,82.0670406 155.397516,85.3302477 155.378326,88.8461132 L168.950001,103.986401 C169.139683,104.195848 169.23732,104.472688 169.221,104.754789 C169.20468,105.03689 169.07577,105.300624 168.863201,105.486801 C168.67154,105.665389 168.418347,105.763113 168.156401,105.759692 C167.865422,105.749354 167.591644,105.619197 167.400001,105.400001 L153.573903,90.019091 C153.375078,89.8253853 153.251601,89.5547127 153.251601,89.2552007 C153.251601,76.4077318 163.666532,65.9928005 176.514001,65.9928005 Z"/>
    <polygon fill="#C5C9CE" points="162.08 108.959 162.589 110.41 163.01 111.836 163.606 113.212 163.903 114.688 164.61 116.027 164.932 117.502 165.577 118.866 165.85 120.342 166.408 121.718 166.693 123.206 167.202 124.608 167.784 125.984 168.169 127.435 168.702 128.836 169.272 130.225 169.582 131.7 170.215 133.077 170.723 134.478 170.996 135.978 171.616 137.268 172.918 137.008 174.183 136.35 175.621 136.189 176.898 135.557 178.25 135.11 179.651 134.838 180.941 134.23 182.305 133.821 183.694 133.511 185.033 133.052 186.285 132.308 187.711 132.122 189.013 131.477 190.365 131.031 191.406 130.349 191.94 129.22 191.989 127.943 191.654 126.505 190.985 125.178 190.588 123.752 190.092 122.363 189.732 120.925 189.236 119.536 188.691 118.16 188.294 116.734 188.034 115.283 187.538 113.894 186.992 112.518 186.682 111.067 186.149 109.69 185.752 108.264 185.231 106.876 184.686 105.499 184.289 104.073 183.867 102.647 183.309 101.271 183.012 99.808 182.478 98.506 181.276 99.138 179.887 99.584 178.771 100.539 177.37 100.911 176.13 101.643 174.84 102.263 173.625 103.044 172.422 103.825 171.046 104.296 169.806 105.016 168.466 105.561 167.226 106.28 165.962 106.95 164.647 107.57 163.333 108.165"/>
    <path fill="#969EA7" d="M187.240001,129.530401 C187.041601,128.935201 187.326801,128.712001 186.806001,128.364801 C186.285201,128.017601 186.334801,128.451601 185.876001,128.612801 C185.417201,128.774001 185.429601,128.836001 184.958401,128.997201 C184.487201,129.158401 184.474801,129.121201 184.016001,129.282401 L183.073601,129.592401 C182.602401,129.753601 182.590001,129.691601 182.118801,129.852801 L181.176401,130.162801 C180.705201,130.324001 180.730001,130.373601 180.258801,130.522401 C179.787601,130.671201 179.800001,130.708401 179.328801,130.869601 C178.857601,131.030801 178.845201,130.968801 178.374001,131.117601 L177.419201,131.427601 C176.948001,131.588801 176.972801,131.638401 176.501601,131.799601 C176.030401,131.960801 176.030401,131.973201 175.559201,132.122001 C175.088001,132.270801 175.075601,132.221201 174.604401,132.382401 C174.133201,132.543601 174.145601,132.568401 173.674401,132.729601 C173.203201,132.890801 173.178401,132.816401 172.707201,132.965201 C172.236001,133.114001 172.273201,133.225601 171.802001,133.386801 C171.330801,133.548001 171.318401,133.523201 170.847201,133.684401 C170.376001,133.845601 170.363601,133.808401 169.892401,133.957201 C169.421201,134.106001 169.421201,134.143201 168.950001,134.304401 C168.478801,134.465601 168.119201,134.106001 167.945601,134.577201 C167.772001,135.048401 168.168801,135.197201 168.367201,135.817201 C168.473452,136.130145 168.637491,136.420369 168.850801,136.672801 C169.081718,136.908151 169.355231,137.097506 169.656801,137.230801 C169.947721,137.371302 170.264077,137.451446 170.586801,137.466401 C170.908502,137.50104 171.233892,137.467233 171.541601,137.367201 C172.025201,137.218401 172.037601,137.243201 172.508801,137.082001 C172.980001,136.920801 172.967601,136.896001 173.451201,136.747201 C173.934801,136.598401 173.922401,136.610801 174.406001,136.449601 C174.889601,136.288401 174.889601,136.325601 175.360801,136.164401 C175.832001,136.003201 175.807201,135.941201 176.290801,135.780001 L177.245601,135.470001 C177.716801,135.308801 177.729201,135.346001 178.200401,135.197201 C178.671601,135.048401 178.696401,135.073201 179.167601,134.912001 L180.122401,134.602001 L181.077201,134.292001 C181.548401,134.130801 181.536001,134.068801 182.007201,133.907601 C182.478401,133.746401 182.478401,133.734001 182.962001,133.572801 C183.445601,133.411601 183.458001,133.486001 183.941601,133.337201 C184.425201,133.188401 184.400401,133.126401 184.884001,132.977601 L185.838801,132.642801 C186.285201,132.494001 186.310001,132.543601 186.756401,132.394801 L187.674001,132.097201 C188.120401,131.936001 188.120401,131.923601 188.579201,131.774801 C189.038001,131.626001 189.025601,131.601201 189.472001,131.452401 C189.918401,131.303601 189.930801,131.278801 190.389601,131.130001 C190.076886,131.25032 189.745054,131.313326 189.410001,131.316001 C189.084819,131.259747 188.773372,131.141902 188.492401,130.968801 C188.199063,130.834528 187.937155,130.64021 187.723601,130.398401 C187.503147,130.146301 187.338359,129.850527 187.240001,129.530401 Z"/>
  </g>
</svg>
