<?xml version="1.0" encoding="UTF-8"?>
<svg width="61px" height="55px" viewBox="0 0 61 55" version="1.1" xmlns="http://www.w3.org/2000/svg" xmlns:xlink="http://www.w3.org/1999/xlink">
    <!-- Generator: Sketch 59 (86127) - https://sketch.com -->
    <title>illustration/product/device/60 Bank </title>
    <desc>Created with Sketch.</desc>
    <g id="Page-1" stroke="none" stroke-width="1" fill="none" fill-rule="evenodd">
        <g id="Step-1-overview" transform="translate(-417.000000, -273.000000)">
            <g id="illustration/product/device/60-Bank-" transform="translate(417.000000, 273.000000)">
                <g id="Group">
                    <polygon id="Fill-1" fill="#E0E2E4" points="8 48 12.8 48 12.8 20 8 20"></polygon>
                    <polygon id="Fill-2" fill="#C5C9CE" points="8 22.4 12.8 22.4 12.8 20 8 20"></polygon>
                    <polygon id="Fill-3" fill="#DCDFE1" points="20.8 48 25.6 48 25.6 20 20.8 20"></polygon>
                    <polygon id="Fill-4" fill="#C5C9CE" points="20.8 22.4 25.6 22.4 25.6 20 20.8 20"></polygon>
                    <polygon id="Fill-5" fill="#DCDFE1" points="33.6 48 38.4 48 38.4 20 33.6 20"></polygon>
                    <polygon id="Fill-6" fill="#C5C9CE" points="33.6 22.4 38.4 22.4 38.4 20 33.6 20"></polygon>
                    <polygon id="Fill-7" fill="#DCDFE1" points="46.4 48 51.2 48 51.2 20 46.4 20"></polygon>
                    <polygon id="Fill-8" fill="#C5C9CE" points="46.4 22.4 51.2 22.4 51.2 20 46.4 20"></polygon>
                    <polygon id="Fill-9" fill="#C5C9CE" points="5.6 52 54.4 52 54.4 48 5.6 48"></polygon>
                    <polygon id="Fill-12" fill="#DCDFE1" points="2.4 20 56.8 20 56.8 15.2 2.4 15.2"></polygon>
                    <polygon id="Fill-13" fill="#C5C9CE" points="29.6006476 0 2.4 15.2 56.8 15.2"></polygon>
                    <rect id="Rectangle" fill="#DCDFE1" fill-rule="nonzero" x="0" y="52" width="60.8" height="2.4" rx="1.2"></rect>
                </g>
            </g>
        </g>
    </g>
</svg>