<?xml version="1.0" encoding="UTF-8"?>
<svg width="78px" height="56px" viewBox="0 0 78 56" version="1.1" xmlns="http://www.w3.org/2000/svg" xmlns:xlink="http://www.w3.org/1999/xlink">
    <title>illustration/product/device/37 calender</title>
    <g id="NZ-Payday-Filing" stroke="none" stroke-width="1" fill="none" fill-rule="evenodd">
        <g id="Payday-filing-onboarding-step-1" transform="translate(-600.000000, -635.000000)">
            <g id="Group-3" transform="translate(600.000000, 628.000000)">
                <g id="Group" transform="translate(0.000000, 7.000000)">
                    <path d="M4.72778596,55.9027778 C2.12072896,55.9027778 0,53.7625321 0,51.1314828 L0,4.7700741 C0,2.14024569 2.12072896,0 4.72778596,0 L78,0 L78,51.1314828 C78,53.7625321 75.8562854,55.9027778 73.2201939,55.9027778 L4.72778596,55.9027778 Z" id="Fill-1" fill="#EAECED"></path>
                    <path d="M78,9.72222222 L78,0 L4.72892239,0 C2.12190583,0 0,2.09399872 0,4.66700113 L0,9.72222222 L78,9.72222222 Z" id="Fill-4" fill="#B93499"></path>
                    <path d="M71.4034855,2.53878515 L72.9755686,3.92096013 C73.1748105,4.0958529 73.1748105,4.41039886 72.9755686,4.58529163 L71.4034855,5.96877178 C71.1232614,6.21414373 70.6875,6.01314755 70.6875,5.63595344 L70.6875,2.87029832 C70.6875,2.49440938 71.1232614,2.29210803 71.4034855,2.53878515" id="Fill-7" fill="#FFFFFF"></path>
                    <path d="M68.7527645,2.53878515 L67.1806814,3.92096013 C66.9814395,4.0958529 66.9814395,4.41039886 67.1806814,4.58529163 L68.7527645,5.96877178 C69.0329886,6.21414373 69.46875,6.01314755 69.46875,5.63595344 L69.46875,2.87029832 C69.46875,2.49440938 69.0329886,2.29210803 68.7527645,2.53878515" id="Fill-9" fill="#FFFFFF"></path>
                    <path d="M8.53125,4.86111111 C8.53125,5.53266178 7.98596939,6.07638889 7.3125,6.07638889 C6.63903061,6.07638889 6.09375,5.53266178 6.09375,4.86111111 C6.09375,4.18956044 6.63903061,3.64583333 7.3125,3.64583333 C7.98596939,3.64583333 8.53125,4.18956044 8.53125,4.86111111" id="Fill-11" fill="#FFFFFF"></path>
                    <path d="M12.1875,4.86111111 C12.1875,5.53266178 11.6422194,6.07638889 10.96875,6.07638889 C10.2952806,6.07638889 9.75,5.53266178 9.75,4.86111111 C9.75,4.18956044 10.2952806,3.64583333 10.96875,3.64583333 C11.6422194,3.64583333 12.1875,4.18956044 12.1875,4.86111111" id="Fill-13" fill="#FFFFFF"></path>
                    <path d="M15.84375,4.86111111 C15.84375,5.53266178 15.2984694,6.07638889 14.625,6.07638889 C13.9515306,6.07638889 13.40625,5.53266178 13.40625,4.86111111 C13.40625,4.18956044 13.9515306,3.64583333 14.625,3.64583333 C15.2984694,3.64583333 15.84375,4.18956044 15.84375,4.86111111" id="Fill-15" fill="#FFFFFF"></path>
                    <polygon id="Fill-17" fill="#FFFFFF" points="9.36853125 39.1239236 66.6278437 39.1239236 66.6278437 22.9911111 9.36853125 22.9911111"></polygon>
                    <path d="M62.15625,42.5415634 L57.7964368,37.6317687 L60.4359661,36.808782 C60.6824395,36.7317416 60.8559769,36.5165177 60.8748397,36.2658308 C60.89496,36.0151439 60.7553755,35.7779085 60.5239923,35.6654051 L49.6678438,30.4462261 C49.4389756,30.3361685 49.1635792,30.3691858 48.9699215,30.5318265 C48.7762638,30.6944673 48.7020703,30.9537142 48.7812939,31.1909497 L52.5123483,42.393597 C52.5400137,42.474306 52.5815118,42.5464549 52.635585,42.607598 C52.7449891,42.7298843 52.8996637,42.8081476 53.0719436,42.8203762 C53.3297347,42.8387191 53.5736931,42.7017585 53.6881272,42.4767517 L54.9104342,40.0567059 L59.2702473,44.9652778 L62.15625,42.5415634 Z" id="Fill-19" fill="#A1A8B0"></path>
                    <text id="XXX" font-family="NeutroMYOB-Bold, Neutro MYOB" font-size="10.9375" font-weight="bold" fill="#949DA6">
                        <tspan x="16.9244156" y="35.5409207">XXX</tspan>
                    </text>
                </g>
            </g>
        </g>
    </g>
</svg>