<?xml version="1.0" encoding="UTF-8"?>
<svg width="57px" height="37px" viewBox="0 0 57 37" version="1.1" xmlns="http://www.w3.org/2000/svg" xmlns:xlink="http://www.w3.org/1999/xlink">
    <!-- Generator: Sketch 59 (86127) - https://sketch.com -->
    <title>illustration/product/device/30</title>
    <desc>Created with Sketch.</desc>
    <g id="Page-1" stroke="none" stroke-width="1" fill="none" fill-rule="evenodd">
        <g id="Step-1-overview" transform="translate(-417.000000, -408.000000)">
            <g id="illustration/product/device/30" transform="translate(417.000000, 408.000000)">
                <g id="Group-12">
                    <g id="Group-11">
                        <polygon id="Fill-1" fill="#515E6D" points="21.9512195 22.0754717 34.2987805 22.0754717 34.2987805 6.20872642 21.9512195 6.20872642"></polygon>
                        <path d="M34.2987805,6.20872642 C34.2987805,9.63747775 31.5344525,12.4174528 28.125,12.4174528 C24.7155475,12.4174528 21.9512195,9.63747775 21.9512195,6.20872642 C21.9512195,2.77928268 24.7155475,0 28.125,0 C31.5344525,0 34.2987805,2.77928268 34.2987805,6.20872642" id="Fill-2" fill="#C5C9CE"></path>
                        <path d="M21.9512195,6.20872642 C21.9512195,2.77928268 24.7155475,0 28.125,0 C31.5344525,0 34.2987805,2.77928268 34.2987805,6.20872642 L21.9512195,6.20872642 Z" id="Fill-4" fill="#515E6D"></path>
                        <path d="M28.4683336,13.7971698 C22.5960968,13.7971698 17.8353659,18.4295833 17.8353659,24.1450472 L39.1006098,24.1450472 C39.1006098,18.4295833 34.3405704,13.7971698 28.4683336,13.7971698" id="Fill-6" fill="#C5C9CE"></path>
                        <path d="M45.617378,26.2146226 C39.7443763,26.2146226 34.9847561,30.8474498 34.9847561,36.5625 L56.25,36.5625 C56.25,30.8474498 51.4896904,26.2146226 45.617378,26.2146226" id="Fill-8" fill="#8241AA"></path>
                        <path d="M10.6322773,26.2146226 C4.76015525,26.2146226 0,30.8474498 0,36.5625 L21.2652439,36.5625 C21.2652439,30.8474498 16.5043993,26.2146226 10.6322773,26.2146226" id="Fill-10" fill="#B93499"></path>
                        <path d="M16.4634146,17.2464623 C16.4634146,20.6755121 13.6993835,23.4551887 10.2896341,23.4551887 C6.87988476,23.4551887 4.11585366,20.6755121 4.11585366,17.2464623 C4.11585366,13.8174124 6.87988476,11.0377358 10.2896341,11.0377358 C13.6993835,11.0377358 16.4634146,13.8174124 16.4634146,17.2464623" id="Fill-12" fill="#515E6D"></path>
                        <path d="M15.777439,23.8001179 C15.777439,26.657569 13.4738317,28.9740566 10.632269,28.9740566 C7.79070619,28.9740566 5.48780488,26.657569 5.48780488,23.8001179 C5.48780488,20.9433768 7.79070619,18.6261792 10.632269,18.6261792 C13.4738317,18.6261792 15.777439,20.9433768 15.777439,23.8001179" id="Fill-14" fill="#515E6D"></path>
                        <path d="M52.1341463,19.3160377 C52.1341463,22.7450876 49.3701152,25.5247642 45.9603659,25.5247642 C42.5506165,25.5247642 39.7865854,22.7450876 39.7865854,19.3160377 C39.7865854,15.8869879 42.5506165,13.1073113 45.9603659,13.1073113 C49.3701152,13.1073113 52.1341463,15.8869879 52.1341463,19.3160377" id="Fill-16" fill="#515E6D"></path>
                    </g>
                </g>
            </g>
        </g>
    </g>
</svg>