<?xml version="1.0" encoding="UTF-8"?>
<svg width="145px" height="174px" viewBox="0 0 145 174" version="1.1" xmlns="http://www.w3.org/2000/svg" xmlns:xlink="http://www.w3.org/1999/xlink">
    <!-- Generator: Sketch 62 (91390) - https://sketch.com -->
    <title>Artboard</title>
    <desc>Created with Sketch.</desc>
    <g id="Artboard" stroke="none" stroke-width="1" fill="none" fill-rule="evenodd">
        <g id="Group-2" transform="translate(72.500000, 88.500000) scale(-1, 1) translate(-72.500000, -88.500000) translate(0.000000, 1.000000)">
            <path d="M39.7598747,21.7755617 L40.0883151,21.8284273 C38.548618,21.5734522 36.9888351,22.1531711 35.9965215,23.3492093 C35.0042079,24.5452475 34.7301198,26.1758984 35.2775033,27.6269116 C35.8248869,29.0779248 37.1105816,30.1288568 38.6502787,30.3838317 C36.9629356,39.4477911 40.3334011,48.7102396 47.4665434,54.6119979 C54.5996857,60.5137562 64.3857391,62.1366359 73.0643244,58.8570307 C81.7429097,55.5774255 87.963823,47.9055726 89.3366222,38.7894505 L95,5.07005522 L69.6568282,0.876056747 C62.9362549,-0.239847878 56.04439,1.34111569 50.4986316,5.27086297 C44.9528732,9.20061026 41.2079228,15.1569379 40.0883151,21.8284273 L39.7598747,21.7755617 Z" id="Path" fill="#DCDFE1" fill-rule="nonzero"></path>
            <path d="M64,44.5266083 C66.0980063,47.6183231 69.2792731,49.7066212 72.8430498,50.3315046 C76.4068265,50.9563881 80.0607659,50.0665959 83,47.8581262 L64,44.5266083 Z" id="Path" fill="#ABB2B9" fill-rule="nonzero"></path>
            <path d="M89.8575983,37.5893698 L92,24.5266083 C87.1969534,24.5170681 83.092944,28.0340091 82.3018066,32.8375186 L80.6758767,42.709732 L76.7162593,42.0405938 L74,58.5266083 C82.3984819,54.6653348 88.3457615,46.8129723 89.8575983,37.5893698 Z" id="Path" fill="#ABB2B9" fill-rule="nonzero"></path>
            <circle id="Oval" fill="#2E3E4F" fill-rule="nonzero" cx="69.5" cy="33.0266083" r="2.5"></circle>
            <circle id="Oval" fill="#2E3E4F" fill-rule="nonzero" cx="85.5" cy="36.0266083" r="2.5"></circle>
            <path d="M95,5.2480873 L69.4396483,0.889749662 C62.6614825,-0.269880977 55.7105573,1.37303164 50.1172742,5.45676358 C44.5239911,9.54049552 40.7469481,15.7302181 39.6177458,22.6631255 L39,26.4354682 C42.5706024,27.0383565 45.9497164,24.5873925 46.5741007,20.9417653 L46.5741007,20.9417653 C47.2029178,17.2990055 50.5787793,14.8504007 54.1482014,15.4480624 L85.7964828,20.8593597 C89.365905,21.4570214 92.7417664,19.0084165 93.3705835,15.3656568 L95,5.2480873 Z" id="Path" fill="#2E3E4F" fill-rule="nonzero"></path>
            <path d="M116,131.526608 C114.749644,78.6307114 78.4095012,69.6357017 60,68.5266083" id="Path" stroke="#FFFFFF" stroke-width="8" stroke-linecap="round" stroke-linejoin="round"></path>
            <path d="M37.4450713,174.526608 L30,100.130266 C30.6569181,73.595352 49.8038895,69.0852381 59.5,68.5266083 C69.1961105,69.0852381 88.3430819,73.595352 89,100.130266 L81.5461698,174.526608 L37.4450713,174.526608 Z" id="Path" fill="#FFFFFF" fill-rule="nonzero"></path>
            <path d="M71,66 C90.547359,70.0032049 118.885765,84.0756064 120,131.930512 L120,131.930512 L120,132.026659 L111.270367,132.079103 C110.638675,105.507612 100.882543,90.7534416 89.1260519,82.6596256 C91.6089526,87.7204458 93.2408236,94.1622842 93.4338406,102.378469 L93.4338406,102.378469 L93.4338406,102.640688 L86.768,173 L71,173 Z" id="Combined-Shape" fill="#6100A5" fill-rule="nonzero"></path>
            <path d="M5,131.526608 C6.25035629,78.6307114 42.5904988,69.6357017 61,68.5266083" id="Path" stroke="#FFFFFF" stroke-width="8" stroke-linecap="round" stroke-linejoin="round"></path>
            <path d="M49,66 L49,173 L31.332,173 L24.8335986,103.019431 L24.8335986,102.755258 C24.8384567,96.5249123 26.0148769,90.35291 28.2995579,84.5713558 C17.7110522,93.0513063 9.24544651,107.642457 8.66489832,132.677243 L8.66489832,132.677243 L0,132.527545 C1.12643678,83.893312 29.5819629,69.8921476 49,66 L49,66 Z" id="Combined-Shape" fill="#6100A5" fill-rule="nonzero"></path>
            <line x1="48" y1="137.526608" x2="5" y2="131.526608" id="Path" stroke="#DCDFE1" stroke-width="10" stroke-linecap="round" stroke-linejoin="round"></line>
            <path d="M34.4653947,140.526608 C34.2813502,140.526608 34.1060698,140.526608 33.9220253,140.526608 L3.96659904,136.351497 C2.37855207,136.181568 0.998150145,135.055427 0.362704273,133.411417 C-0.272741598,131.767406 -0.0628310896,129.865279 0.910729719,128.445425 C1.88429053,127.02557 3.46767922,126.312324 5.04457371,126.583313 L35,130.748577 L34.4653947,140.526608 Z" id="Path" fill="#6100A5" fill-rule="nonzero"></path>
            <path d="M122.947059,91.5266083 L51.0176471,91.5266083 C46.0393542,91.5314706 42.004864,95.5645535 42,100.54111 L42,150.526608 L132,150.526608 L132,100.54111 C131.970931,95.5608624 127.92912,91.5362129 122.947059,91.5266083 Z" id="Path" fill="#EBEEF1" fill-rule="nonzero"></path>
            <path d="M33,148.526608 C33,151.843378 38.0238394,154.526608 44.2158093,154.526608 L133.713927,154.526608 C139.905897,154.526608 145,151.843378 145,148.526608 L33,148.526608 Z" id="Path" fill="#EBEEF1" fill-rule="nonzero"></path>
            <path d="M122.869151,91.5266083 L109.119584,91.5266083 L50,148.526608 L132,148.526608 L132,100.235533 C131.970688,95.4174682 127.89124,91.5266083 122.869151,91.5266083 Z" id="Path" fill="#DCDFE1" fill-rule="nonzero" style="mix-blend-mode: multiply;"></path>
            <line x1="60.5" y1="71.5" x2="60.5" y2="91.5" id="Path" stroke="#2E3E4F" stroke-width="5"></line>
        </g>
    </g>
</svg>