<?xml version="1.0" encoding="UTF-8"?>
<svg width="16px" height="15px" viewBox="0 0 16 15" version="1.1" xmlns="http://www.w3.org/2000/svg" xmlns:xlink="http://www.w3.org/1999/xlink">
    <!-- Generator: Sketch 59 (86127) - https://sketch.com -->
    <title>icon/small/PC computer</title>
    <desc>Created with Sketch.</desc>
    <defs>
        <path d="M15.0034482,0.710554972 C15.3819089,1.08901565 15.3819089,1.70262165 15.0034482,2.08108233 L14.9781735,2.1054574 L14.9781735,2.1054574 L2.15693961,14.0296557 C1.74631001,14.4115557 1.10708004,14.3999733 0.710554972,14.0034482 C0.332094292,13.6249875 0.332094292,13.0113815 0.710554972,12.6329208 C0.71883197,12.6246438 0.72725825,12.6165175 0.735829663,12.6085458 L13.5570636,0.684347458 C13.9676932,0.302447493 14.6069231,0.314029909 15.0034482,0.710554972 Z M13.6296296,5.88888889 C13.6296296,6.01708301 13.6248451,6.14412473 13.6154502,6.2698345 L13.5913983,6.51271193 L13.7158979,6.52808752 C15.0074143,6.71942846 16,7.86517647 16,9.25 C16,10.1824066 15.5500236,11.0064312 14.8617976,11.5037305 C14.5422413,11.8110585 14.1080003,12 13.6296296,12 L6.2,11.9993699 L13.5747739,5.14279723 C13.6108947,5.38605445 13.6296296,5.63521541 13.6296296,5.88888889 Z M8.88888889,1 C9.59811119,1 10.2709589,1.16060472 10.8750993,1.44847089 L0.878010859,10.7459033 C0.331279682,10.1011377 0,9.25713173 0,8.33333333 C0,6.30828925 1.59187645,4.66666667 3.55555556,4.66666667 C3.80350686,4.66666667 4.04553022,4.69284036 4.27916937,4.74265474 C4.77937106,2.59559503 6.65344091,1 8.88888889,1 Z" id="path-1"></path>
    </defs>
    <g id="Third-party-failure" stroke="none" stroke-width="1" fill="none" fill-rule="evenodd">
        <g id="Artboard" transform="translate(-1.000000, -2.000000)">
            <g id="icon/small/cloud-disconnected">
                <g id="Icon" transform="translate(1.000000, 2.000000)">
                    <mask id="mask-2" fill="white">
                        <use xlink:href="#path-1"></use>
                    </mask>
                    <use id="Combined-Shape" fill="#969EA7" fill-rule="nonzero" xlink:href="#path-1"></use>
                    <g id="swatch/icons/default" mask="url(#mask-2)" fill="#969EA7">
                        <g transform="translate(-1.000000, -2.000000)" id="Rectangle-2">
                            <rect x="0" y="0" width="18" height="18"></rect>
                        </g>
                    </g>
                </g>
            </g>
        </g>
    </g>
</svg>