<svg width="70" height="100" xmlns="http://www.w3.org/2000/svg" xmlns:xlink="http://www.w3.org/1999/xlink"><defs><path id="a" d="M0 0h57.885v9.46H0z"/></defs><g fill="none" fill-rule="evenodd"><path d="M1.346 2.703v89.045c0 4.557 3.698 8.252 8.26 8.252h52.136c4.56 0 8.258-3.695 8.258-8.252V11.006c0-4.558-3.697-8.303-8.258-8.303H1.346z" fill="#EC0677"/><path fill="#C5C9CE" opacity=".4" style="mix-blend-mode:multiply" d="M6.73 90.54h57.885V72.974H6.731z"/><path d="M6.73 10.81v67.568h51.386c3.59 0 6.5-2.879 6.5-6.432V10.811H6.73z" fill="#FFF"/><g transform="translate(0 68.919)"><mask id="b" fill="#fff"><use xlink:href="#a"/></mask><path d="M51.388 3.153V0H0v3.153C0 6.637 2.91 9.46 6.497 9.46h51.388c-3.588 0-6.497-2.822-6.497-6.306" fill="#E0E2E4" mask="url(#b)"/></g><path d="M42.66 7.21c0-3.983-3.128-7.21-6.986-7.21-3.86 0-6.987 3.227-6.987 7.21H16.154v6.304h39.038V7.21H42.66z" fill="#2E3E4F"/><path fill="#E0E2E4" d="M24.23 48.649h18.847v-18.92H24.23z"/><path stroke="#828B95" stroke-width="2.703" stroke-linecap="round" stroke-linejoin="round" d="M28.27 36.828l6.086 6.415 14.106-14.865"/></g></svg>