<svg width="470" height="308" viewBox="0 0 470 308" fill="none" xmlns="http://www.w3.org/2000/svg">
<path d="M398.552 283.475H71.5669C69.6113 283.571 67.7616 282.582 66.755 280.903C65.7483 279.223 65.7483 277.125 66.755 275.446C67.7616 273.766 69.6113 272.777 71.5669 272.873H398.552C401.377 273.012 403.597 275.344 403.597 278.174C403.597 281.004 401.377 283.336 398.552 283.475Z" fill="#EDEDED"/>
<path d="M172.936 145C164.682 145 157.991 151.692 157.991 159.947V231.569C157.991 239.827 164.68 246.522 172.936 246.53H217.039V260.631H200.018V268.81H271.446V260.631H254.413V246.53H298.439C306.712 246.53 313.431 239.844 313.473 231.569V145H172.936Z" fill="#ED0677"/>
<path d="M172.936 241.761C167.303 241.718 162.759 237.139 162.759 231.505V159.947C162.801 154.343 167.333 149.811 172.936 149.769H308.705V231.569C308.705 237.233 304.115 241.825 298.452 241.825L172.936 241.761Z" fill="white"/>
<path d="M134.588 239.107V254.965C134.588 261.337 129.423 266.502 123.052 266.502H119.015C112.669 266.467 107.544 261.312 107.544 254.965V239.107H134.588Z" fill="#E0E2E5"/>
<path d="M123.104 267.925H119.067C111.894 267.918 106.083 262.1 106.083 254.926V237.594H136.1V254.965C136.072 262.126 130.264 267.918 123.104 267.925ZM109.108 240.594V254.926C109.115 260.427 113.567 264.886 119.067 264.9H123.104C128.608 264.893 133.068 260.431 133.075 254.926V240.633L109.108 240.594Z" fill="#E0E2E5"/>
<path d="M134.587 259.49V256.465C137.491 256.581 140.225 255.099 141.712 252.601C143.198 250.104 143.198 246.993 141.712 244.496C140.225 241.998 137.491 240.516 134.587 240.633V237.594C140.633 237.594 145.533 242.496 145.533 248.542C145.533 254.588 140.633 259.49 134.587 259.49Z" fill="#E0E2E5"/>
<g style="mix-blend-mode:multiply">
<path d="M158.568 235.659C160.386 242.089 166.254 246.529 172.936 246.53H217.039V260.631H200.018V268.81H271.446V260.631H254.413V246.53H298.439C306.712 246.53 313.431 239.844 313.473 231.569V145H249.196L158.568 235.659Z" fill="#F0F1F3"/>
</g>
<path d="M133.216 204.204C137.69 204.204 141.316 200.576 141.316 196.102C141.316 191.627 137.69 188 133.216 188C128.742 188 125.116 191.627 125.116 196.102C125.116 200.576 128.742 204.204 133.216 204.204Z" fill="#F0F1F3"/>
<path d="M114.017 186.614C117.775 186.614 120.822 183.567 120.822 179.807C120.822 176.048 117.775 173 114.017 173C110.258 173 107.211 176.048 107.211 179.807C107.211 183.567 110.258 186.614 114.017 186.614Z" fill="#F0F1F3"/>
<path d="M119.118 226.677C124.037 226.677 128.025 222.688 128.025 217.767C128.025 212.846 124.037 208.858 119.118 208.858C114.198 208.858 110.21 212.846 110.21 217.767C110.21 222.688 114.198 226.677 119.118 226.677Z" fill="#F0F1F3"/>
<path d="M229.856 184.471C229.856 182.347 231.577 180.625 233.701 180.625C235.824 180.625 237.546 182.347 237.546 184.471V199.854L248.876 203.7C251.439 204.52 252.247 207.546 251.645 210.11L249.081 224.211H228.574L218.321 208.828C217.167 207.059 217.039 203.7 219.602 203.7C222.166 203.7 224.729 204.777 229.856 212.674V184.471Z" fill="#7F489B"/>
<path d="M252.926 185.112H245.236C244.174 185.112 243.313 184.251 243.313 183.189C243.313 182.127 244.174 181.266 245.236 181.266H252.926C253.988 181.266 254.849 182.127 254.849 183.189C254.849 184.251 253.988 185.112 252.926 185.112Z" fill="white"/>
<path d="M242.672 177.42C242.162 177.423 241.672 177.219 241.314 176.856C240.571 176.103 240.571 174.892 241.314 174.138L246.441 169.011C247.22 168.405 248.331 168.487 249.012 169.201C249.693 169.916 249.723 171.03 249.081 171.78L243.954 176.907C243.606 177.232 243.149 177.415 242.672 177.42Z" fill="white"/>
<path d="M234.982 174.856C233.92 174.856 233.06 173.995 233.06 172.933V165.242C233.06 164.18 233.92 163.319 234.982 163.319C236.044 163.319 236.905 164.18 236.905 165.242V172.933C236.905 173.443 236.702 173.933 236.342 174.293C235.981 174.654 235.492 174.856 234.982 174.856Z" fill="white"/>
<path d="M224.729 177.42C224.219 177.423 223.729 177.219 223.37 176.856L218.243 171.728C217.493 170.974 217.496 169.755 218.25 169.004C219.004 168.254 220.223 168.257 220.973 169.011L226.1 174.138C226.843 174.892 226.843 176.103 226.1 176.856C225.738 177.221 225.243 177.425 224.729 177.42Z" fill="white"/>
<path d="M222.165 185.112H214.475C213.413 185.112 212.553 184.251 212.553 183.189C212.553 182.127 213.413 181.266 214.475 181.266H222.165C223.227 181.266 224.088 182.127 224.088 183.189C224.088 184.251 223.227 185.112 222.165 185.112Z" fill="white"/>
<path fill-rule="evenodd" clip-rule="evenodd" d="M57 64V143.016C57 147.978 60.9799 152 65.8905 152H120V77.4588L106.574 64H57Z" fill="#E8EAEC"/>
<path d="M63.2817 81.4029H74.3129" stroke="#C5C9CE" stroke-width="2.35294" stroke-linecap="round" stroke-linejoin="round"/>
<path fill-rule="evenodd" clip-rule="evenodd" d="M63.2812 142.837H97.8951V138.624H63.2812V142.837Z" fill="#C5C9CE"/>
<path fill-rule="evenodd" clip-rule="evenodd" d="M98.9219 142.837H112.713V138.624H98.9219V142.837Z" fill="#C5C9CE"/>
<path fill-rule="evenodd" clip-rule="evenodd" d="M63.2812 134.536H97.8951V130.323H63.2812V134.536Z" fill="#C5C9CE"/>
<path fill-rule="evenodd" clip-rule="evenodd" d="M98.9219 134.536H112.713V130.323H98.9219V134.536Z" fill="#C5C9CE"/>
<path fill-rule="evenodd" clip-rule="evenodd" d="M106.574 64V77.4588H120L106.574 64Z" fill="#C5C9CE"/>
<path fill-rule="evenodd" clip-rule="evenodd" d="M67.1367 124.042H76.2261V111.042H67.1367V124.042Z" fill="#EC0677"/>
<path fill-rule="evenodd" clip-rule="evenodd" d="M78.3267 124.042H87.416V97.0424H78.3267V124.042Z" fill="#969EA7"/>
<path fill-rule="evenodd" clip-rule="evenodd" d="M89.5151 124.042H98.6057V103.042H89.5151V124.042Z" fill="#EC0677"/>
<path fill-rule="evenodd" clip-rule="evenodd" d="M100.706 124.042H109.795V88.0424H100.706V124.042Z" fill="#969EA7"/>
<path d="M64 124.042H111.716" stroke="#ED0677" stroke-width="1.41176" stroke-linecap="round" stroke-linejoin="round"/>
<path fill-rule="evenodd" clip-rule="evenodd" d="M155 29V108.016C155 112.978 158.98 117 163.89 117H218V42.4588L204.574 29H155Z" fill="#E8EAEC"/>
<path d="M161.282 46.4029H172.313" stroke="#C5C9CE" stroke-width="2.35294" stroke-linecap="round" stroke-linejoin="round"/>
<path fill-rule="evenodd" clip-rule="evenodd" d="M161.281 107.837H195.895V103.624H161.281V107.837Z" fill="#C5C9CE"/>
<path fill-rule="evenodd" clip-rule="evenodd" d="M196.922 107.837H210.713V103.624H196.922V107.837Z" fill="#C5C9CE"/>
<path fill-rule="evenodd" clip-rule="evenodd" d="M161.281 99.5357H195.895V95.3231H161.281V99.5357Z" fill="#C5C9CE"/>
<path fill-rule="evenodd" clip-rule="evenodd" d="M196.922 99.5357H210.713V95.3231H196.922V99.5357Z" fill="#C5C9CE"/>
<path fill-rule="evenodd" clip-rule="evenodd" d="M204.574 29V42.4588H218L204.574 29Z" fill="#C5C9CE"/>
<path fill-rule="evenodd" clip-rule="evenodd" d="M169.247 78.4143C169.247 79.5906 168.296 80.5435 167.123 80.5435C165.951 80.5435 165 79.5906 165 78.4143C165 77.238 165.951 76.2851 167.123 76.2851C168.296 76.2851 169.247 77.238 169.247 78.4143Z" fill="#EC0677"/>
<path fill-rule="evenodd" clip-rule="evenodd" d="M169.247 89.2769C169.247 90.4532 168.296 91.4061 167.123 91.4061C165.951 91.4061 165 90.4532 165 89.2769C165 88.1006 165.951 87.1477 167.123 87.1477C168.296 87.1477 169.247 88.1006 169.247 89.2769Z" fill="#EC0677"/>
<path fill-rule="evenodd" clip-rule="evenodd" d="M181.986 67.7722C181.986 68.9471 181.037 69.9 179.863 69.9C178.691 69.9 177.739 68.9471 177.739 67.7722C177.739 66.5945 178.691 65.643 179.863 65.643C181.037 65.643 181.986 66.5945 181.986 67.7722Z" fill="#EC0677"/>
<path fill-rule="evenodd" clip-rule="evenodd" d="M181.986 78.6347C181.986 79.8097 181.037 80.7626 179.863 80.7626C178.691 80.7626 177.739 79.8097 177.739 78.6347C177.739 77.4571 178.691 76.5056 179.863 76.5056C181.037 76.5056 181.986 77.4571 181.986 78.6347Z" fill="#EC0677"/>
<path fill-rule="evenodd" clip-rule="evenodd" d="M194.726 72.0286C194.726 73.2049 193.777 74.1578 192.604 74.1578C191.431 74.1578 190.479 73.2049 190.479 72.0286C190.479 70.8523 191.431 69.8994 192.604 69.8994C193.777 69.8994 194.726 70.8523 194.726 72.0286Z" fill="#EC0677"/>
<path fill-rule="evenodd" clip-rule="evenodd" d="M194.726 82.8912C194.726 84.0675 193.777 85.0204 192.604 85.0204C191.431 85.0204 190.479 84.0675 190.479 82.8912C190.479 81.7149 191.431 80.762 192.604 80.762C193.777 80.762 194.726 81.7149 194.726 82.8912Z" fill="#EC0677"/>
<path fill-rule="evenodd" clip-rule="evenodd" d="M207.467 57.1292C207.467 58.3041 206.518 59.2584 205.344 59.2584C204.172 59.2584 203.22 58.3041 203.22 57.1292C203.22 55.9529 204.172 55 205.344 55C206.518 55 207.467 55.9529 207.467 57.1292Z" fill="#EC0677"/>
<path fill-rule="evenodd" clip-rule="evenodd" d="M207.467 79.6918C207.467 80.8667 206.518 81.821 205.344 81.821C204.172 81.821 203.22 80.8667 203.22 79.6918C203.22 78.5155 204.172 77.5626 205.344 77.5626C206.518 77.5626 207.467 78.5155 207.467 79.6918Z" fill="#EC0677"/>
<path d="M168.755 77.0532L178.234 69.1327" stroke="#ED0677" stroke-width="1.52941" stroke-linecap="round" stroke-linejoin="round"/>
<path d="M168.755 87.9158L178.234 79.9953" stroke="#ED0677" stroke-width="1.52941" stroke-linecap="round" stroke-linejoin="round"/>
<path d="M181.871 68.4417L190.65 71.3758" stroke="#ED0677" stroke-width="1.52941" stroke-linecap="round" stroke-linejoin="round"/>
<path d="M181.871 79.3043L190.65 82.2383" stroke="#ED0677" stroke-width="1.52941" stroke-linecap="round" stroke-linejoin="round"/>
<path d="M203.962 58.7433L193.984 70.4108" stroke="#ED0677" stroke-width="1.52941" stroke-linecap="round" stroke-linejoin="round"/>
<path d="M204.467 80.1626L192.767 82.7626" stroke="#ED0677" stroke-width="1.52941" stroke-linecap="round" stroke-linejoin="round"/>
<path fill-rule="evenodd" clip-rule="evenodd" d="M361 64V143.016C361 147.978 364.98 152 369.89 152H424V77.4588L410.574 64H361Z" fill="#E8EAEC"/>
<path d="M367.282 81.4029H378.313" stroke="#C5C9CE" stroke-width="2.35294" stroke-linecap="round" stroke-linejoin="round"/>
<path fill-rule="evenodd" clip-rule="evenodd" d="M367.281 142.837H401.895V138.624H367.281V142.837Z" fill="#C5C9CE"/>
<path fill-rule="evenodd" clip-rule="evenodd" d="M402.922 142.837H416.713V138.624H402.922V142.837Z" fill="#C5C9CE"/>
<path fill-rule="evenodd" clip-rule="evenodd" d="M367.281 134.536H401.895V130.323H367.281V134.536Z" fill="#C5C9CE"/>
<path fill-rule="evenodd" clip-rule="evenodd" d="M402.922 134.536H416.713V130.323H402.922V134.536Z" fill="#C5C9CE"/>
<path fill-rule="evenodd" clip-rule="evenodd" d="M410.574 64V77.4588H424L410.574 64Z" fill="#C5C9CE"/>
<path fill-rule="evenodd" clip-rule="evenodd" d="M368 112H388C389.105 112 390 111.105 390 110C390 108.895 389.105 108 388 108H368V112Z" fill="#EC0677"/>
<path fill-rule="evenodd" clip-rule="evenodd" d="M368 105H399C400.105 105 401 104.105 401 103C401 101.895 400.105 101 399 101H368V105Z" fill="#969EA7"/>
<path fill-rule="evenodd" clip-rule="evenodd" d="M368 98H412C413.105 98 414 97.1046 414 96C414 94.8954 413.105 94 412 94H368V98Z" fill="#EC0677"/>
<path fill-rule="evenodd" clip-rule="evenodd" d="M368 119H405C406.105 119 407 118.105 407 117C407 115.895 406.105 115 405 115H368V119Z" fill="#969EA7"/>
<path d="M368 121V92" stroke="#ED0677" stroke-width="1.17647" stroke-linecap="round" stroke-linejoin="round"/>
<path fill-rule="evenodd" clip-rule="evenodd" d="M263 29V108.016C263 112.978 266.98 117 271.89 117H326V42.4588L312.574 29H263Z" fill="#E8EAEC"/>
<path d="M269.282 46.4029H280.313" stroke="#C5C9CE" stroke-width="2.35294" stroke-linecap="round" stroke-linejoin="round"/>
<path fill-rule="evenodd" clip-rule="evenodd" d="M269.281 107.837H303.895V103.624H269.281V107.837Z" fill="#C5C9CE"/>
<path fill-rule="evenodd" clip-rule="evenodd" d="M304.922 107.837H318.713V103.624H304.922V107.837Z" fill="#C5C9CE"/>
<path fill-rule="evenodd" clip-rule="evenodd" d="M269.281 99.5357H303.895V95.3231H269.281V99.5357Z" fill="#C5C9CE"/>
<path fill-rule="evenodd" clip-rule="evenodd" d="M304.922 99.5357H318.713V95.3231H304.922V99.5357Z" fill="#C5C9CE"/>
<mask id="mask0" mask-type="alpha" maskUnits="userSpaceOnUse" x="276" y="52" width="17" height="17">
<path d="M292.796 68.9765L276.74 63.8654C279.045 56.9146 285.337 52.4353 292.796 52.4353V68.9765Z" fill="white"/>
</mask>
<g mask="url(#mask0)">
<path d="M292.796 68.9765L276.74 63.8654C279.045 56.9146 285.337 52.4353 292.796 52.4353V68.9765Z" fill="#EC0677"/>
<path fill-rule="evenodd" clip-rule="evenodd" d="M276.74 52.4353H292.796V68.9765H276.74V52.4353Z" fill="#EC0677"/>
</g>
<path fill-rule="evenodd" clip-rule="evenodd" d="M294.945 72.4588L294.966 89C287.515 89.0096 281.222 84.5385 278.91 77.5912L294.945 72.4588Z" fill="#DCDFE1"/>
<path fill-rule="evenodd" clip-rule="evenodd" d="M294.966 72.4588L278.906 77.6823C277.754 74.1312 277.754 70.7864 278.906 67.2353L294.966 72.4588Z" fill="#969EA7"/>
<mask id="mask1" mask-type="alpha" maskUnits="userSpaceOnUse" x="294" y="55" width="18" height="34">
<path d="M294.966 55.4824H311.89V89H294.966V55.4824Z" fill="white"/>
</mask>
<g mask="url(#mask1)">
<path fill-rule="evenodd" clip-rule="evenodd" d="M294.966 72.2412V55.4824C299.447 55.4824 303.522 57.2071 306.549 60.0227C309.837 63.0798 311.89 67.4232 311.89 72.2412C311.89 81.4965 304.313 89 294.966 89V72.2412Z" fill="#C5C9CE"/>
</g>
<path fill-rule="evenodd" clip-rule="evenodd" d="M312.574 29V42.4588H326L312.574 29Z" fill="#C5C9CE"/>
<path fill-rule="evenodd" clip-rule="evenodd" d="M329.4 83.9436C329.4 94.6221 320.803 103.277 310.2 103.277C299.596 103.277 291 94.6221 291 83.9436C291 73.2668 299.596 64.6103 310.2 64.6103C320.803 64.6103 329.4 73.2668 329.4 83.9436Z" fill="white" fill-opacity="0.6"/>
<mask id="mask2" mask-type="alpha" maskUnits="userSpaceOnUse" x="310" y="85" width="39" height="39">
<path d="M329.371 85.0008L329.2 85C339.803 85 348.4 93.6565 348.4 104.333C348.4 115.012 339.803 123.667 329.2 123.667C318.597 123.667 310 115.012 310 104.333C310 103.978 310.01 103.626 310.028 103.275L310.2 103.277C320.451 103.277 328.826 95.1875 329.371 85.0008Z" fill="white"/>
</mask>
<g mask="url(#mask2)">
<path d="M323.8 97.6397L339 113" stroke="#7F489B" stroke-width="8" stroke-linecap="round" stroke-linejoin="round"/>
</g>
<path fill-rule="evenodd" clip-rule="evenodd" d="M315.346 65.334C312.871 77.9683 305.163 88.7096 294.583 95.1653C298.066 100.071 303.755 103.279 310.2 103.279C320.803 103.279 329.4 94.6224 329.4 83.9456C329.4 75.0651 323.447 67.6025 315.346 65.334Z" fill="white" fill-opacity="0.6"/>
<path fill-rule="evenodd" clip-rule="evenodd" d="M329.4 83.9436C329.4 94.6221 320.803 103.277 310.2 103.277C299.596 103.277 291 94.6221 291 83.9436C291 73.2668 299.596 64.6103 310.2 64.6103C320.803 64.6103 329.4 73.2668 329.4 83.9436Z" stroke="#7F489B" stroke-width="4" stroke-linejoin="round"/>
</svg>
