<svg width="212" height="215" viewBox="0 0 212 215" fill="none" xmlns="http://www.w3.org/2000/svg">
<g style="mix-blend-mode:multiply">
<path d="M82.8408 202.164C98.7691 202.164 111.682 200.409 111.682 198.244C111.682 196.079 98.7691 194.324 82.8408 194.324C66.9125 194.324 54 196.079 54 198.244C54 200.409 66.9125 202.164 82.8408 202.164Z" fill="#F0F1F3"/>
</g>
<path d="M95.4422 41.9708H128.375C129.135 48.8427 130.489 55.6614 131.854 62.4123C133.397 70.0585 136.947 84.1895 139.013 89.4596C140.334 92.4987 142.52 94.7103 145.302 95.0926H117.341C109.601 95.0926 104.309 88.1432 102.181 81.0874C100.729 75.8222 99.4621 70.515 98.3785 65.1659C96.8324 57.4972 95.6716 49.7558 94.9004 41.9708L95.4422 42.0095V41.9708Z" fill="#2E3E4F" stroke="#2E3E4F" stroke-width="0.25"/>
<path d="M83.0199 161.15H69.1365C67.8007 161.15 66.7178 160.067 66.7178 158.73C66.7178 157.394 67.8007 156.311 69.1365 156.311H83.0199C94.7696 156.297 104.291 146.772 104.305 135.017V123.243C104.305 121.907 105.388 120.824 106.723 120.824C108.059 120.824 109.142 121.907 109.142 123.243V135.017C109.123 149.442 97.4391 161.131 83.0199 161.15Z" fill="#D5D8DC"/>
<path d="M67.3029 166.27L70.1666 156.219L67.3174 157.216L65.1841 166.493L67.3029 166.27Z" fill="#D5D8DC"/>
<path d="M70.1669 156.224C68.8656 156.253 68.4931 156.867 67.8933 158.726C67.2689 160.491 66.8533 162.323 66.6549 164.184C66.6211 164.847 66.8339 165.907 67.3031 166.27L66.4179 169.469C65.0295 169.469 63.9169 167.959 63.8782 166.565C63.7138 161.044 66.4469 161 66.4082 157.612L64.4297 157.129V156.214H70.1911L70.1669 156.224Z" fill="#2E3E4F"/>
<path d="M94.0539 194.319C93.1243 194.319 92.2766 193.787 91.8733 192.949C91.47 192.111 91.5824 191.116 92.1625 190.39C92.4382 190.041 119.678 155.59 119.6 123.253C119.6 121.917 120.683 120.833 122.019 120.833C123.355 120.833 124.438 121.917 124.438 123.253C124.462 133.111 122.019 149.458 110.196 171.332C106.052 179.068 101.279 186.45 95.926 193.404C95.4719 193.976 94.7839 194.312 94.0539 194.319Z" fill="#D5D8DC"/>
<path d="M100.086 199.158C101.054 198.191 101.001 197.547 100.024 196.569L95.8198 192.364C94.8399 191.386 93.2539 191.386 92.2739 192.364C91.3065 193.332 93.3914 194.411 94.3685 195.389C94.3685 195.364 99.593 199.642 100.086 199.158Z" fill="#D5D8DC"/>
<path d="M91.6206 196.09V191.067C91.8024 191.996 92.3039 192.832 93.038 193.429C93.6185 193.956 95.6502 196.095 97.2707 196.816C97.8802 197.087 99.5056 196.845 100.018 196.545L102.66 198.558C102.176 199.851 99.2734 199.86 97.9963 199.357C93.3234 197.542 95.5776 195.969 92.4043 194.75L92.3027 196.09H91.6206Z" fill="#2E3E4F"/>
<path d="M131.786 63.1721H114.371C113.036 63.1721 111.953 62.0887 111.953 60.7524C111.953 59.416 113.036 58.3327 114.371 58.3327H131.786C143.536 58.3194 153.057 48.7939 153.071 37.0394V22.4197C153.071 21.0833 154.154 20 155.49 20C156.825 20 157.908 21.0833 157.908 22.4197V37.0394C157.892 51.4655 146.206 63.1561 131.786 63.1721Z" fill="#D5D8DC"/>
<path d="M158 37.0394C157.984 51.5162 146.257 63.248 131.786 63.264H114.371C113.029 63.205 111.971 62.0991 111.971 60.7548C111.971 59.4105 113.029 58.3046 114.371 58.2456H131.786C143.497 58.2456 152.994 48.7552 153.008 37.0394H158Z" fill="#B93499"/>
<path d="M106.723 123.243C106.668 116.463 107.594 109.71 109.471 103.194H119.286C121.159 109.71 122.081 116.463 122.024 123.243H106.723Z" fill="#D5D8DC"/>
<path d="M122.019 125.663H106.723C105.387 125.663 104.305 124.58 104.305 123.243C104.243 116.232 105.198 109.249 107.139 102.511C107.443 101.477 108.394 100.769 109.471 100.774H119.286C120.367 100.774 121.317 101.491 121.613 102.531C123.553 109.268 124.506 116.251 124.443 123.263C124.432 124.593 123.349 125.666 122.019 125.663ZM109.161 120.824H119.581C119.445 115.688 118.722 110.585 117.428 105.613H111.319C110.021 110.584 109.297 115.688 109.161 120.824Z" fill="#C0C5CA"/>
<path d="M106.95 116.952C106.786 118.965 106.704 121.056 106.723 123.243H122.019C122.043 121.056 121.956 118.965 121.792 116.952H106.95Z" fill="#D5D8DC"/>
<path d="M124.419 125.663H104.329L104.305 123.243C104.305 121.099 104.363 118.912 104.542 116.739L104.721 114.513H124.022L124.206 116.739C124.38 118.907 124.462 121.095 124.438 123.243L124.419 125.663ZM109.161 120.824H119.581C119.581 120.34 119.552 119.856 119.528 119.372H109.22C109.197 119.856 109.178 120.34 109.161 120.824Z" fill="#C0C5CA"/>
<path d="M128.375 41.9708V22.4681H111.628C102.386 22.4787 94.8964 29.9713 94.8857 39.2172V41.9708H128.375Z" fill="#2E3E4F" stroke="#2E3E4F" stroke-width="0.25"/>
<path d="M100.193 36.4732H100.372C99.4949 36.4337 98.6672 36.8791 98.217 37.6328C97.7668 38.3865 97.7668 39.3267 98.217 40.0804C98.6672 40.8341 99.4949 41.2795 100.372 41.24C100.513 48.8747 106.741 54.9896 114.374 54.9896C122.007 54.9896 128.234 48.8747 128.376 41.24V22.4681H114.371C106.639 22.4681 100.372 28.7384 100.372 36.4732H100.193Z" fill="#D5D8DC"/>
<path d="M128.375 40.9879V34.3047H121.376C118.628 34.3074 116.403 36.5361 116.403 39.2845V44.2787H114.371V54.9931C122.098 54.9798 128.359 48.718 128.375 40.9879Z" fill="#ABB2B9"/>
<path d="M109.137 47.4247C112.029 50.3144 116.714 50.3144 119.605 47.4247H109.137Z" fill="#ABB2B9"/>
<path d="M128.375 22.4681H114.371C106.639 22.4681 100.372 28.7384 100.372 36.4732H131.031L128.375 22.4681Z" fill="#2E3E4F" stroke="#2E3E4F" stroke-width="0.25"/>
<path d="M101.339 75.6286C103.274 62.6204 110.09 60.9992 114.371 60.733C118.657 60.9992 127.118 63.1237 127.408 75.6286C129.44 94.7345 124.022 132.646 118.933 147.309L83.6973 136.179C89.9859 125.532 99.1771 89.7209 101.339 75.6286Z" fill="#B93499"/>
<path d="M120.142 149.724L80.7944 137.292L82.0328 135.196C88.1038 124.913 97.2949 89.2224 99.4234 75.3431C101.02 64.7255 105.867 59.3151 114.255 58.8021H114.371H114.492C118.846 59.0683 128.97 61.2218 129.338 75.5028C131.326 94.4248 126.199 132.322 120.756 147.948L120.142 149.724ZM86.5074 135.037L117.694 144.89C122.691 128.891 127.34 93.2633 125.487 75.8367V75.677C125.25 65.5579 119.349 63.0124 114.386 62.6736C110.066 62.964 104.938 64.7836 103.259 75.919C101.247 89.0724 92.9122 122.062 86.5074 135.037Z" fill="#B93499"/>
<path d="M108.542 41.8353C109.301 41.8353 109.916 41.2199 109.916 40.4609C109.916 39.7018 109.301 39.0865 108.542 39.0865C107.784 39.0865 107.168 39.7018 107.168 40.4609C107.168 41.2199 107.784 41.8353 108.542 41.8353Z" fill="#2E3E4F"/>
<path d="M120.96 41.8353C121.719 41.8353 122.334 41.2199 122.334 40.4609C122.334 39.7018 121.719 39.0865 120.96 39.0865C120.201 39.0865 119.586 39.7018 119.586 40.4609C119.586 41.2199 120.201 41.8353 120.96 41.8353Z" fill="#2E3E4F"/>
<path d="M82.332 98.0722H82.2749C81.6091 98.0572 80.9764 97.7782 80.5162 97.2967C80.0561 96.8151 79.8062 96.1704 79.8215 95.5046C80.5632 63.5617 103.082 58.7403 112.734 58.1412C113.635 58.077 114.501 58.5016 115.002 59.2533C115.503 60.005 115.561 60.9677 115.155 61.7745C114.749 62.5812 113.941 63.1075 113.039 63.1528C102.778 63.7804 85.4607 68.8586 84.833 95.6187C84.8071 96.9814 83.6949 98.0722 82.332 98.0722Z" fill="#B93390"/>
<path d="M90.187 72.5293L85.3751 100.925C85.1339 102.373 86.1063 103.745 87.5528 103.997L104.147 106.85C105.595 107.091 106.967 106.118 107.219 104.672L111.593 78.9483C111.835 77.4927 110.859 76.1141 109.406 75.8577L90.187 72.5293Z" fill="#C5CACC"/>
<path d="M109.773 78.6703L91.5195 75.5698L87.1339 101.389L105.388 104.49L109.773 78.6703Z" fill="white"/>
<path d="M103.12 76.2C103.333 74.9553 102.496 73.7738 101.251 73.5611C100.007 73.3484 98.8252 74.185 98.6125 75.4298L94.5804 74.7451L94.2476 76.7136L106.819 78.8532L107.162 76.8847L103.12 76.2Z" fill="#1B2930"/>
<path d="M102.34 98.0722H82.3702C81.4693 98.1287 80.6116 97.6801 80.1441 96.908C79.6766 96.1359 79.6766 95.168 80.1441 94.3959C80.6116 93.6238 81.4693 93.1753 82.3702 93.2318H102.34C103.618 93.3119 104.614 94.3716 104.614 95.652C104.614 96.9323 103.618 97.992 102.34 98.0722Z" fill="#DCDFDF"/>
</svg>
