<?xml version="1.0" encoding="UTF-8"?>
<svg width="16px" height="16px" viewBox="0 0 16 16" version="1.1" xmlns="http://www.w3.org/2000/svg" xmlns:xlink="http://www.w3.org/1999/xlink">
    <title>Warning Copy</title>
    <g id="Page-1" stroke="none" stroke-width="1" fill="none" fill-rule="evenodd">
        <g id="Icon-Spec" transform="translate(-85.000000, -103.000000)">
            <g id="Group-17" transform="translate(40.000000, 40.000000)">
                <g id="Group-15" transform="translate(35.000000, 60.000000)">
                    <g id="Warning-Copy" transform="translate(10.000000, 3.000000)">
                        <path d="M8.00011276,0 C8.65433499,0 9.25522388,0.380235294 9.5654461,0.990117647 L9.5654461,0.990117647 L15.7876683,13.2254118 C16.0845572,13.8089412 16.0694461,14.5138824 15.7485572,15.0832941 C15.4276683,15.6517647 14.8481128,16 14.222335,16 L14.222335,16 L1.77789054,16 C1.15211276,16 0.572557208,15.6517647 0.25166832,15.0832941 C-0.0692205693,14.5138824 -0.0843316804,13.8089412 0.212557208,13.2254118 L0.212557208,13.2254118 L6.43477943,0.990117647 C6.74500165,0.380235294 7.34589054,0 8.00011276,0 Z M8.00011276,1.76470588 L2.2354254,13.1003096 C1.98491501,13.5929099 2.22441711,14 2.77523554,14 L2.77523554,14 L13.22499,14 C13.7794306,14 14.0174897,13.5971949 13.7648001,13.1003096 L13.7648001,13.1003096 L8.00011276,1.76470588 Z" id="Combined-Shape" fill="#E6C543"></path>
                        <path d="M8.00011276,11 L8.11744532,11.0067277 C8.61739259,11.0644928 9.00011276,11.4871642 9.00011276,12 L9.00011276,12 L8.99338503,12.1173326 C8.93561992,12.6172798 8.5129486,13 8.00011276,13 C7.44397759,13 7.00011276,12.5522847 7.00011276,12 L7.00011276,12 L7.0068405,11.8826674 C7.0646056,11.3827202 7.48727692,11 8.00011276,11 L8.00011276,11 Z M8.00011276,5 L8.11744532,5.00672644 C8.61739259,5.06448042 9.00011276,5.48707038 9.00011276,5.99980749 L9.00011276,5.99980749 L9.00011276,9.00019251 C9.00011276,9.55628335 8.55239751,10 8.00011276,10 L8.00011276,10 L7.88278021,9.99327356 C7.38283294,9.93551958 7.00011276,9.51292962 7.00011276,9.00019251 L7.00011276,9.00019251 L7.00011276,5.99980749 C7.00011276,5.44371665 7.44782801,5 8.00011276,5 L8.00011276,5 Z" id="Combined-Shape" fill="#806D25"></path>
                    </g>
                </g>
            </g>
        </g>
    </g>
</svg>