<svg height="36" width="32" xmlns="http://www.w3.org/2000/svg"><g fill="none"><path d="M29.387 0H2.593C1.161 0 0 1.246 0 2.783V7h32V2.783C31.99 1.243 30.823 0 29.387 0z" fill="#dcdfe1"/><path d="M23 7H13l.54-2.463c.097-.326.372-.544.68-.537h7.64c.308-.007.583.21.68.537z" fill="#fff"/><path d="M12.16 6.632l-.53-2.157A.669.669 0 0010.98 4H5.088a.688.688 0 00-.668.475l-.51 2.157H0V36h32V6.632z" fill="#c5c9ce"/><path d="M20 10h9v9h-9z" fill="#8241aa"/><g fill="#fff"><path d="M23.262 18a.578.578 0 01-.448-.191l-1.622-1.654a.613.613 0 010-.89.642.642 0 01.918 0l1.067 1.08 3.67-5.068a.62.62 0 01.897-.148.635.635 0 01.128.89l-4.098 5.705a.684.684 0 01-.47.276zM16 18H3a1 1 0 010-2h13a1 1 0 010 2zM16 14H3a1 1 0 010-2h13a1 1 0 010 2zM20 21h9v9h-9zM16 29H3c-.269 0-.526-.107-.714-.297s-.291-.447-.286-.713c0-.547.448-.99 1-.99h13c.552 0 1 .443 1 .99.005.266-.098.523-.286.713S16.27 29 16 29zM16 25H3a1 1 0 010-2h13a1 1 0 010 2z"/></g></g></svg>