<svg width="36" height="36" xmlns="http://www.w3.org/2000/svg"><g stroke-width="1.5" fill="none" fill-rule="evenodd" stroke-linejoin="round"><path stroke="#2E3E4F" stroke-linecap="round" d="M10.5 7.498l-4.5 4.5-2.25-2.25M10.5 15.748l-4.5 4.5-2.25-2.25"/><path d="M14.25 32.25h-12a1.5 1.5 0 01-1.5-1.5V5.25a1.5 1.5 0 011.5-1.5h18a1.5 1.5 0 011.5 1.5v19.5l-7.5 7.5z" stroke="#2E3E4F" stroke-linecap="round"/><path stroke="#2E3E4F" stroke-linecap="round" d="M14.25 32.248v-7.5h7.5"/><path stroke="#A476C1" stroke-linecap="round" d="M26.247 12.748h6.002v15.75h-6.002z"/><path stroke="#A476C1" d="M26.248 28.498l3.003 5.123 2.999-5.123"/><path d="M32.25 2.25a3 3 0 013 3v12M26.248.749h6v12h-6z" stroke="#A476C1" stroke-linecap="round"/><path stroke="#2E3E4F" stroke-linecap="round" d="M12.75 11.248H18M12.75 18.748H18"/></g></svg>