<svg width="36" height="36" xmlns="http://www.w3.org/2000/svg"><g stroke-width="1.5" fill="none" fill-rule="evenodd" stroke-linecap="round" stroke-linejoin="round"><path d="M.75 33.84V9.36c0-.795.672-1.44 1.5-1.44h12c.828 0 1.5.645 1.5 1.44v24.48M11.25 4.32c0-.398-.336-.72-.75-.72H6c-.414 0-.75.322-.75.72v3.6h6v-3.6zM8.25 3.6V.72M3.75 12.24h9M3.75 18h9M3.75 23.76h9M.75 33.84h33" stroke="#2E3E4F"/><path stroke="#A476C1" d="M27.748 18.721v14.52M24 23.76c.088 1.952 1.717 3.515 3.75 3.6M27.75 23.04a5.487 5.487 0 003.75-1.44"/><path d="M32.25 24.48a2.942 2.942 0 002.16-.806c.571-.548.876-1.3.84-2.074a2.701 2.701 0 00-.84-2.074 2.942 2.942 0 00-2.16-.806 3.038 3.038 0 00-.75 0c.015-.212 0-.503 0-.72 0-3.51-2.11-5.76-4.5-5.76-3 0-4.5 2.25-4.5 5.76.08 1.006.342 1.99.771 2.912a2.613 2.613 0 00-1.131-.264c-1.485.032-2.665 1.21-2.64 2.635a2.625 2.625 0 00.774 1.865" stroke="#A476C1"/></g></svg>