<svg height="36" width="36" xmlns="http://www.w3.org/2000/svg"><g fill="none"><path d="M.122 0v21.59c0 2.226 1.799 4.033 4.024 4.043h27.827a4.042 4.042 0 004.042-4.042V4.04A4.042 4.042 0 0031.973 0z" fill="#c5c9ce"/><path d="M19.71 1.865H1.986v19.726a2.16 2.16 0 002.16 2.176h15.545z" fill="#fff"/><circle cx="10.624" cy="8.187" fill="#8241aa" r="3.748"/><g fill="#fff"><path d="M30.59 8.654h-7.064a.864.864 0 010-1.728h7.065a.864.864 0 110 1.728zM31.005 12.834h-7.479a.864.864 0 010-1.728h7.48a.88.88 0 01.863.864.864.864 0 01-.864.864zM28.415 17.03h-4.889a.864.864 0 010-1.726h4.889a.864.864 0 010 1.727z"/></g><path d="M10.624 12.367a6.408 6.408 0 00-6.409 6.426v1.882H17.05v-1.882a6.408 6.408 0 00-6.425-6.426z" fill="#8241aa"/><path d="M9.19 17.6H7.687a.864.864 0 010-1.726H9.19a.864.864 0 110 1.727z" fill="#fff"/></g></svg>