<svg width="36" height="36" viewBox="0 0 36 36" fill="none" xmlns="http://www.w3.org/2000/svg">
<path fill-rule="evenodd" clip-rule="evenodd" d="M9.51402 5.13464C9.51402 3.4871 8.17593 2.05124 6.44078 2.00152C4.64449 1.95029 3.1714 3.31609 3.1714 5.00884V14.9913C3.1714 16.6532 1.75152 18.0001 0.000488281 18.0001H9.51402V5.13464Z" fill="#C5C9CE"/>
<path fill-rule="evenodd" clip-rule="evenodd" d="M29.3354 11.8564V5.13972C29.3354 3.40553 27.9163 1.99994 26.1644 1.99994H6.34326C8.09429 1.99994 9.51417 3.40553 9.51417 5.13972V30.8602C9.51417 32.5943 10.9341 33.9999 12.6859 33.9999C14.4369 33.9999 15.8568 32.5943 15.8568 30.8602H29.3354V5.49033" fill="#E8EAEC"/>
<path fill-rule="evenodd" clip-rule="evenodd" d="M15.0341 30.5474V29L16.9307 30.5474L18.8273 29L20.7239 30.5474L22.6205 29L24.517 30.5474L26.4144 29L28.311 30.5474L30.2068 29L32.1034 30.5474L34 29V30.5474C34 32.4544 32.6414 34 30.9659 34H12C13.6755 34 15.0341 32.4544 15.0341 30.5474Z" fill="#C5C9CE"/>
<path d="M13 12H21" stroke="#969EA7" stroke-width="2" stroke-linecap="round" stroke-linejoin="round"/>
<path d="M13 16H21" stroke="#969EA7" stroke-width="2" stroke-linecap="round" stroke-linejoin="round"/>
<path d="M13 20H21" stroke="#969EA7" stroke-width="2" stroke-linecap="round" stroke-linejoin="round"/>
<path d="M25 12H26" stroke="#969EA7" stroke-width="2" stroke-linecap="round" stroke-linejoin="round"/>
<path d="M25 16H26" stroke="#969EA7" stroke-width="2" stroke-linecap="round" stroke-linejoin="round"/>
<path d="M25 20H26" stroke="#969EA7" stroke-width="2" stroke-linecap="round" stroke-linejoin="round"/>
<path d="M13 24H21" stroke="#969EA7" stroke-width="2" stroke-linecap="round" stroke-linejoin="round"/>
<path d="M25 24H26" stroke="#969EA7" stroke-width="2" stroke-linecap="round" stroke-linejoin="round"/>
<path d="M27 16L34 23" stroke="#8241AA" stroke-width="3" stroke-linecap="round" stroke-linejoin="round"/>
<path fill-rule="evenodd" clip-rule="evenodd" d="M30 12C30 15.8663 26.8658 19 23 19C19.1342 19 16 15.8663 16 12C16 8.13425 19.1342 5 23 5C26.8658 5 30 8.13425 30 12Z" fill="white"/>
<path fill-rule="evenodd" clip-rule="evenodd" d="M25.5598 5C24.7778 9.66151 22.3428 13.6246 19 16.0065C20.1005 17.8165 21.898 19 23.9341 19C27.284 19 30 15.8061 30 11.8668C30 8.59035 28.1191 5.83696 25.5598 5Z" fill="#E8EAEC"/>
<path fill-rule="evenodd" clip-rule="evenodd" d="M30 12C30 15.8663 26.8658 19 23 19C19.1342 19 16 15.8663 16 12C16 8.13425 19.1342 5 23 5C26.8658 5 30 8.13425 30 12Z" stroke="#8241AA" stroke-width="2" stroke-linejoin="round"/>
</svg>
