<svg height="36" viewBox="0 0 36 36" width="36" xmlns="http://www.w3.org/2000/svg"><g fill="none" fill-rule="evenodd" stroke-linecap="round" stroke-linejoin="round"><g stroke-width="2.16"><circle cx="25.84" cy="25.84" r="8.64" stroke="#a476c1"/><path d="m25.84 30.16v-8.64" stroke="#a476c1"/><path d="m25.84 21.52-3.24 3.24" stroke="#a476c1"/><path d="m25.84 21.52 3.24 3.24" stroke="#a476c1"/><path d="m6.4 10.72h15.12" stroke="#2e3e4f"/><path d="m11.8 30.16h-7.56c-1.19293506 0-2.16-.9670649-2.16-2.16v-23.76c0-1.19293506.96706494-2.16 2.16-2.16h15.30576c.572468 0 1.1214743.22749372 1.5264.63216l4.13568 4.13568c.4046663.40492568.63216.95393202.63216 1.5264v3.42576" stroke="#2e3e4f"/></g><path d="m7.408 22.528c0 1.0736416.87035845 1.944 1.944 1.944 1.0736416 0 1.944-.8703584 1.944-1.944s-.8703584-1.944-1.944-1.944c-1.07364155 0-1.944-.8703584-1.944-1.944s.87035845-1.944 1.944-1.944c1.0736416 0 1.944.8703584 1.944 1.944" stroke="#2e3e4f" stroke-width="1.296"/><path d="m9.352 15.4v1.296" stroke="#000" stroke-width="1.296"/><path d="m9.352 24.472v1.296" stroke="#000" stroke-width="1.296"/></g></svg>