<svg height="36" width="36" xmlns="http://www.w3.org/2000/svg"><g fill="none"><path d="M5.052 34.301a.766.766 0 00.491.727.786.786 0 00.864-.157l1.808-1.827 2.613 2.613a.748.748 0 00.55.236.787.787 0 00.57-.236l2.612-2.613 2.594 2.613a.805.805 0 001.14 0l2.592-2.613 2.613 2.613c.15.153.356.238.57.236a.748.748 0 00.55-.236l2.613-2.613 1.807 1.827c.23.224.572.286.865.157a.766.766 0 00.491-.727V1.67a.766.766 0 00-.491-.727.786.786 0 00-.865.177l-1.807 1.807L24.619.334a.748.748 0 00-.55-.236.787.787 0 00-.57.236l-2.613 2.593L18.293.334a.805.805 0 00-1.14 0L14.56 2.927 11.948.334a.787.787 0 00-.57-.236.748.748 0 00-.55.236L8.215 2.927 6.407 1.12a.786.786 0 00-.864-.177.766.766 0 00-.491.727z" fill="#c5c9ce"/><g fill="#fff"><path d="M16.721 11.002h-6.325a.982.982 0 010-1.965h6.325a.982.982 0 010 1.965zM19.099 15.717h-8.703a.982.982 0 010-1.965h8.703a.982.982 0 110 1.965zM19.904 20.51h-9.508a.982.982 0 010-1.964h9.508c.538.01.972.444.982.982 0 .542-.44.982-.982.982z"/></g><path d="M17.527 25.264h-7.131a.982.982 0 010-1.964h7.131c.538.01.972.444.982.982 0 .543-.44.982-.982.982z" fill="#8241aa"/><path d="M25.444 11.395a1.375 1.375 0 01-.982-2.338c.262-.259.614-.407.982-.413a1.375 1.375 0 110 2.75zM25.444 16.149a1.375 1.375 0 110-2.75 1.375 1.375 0 010 2.75zM25.444 20.903a1.375 1.375 0 110-2.75 1.375 1.375 0 010 2.75z" fill="#fff"/><path d="M25.444 25.657a1.375 1.375 0 110-2.75 1.375 1.375 0 010 2.75z" fill="#8241aa"/></g></svg>