<svg height="33" width="36" xmlns="http://www.w3.org/2000/svg"><g fill="none"><circle cx="24.76" cy="4.82" fill="#c5c9ce" r="4.82"/><path d="M24.76 10.18a8.26 8.26 0 00-8.18 8.26v2.42H33.1v-2.42a8.26 8.26 0 00-8.34-8.26z" fill="#c5c9ce"/><path d="M27.42 10l-2.66 4.66L22.08 10z" fill="#fff"/><path d="M8.24 15.4A8.24 8.24 0 000 23.62v2.42h16.58v-2.42a8.26 8.26 0 00-8.34-8.22z" fill="#8241aa"/><circle cx="8.24" cy="10.04" fill="#8241aa" r="4.82"/><circle cx="28.8" cy="25.5" fill="#fff" r="6.24"/><g fill="#8241aa"><path d="M28.8 32.32a6.84 6.84 0 11-.04-13.68 6.84 6.84 0 01.04 13.68zm0-12.46a5.64 5.64 0 105.62 5.62 5.62 5.62 0 00-5.62-5.62z"/><path d="M28.8 29.5a.58.58 0 01-.6-.6v-6.78a.58.58 0 01.6-.6.6.6 0 01.6.6v6.78a.6.6 0 01-.6.6z"/><path d="M32.18 26.1H25.4a.58.58 0 01-.6-.6.6.6 0 01.6-.6h6.78a.6.6 0 01.6.6.58.58 0 01-.6.6z"/></g></g></svg>