<svg height="36" width="36" xmlns="http://www.w3.org/2000/svg"><g fill="none" fill-rule="evenodd"><path d="M31.303 34.494c0 .865-.702 1.567-1.57 1.567H6.223a1.567 1.567 0 01-1.565-1.567V1.575c0-.865.7-1.565 1.565-1.565h15.034c.416 0 .816.164 1.112.46l8.486 8.484c.294.294.46.694.46 1.11z" fill="#c5c9ce"/><g fill="#fff"><path d="M19.942 27.75H9.495a1.081 1.081 0 010-2.162h10.447a1.081 1.081 0 010 2.162M27.374 27.75h-4.482a1.08 1.08 0 110-2.162h4.482a1.081 1.081 0 010 2.162M19.942 23.072H9.495a1.081 1.081 0 010-2.162h10.447a1.081 1.081 0 010 2.162M27.374 23.072h-4.482a1.08 1.08 0 110-2.162h4.482a1.081 1.081 0 010 2.162"/></g><path d="M27.374 32.427h-4.482a1.08 1.08 0 110-2.162h4.482a1.081 1.081 0 010 2.162" fill="#8241aa"/><path d="M19.942 18.393H9.495a1.081 1.081 0 010-2.162h10.447a1.081 1.081 0 010 2.162M27.374 18.393h-4.482a1.08 1.08 0 110-2.162h4.482a1.081 1.081 0 010 2.162" fill="#fff"/><path d="M15.325 9.063a3.467 3.467 0 01-3.466 3.466 3.466 3.466 0 010-6.932 3.467 3.467 0 013.466 3.466" fill="#8241aa"/><path d="M22.368.47v7.163a1.46 1.46 0 001.46 1.461h7.164z" fill="#dcdfe1"/></g></svg>