<svg height="36" width="36" xmlns="http://www.w3.org/2000/svg"><g fill="none"><path d="M.756 12.55A.756.756 0 010 11.794C.01 5.284 5.284.01 11.794 0a.756.756 0 110 1.512C6.12 1.522 1.522 6.12 1.512 11.794a.756.756 0 01-.756.756z" fill="#8241aa"/><path d="M3.893 12.55a.756.756 0 01-.756-.756 8.675 8.675 0 018.657-8.657.756.756 0 110 1.512 7.163 7.163 0 00-7.088 7.145.756.756 0 01-.813.756z" fill="#8241aa"/><path d="M7.05 12.55a.756.756 0 01-.756-.756 5.5 5.5 0 015.5-5.5.756.756 0 110 1.512 4.007 4.007 0 00-3.988 3.988.756.756 0 01-.756.756z" fill="#8241aa"/><g fill="#dcdfe1"><path d="M8.184 18.125h2.74v15.082h-2.74zM15.025 18.125h2.741v15.082h-2.74zM21.886 18.125h2.74v15.082h-2.74zM28.728 18.125h2.74v15.082h-2.74z"/></g><path d="M19.826 7.163l14.383 8.222h.019v2.74h-2.76v2.76h-2.74v-2.76h-4.101v2.76h-2.74v-2.76h-4.121v2.76h-2.74v-2.76h-4.102v2.76h-2.74v-2.76h-2.74v-2.74zM4.48 33.207h30.693v2.74H4.479z" fill="#c5c9ce"/></g></svg>
