<svg width="36px" height="36px" viewBox="0 0 36 36" version="1.1" xmlns="http://www.w3.org/2000/svg" xmlns:xlink="http://www.w3.org/1999/xlink">
    <g id="icon/personalise-invoice" stroke="none" stroke-width="1" fill="none" fill-rule="evenodd" stroke-linecap="round" stroke-linejoin="round">
        <g id="design-tool-wireframe" stroke-width="1.5">
            <path d="M16.5,27.75 L2.25,27.75 C1.42157288,27.75 0.75,27.0784271 0.75,26.25 L0.75,2.25 C0.75,1.42157288 1.42157288,0.75 2.25,0.75 L24.75,0.75 C25.5784271,0.75 26.25,1.42157288 26.25,2.25 L26.25,17.1975" id="Shape" stroke="#2E3E4F"></path>
            <rect id="Rectangle-path" stroke="#2E3E4F" x="3.75" y="3.75" width="19.5" height="7.5" rx="0.75"></rect>
            <path d="M3.75,15 L3.75,24 C3.75,24.4142136 4.08578644,24.75 4.5,24.75 L14.0055,24.75 C14.2407797,24.75 14.4624536,24.639715 14.6042338,24.451952 C14.746014,24.2641891 14.7914667,24.0207755 14.727,23.7945 L12.156,14.7945 C12.0641706,14.4721821 11.7696439,14.25 11.4345,14.25 L4.5,14.25 C4.08578644,14.25 3.75,14.5857864 3.75,15 Z" id="Shape" stroke="#2E3E4F"></path>
            <path d="M23.25,20.25 L23.25,15 C23.25,14.5857864 22.9142136,14.25 22.5,14.25 L16.7445,14.25 C16.5092203,14.25 16.2875464,14.360285 16.1457662,14.548048 C16.003986,14.7358109 15.9585333,14.9792245 16.023,15.2055 L18.75,24.75 L19.437,24.75" id="Shape" stroke="#2E3E4F"></path>
            <path d="M23.55,33.45 L17.25,35.25 L19.05,28.95 L29.8185,18.1815 C30.6223476,17.3776524 31.7939809,17.0637142 32.8920572,17.3579428 C33.9901334,17.6521715 34.8478285,18.5098666 35.1420572,19.6079428 C35.4362858,20.7060191 35.1223476,21.8776524 34.3185,22.6815 L23.55,33.45 Z" id="Shape" stroke="#A476C1"></path>
            <line x1="28.4685" y1="19.5315" x2="32.9685" y2="24.0315" id="Shape" stroke="#A476C1"></line>
            <line x1="19.05" y1="28.95" x2="23.55" y2="33.45" id="Shape" stroke="#A476C1"></line>
        </g>
    </g>
</svg>
