<svg height="36" viewBox="0 0 36 36" width="36" xmlns="http://www.w3.org/2000/svg"><g fill="none" fill-rule="evenodd" stroke-linecap="round" stroke-linejoin="round" stroke-width="1.5" transform="translate(1)"><path d="m19.25 18.0255c-1.3333333 1-3.1666667 1-4.5 0" stroke="#a476c1"/><path d="m33.5000711 35.2755v-3.159c.0063402-.9266421-.420995-1.8029568-1.1550711-2.3685-1.995-1.5285-6.75-4.2225-15.345-4.2225s-13.3425 2.7-15.345 4.2225c-.73407606.5655432-1.16141127 1.4418579-1.15507113 2.3685v3.159" stroke="#2e3e4f"/><path d="m20 13.9005c.2071068 0 .375.1678932.375.375s-.1678932.375-.375.375-.375-.1678932-.375-.375.1678932-.375.375-.375" stroke="#a476c1"/><path d="m14 13.9005c.2071068 0 .375.1678932.375.375s-.1678932.375-.375.375-.375-.1678932-.375-.375.1678932-.375.375-.375" stroke="#a476c1"/><g stroke="#2e3e4f"><path d="m11.1245 25.9935 5.8755 6.282 5.8755-6.282"/><path d="m5.75 11.2755h22.5"/><path d="m12.839 3.3c-2.97244143 1.54984616-4.8371911 4.6232727-4.839 7.9755v3c0 4.9705627 4.0294373 9 9 9s9-4.0294373 9-9v-3c-.0018089-3.3522273-1.8665586-6.42565384-4.839-7.9755"/><path d="m18.5 11.2755 2.8335-8.5005c.1088565-.31176205-.0026404-.65789254-.273-.8475-1.2059298-.78563173-2.6216676-1.18728915-4.0605-1.152-1.4388324-.03528915-2.8545702.36636827-4.0605 1.152-.2703596.18960746-.3818565.53573795-.273.8475l2.8335 8.4975"/><path d="m23 8.2755v-3.705"/><path d="m11 8.2755v-3.705"/><path d="m6.5 35.2755v-8.0865"/><path d="m27.5 35.2755v-8.0865"/><path d="m17 32.2755v3"/></g></g></svg>