<svg width="27" height="28" viewBox="0 0 27 28" fill="none" xmlns="http://www.w3.org/2000/svg">
<path fill-rule="evenodd" clip-rule="evenodd" d="M21.5036 24.7455C21.5036 25.2845 21.065 25.7224 20.5239 25.7224H5.84904C5.30928 25.7224 4.87207 25.2845 4.87207 24.7455V4.22945C4.87207 3.69047 5.30928 3.25391 5.84904 3.25391H15.2329C15.4919 3.25391 15.7416 3.35631 15.9264 3.54091L21.2229 8.82824C21.4064 9.01149 21.5103 9.26077 21.5103 9.51948L21.5036 24.7455Z" fill="#C5C9CE"/>
<path fill-rule="evenodd" clip-rule="evenodd" d="M15.9268 3.54102V8.00507C15.9268 8.50901 16.3343 8.91593 16.8376 8.91593H21.3096L15.9268 3.54102Z" fill="#DCDFE1"/>
<path d="M14.4489 21.9453C14.7936 21.9453 15.073 22.2243 15.073 22.5685C15.073 22.8882 14.8321 23.1516 14.5217 23.1876L14.4489 23.1918H6.95911C6.6144 23.1918 6.33496 22.9127 6.33496 22.5685C6.33496 22.2489 6.57591 21.9855 6.88632 21.9495L6.95911 21.9453H14.4489Z" fill="white"/>
<path d="M13.667 7.0625C14.0117 7.0625 14.2912 7.34153 14.2912 7.68573C14.2912 8.00535 14.0502 8.26877 13.7398 8.30477L13.667 8.30896H6.70422C6.35952 8.30896 6.08008 8.02993 6.08008 7.68573C6.08008 7.36612 6.32102 7.10269 6.63144 7.06669L6.70422 7.0625H13.667Z" fill="white"/>
<path d="M13.667 9.48047C14.0117 9.48047 14.2912 9.7595 14.2912 10.1037C14.2912 10.4233 14.0502 10.6867 13.7398 10.7227L13.667 10.7269H6.70422C6.35952 10.7269 6.08008 10.4479 6.08008 10.1037C6.08008 9.78409 6.32102 9.52066 6.63144 9.48466L6.70422 9.48047H13.667Z" fill="white"/>
<path d="M19.1295 21.9453C19.4742 21.9453 19.7537 22.2243 19.7537 22.5685C19.7537 22.8882 19.5127 23.1516 19.2023 23.1876L19.1295 23.1918H16.6329C16.2882 23.1918 16.0088 22.9127 16.0088 22.5685C16.0088 22.2489 16.2497 21.9855 16.5601 21.9495L16.6329 21.9453H19.1295Z" fill="white"/>
<path fill-rule="evenodd" clip-rule="evenodd" d="M18.8381 20.2458V14.5996H16.887V20.2458H15.7172V16.8186H13.7659V20.2458H12.5965V15.5713H10.6455V20.2458H9.47538V18.0645H7.52432V20.2458H6.70367L6.64758 20.2508C6.502 20.2772 6.3916 20.4044 6.3916 20.5574C6.3916 20.7295 6.53132 20.869 6.70367 20.869H19.4361L19.4922 20.864C19.6378 20.8376 19.7482 20.7104 19.7482 20.5574C19.7482 20.3853 19.6085 20.2458 19.4361 20.2458H18.8381Z" fill="#8241AA"/>
<path fill-rule="evenodd" clip-rule="evenodd" d="M18.7216 10.9624C18.7216 11.4353 18.338 11.8194 17.8637 11.8194C17.7242 11.8194 17.5925 11.7861 17.476 11.727L15.553 13.7483C15.5485 13.753 15.5439 13.7576 15.5391 13.7619C15.5783 13.8601 15.5998 13.9671 15.5998 14.0792C15.5998 14.5526 15.2161 14.9361 14.7418 14.9361C14.3308 14.9361 13.9868 14.6474 13.9029 14.2618L12.2354 13.4292C12.0795 13.5893 11.8615 13.6888 11.62 13.6888C11.4811 13.6888 11.3498 13.6559 11.2337 13.5973L9.31142 15.6178C9.3064 15.623 9.30124 15.6281 9.29595 15.633C9.33474 15.7307 9.35605 15.8372 9.35605 15.9487C9.35605 16.4221 8.97186 16.8056 8.49758 16.8056C8.02384 16.8056 7.63965 16.4221 7.63965 15.9487C7.63965 15.4753 8.02384 15.0917 8.49758 15.0917C8.63118 15.0917 8.75764 15.1222 8.87037 15.1765L10.8156 13.1319C10.7806 13.0386 10.7615 12.9376 10.7615 12.8322C10.7615 12.358 11.1462 11.975 11.62 11.975C12.0943 11.975 12.4779 12.358 12.4779 12.8322L12.4777 12.8534L14.016 13.6214C14.1683 13.3815 14.4366 13.2223 14.7418 13.2223C14.8747 13.2223 15.0005 13.2524 15.1127 13.3061L17.0588 11.2607C17.0241 11.1678 17.0052 11.0673 17.0052 10.9624C17.0052 10.489 17.39 10.1055 17.8637 10.1055C18.338 10.1055 18.7216 10.489 18.7216 10.9624Z" fill="#8241AA"/>
</svg>
