<svg width="25" height="27" viewBox="0 0 25 27" fill="none" xmlns="http://www.w3.org/2000/svg">
<path d="M9.5 0V3.19084L8.343 3.19L8.34393 6H7.47688L7.476 3.19H4.023L4.02312 6H3.15607L3.156 3.19L2 3.19084V0H9.5Z" fill="#DCDFE1"/>
<path d="M11.75 24V27H0.5V24H11.75ZM11.75 20.25V23.25H0.5V20.25H11.75ZM11.75 16.5V19.5H0.5V16.5H11.75ZM11.75 12.75V15.75H0.5V12.75H11.75ZM11.75 9V12H0.5V9H11.75ZM11.75 5.25V8.25H0.5V5.25H11.75Z" fill="#C5C9CE"/>
<path d="M22.1406 14.7661C21.5128 13.1025 19.9092 12 18.1174 12C16.3256 12 14.7221 13.1025 14.0943 14.7661H11.75V27H24.5V14.7661H22.1406Z" fill="#8241AA"/>
<path d="M20 21H13.25V24H20V21Z" fill="#C5C9CE"/>
<path d="M23 21H20.75V27H23V21Z" fill="#C5C9CE"/>
<path d="M22.2733 19.5H9.5L11.75 16.5H24.5L22.2733 19.5Z" fill="white"/>
</svg>
