<?xml version="1.0" encoding="UTF-8"?>
<svg width="102px" height="92px" viewBox="0 0 102 92" version="1.1" xmlns="http://www.w3.org/2000/svg" xmlns:xlink="http://www.w3.org/1999/xlink">
    <!-- Generator: Sketch 59.1 (86144) - https://sketch.com -->
    <title>Slice 1</title>
    <desc>Created with Sketch.</desc>
    <g id="Page-1" stroke="none" stroke-width="1" fill="none" fill-rule="evenodd">
        <g id="Group">
            <path d="M27,9.20765664 C27,4.36798836 23.2024207,0.150152171 18.2779633,0.0040990819 C13.1799666,-0.146379859 8.99924875,3.86565425 8.99924875,8.83809807 L8.99924875,38.1615752 C8.99924875,43.043289 4.96953255,47 0,47 L27,47 L27,9.20765664 Z" id="Fill-1" fill="#EAECED"></path>
            <path d="M36.9309571,92 C41.8812213,92 45.8953131,87.958925 45.8953131,82.9731244 L84,82.9731244 L84,9.02687564 C84,4.04107503 79.9881532,0 75.035644,0 L19,0 C23.9502642,0 27.964356,4.04107503 27.964356,9.02687564 L27.964356,82.9731244 C27.964356,87.958925 31.9784478,92 36.9309571,92" id="Fill-3" fill="#FFFFFF"></path>
            <path d="M27,9.20765664 C27,4.36798836 23.2024207,0.150152171 18.2779633,0.0040990819 C13.1799666,-0.146379859 8.99924875,3.86565425 8.99924875,8.83809807 L8.99924875,38.1615752 C8.99924875,43.043289 4.96953255,47 0,47 L27,47 L27,9.20765664 Z" id="Fill-5" fill="#EAECED"></path>
            <path d="M27,9.20765664 C27,4.36798836 23.2024207,0.150152171 18.2779633,0.0040990819 C13.1799666,-0.146379859 8.99924875,3.86565425 8.99924875,8.83809807 L8.99924875,38.1615752 C8.99924875,43.043289 4.96953255,47 0,47 L27,47 L27,9.20765664 Z" id="Fill-7" fill="#C5C9CE"></path>
            <path d="M84,28.3372476 L84,9.02687564 C84,4.04107503 79.9881532,0 75.035644,0 L19,0 C23.9502642,0 27.964356,4.04107503 27.964356,9.02687564 L27.964356,82.9731244 C27.964356,87.958925 31.9784478,92 36.9309571,92 C41.8812213,92 45.8953131,87.958925 45.8953131,82.9731244 L84,82.9731244 L84,10.0348843" id="Fill-9" fill="#E8EAEC"></path>
            <path d="M45.964356,83.0231674 L45.964356,79 L51.5679204,83.0231674 L57.1714848,79 L62.7750492,83.0231674 L68.3786136,79 L73.982178,83.0231674 L79.5879874,79 L85.1915518,83.0231674 L90.7928712,79 L96.3964356,83.0231674 L102,79 L102,83.0231674 C102,87.9813278 97.9859082,92 93.035644,92 L37,92 C41.9502642,92 45.964356,87.9813278 45.964356,83.0231674" id="Fill-11" fill="#EAECED"></path>
            <path d="M45.964356,83.0231674 L45.964356,79 L51.5679204,83.0231674 L57.1714848,79 L62.7750492,83.0231674 L68.3786136,79 L73.982178,83.0231674 L79.5879874,79 L85.1915518,83.0231674 L90.7928712,79 L96.3964356,83.0231674 L102,79 L102,83.0231674 C102,87.9813278 97.9859082,92 93.035644,92 L37,92 C41.9502642,92 45.964356,87.9813278 45.964356,83.0231674" id="Fill-14" fill="#EAECED"></path>
            <path d="M45.964356,83.0231674 L45.964356,79 L51.5679204,83.0231674 L57.1714848,79 L62.7750492,83.0231674 L68.3786136,79 L73.982178,83.0231674 L79.5879874,79 L85.1915518,83.0231674 L90.7928712,79 L96.3964356,83.0231674 L102,79 L102,83.0231674 C102,87.9813278 97.9859082,92 93.035644,92 L37,92 C41.9502642,92 45.964356,87.9813278 45.964356,83.0231674" id="Fill-17" fill="#C5C9CE"></path>
            <line x1="69" y1="27" x2="74" y2="27" id="Stroke-20" stroke="#969EA7" stroke-width="3" stroke-linecap="round" stroke-linejoin="round"></line>
            <line x1="69" y1="41" x2="74" y2="41" id="Stroke-22" stroke="#969EA7" stroke-width="3" stroke-linecap="round" stroke-linejoin="round"></line>
            <line x1="69" y1="53" x2="74" y2="53" id="Stroke-24" stroke="#969EA7" stroke-width="3" stroke-linecap="round" stroke-linejoin="round"></line>
            <line x1="69" y1="65" x2="74" y2="65" id="Stroke-26" stroke="#EC0677" stroke-width="3" stroke-linecap="round" stroke-linejoin="round"></line>
            <line x1="36" y1="27" x2="58" y2="27" id="Stroke-28" stroke="#969EA7" stroke-width="3" stroke-linecap="round" stroke-linejoin="round"></line>
            <line x1="36" y1="41" x2="60" y2="41" id="Stroke-30" stroke="#969EA7" stroke-width="3" stroke-linecap="round" stroke-linejoin="round"></line>
            <line x1="36" y1="53" x2="55" y2="53" id="Stroke-32" stroke="#969EA7" stroke-width="3" stroke-linecap="round" stroke-linejoin="round"></line>
            <line x1="36" y1="65" x2="54" y2="65" id="Stroke-34" stroke="#EC0677" stroke-width="3" stroke-linecap="round" stroke-linejoin="round"></line>
        </g>
    </g>
</svg>