<?xml version="1.0" encoding="UTF-8"?>
<svg width="419px" height="212px" viewBox="0 0 419 212" version="1.1" xmlns="http://www.w3.org/2000/svg" xmlns:xlink="http://www.w3.org/1999/xlink">
    <!-- Generator: Sketch 59 (86127) - https://sketch.com -->
    <title>Group 2</title>
    <desc>Created with Sketch.</desc>
    <defs>
        <linearGradient x1="-0.0775%" y1="50.4403509%" x2="100.329643%" y2="50.4403509%" id="linearGradient-1">
            <stop stop-color="#622E91" offset="36%"></stop>
            <stop stop-color="#712A8E" offset="45.63%"></stop>
            <stop stop-color="#992087" offset="64.26%"></stop>
            <stop stop-color="#DA117B" offset="89.8%"></stop>
            <stop stop-color="#ED0C77" offset="97%"></stop>
        </linearGradient>
    </defs>
    <g id="Symbols" stroke="none" stroke-width="1" fill="none" fill-rule="evenodd">
        <g id="illustration/product/bespoke/BESPOKE-FINAL-S-13" transform="translate(-48.000000, 0.000000)">
            <g id="Group-2" transform="translate(52.300000, 0.000000)">
                <g id="Group" transform="translate(103.700000, 21.000000)">
                    <path d="M255.7,24.2 C137.3,-30.3 40.4,19.5 2.9,67.3" id="Path" stroke="#ED0677" stroke-width="2" stroke-linejoin="round" stroke-dasharray="2,2"></path>
                    <polygon id="Path" fill="#ED0677" fill-rule="nonzero" points="253 14.1 251.2 14.9 255 23.9 245.7 27.1 246.4 29 257.7 25.1"></polygon>
                    <polygon id="Path" fill="#ED0677" fill-rule="nonzero" points="0.8 57.1 2.8 56.9 3.5 66.8 13.2 65.4 13.5 67.4 1.6 69"></polygon>
                </g>
                <path d="M78.1,104 C71.7,104 66.4,109.2 66.4,115.7 L66.4,171.6 C66.4,178 71.6,183.3 78.1,183.3 L112.5,183.3 L112.5,194.3 L99.2,194.3 L99.2,200.7 L154.9,200.7 L154.9,194.3 L141.6,194.3 L141.6,183.3 L175.9,183.3 C182.3,183.3 187.6,178.1 187.6,171.6 L187.6,104 L78.1,104 Z" id="Path" fill="#ED0677" fill-rule="nonzero"></path>
                <path d="M78.1,179.5 C73.7,179.5 70.2,175.9 70.2,171.6 L70.2,115.7 C70.2,111.3 73.8,107.8 78.1,107.8 L184,107.8 L184,171.6 C184,176 180.4,179.5 176,179.5 L78.1,179.5 L78.1,179.5 Z" id="Path" fill="#F0F1F3" fill-rule="nonzero"></path>
                <path d="M87.1,117 L169.8,117 C172.1,117 174.1,118.9 174.1,121.3 L174.1,171.4 L87.1,171.4 C84.8,171.4 82.8,169.5 82.8,167.1 L82.8,121.2 C82.8,118.9 84.7,117 87.1,117 Z" id="Path" fill="#FFFFFF" fill-rule="nonzero"></path>
                <path d="M82.8,121.3 C82.8,119 84.7,117 87.1,117 L169.8,117 C172.1,117 174.1,118.9 174.1,121.3 L82.8,121.3 Z" id="Path" fill="#C0C5CA" fill-rule="nonzero"></path>
                <circle id="Oval" fill="#FFFFFF" fill-rule="nonzero" cx="90.1" cy="119.2" r="1"></circle>
                <circle id="Oval" fill="#FFFFFF" fill-rule="nonzero" cx="93.4" cy="119.2" r="1"></circle>
                <circle id="Oval" fill="#FFFFFF" fill-rule="nonzero" cx="96.8" cy="119.2" r="1"></circle>
                <g id="Group" transform="translate(86.700000, 121.000000)">
                    <path d="M17.7,7.4 L16.4,11 L15,7.3 C14.8,6.7 14.2,6.7 14.2,6.7 L13,6.7 L15.4,12.6 C15.4,12.6 15.4,12.6 15.4,12.6 C15.4,12.6 15.4,12.6 15.4,12.6 C15.4,12.6 15.4,12.6 15.4,12.6 L15.4,12.6 C15.5,12.8 15.5,13 15.4,13.2 L15.3,13.3 C15,14 14.6,14.2 13.8,14.1 L13.8,14.1 L14.4,15.5 C15.5,15.5 16.3,15.1 16.8,13.8 L19.7,6.6 L19.7,6.6 L18.6,6.6 C18.6,6.6 18.6,6.6 18.6,6.6 C18.6,6.7 18,6.8 17.7,7.4 L17.7,7.4 Z M20.8,9.8 C20.8,8.8 21.5,8 22.3,8 C23.1,8 23.8,8.7 23.8,9.8 C23.8,10.8 23.1,11.5 22.3,11.5 C21.5,11.5 20.8,10.8 20.8,9.8 L20.8,9.8 Z M19.3,9.8 C19.3,11.6 20.7,13 22.3,13 C24,13 25.3,11.7 25.3,9.8 C25.3,8 23.9,6.6 22.3,6.6 C20.7,6.6 19.3,8 19.3,9.8 L19.3,9.8 Z M8.6,7.5 C8.2,7 7.5,6.6 6.7,6.6 C5,6.6 4,7.8 4,9.3 L4,12.8 L4.5,12.8 C4.8,12.8 5.5,12.6 5.5,11.6 L5.5,9.3 C5.5,8.6 6,8.2 6.7,8.2 C7.7,8.2 7.8,9 7.8,9.3 L7.8,12.8 L8.3,12.8 C8.6,12.8 9.3,12.6 9.3,11.6 L9.3,9.3 C9.3,8.6 9.8,8.2 10.5,8.2 C11.5,8.2 11.6,9 11.6,9.3 L11.6,12.8 L12.1,12.8 C12.4,12.8 13.1,12.6 13.1,11.6 L13.1,9.3 C13.1,7.7 12.1,6.6 10.4,6.6 C9.8,6.6 9.1,6.9 8.6,7.5 L8.6,7.5 Z M27.4,9.8 C27.4,8.8 28.1,8.1 28.9,8.1 C29.8,8.1 30.4,8.9 30.4,9.8 C30.4,10.8 29.7,11.5 28.9,11.5 C28.1,11.5 27.4,10.7 27.4,9.8 L27.4,9.8 Z M27.1,4.1 L27.1,4.1 C26,4.1 25.9,4.8 25.9,5.2 L25.9,12.9 L26.6,12.9 C27.2,12.9 27.3,12.5 27.3,12.3 L27.3,12.3 L27.3,12.3 C27.8,12.8 28.4,13.1 29.1,13.1 C30.7,13.1 32,11.7 32,10 C32,8.2 30.7,6.8 29.1,6.8 C28.4,6.8 27.8,7.1 27.3,7.5 L27.3,4.2 L27.1,4.2 L27.1,4.1 Z" id="Shape" fill="url(#linearGradient-1)" fill-rule="nonzero"></path>
                    <rect id="Rectangle" x="0.5" y="0.6" width="35.1" height="18.5"></rect>
                </g>
                <line x1="82.8" y1="141.3" x2="174" y2="141.3" id="Path" stroke="#C0C5CA" stroke-width="0.1"></line>
                <rect id="Rectangle" fill="#ABB2B9" fill-rule="nonzero" x="91.1" y="147.6" width="76.7" height="2.4"></rect>
                <rect id="Rectangle" fill="#E0E2E5" fill-rule="nonzero" x="91.1" y="157.2" width="76.7" height="2.4"></rect>
                <rect id="Rectangle" fill="#E0E2E5" fill-rule="nonzero" x="91.1" y="152.4" width="76.7" height="2.4"></rect>
                <rect id="Rectangle" fill="#E0E2E5" fill-rule="nonzero" x="91.1" y="162" width="76.7" height="2.4"></rect>
                <line x1="103.9" y1="147.4" x2="103.9" y2="169.1" id="Path" stroke="#FFFFFF" stroke-width="0.4783" stroke-linecap="round" stroke-linejoin="round"></line>
                <line x1="134.5" y1="147.4" x2="134.5" y2="169.1" id="Path" stroke="#FFFFFF" stroke-width="0.4783" stroke-linecap="round" stroke-linejoin="round"></line>
                <path d="M66.9,174.8 C68.3,179.7 72.8,183.3 78.1,183.3 L112.5,183.3 L112.5,194.3 L99.2,194.3 L99.2,200.7 L154.9,200.7 L154.9,194.3 L141.6,194.3 L141.6,183.3 L175.9,183.3 C182.3,183.3 187.6,178.1 187.6,171.6 L187.6,104 L137.4,104 L66.9,174.8 Z" id="Path" fill="#F0F1F3" fill-rule="nonzero" style="mix-blend-mode: multiply;"></path>
                <g id="Group" transform="translate(218.700000, 0.000000)" fill-rule="nonzero">
                    <path d="M41.3,0.4 L0,0.4 L0,76.3 C0,81.4 4.1,85.5 9.2,85.5 L41.3,85.5 C46.4,85.5 50.5,81.4 50.5,76.3 L50.5,9.6 C50.4,4.5 46.3,0.4 41.3,0.4 Z M25.2,79.7 C23.4,79.7 21.9,78.2 21.9,76.4 C21.9,74.6 23.4,73.1 25.2,73.1 C27,73.1 28.5,74.6 28.5,76.4 C28.5,78.2 27,79.7 25.2,79.7 Z" id="Shape" fill="#C0C5CA"></path>
                    <path d="M5.7,69.1 L5.7,6.1 L41.2,6.1 C43.1,6.1 44.7,7.7 44.7,9.6 L44.7,69 L5.7,69 L5.7,69.1 Z" id="Path" fill="#FFFFFF"></path>
                </g>
                <path d="M258.2,50.8 L229.6,50.8 C229,50.8 228.6,50.3 228.6,49.8 L228.6,41.6 C228.6,41 229.1,40.6 229.6,40.6 L258.2,40.6 C258.8,40.6 259.2,41.1 259.2,41.6 L259.2,49.8 C259.2,50.3 258.8,50.8 258.2,50.8 Z" id="Path" fill="#F0F1F3" fill-rule="nonzero"></path>
                <path d="M258.2,64.3 L229.6,64.3 C229,64.3 228.6,63.8 228.6,63.3 L228.6,55.1 C228.6,54.5 229.1,54.1 229.6,54.1 L258.2,54.1 C258.8,54.1 259.2,54.6 259.2,55.1 L259.2,63.3 C259.2,63.8 258.8,64.3 258.2,64.3 Z" id="Path" fill="#F0F1F3" fill-rule="nonzero"></path>
                <text id="paid" fill="#828B95" font-family="Helvetica" font-size="15.984" font-weight="normal">
                    <tspan x="228.4373" y="27.2263">paid</tspan>
                </text>
                <path d="M324.6,95.1 L324.8,95.1 C323.1,95.1 321.7,96.5 321.7,98.2 C321.7,99.9 323.1,101.3 324.8,101.3 C324.8,111.4 333,119.5 343,119.5 C353,119.5 361.2,111.3 361.2,101.3 L361.2,76.9 L343,76.9 C332.9,76.9 324.8,85.1 324.8,95.1 L324.6,95.1 L324.6,95.1 Z" id="Path" fill="#D5D8DC" fill-rule="nonzero"></path>
                <circle id="Oval" fill="#2E3E4F" fill-rule="nonzero" cx="329.4" cy="79.5" r="5"></circle>
                <circle id="Oval" fill="#2E3E4F" fill-rule="nonzero" cx="329.7" cy="86.9" r="8.3"></circle>
                <circle id="Oval" fill="#2E3E4F" fill-rule="nonzero" cx="349.2" cy="75.1" r="8.3"></circle>
                <circle id="Oval" fill="#2E3E4F" fill-rule="nonzero" cx="357" cy="81.9" r="8.3"></circle>
                <circle id="Oval" fill="#2E3E4F" fill-rule="nonzero" cx="343" cy="78.9" r="9.9"></circle>
                <path d="M361.3,101.3 L361.3,92.6 L352.2,92.6 C348.6,92.6 345.7,95.5 345.7,99.1 L345.7,105.6 L343.1,105.6 L343.1,119.6 C353.2,119.6 361.3,111.4 361.3,101.3 Z" id="Path" fill="#ABB2B9" fill-rule="nonzero"></path>
                <circle id="Oval" fill="#2E3E4F" fill-rule="nonzero" cx="335.5" cy="100.3" r="1.8"></circle>
                <path d="M336.3,109.4 C340.1,113.2 346.2,113.2 349.9,109.4 L336.3,109.4 Z" id="Path" fill="#ABB2B9" fill-rule="nonzero"></path>
                <circle id="Oval" fill="#2E3E4F" fill-rule="nonzero" cx="351.7" cy="100.3" r="1.8"></circle>
                <path d="M382.9,57.6 L382.9,81.2 C382,119.4 356.2,125.8 343.1,126.7" id="Path" stroke="#D5D8DC" stroke-width="6.3" stroke-linecap="round" stroke-linejoin="round"></path>
                <path d="M377.4,112 C367.6,126.3 351.8,129.4 343.3,129.9 C341.6,130 340.1,128.7 340,126.9 C339.9,125.2 341.2,123.7 343,123.6 C350.4,123.1 364,120.6 372.3,108.4 L377.4,112 Z" id="Path" fill="#B93499" fill-rule="nonzero"></path>
                <path d="M300.2,195.6 L300.2,172 C301.1,133.8 326.9,127.4 340,126.5" id="Path" stroke="#D5D8DC" stroke-width="6.3" stroke-linecap="round" stroke-linejoin="round"></path>
                <path d="M305.6,141.3 C315.4,127 331.2,123.9 339.7,123.4 C341.4,123.3 342.9,124.6 343,126.4 C343.1,128.1 341.8,129.6 340,129.7 C332.6,130.2 319,132.7 310.7,144.9 L305.6,141.3 Z" id="Path" fill="#B93499" fill-rule="nonzero"></path>
                <path d="M326.7,207.9 L321.3,150.9 C321.8,130.5 335.5,127.1 342.5,126.7 C349.5,127.1 363.2,130.6 363.7,150.9 L358.3,207.9 L326.7,207.9 Z" id="Path" stroke="#B93499" stroke-width="6.3" fill="#B93499" fill-rule="nonzero" stroke-linecap="round" stroke-linejoin="round"></path>
                <g id="Group" transform="translate(372.700000, 32.000000)">
                    <g fill-rule="nonzero">
                        <path d="M14.4,0.7 L0.9,0.7 L0.9,25.6 C0.9,27.3 2.2,28.6 3.9,28.6 L14.4,28.6 C16.1,28.6 17.4,27.3 17.4,25.6 L17.4,3.7 C17.4,2.1 16,0.7 14.4,0.7 Z M9.1,26.7 C8.5,26.7 8,26.2 8,25.6 C8,25 8.5,24.5 9.1,24.5 C9.7,24.5 10.2,25 10.2,25.6 C10.2,26.2 9.7,26.7 9.1,26.7 Z" id="Shape" fill="#C0C5CA"></path>
                        <path d="M2.7,23.2 L2.7,2.6 L14.4,2.6 C15,2.6 15.5,3.1 15.5,3.8 L15.5,23.3 L2.7,23.3 L2.7,23.2 Z" id="Path" fill="#FFFFFF"></path>
                    </g>
                    <path d="M13.8,17.2 L4.4,17.2 C4.2,17.2 4.1,17 4.1,16.9 L4.1,14.2 C4.1,14 4.3,13.9 4.4,13.9 L13.8,13.9 C14,13.9 14.1,14.1 14.1,14.2 L14.1,16.9 C14.1,17.1 14,17.2 13.8,17.2 Z" id="Path" fill="#F0F1F3" fill-rule="nonzero"></path>
                    <path d="M13.8,21.7 L4.4,21.7 C4.2,21.7 4.1,21.5 4.1,21.4 L4.1,18.7 C4.1,18.5 4.3,18.4 4.4,18.4 L13.8,18.4 C14,18.4 14.1,18.6 14.1,18.7 L14.1,21.4 C14.1,21.5 14,21.7 13.8,21.7 Z" id="Path" fill="#F0F1F3" fill-rule="nonzero"></path>
                    <text id="XXX" fill="#828B95" font-family="Helvetica" font-size="5.2435" font-weight="normal">
                        <tspan x="4.0234" y="9.5077">XXX</tspan>
                    </text>
                </g>
                <line x1="0.2" y1="207.5" x2="410.2" y2="207.5" id="Path" stroke="#EDEDED" stroke-width="8.2669" stroke-linecap="round" stroke-linejoin="round"></line>
                <path d="M349.3,122.8 C351.3,127.7 353.1,134.3 353.4,141.4 L335.6,141.4 C336,136.9 335.8,130.1 335.1,124.7 C333.9,125 332.7,125.3 331.4,125.6 C333.8,175.7 316.7,204.6 316.7,204.6 L329.7,209.1 C331.1,209.6 332.5,209.8 333.9,209.8 C334.2,209.8 334.5,209.8 334.8,209.8 C336.5,209.7 338.1,209.3 339.6,208.5 C341.1,207.8 342.4,206.8 343.6,205.5 C344.7,204.3 345.5,202.9 346.2,201.1 C351.6,187 357.3,156.5 357.8,143.1 C358,134.9 355.3,127.3 353.1,121.7 C351.7,122.2 350.5,122.5 349.3,122.8 Z" id="Path" fill="#2E3E4F" fill-rule="nonzero"></path>
                <g id="Group" transform="translate(252.700000, 47.000000)" stroke="#ED0677" stroke-linecap="round" stroke-linejoin="round" stroke-width="2">
                    <circle id="Oval" fill="#FFFFFF" fill-rule="nonzero" cx="17.7" cy="17.5" r="17.2"></circle>
                    <polyline id="Path" points="10.3 18 16.5 22.8 24.5 10.4"></polyline>
                </g>
                <path d="M43.6,178 L43.6,190.4 C43.6,195.3 39.6,199.4 34.6,199.4 L31.4,199.4 C26.5,199.4 22.4,195.4 22.4,190.4 L22.4,178 L43.6,178 Z" id="Path" stroke="#E0E2E5" stroke-width="2.362" fill="#E0E2E5" fill-rule="nonzero"></path>
                <path d="M43.6,178 C47.7,178 51,181.3 51,185.4 C51,189.5 47.7,192.8 43.6,192.8" id="Path" stroke="#E0E2E5" stroke-width="2.362"></path>
                <circle id="Oval" fill="#F0F1F3" fill-rule="nonzero" cx="42.5" cy="142.2" r="6.3"></circle>
                <circle id="Oval" fill="#F0F1F3" fill-rule="nonzero" cx="27.6" cy="124.8" r="5.3"></circle>
                <circle id="Oval" fill="#F0F1F3" fill-rule="nonzero" cx="31.5" cy="155.2" r="7"></circle>
            </g>
        </g>
    </g>
</svg>