<svg xmlns="http://www.w3.org/2000/svg" xmlns:xlink="http://www.w3.org/1999/xlink" viewBox="0 0 200 200"><defs><style>.cls-1{fill:none;}.cls-2{isolation:isolate;}.cls-3{clip-path:url(#clip-path);}.cls-4{fill:#fff;}.cls-5{fill:#eaeced;}.cls-6{fill:#f0f1f3;}.cls-7{fill:#abb2b9;}.cls-8{fill:#828b95;}.cls-9{fill:#f5f5f6;}.cls-10{fill:#d5d8dc;}.cls-11{fill:#8241aa;}.cls-12{fill:#ed0677;}.cls-13,.cls-15{fill:#e0e2e5;}.cls-13{mix-blend-mode:multiply;}.cls-14{fill:#6d7884;}</style><clipPath id="clip-path"><rect class="cls-1" width="200" height="200"/></clipPath></defs><g class="cls-2"><g id="Layer_1" data-name="Layer 1"><g class="cls-3"><rect class="cls-4" width="200" height="200"/><circle class="cls-5" cx="100" cy="92.05" r="88.55"/><rect class="cls-1" width="200" height="200"/><path class="cls-4" d="M58.41,92.55a61.37,61.37,0,0,0,0,122.74H223.53V92.55Z"/><path class="cls-6" d="M180.58,121.73c0,2-11.87,3.61-26.52,3.61s-26.52-1.62-26.52-3.61,11.87-3.6,26.52-3.6a145.45,145.45,0,0,1,18.75,1.06C177.61,119.84,180.58,120.74,180.58,121.73Z"/><path class="cls-7" d="M168.25,84.88H144.51a1.07,1.07,0,0,1-.95-.59L142,81.22a1.05,1.05,0,0,0-.94-.59H127.94a1.07,1.07,0,0,0-1.06,1.07v2.59h10.54a1.07,1.07,0,0,1,1,.59L139.9,88a1.06,1.06,0,0,0,.95.58h23.74a1.06,1.06,0,0,1,1.06,1.07v30.63a1.83,1.83,0,0,0,3.66,0V85.94A1.05,1.05,0,0,0,168.25,84.88Z"/><path class="cls-6" d="M100.22,162.34c0,2.45-14.66,4.44-32.74,4.44s-32.74-2-32.74-4.44,14.66-4.45,32.74-4.45a182.54,182.54,0,0,1,23.15,1.3C96.55,160,100.22,161.11,100.22,162.34Z"/><g id="Tools-Construction_Tools_tools-wench" data-name="Tools-Construction / Tools / tools-wench"><g id="Group_34" data-name="Group 34"><g id="Regular_34" data-name="Regular 34"><path id="Shape_122" data-name="Shape 122" class="cls-8" d="M163.72,73.64l-3.32,3.18h-2.34V74.58l3.32-3.19a6,6,0,0,0-6.51.65,5.39,5.39,0,0,0-1.66,6.07L142.87,88a2.32,2.32,0,0,0,0,3.37,2.56,2.56,0,0,0,3.51,0l10.34-9.93a5.91,5.91,0,0,0,6.32-1.6,5.37,5.37,0,0,0,.68-6.24Z"/></g></g></g><path class="cls-9" d="M84.26,44.54a1.87,1.87,0,0,1-1.87-1.87V38.92a5.63,5.63,0,1,0-11.26,0,.94.94,0,0,1-.93.94H65.51a3.75,3.75,0,0,0-3.75,3.75.93.93,0,0,1-.94.93H48.75a2.82,2.82,0,0,0,0,5.63H84.26a2.82,2.82,0,1,0,0-5.63Z"/><path class="cls-10" d="M124.28,122.05a1.06,1.06,0,0,1-1.06-1.06V85.35a1.07,1.07,0,0,1,1.06-1.06h13.14a1.07,1.07,0,0,1,1,.59L139.9,88a1.06,1.06,0,0,0,.95.58h23.74a1.06,1.06,0,0,1,1.06,1.07v30.63a1.82,1.82,0,0,0,1.83,1.82h-43.2"/><rect class="cls-11" x="138.75" y="90.23" width="11.49" height="27.61" rx="0.93" transform="translate(248.54 -40.46) rotate(90)"/><path class="cls-7" d="M90.93,116.08H61.25a1.34,1.34,0,0,1-1.19-.73l-1.92-3.84a1.31,1.31,0,0,0-1.18-.73H40.54a1.33,1.33,0,0,0-1.33,1.32v3.25H52.39a1.31,1.31,0,0,1,1.18.73l1.92,3.84a1.33,1.33,0,0,0,1.19.73H86.36A1.33,1.33,0,0,1,87.68,122v38.29a2.29,2.29,0,0,0,4.57,0V117.41A1.33,1.33,0,0,0,90.93,116.08Z"/><path class="cls-10" d="M36,162.55a1.33,1.33,0,0,1-1.33-1.32V116.67A1.33,1.33,0,0,1,36,115.35H52.39a1.31,1.31,0,0,1,1.18.73l1.92,3.84a1.33,1.33,0,0,0,1.19.73H86.36A1.33,1.33,0,0,1,87.68,122v38.29A2.28,2.28,0,0,0,90,162.55H36"/><rect class="cls-12" x="53.97" y="122.9" width="14.36" height="34.51" rx="1.17" transform="translate(201.3 79.01) rotate(90)"/><path class="cls-1" d="M131.09,66.64a1,1,0,0,0-.68,0,.92.92,0,0,0-.27.16,1,1,0,0,0-.36.48,1,1,0,0,0,.31,1.1.94.94,0,0,0,.35.2,1,1,0,0,0,1.31-.66,1.15,1.15,0,0,0,.05-.41l0-.08A1,1,0,0,0,131.09,66.64Z"/><path class="cls-8" d="M131.09,66.64a1,1,0,0,1,.68.81,1,1,0,0,0-.68-.81,1,1,0,0,0-.68,0A1,1,0,0,1,131.09,66.64Z"/><path class="cls-8" d="M123.09,66.23a3,3,0,0,1,.13-1.15A3,3,0,0,0,123.09,66.23Z"/><path class="cls-8" d="M124.07,68.17a2.89,2.89,0,0,1-.68-.87A2.89,2.89,0,0,0,124.07,68.17Z"/><path class="cls-8" d="M131.86,44.68l10.6,3.48a1,1,0,0,1,.66,1.32l-.33,1L145,49.37a1,1,0,0,1,0,.24A2.89,2.89,0,0,0,143,46.39l-12.37-4-5.61,17.14,2.34-1.19Z"/><path class="cls-8" d="M130.14,66.82a1,1,0,0,0-.36.48A1,1,0,0,1,130.14,66.82Z"/><path class="cls-8" d="M131.8,67.53a1.15,1.15,0,0,1-.05.41A1.15,1.15,0,0,0,131.8,67.53Z"/><polygon class="cls-8" points="144.89 50.06 144.89 50.06 141.62 60.05 144.89 50.06 144.89 50.06"/><path class="cls-8" d="M131.23,68.54a1,1,0,0,0,.52-.6A1,1,0,0,1,131.23,68.54Z"/><path class="cls-4" d="M142.46,48.16l-10.6-3.48L127.4,58.29l15.39-7.79.33-1A1,1,0,0,0,142.46,48.16Z"/><polygon class="cls-13" points="125.06 59.48 123.22 65.08 125.06 59.48 125.06 59.48"/><path class="cls-13" d="M130.14,66.82a.92.92,0,0,1,.27-.16A.92.92,0,0,0,130.14,66.82Z"/><path class="cls-13" d="M145,49.61a3.58,3.58,0,0,1-.09.45A3.58,3.58,0,0,0,145,49.61Z"/><path class="cls-13" d="M137.37,71.42a2.81,2.81,0,0,1-1,.5A2.81,2.81,0,0,0,137.37,71.42Z"/><path class="cls-13" d="M131.77,67.45l0,.08Z"/><path class="cls-13" d="M137.37,71.42a2.9,2.9,0,0,0,1-1.38l3.27-10-3.27,10A2.9,2.9,0,0,1,137.37,71.42Z"/><path class="cls-13" d="M130.44,68.6a.94.94,0,0,1-.35-.2.94.94,0,0,0,.35.2,1,1,0,0,0,.79-.06A1,1,0,0,1,130.44,68.6Z"/><path class="cls-8" d="M144.89,50.06a3.58,3.58,0,0,0,.09-.45,1,1,0,0,0,0-.24l-2.22,1.13L137.5,66.64l-11.59-3.8,1.49-4.55-2.34,1.19-1.84,5.6a3,3,0,0,0-.13,1.15,2.86,2.86,0,0,0,1,1.94,2.88,2.88,0,0,0,1,.57l9.61,3.15a2.87,2.87,0,0,0,1.69,0,2.81,2.81,0,0,0,1-.5,2.9,2.9,0,0,0,1-1.38l3.27-10,3.27-10Z"/><path class="cls-8" d="M131.75,67.94a1,1,0,0,1-1.31.66.94.94,0,0,1-.35-.2,1,1,0,0,1-.31-1.1,1,1,0,0,1,.36-.48.92.92,0,0,1,.27-.16,1,1,0,0,1,.68,0,1,1,0,0,1,.68.81l0,.08A1.15,1.15,0,0,1,131.75,67.94Z"/><path class="cls-14" d="M144.89,50.06a3.58,3.58,0,0,0,.09-.45,1,1,0,0,0,0-.24l-2.22,1.13L137.5,66.64l-11.59-3.8,1.49-4.55-2.34,1.19-1.84,5.6a3,3,0,0,0-.13,1.15,2.86,2.86,0,0,0,1,1.94,2.88,2.88,0,0,0,1,.57l9.61,3.15a2.87,2.87,0,0,0,1.69,0,2.81,2.81,0,0,0,1-.5,2.9,2.9,0,0,0,1-1.38l3.27-10,3.27-10Z"/><path class="cls-15" d="M131.75,67.94a1,1,0,0,1-1.31.66.94.94,0,0,1-.35-.2,1,1,0,0,1-.31-1.1,1,1,0,0,1,.36-.48.92.92,0,0,1,.27-.16,1,1,0,0,1,.68,0,1,1,0,0,1,.68.81l0,.08A1.15,1.15,0,0,1,131.75,67.94Z"/><polygon class="cls-4" points="125.91 62.84 137.5 66.64 142.78 50.5 127.4 58.3 125.91 62.84"/><polygon class="cls-15" points="125.91 62.84 137.5 66.64 142.78 50.5 127.4 58.3 125.91 62.84"/><polygon class="cls-8" points="65.85 65.03 63.47 64.44 62.16 66.5 59.78 65.92 58.47 67.98 56.09 67.4 54.78 69.47 52.4 68.88 51.09 70.94 48.71 70.36 49.24 71.68 62.36 104.39 63.67 102.33 66.05 102.91 67.36 100.85 69.74 101.43 71.05 99.37 73.43 99.95 74.74 97.89 77.12 98.47 78.43 96.41 80.81 96.99 67.16 62.96 65.85 65.03"/><path class="cls-4" d="M66.34,75.5a.75.75,0,0,1-.28-1.45l2-.8a.74.74,0,0,1,1,.41.75.75,0,0,1-.41,1l-2,.81A.92.92,0,0,1,66.34,75.5Z"/><path class="cls-4" d="M68,79.63a.75.75,0,0,1-.28-1.45l2-.81a.76.76,0,0,1,1,.42.76.76,0,0,1-.42,1l-2,.81A.87.87,0,0,1,68,79.63Z"/><path class="cls-4" d="M55.28,79.93a.73.73,0,0,1-.69-.47.74.74,0,0,1,.41-1l6.91-2.77a.75.75,0,1,1,.56,1.39l-6.91,2.77A.69.69,0,0,1,55.28,79.93Z"/><path class="cls-4" d="M56.94,84.06a.76.76,0,0,1-.7-.47.74.74,0,0,1,.42-1l4.77-1.92A.75.75,0,1,1,62,82.09L57.22,84A.72.72,0,0,1,56.94,84.06Z"/><path class="cls-4" d="M69.65,83.76a.75.75,0,0,1-.28-1.45l2-.81A.75.75,0,0,1,72,82.89l-2,.81A.71.71,0,0,1,69.65,83.76Z"/><path class="cls-4" d="M58.59,88.19a.75.75,0,0,1-.28-1.44l7.84-3.15A.75.75,0,0,1,66.7,85l-7.83,3.14A.87.87,0,0,1,58.59,88.19Z"/><path class="cls-4" d="M71.31,87.89A.75.75,0,0,1,71,86.44l2-.81a.75.75,0,0,1,1,.42.74.74,0,0,1-.42,1l-2,.81A.66.66,0,0,1,71.31,87.89Z"/><path class="cls-4" d="M60.25,92.32A.75.75,0,0,1,60,90.87l7.83-3.14a.75.75,0,0,1,.56,1.4l-7.83,3.14A.92.92,0,0,1,60.25,92.32Z"/><g id="Building-Construction_Construction_construction-paint" data-name="Building-Construction / Construction / construction-paint"><g id="Group_58" data-name="Group 58"><g id="construction-paint"><path class="cls-8" d="M105.64,44.07a.51.51,0,0,1-.17,0,.5.5,0,0,1-.3-.64l.69-1.95a1,1,0,0,0-.63-1.22l-4.59-1.64a3,3,0,1,1,2-5.69L103,33a.5.5,0,1,1-.33.94l-.36-.12a2,2,0,1,0-1.35,3.8l4.59,1.64a2,2,0,0,1,1.23,2.49l-.69,2A.51.51,0,0,1,105.64,44.07Z"/><path id="Shape_509" data-name="Shape 509" class="cls-8" d="M103.19,50.44a1.48,1.48,0,0,1-.93-1.86l1.45-4.07a1.5,1.5,0,0,1,2.83,1l-1.45,4.07A1.49,1.49,0,0,1,103.19,50.44Z"/><path id="Rectangle-path_18" data-name="Rectangle-path 18" class="cls-8" d="M103.24,32.41a1,1,0,0,1,1.28-.61l9.42,3.36a1,1,0,0,1,.61,1.27l-.78,2.19a1,1,0,0,1-1.28.61l-9.42-3.36a1,1,0,0,1-.6-1.28Z"/></g></g></g><circle class="cls-11" cx="113.08" cy="23.17" r="3.87"/><circle class="cls-12" cx="43.39" cy="82.56" r="3.87"/><circle class="cls-11" cx="140.91" cy="37.17" r="3.87"/><circle class="cls-11" cx="167.86" cy="67.44" r="3.87"/></g></g></g></svg>
