<?xml version="1.0" encoding="UTF-8"?>
<svg width="101px" height="65px" viewBox="0 0 101 65" version="1.1" xmlns="http://www.w3.org/2000/svg" xmlns:xlink="http://www.w3.org/1999/xlink">
    <!-- Generator: Sketch 58 (84663) - https://sketch.com -->
    <title>empty-states/icons/error something went wrong</title>
    <desc>Created with Sketch.</desc>
    <defs>
        <path d="M85.42756,56.9010283 C85.2079048,56.9010283 84.9944747,56.9244875 84.7774875,56.9344126 C83.5751647,44.9530441 73.6017545,35.6045269 61.4753683,35.6045269 C50.4027932,35.6045269 41.1470417,43.409244 38.7041565,53.8865127 C36.2906179,52.1433088 33.346172,51.1083943 30.15806,51.1083943 C22.0325987,51.1083943 15.4447233,57.7663142 15.3949229,65.9987117 C14.0414205,65.3770412 12.5438527,65.0215431 10.9609129,65.0215431 C5.01510632,65.0215431 0.195143488,69.9118976 0.195143488,75.9454401 C0.195143488,81.9780804 5.01510632,86.8684349 10.9609129,86.8684349 L85.42756,86.8684349 C93.5841465,86.8684349 100.195143,80.1608896 100.195143,71.8851827 C100.195143,63.6094758 93.5841465,56.9010283 85.42756,56.9010283" id="path-1"></path>
        <path d="M19.5391429,7.53999155 C19.8471104,7.84947922 19.853599,8.36760975 19.5536358,8.69726849 L14.74,13.98575 L19.5454709,19.2668296 C19.8181648,19.5665193 19.8375926,20.0219709 19.6074908,20.3348262 L19.5309781,20.4241065 C19.2230107,20.7335942 18.7301855,20.7172423 18.4302222,20.3875836 L18.4302222,20.3875836 L13.673,15.15875 L8.91637764,20.3875836 C8.61641438,20.7172423 8.12358918,20.7335942 7.81562174,20.4241065 C7.50765431,20.1146188 7.50116564,19.5964883 7.80112891,19.2668296 L12.606,13.98675 L7.79296408,8.69726849 C7.52027021,8.39757873 7.50084239,7.94212715 7.73094422,7.62927188 L7.80745692,7.53999155 C8.11542435,7.23050388 8.60824956,7.24685576 8.90821282,7.5765145 L8.90821282,7.5765145 L13.673,12.81375 L18.438387,7.5765145 C18.7383503,7.24685576 19.2311755,7.23050388 19.5391429,7.53999155 Z" id="path-3"></path>
    </defs>
    <g id="DG---VD---Dashboard-6.1-0-With-NO-banking-insights" stroke="none" stroke-width="1" fill="none" fill-rule="evenodd">
        <g id="Desktop---Dashboard---Error-states" transform="translate(-470.000000, -289.000000)">
            <g id="Sales-empty-state" transform="translate(136.000000, 206.000000)">
                <g id="empty-states/no-icon/h3-multi-line/p-multi-line/1-action-copy" transform="translate(210.000000, 48.000000)">
                    <g id="empty-states/icons/error-something-went-wrong" transform="translate(124.000000, 0.000000)">
                        <mask id="mask-2" fill="white">
                            <use xlink:href="#path-1"></use>
                        </mask>
                        <use id="Mask" fill="#E8EAEC" fill-rule="evenodd" xlink:href="#path-1"></use>
                        <g id="Group" stroke-width="1" fill-rule="evenodd" transform="translate(39.000000, 72.000000)">
                            <path d="M26.7934211,13.363875 C26.7934211,20.7440625 20.7947368,26.72775 13.3960526,26.72775 C5.99736842,26.72775 -1.22568622e-12,20.7440625 -1.22568622e-12,13.363875 C-1.22568622e-12,5.9836875 5.99736842,7.10542736e-15 13.3960526,7.10542736e-15 C20.7947368,7.10542736e-15 26.7934211,5.9836875 26.7934211,13.363875 Z" id="Stroke-22" stroke="#EA1177" stroke-width="1.6" fill="#FFFFFF" stroke-linecap="round" stroke-linejoin="round"></path>
                            <mask id="mask-4" fill="white">
                                <use xlink:href="#path-3"></use>
                            </mask>
                            <use id="Mask" fill="#EA1177" fill-rule="nonzero" xlink:href="#path-3"></use>
                        </g>
                    </g>
                </g>
            </g>
        </g>
    </g>
</svg>