<svg height="227" viewBox="0 0 246 227" width="246" xmlns="http://www.w3.org/2000/svg"><g fill="none" fill-rule="nonzero"><ellipse cx="64.317818" cy="14.45867" fill="#231f20" rx="13.988455" ry="13.989015"/><path d="m49.5913636 32.0483744h.2236364c-1.5689539.0963384-2.7920794 1.3969201-2.7920794 2.9688916 0 1.5719716 1.2231255 2.8725532 2.7920794 2.9688916-.1605397 6.3436037 3.1318375 12.2752657 8.6001438 15.4943203 5.4683063 3.2190547 12.2522243 3.2190547 17.7205306 0 5.4683063-3.2190546 8.7606835-9.1507166 8.6001438-15.4943203v-23.393304h-17.4548182c-4.6312427-.0029634-9.0738172 1.8347848-12.3496494 5.108651-3.2758322 3.2738661-5.1163516 7.7154407-5.1163506 12.3468698z" fill="#d2d3d3"/><path d="m84.7358505 38.0197044v-8.3531527h-8.6994869c-3.4230669 0-6.1997414 2.7717769-6.2059091 6.1949754v6.2285222h-2.5270909v13.4187192c4.6312473-.0059254 9.0702918-1.8522063 12.3398336-5.1323655 3.2695419-3.2801592 5.1015253-7.7252706 5.0926533-12.3566986z" fill="#a8aaac"/><path d="m60.7508182 45.7019212c3.6093228 3.5998907 9.4510408 3.5998907 13.0603636 0z" fill="#a8aaac"/><ellipse cx="60.012818" cy="37.024483" fill="#231f20" rx="1.710818" ry="1.710887"/><ellipse cx="75.499636" cy="37.024483" fill="#231f20" rx="1.710818" ry="1.710887"/><path d="m67.281 14.5928536c-4.6312427-.0029634-9.0738172 1.8347848-12.3496494 5.108651-3.2758322 3.2738661-5.1163506 7.7154407-5.1163506 12.3468698h8.3304545l2.1021819-5.3339409 2.2363636 5.3339409h22.2965455v-17.4555208z" fill="#231f20"/><ellipse cx="34.395273" cy="222.325813" fill="#1b2930" opacity=".05" rx="33.925636" ry="4.607094"/><path d="m29.1398182 180.51532h-16.3366364c-1.6303446 0-2.95199998-1.321708-2.95199998-2.952118s1.32165538-2.952118 2.95199998-2.952118h16.3366364c13.7620007-.01232 24.9169627-11.162726 24.9354545-24.925271v-13.854828c.0959552-1.556934 1.3865834-2.770514 2.9464091-2.770514s2.8504539 1.21358 2.9464091 2.770514v13.854828c-.0184881 17.019002-13.8099517 30.811018-30.8282727 30.829507z" fill="#dcdfdf"/><path d="m10.6562727 186.430739 3.3657273-11.819655-3.3545455 1.174138-2.50472723 10.902709z" fill="#d2d3d3"/><path d="m14.022 174.622266c-1.5319091 0-1.968.749212-2.6724545 2.940936-.7371816 2.075011-1.2288035 4.229227-1.46481823 6.418621-.07773167.886325.19980203 1.767228.77154543 2.448916l-1.11818179 3.757241c-1.63254546 0-2.94081818-1.77798-2.98554546-3.35468-.1900909-6.496896 3.01909091-6.541625 2.97436364-10.533694l-2.32581818-.559113v-1.118227h6.77618179z" fill="#1b2930"/><path d="m41.8870909 219.407265c-.6437386.00264-1.2683502-.21875-1.7667273-.626231-.5912916-.468271-.9711161-1.153284-1.0550999-1.902869-.0839838-.749586.1348274-1.501675.6078272-2.089199 6.0756062-7.959006 11.5049174-16.391228 16.236-25.21601 7.3352727-13.597636 16.0682727-33.94936 16.0235455-53.730789-.0000121-1.570471 1.2697857-2.845319 2.8401818-2.851477 1.5685891 0 2.8401818 1.271643 2.8401818 2.840295 0 21.000296-9.0796364 42.336059-16.7727273 56.537537-4.8715903 9.102676-10.4812923 17.790582-16.7727272 25.976404-.5324849.661002-1.3317573 1.050407-2.1804546 1.062339z" fill="#dcdfdf"/><path d="m48.9875455 225.07665c1.1181818-1.118226 1.1181818-1.889803-.0782728-3.041576l-4.9423636-4.942562c-1.1523756-1.150249-3.0184426-1.150249-4.1708182 0-1.1181818 1.118227 1.3194546 2.404188 2.4711818 3.555961 0 0 6.1388182 5.009655 6.7202728 4.428177z" fill="#d2d3d3"/><path d="m39.0245455 221.498325v-5.904236c.2204531 1.090997.8134042 2.071382 1.6772727 2.773202.6820909.626207 3.075 3.131034 4.9759091 3.980886 1.0834121.236258 2.2136362.126751 3.2315454-.313103l3.1085455 2.359458c-.5926364 1.520788-3.9695455 1.53197-5.4902727.950493-5.4902728-2.135813-2.8513637-4.014434-6.5749091-5.423399l-.1118182 1.576699z" fill="#1b2930"/><path d="m86.2789091 65.282069h-20.4850909c-1.0959688.0675509-2.1388636-.4788137-2.7072827-1.4183246-.5684191-.939511-.5684191-2.1168941 0-3.056405s1.6113139-1.4858755 2.7072827-1.4183246h20.4850909c13.7638099-.0184798 24.9169759-11.1720923 24.9354549-24.9364532v-17.1759606c.095955-1.5569338 1.386583-2.770514 2.946409-2.770514 1.559825 0 2.850454 1.2135802 2.946409 2.770514v17.1759606c-.018488 17.0190025-13.809952 30.8110185-30.8282729 30.8295074z" fill="#dcdfdf"/><path d="m117.107182 34.4525616c-.018488 17.0190025-13.809952 30.8110185-30.8282729 30.8295074h-20.4850909c-1.0959688.0675509-2.1388636-.4788137-2.7072827-1.4183246-.5684191-.939511-.5684191-2.1168941 0-3.056405s1.6113139-1.4858755 2.7072827-1.4183246h20.4850909c13.7638099-.0184798 24.9169759-11.1720923 24.9354549-24.9364532z" fill="#b93390"/><path d="m57.0272727 128.439507c-.1900909 2.370641-.2907272 4.830739-.2683636 7.391478h18.0027273c0-2.560739-.0782728-5.020837-.2683637-7.391478z" fill="#d2d3d3"/><path d="m72.5252727 106.600542c2.5047273-6.586355 8.7106364-23.6281282 8.5429091-29.7671922-.3466363-14.7046798-10.2984545-17.1983252-15.3302727-17.5114286-5.043.3131034-14.9948182 2.8067488-15.3302727 17.5114286-.1789091 6.139064 6.0381818 23.1808372 8.5317272 29.7671922-.8326039.318197-1.466563 1.010193-1.7108181 1.867438-2.2940561 7.92017-3.4240647 16.131895-3.3545455 24.37734.0029597.75033.3038565 1.468751.8364952 1.997217s1.2533874.823686 2.0036866.820737h17.9915455c1.5642547.006184 2.8390589-1.253673 2.8513636-2.817954.0639935-8.245089-1.0659058-16.45602-3.3545454-24.37734-.2433327-.846661-.8615252-1.534943-1.6772728-1.867438z" fill="#b93390"/><path d="m77.2999091 125.241379-.2124546-2.61665h-22.6990909l-.2236363 2.61665c-.2012728 2.549557-.3019091 5.13266-.2683637 7.64867v19.893251h23.6271819v-19.893251c.0782727-2.560739-.0111819-5.143842-.2236364-7.64867z" fill="#1b2930"/><path d="m28.6701818 106.231527h-.0670909c-.7829856-.017593-1.5268889-.345623-2.0679571-.911879-.5410683-.566257-.8349492-1.324325-.816952-2.107333.8721818-37.5612313 27.3507273-43.2306401 38.7002727-43.9351229 1.0593756-.0755495 2.0776756.4238244 2.6665897 1.3076946.5889141.8838703.6576541 2.0159775.1800072 2.964613-.4776468.9486355-1.4280455 1.5675558-2.4887787 1.6207466-12.0651818.7380296-32.4272727 6.7093596-33.1652727 38.1762557-.0304673 1.602358-1.3382348 2.885025-2.9408182 2.885025z" fill="#b93390"/><path d="m37.9063636 76.1959606-5.658 33.3902464c-.2836043 1.702998.8598202 3.315841 2.5606364 3.611872l19.5122727 3.35468c1.7029304.283615 3.3157081-.859855 3.6117273-2.560739l5.1436364-30.2480299c.2838867-1.7116251-.8632824-3.3326898-2.5718182-3.6342364z" fill="#c5cacc"/><path d="m36.7406773 81.3766599 21.7710244.000144.0002036 30.7959261-21.7710244-.000144z" fill="#fff" transform="matrix(.98587937 .16745706 -.16745706 .98587937 16.878119 -6.608839)"/><path d="m53.1136364 80.5123153c.2501095-1.4636634-.7336227-2.8529589-2.1972274-3.1030786-1.4636046-.2501197-2.8528447.7336517-3.1029545 2.197315l-4.7410909-.8051231-.3913636 2.314729 14.7823636 2.5160099.4025455-2.3147291z" fill="#1b2930"/><path d="m52.1967273 106.231527h-23.4818182c-1.0592696.066435-2.0677764-.460992-2.6175244-1.368906s-.549748-2.046047 0-2.953961 1.5582548-1.435341 2.6175244-1.368906h23.4818182c1.5025134.094233 2.6728918 1.340361 2.6728918 2.845886 0 1.505526-1.1703784 2.751654-2.6728918 2.845887z" fill="#dcdfdf"/><g fill="#1b2930"><path d="m77.2999091 125.241379-.2124546-2.61665h-22.6990909l-.2236363 2.61665c-.2012728 2.549557-.3019091 5.13266-.2683637 7.64867v19.893251h23.6271819v-19.893251c.0782727-2.560739-.0111819-5.143842-.2236364-7.64867z"/><path d="m200.277545 110.156502-.089454 27.28473c0 1.298738 1.04951 2.353302 2.348182 2.359458l31.208454.100724c3.18403.011799 6.242207-1.242482 8.501-3.486684s3.532938-5.294258 3.541818-8.478425l.05591-17.634433c0-1.298738-1.049511-2.353303-2.348182-2.359458l-40.858364-.134187c-1.298686 0-2.353209 1.049552-2.359364 2.348275z"/><path d="m212.980091 111.979212v-10.310049c.002959-.702878.285007-1.375792.784093-1.8707045.499087-.4949126 1.17433-.7712827 1.87718-.7683344h9.918272c4.127077.0185131 7.459471 3.3760599 7.447126 7.5033239v5.479311c-.002994.702878-.285041 1.375791-.784128 1.870704-.499087.494912-1.17433.771282-1.877179.768334h-14.737637c-1.439517-.011805-2.608714-1.166185-2.638909-2.605492zm17.119364-5.401035c.017969-1.19787-.445319-2.352884-1.286073-3.206284-.840755-.8534-1.988697-1.33385-3.186655-1.333716h-9.616363v9.706207l14.145.055912z"/><ellipse cx="205.521818" cy="222.325813" opacity=".05" rx="33.925636" ry="4.607094"/></g><path d="m222.518182 104.643645c1.630344 0 2.952-1.321708 2.952-2.952118v-11.4730048c-.00889-8.1873323-3.27046-16.0356359-9.066885-21.8176127s-13.65266-9.0237653-21.839661-9.0118947h-20.440363c-1.095969-.0675509-2.138864.4788137-2.707283 1.4183246s-.568419 2.116894 0 3.056405c.568419.9395109 1.611314 1.4858755 2.707283 1.4183246h20.440363c13.761994.0184925 24.911954 11.1739013 24.924273 24.9364532v11.4730048c-.00028.796703.321455 1.559697.892109 2.115632.570653.555936 1.341773.857611 2.138164.836486z" fill="#dcdfdf"/><path d="m222.518182 93.1706404c1.630344 0 2.952-1.3217084 2.952-2.9521182-.00889-8.1873323-3.27046-16.0356359-9.066885-21.8176127s-13.65266-9.0237653-21.839661-9.0118947h-20.440363c-1.095969-.0675509-2.138864.4788137-2.707283 1.4183246s-.568419 2.116894 0 3.056405c.568419.9395109 1.611314 1.4858755 2.707283 1.4183246h20.440363c13.761994.0184925 24.911954 11.1739013 24.924273 24.9364532-.00028.7967032.321455 1.5596966.892109 2.1156323.570653.5559357 1.341773.8576107 2.138164.8364859z" fill="#d2d3d3"/><path d="m182.956909 214.263399c.643035.082957 1.294958-.059286 1.845-.402562 1.333505-.826994 1.748264-2.576049.928091-3.913793-5.068934-8.637783-9.436412-17.668504-13.060364-27.005172-5.590909-14.391576-11.819181-35.660246-9.359181-55.285123.191045-1.558428-.913644-2.978085-2.471182-3.175764-1.558365-.191053-2.977966.91368-3.175637 2.471281-2.605363 20.843744 3.857728 43.141182 9.739364 58.147783 3.731102 9.626779 8.237255 18.934882 13.474091 27.83266.456518.735132 1.221061 1.224295 2.079818 1.33069z" fill="#81409a"/><path d="m153.638182 65.282069h20.485091c1.556871-.095959 2.770403-1.386639 2.770403-2.9465271 0-1.5598882-1.213532-2.8505681-2.770403-2.9465271h-20.485091c-13.76381-.0184798-24.916976-11.1720923-24.935455-24.9364532v-17.1759606c0-1.6304098-1.321655-2.9521179-2.952-2.9521179-1.630344 0-2.952 1.3217081-2.952 2.9521179v17.1759606c.024648 17.0208112 13.819317 30.811031 30.839455 30.8295074z" fill="#dcdfdf"/><path d="m122.798727 34.4525616c.024648 17.0208112 13.819317 30.811031 30.839455 30.8295074h20.485091c1.556871-.095959 2.770403-1.386639 2.770403-2.9465271 0-1.5598882-1.213532-2.8505681-2.770403-2.9465271h-20.485091c-13.76381-.0184798-24.916976-11.1720923-24.935455-24.9364532z" fill="#81409a"/><path d="m225.436636 90.2185222c-.018516-17.0364588-13.837214-30.8356901-30.873-30.8295074h-20.440363c-1.095969-.0675509-2.138864.4788137-2.707283 1.4183246s-.568419 2.116894 0 3.056405c.568419.9395109 1.611314 1.4858755 2.707283 1.4183246h20.440363c13.761994.0184925 24.911954 11.1739013 24.924273 24.9364532z" fill="#81409a"/><path d="m183.035182 224.763547-1.677273-2.426552c-.679903-.98202-.70108-2.276993-.053651-3.280721.64743-1.003729 1.835874-1.518403 3.01084-1.303891 1.174965.214512 2.104895 1.115935 2.355912 2.283691.251016 1.167757-.22635 2.371711-1.209374 3.050133z" fill="#231f20"/><path d="m185.461636 223.030296c-.981185.678815-2.274504.70024-3.277633.054297s-1.518823-1.832243-1.306912-3.006416l1.252364-6.877093c.352109-1.537943 1.851222-2.527179 3.40364-2.245998 1.552418.281182 2.609362 1.733384 2.399723 3.297131l-1.196454 6.877093c-.150791.779803-.610565 1.465458-1.274728 1.900986z" fill="#1b2930"/><path d="m180.038647 208.216233 5.896101-.000111-.00009 4.801816-5.896101.000111z" fill="#1b2930" transform="matrix(.82110924 -.57077107 .57077107 .82110924 -87.479518 142.120937)"/><path d="m186.948818 218.434384c-.100636 1.218867-.234818 1.498424-.827454 1.934532l-4.114909 2.851478 1.028727 1.487241 4.114909-2.840295c.592636-.436108.726818-.726847.827454-1.945714l.402546-6.541626-1.028727-1.487241z" fill="#969ea7"/><path d="m212.309182 182.885961 16.269545 1.420147c1.085702.16254 2.171921-.290846 2.819921-1.17703.648001-.886185.750738-2.058776.266715-3.044151s-1.474849-1.620757-2.572272-1.649508l-16.269546-1.43133c-13.708055-1.213153-23.847423-13.293841-22.665545-27.005173l1.207636-13.798916c.091883-1.050695-.383732-2.070598-1.247683-2.675521s-1.984985-.702965-2.940818-.257192c-.955833.445772-1.601253 1.367634-1.693135 2.418329l-1.196455 13.798916c-1.466194 16.955818 11.069713 31.898457 28.021637 33.401429z" fill="#81409a"/><path d="m238.564091 190.098522-2.940818-.257192c-1.624133-.142064-2.825597-1.573893-2.683555-3.198093.142043-1.624199 1.573804-2.825725 3.197939-2.683692 1.624136.142032 2.825627 1.573839 2.683616 3.198041z" fill="#231f20"/><path d="m238.821273 187.179951c-.10779 1.186872-.918616 2.192527-2.055599 2.54953-1.136984.357003-2.377105-.004673-3.143947-.916919l-4.472727-5.356306c-.826117-1.247179-.58877-2.915183.552444-3.8824 1.141213-.967217 2.825492-.927857 3.920283.091612l4.472728 5.356305c.523378.591943.785476 1.370204.726818 2.158178z" fill="#1b2930"/><path d="m227.879899 178.06272 5.928099-.000021-.000017 4.827617-5.928099.000021z" fill="#1b2930" transform="matrix(.08963771 -.99597444 .99597444 .08963771 30.40162 394.21368)"/><path d="m236.227091 183.098424c.872182.861034 1.006364 1.118226.961636 1.87862l-.436091 4.976109 1.811455.167734.436091-4.987291c0-.738029-.089455-1.017586-.972818-1.878621l-4.763455-4.472906-1.811454-.156552z" fill="#8c8c8c"/><path d="m196.050818 81.3957143c-.480818-21.0897537-15.430909-21.436404-21.826909-21.8277833h-.357818c-6.396.3913793-21.334909.7380296-21.826909 21.8277833v.167734l5.087727 57.0966507h33.836182l5.098909-57.1190153z" fill="#81409a"/><path d="m157.283455 33.7257143h.212454c-1.058415-.094766-2.079585.4163777-2.638062 1.3204749-.558476.9040972-.558476 2.0460859 0 2.9501832.558477.9040972 1.579647 1.4152408 2.638062 1.3204749.000001 9.0969456 7.374237 16.4714768 16.470818 16.4714768 9.096582 0 16.470818-7.3745312 16.470818-16.4714768v-22.0626147h-16.470818c-4.369242-.0029655-8.560384 1.7314638-11.649906 4.821109-3.089521 3.0896452-4.823881 7.2809555-4.820912 11.6503727z" fill="#dcdfdf"/><path d="m17.1193636 8.01768473v-7.82758621h-8.17390905c-3.22981143 0-5.84809091 2.61838435-5.84809091 5.84832513v5.87068965h-2.39290909v12.5800493c9.07474021-.030805 16.41490905-7.3963219 16.41490905-16.47147787z" fill="#1b2930" opacity=".1" transform="translate(173.318182 31.310345)"/><ellipse cx="167.112273" cy="38.411084" fill="#2d3e4f" rx="1.621364" ry="1.621429"/><path d="m167.805545 46.5965025c3.402097 3.3832725 8.897904 3.3832725 12.3 0z" fill="#969ea7"/><ellipse cx="181.715727" cy="38.411084" fill="#2d3e4f" rx="1.621364" ry="1.621429"/><path d="m190.437545 17.2542365h-16.470818c-6.617689.0014322-12.590998 3.9661766-15.162545 10.0640394.968698 2.278254 3.204803 3.7572413 5.680363 3.7572413-.011928-1.1179393.423045-2.1943562 1.208294-2.9901355s1.855752-1.2450256 2.973706-1.2479433h21.771z" fill="#2d3e4f"/><path d="m167.212909 59.333103h13.653v66.087192h-13.653z" fill="#fff"/><path d="m172.457182 62.978522h2.840182v41.821675h-2.840182z" fill="#1b2930"/><path d="m212.309182 182.885961 16.269545 1.420147c1.085702.16254 2.171921-.290846 2.819921-1.17703.648001-.886185.750738-2.058776.266715-3.044151s-1.474849-1.620757-2.572272-1.649508l-16.269546-1.43133c-13.708055-1.213153-23.847423-13.293841-22.665545-27.005173l1.207636-13.798916c.091883-1.050695-.383732-2.070598-1.247683-2.675521s-1.984985-.702965-2.940818-.257192c-.955833.445772-1.601253 1.367634-1.693135 2.418329l-1.196455 13.798916c-1.466194 16.955818 11.069713 31.898457 28.021637 33.401429z" fill="#81409a"/><path d="m238.564091 190.098522-2.940818-.257192c-1.624133-.142064-2.825597-1.573893-2.683555-3.198093.142043-1.624199 1.573804-2.825725 3.197939-2.683692 1.624136.142032 2.825627 1.573839 2.683616 3.198041z" fill="#231f20"/><path d="m238.821273 187.179951c-.10779 1.186872-.918616 2.192527-2.055599 2.54953-1.136984.357003-2.377105-.004673-3.143947-.916919l-4.472727-5.356306c-.826117-1.247179-.58877-2.915183.552444-3.8824 1.141213-.967217 2.825492-.927857 3.920283.091612l4.472728 5.356305c.523378.591943.785476 1.370204.726818 2.158178z" fill="#1b2930"/><path d="m227.879899 178.06272 5.928099-.000021-.000017 4.827617-5.928099.000021z" fill="#1b2930" transform="matrix(.08963771 -.99597444 .99597444 .08963771 30.40162 394.21368)"/><path d="m236.227091 183.098424c.872182.861034 1.006364 1.118226.961636 1.87862l-.436091 4.976109 1.811455.167734.436091-4.987291c0-.738029-.089455-1.017586-.972818-1.878621l-4.763455-4.472906-1.811454-.156552z" fill="#969ea7"/></g></svg>