<?xml version="1.0" encoding="UTF-8"?>
<svg width="100px" height="59px" viewBox="0 0 100 59" version="1.1" xmlns="http://www.w3.org/2000/svg" xmlns:xlink="http://www.w3.org/1999/xlink">
    <!-- Generator: Sketch 59 (86127) - https://sketch.com -->
    <title>empty-states/icons/access denied</title>
    <desc>Created with Sketch.</desc>
    <defs>
        <path d="M85.2324165,62.1868664 C85.0127613,62.1868664 84.7993313,62.2102049 84.582344,62.2200789 C83.3800212,50.3003907 73.406611,41 61.2802248,41 C50.2076497,41 40.9518982,48.7645382 38.509013,59.1878696 C36.0954744,57.4536398 33.1510285,56.4240531 29.9629165,56.4240531 C21.8374552,56.4240531 15.2495798,63.0476978 15.1997795,71.2377147 C13.846277,70.6192446 12.3487092,70.2655766 10.7657694,70.2655766 C4.81996283,70.2655766 0,75.1307554 0,81.1332371 C0,87.1348212 4.81996283,92 10.7657694,92 L85.2324165,92 C93.389003,92 100,85.3269854 100,77.093882 C100,68.8607787 93.389003,62.1868664 85.2324165,62.1868664" id="path-1"></path>
    </defs>
    <g id="Pay-super" stroke="none" stroke-width="1" fill="none" fill-rule="evenodd">
        <g id="Pay-Super---Not-signed-up" transform="translate(-633.000000, -143.000000)">
            <g id="empty-states/icons/access-denied" transform="translate(633.000000, 102.000000)">
                <mask id="mask-2" fill="white">
                    <use xlink:href="#path-1"></use>
                </mask>
                <use id="Mask" fill="#E8EAEC" fill-rule="evenodd" xlink:href="#path-1"></use>
                <path d="M51.1506849,70 C54.3983341,70 57.0548433,72.5869206 57.1739162,75.8115453 L57.1780822,76.0375293 L57.1787863,80.9518314 C58.2512364,81.0045872 59.3231308,81.0710953 60.3941552,81.1513629 L62,81.2820845 L62,99.5176732 C55.1122321,100.122816 48.1838954,100.158658 41.2918204,99.6245063 L40,99.5176732 L40,81.2820845 C41.705706,81.1322368 43.413839,81.0173423 45.1232959,80.937373 L45.1232877,76.0375293 L45.1274528,75.8115453 C45.2465017,72.5869206 47.9024894,70 51.1506849,70 Z M50.8493151,86.5 L50.7121422,86.5062542 C49.9441144,86.5766245 49.3424658,87.2321292 49.3424658,88.0303288 L49.3424658,88.0303288 L49.3500603,88.1843788 C49.3852126,88.5389557 49.5403611,88.8574632 49.7729941,89.0987817 L49.7729941,89.0987817 L49.7729941,92.9068286 C49.7729941,93.5106281 50.2546717,94 50.8493151,94 L50.8493151,94 L50.9665841,93.9935861 C51.5058383,93.9342418 51.9259095,93.4703748 51.9259095,92.9068286 L51.9259095,92.9068286 L51.9259095,89.0987817 L52.0205727,88.9907535 C52.2298856,88.7282202 52.3561644,88.3943721 52.3561644,88.0303288 L52.3561644,88.0303288 L52.3500075,87.8910414 C52.2807314,87.1111603 51.6354108,86.5 50.8493151,86.5 L50.8493151,86.5 Z M51.1506849,71.8915408 L50.9444089,71.8966246 C48.8258183,72.0012773 47.1207562,73.7088788 47.0162588,75.8309169 L47.0111826,76.0375293 L47.0118112,80.8632496 C48.3411048,80.8210788 49.670953,80.8 51.0008378,80.8 C52.4304765,80.8 53.8602,80.8243707 55.2892654,80.8731286 L55.2896282,76.0375293 L55.2845534,75.8309169 C55.176717,73.640426 53.363882,71.8915408 51.1506849,71.8915408 Z" id="Combined-Shape" fill="#8241AA" fill-rule="evenodd"></path>
            </g>
        </g>
    </g>
</svg>