<svg xmlns="http://www.w3.org/2000/svg" viewBox="0 0 220 59">
    <title>Access denied</title>
    <path d="M145.2 21.2h-.7C143.4 9.3 133.4 0 121.3 0 110.2 0 101 7.8 98.5 18.2c-2.4-1.7-5.4-2.8-8.5-2.8-8.1 0-14.7 6.6-14.8 14.8-1.4-.6-2.9-1-4.4-1-5.9 0-10.8 4.9-10.8 10.9S64.8 51 70.8 51h74.5c8.2 0 14.8-6.7 14.8-14.9s-6.7-14.9-14.9-14.9" fillRule="evenodd" clipRule="evenodd" fill="#E8EAEC"/>
    <path d="M105.1 39.9V35c0-3.3 2.7-6 6-6s6 2.7 6 6v5l4.8.3v18.2c-7.3.6-14.7.6-22 0V40.3c1.8-.2 3.5-.3 5.2-.4zm1.9 0c1.3 0 2.7-.1 4-.1 1.4 0 2.9 0 4.3.1V35c0-2.3-1.9-4.1-4.1-4.1S107 32.8 107 35v4.9zm2.8 12c0 .6.5 1.1 1.1 1.1.6 0 1.1-.5 1.1-1.1v-3.8c.3-.3.4-.7.4-1.1 0-.8-.7-1.5-1.5-1.5s-1.5.7-1.5 1.5c0 .4.2.8.4 1.1v3.8z" fillRule="evenodd" clipRule="evenodd" fill="#8241AA"/>
  </svg>