<svg version="1.1" id="Layer_1" xmlns="http://www.w3.org/2000/svg" x="0" y="0" viewBox="0 0 17 17" xml:space="preserve" enable-background="new 0 0 17 17"><style>.st0,.st2{fill-rule:evenodd;clip-rule:evenodd;fill:#80499c}.st2{fill:#fff}</style><g id="Combined-Shape"><path id="path-1_1_" class="st0" d="M8.4.9c4.4 0 8 3.6 8 8s-3.6 8-8 8-8-3.6-8-8 3.5-8 8-8zm0 2c-3.3 0-6 2.7-6 6s2.7 6 6 6 6-2.7 6-6-2.7-6-6-6z"/></g><defs><filter id="Adobe_OpacityMaskFilter" filterUnits="userSpaceOnUse" x="-.6" y="-.1" width="18" height="18"><feColorMatrix values="1 0 0 0 0 0 1 0 0 0 0 0 1 0 0 0 0 0 1 0"/></filter></defs><mask maskUnits="userSpaceOnUse" x="-.6" y="-.1" width="18" height="18" id="mask-2_1_"><g filter="url(#Adobe_OpacityMaskFilter)"><path id="path-1_2_" class="st2" d="M8.4.9c4.4 0 8 3.6 8 8s-3.6 8-8 8-8-3.6-8-8 3.5-8 8-8zm0 2c-3.3 0-6 2.7-6 6s2.7 6 6 6 6-2.7 6-6-2.7-6-6-6z"/></g></mask><g id="swatch_x2F_icons_x2F_dusk" mask="url(#mask-2_1_)"><path id="Rectangle" class="st0" d="M-.6-.1h18v18h-18z"/></g><defs><filter id="Adobe_OpacityMaskFilter_1_" filterUnits="userSpaceOnUse"><feColorMatrix values="1 0 0 0 0 0 1 0 0 0 0 0 1 0 0 0 0 0 1 0"/></filter></defs><mask maskUnits="userSpaceOnUse" id="mask-2_2_"><g filter="url(#Adobe_OpacityMaskFilter_1_)"><path id="path-1_3_" class="st2" d="M8.4.9c4.4 0 8 3.6 8 8s-3.6 8-8 8-8-3.6-8-8 3.5-8 8-8zm0 2c-3.3 0-6 2.7-6 6s2.7 6 6 6 6-2.7 6-6-2.7-6-6-6z"/></g></mask><g transform="translate(3 3)"><g id="_x2D__x21B3__xD83C__xDFA8_swatch" transform="translate(4 2)"><g id="Mask"><path id="path-3_1_" class="st0" d="M3.8 3.4L.5.1c-.3-.3-.7-.3-1 0-.1.1-.2.3-.2.5v6.7c0 .2.1.4.2.5.2 0 .4.1.5.1.2 0 .4-.1.5-.2l3.3-3.3c.3-.3.3-.7 0-1"/></g><defs><filter id="Adobe_OpacityMaskFilter_2_" filterUnits="userSpaceOnUse" x="-4.6" y="-2.1" width="12" height="12"><feColorMatrix values="1 0 0 0 0 0 1 0 0 0 0 0 1 0 0 0 0 0 1 0"/></filter></defs><mask maskUnits="userSpaceOnUse" x="-4.6" y="-2.1" width="12" height="12" id="mask-4_2_"><g filter="url(#Adobe_OpacityMaskFilter_2_)"><path id="path-3_3_" class="st2" d="M3.8 3.4L.5.1c-.3-.3-.7-.3-1 0-.1.1-.2.3-.2.5v6.7c0 .2.1.4.2.5.2 0 .4.1.5.1.2 0 .4-.1.5-.2l3.3-3.3c.3-.3.3-.7 0-1"/></g></mask><g id="swatch_x2F_icons_x2F_dusk_1_" mask="url(#mask-4_2_)"><path class="st0" d="M-.6-.1h12v12h-12z" transform="translate(-4 -2)" id="Rectangle_1_"/></g></g></g></svg>