<svg width="91" height="91" viewBox="0 0 91 91" xmlns="http://www.w3.org/2000/svg"><g fill="none" fill-rule="evenodd"><circle fill="#EAECED" fill-rule="nonzero" cx="45.493" cy="45.428" r="45.258"/><path d="M14.15 50.862a1.346 1.346 0 01-1.347-1.346c.01-12.781 10.369-23.14 23.15-23.15a1.346 1.346 0 110 2.692c-11.294.01-20.448 9.163-20.458 20.458 0 .744-.602 1.346-1.346 1.346z" fill="#8241AA" fill-rule="nonzero"/><path d="M20.358 50.862a1.346 1.346 0 01-1.346-1.346A16.942 16.942 0 0135.954 32.54a1.346 1.346 0 110 2.692c-7.867.01-14.241 6.384-14.25 14.25a1.346 1.346 0 01-1.346 1.38z" fill="#8241AA" fill-rule="nonzero"/><path d="M26.566 50.862a1.346 1.346 0 01-1.346-1.346c0-5.928 4.806-10.734 10.734-10.734a1.346 1.346 0 110 2.692 8.042 8.042 0 00-8.042 8.042c0 .744-.603 1.346-1.346 1.346z" fill="#8241AA" fill-rule="nonzero"/><path d="M28.803 62.017h5.418v27.25c-.89-.216-1.775-.471-2.655-.768a35.841 35.841 0 01-2.763-1.067V62.017z" fill="#FFF" fill-rule="nonzero"/><rect fill="#C0C5CA" fill-rule="nonzero" x="28.803" y="62.017" width="5.417" height="5.434"/><path d="M42.33 62.017h5.418v28.616c-.728.035-1.572.053-2.533.053a39.26 39.26 0 01-2.885-.107V62.017z" fill="#FFF" fill-rule="nonzero"/><rect fill="#C0C5CA" fill-rule="nonzero" x="42.33" y="62.017" width="5.417" height="5.434"/><path d="M55.857 62.017h5.418V87.85c-.659.295-1.535.607-2.63.937-1.093.33-2.023.565-2.788.707V62.017z" fill="#FFF" fill-rule="nonzero"/><rect fill="#C0C5CA" fill-rule="nonzero" x="55.857" y="62.017" width="5.417" height="5.434"/><path d="M69.384 62.017h5.417v17.91c-.58.563-1.427 1.236-2.543 2.02a82.519 82.519 0 01-2.874 1.94v-21.87z" fill="#FFF" fill-rule="nonzero"/><rect fill="#C0C5CA" fill-rule="nonzero" x="69.384" y="62.017" width="5.417" height="5.434"/><rect fill="#FFF" fill-rule="nonzero" x="23.386" y="56.599" width="56.816" height="5.417"/><polygon fill="#FFF" fill-rule="nonzero" points="80.2189329 56.5993976 23.4027969 56.5993976 51.8024527 40.3638124"/><circle cx="45.493" cy="45.428" r="45.258"/></g></svg>