<svg width="470" height="241" viewBox="0 0 470 241" fill="none" xmlns="http://www.w3.org/2000/svg">
<path d="M345.966 71.1276L348.363 71.0437V70.7321L345.966 70.84V71.1276ZM345.786 68.503L348.184 68.2873C348.112 67.4724 348.016 66.6574 347.896 65.8904L345.498 66.226C345.618 66.8971 345.714 67.6761 345.786 68.4431V68.503ZM345.126 63.877L347.524 63.4336C347.368 62.6307 347.2 61.8397 347.009 61.0367L344.683 61.588C344.815 62.2951 344.982 63.0501 345.126 63.8171V63.877ZM344.047 59.3349L346.349 58.6758C346.133 57.8968 345.882 57.1178 345.63 56.3388L343.352 57.1058C343.604 57.777 343.831 58.532 344.047 59.275V59.3349ZM342.56 54.9007L344.803 54.0378C344.503 53.2708 344.191 52.5158 343.867 51.7608L341.673 52.7195C341.985 53.3787 342.273 54.1097 342.56 54.8408V54.9007ZM340.69 50.5863L342.848 49.5437C342.5 48.8126 342.129 48.0816 341.745 47.3625L339.623 48.489C339.995 49.1242 340.354 49.8193 340.69 50.5264V50.5863ZM338.484 46.4397L340.546 45.2412C340.138 44.5461 339.719 43.851 339.275 43.1559L337.261 44.4503C337.681 45.0375 338.088 45.7086 338.484 46.3798V46.4397ZM335.954 42.4728L337.932 41.1186C337.477 40.4475 337.009 39.7883 336.518 39.1292L334.587 40.5553C335.055 41.1665 335.51 41.7658 335.954 42.365V42.4728ZM333.16 38.6858L335.043 37.1997C334.539 36.5645 334.024 35.9293 333.496 35.3061L331.662 36.8641C332.153 37.4034 332.669 38.0146 333.16 38.6258V38.6858ZM330.115 35.0904L331.89 33.4725C331.35 32.8733 330.798 32.2741 330.235 31.6988L328.496 33.3527C329.048 33.868 329.587 34.4433 330.115 35.0305V35.0904ZM326.842 31.6749L328.556 29.9012C327.981 29.3379 327.357 28.7866 326.794 28.2233L325.163 29.9851C325.715 30.5244 326.278 31.0637 326.842 31.579V31.6749ZM323.377 28.463L324.959 26.6654C324.348 26.1261 323.76 25.5988 323.113 25.0834L321.578 26.929C322.19 27.3724 322.789 27.8878 323.377 28.4031V28.463ZM319.78 25.431L321.267 23.5494C320.643 23.0581 319.996 22.5547 319.348 22.0753L317.909 23.9928L319.78 25.431ZM315.991 22.6026L317.382 20.6492C316.722 20.1818 316.063 19.7144 315.38 19.271L314.049 21.2484C314.66 21.6319 315.308 22.0873 315.943 22.5427L315.991 22.6026ZM194.007 21.572C194.618 21.0806 195.206 20.5893 195.877 20.1099L194.415 18.2044C193.779 18.6957 193.132 19.1991 192.508 19.7024L194.007 21.572ZM312.07 19.9541L313.353 17.9287L311.303 16.6464L310.104 18.6957L312.07 19.9541ZM197.772 18.7556L199.726 17.4134L198.383 15.424C197.712 15.8674 197.04 16.3348 196.381 16.8142L197.772 18.7556ZM308.078 17.5572L309.277 15.4719L307.155 14.2735L305.956 16.3827C306.591 16.6464 307.286 17.0419 307.97 17.4374L308.078 17.5572ZM201.656 15.9992L203.671 14.8008L202.472 12.7395C201.764 13.1469 201.081 13.5784 200.385 14.0098L201.656 15.9992ZM303.809 15.1483L304.912 13.0151L302.742 11.9245L301.687 14.0697C302.395 14.4412 303.102 14.8008 303.809 15.1603V15.1483ZM205.733 13.5903C206.412 13.2068 207.108 12.8353 207.819 12.4758L206.716 10.3426C205.985 10.7141 205.277 11.0976 204.57 11.541L205.733 13.5903ZM299.553 13.0511L300.56 10.8819C299.829 10.5343 299.097 10.1988 298.354 9.87517L297.383 12.0683L299.553 13.0511ZM209.929 11.4092C210.637 11.0616 211.356 10.7381 212.076 10.4145L211.092 8.22132L208.886 9.25198L209.929 11.4092ZM295.201 11.2054L296.124 8.98833L293.882 8.07751L293.007 10.3186C293.786 10.5583 294.469 10.8459 295.201 11.2054ZM214.246 9.52763C214.977 9.22801 215.708 8.9284 216.44 8.65276L215.577 6.41167C214.821 6.6993 214.066 6.99891 213.322 7.31051L214.246 9.52763ZM290.789 9.52763L291.616 7.28654C290.848 6.99891 290.093 6.73525 289.326 6.4716L288.546 8.73665C289.302 8.88047 290.045 9.15611 290.789 9.41977V9.52763ZM286.292 7.98163L287.024 5.70459C286.256 5.45292 285.489 5.21323 284.71 4.98552L284.014 7.27455L286.292 7.98163ZM218.658 7.88576L220.9 7.11875L220.157 4.84171L217.855 5.6207L218.658 7.88576ZM281.724 6.61541L282.372 4.3144C281.592 4.09868 280.813 3.88296 279.974 3.69121L279.374 6.0042L281.724 6.61541ZM223.154 6.42366L225.432 5.7765L224.809 3.4635C224.029 3.66724 223.25 3.89494 222.411 4.12265L223.154 6.42366ZM277.108 5.44093L277.648 3.10397L275.25 2.57665L274.758 4.97354L277.108 5.44093ZM227.722 5.18926C228.49 4.99751 229.257 4.82973 230.024 4.66195L229.521 2.26506C228.729 2.43284 227.938 2.62459 227.123 2.80436L227.722 5.18926ZM272.444 4.45821L272.9 2.06132L270.502 1.62988L270.094 4.02677C270.909 4.01479 271.689 4.19455 272.456 4.35035L272.444 4.45821ZM232.35 4.19455C233.13 4.03875 233.897 3.90693 234.676 3.7751L234.293 1.37821L231.895 1.79767L232.35 4.19455ZM267.768 3.65525L268.116 1.25837C267.312 1.13852 266.509 1.01868 265.718 0.922801L265.418 3.31969L267.768 3.65525ZM237.026 3.41556L239.424 3.11595L239.148 0.719066C238.345 0.802957 237.542 0.910817 236.75 1.01868L237.026 3.41556ZM263.044 3.05603L263.308 0.659144L260.91 0.43144L260.706 2.82833L263.044 3.05603ZM241.738 2.81634C242.53 2.74444 243.321 2.67253 244.136 2.62459L243.98 0.227704C243.165 0.227704 242.362 0.347549 241.582 0.43144L241.738 2.81634ZM258.332 2.60062L258.476 0.203735L256.078 0.0719066L255.982 2.46879C256.749 2.45681 257.541 2.49276 258.332 2.55268V2.60062ZM246.474 2.48078L248.872 2.40887V0.0119844C248.057 0.0119844 247.254 0.0119844 246.474 0.0958755V2.48078ZM253.584 2.39689V0H251.33H251.162V2.39689H251.33H253.584Z" fill="#ED0677"/>
<path d="M356.097 62.2951L354.215 60.821L346.913 70.121L338.16 62.1633L336.554 63.937L347.2 73.6204L356.097 62.2951Z" fill="#ED0677"/>
<path d="M443.705 240.887H25.096C22.4563 240.761 20.3827 238.652 20.3827 236.093C20.3827 233.534 22.4563 231.425 25.096 231.3H443.705C446.345 231.425 448.418 233.534 448.418 236.093C448.418 238.652 446.345 240.761 443.705 240.887Z" fill="#EDEDED"/>
<path d="M238.261 200.811L238.153 215.636C238.081 221.541 233.271 226.291 227.363 226.29H223.574C217.666 226.218 212.914 221.41 212.915 215.504L213.023 200.679L238.261 200.811Z" fill="#E0E2E5"/>
<path d="M227.422 227.704H227.339H223.562C216.864 227.619 211.495 222.139 211.548 215.444L211.668 199.205L239.748 199.397L239.64 215.636C239.574 222.306 234.156 227.685 227.482 227.704H227.422ZM214.414 202.058L214.317 215.456C214.291 220.598 218.429 224.794 223.574 224.84H227.351C229.827 224.874 232.212 223.9 233.957 222.144C235.723 220.418 236.725 218.057 236.739 215.588L236.834 202.177L214.414 202.058Z" fill="#E0E2E5"/>
<path d="M238.201 219.854H238.129V217.026C242.102 216.866 245.241 213.6 245.241 209.626C245.241 205.651 242.102 202.385 238.129 202.225V199.385C243.784 199.405 248.353 204.003 248.333 209.656C248.313 215.308 243.712 219.874 238.057 219.854H238.201Z" fill="#E0E2E5"/>
<path d="M211.404 163.911C215.589 163.911 218.982 160.52 218.982 156.337C218.982 152.154 215.589 148.763 211.404 148.763C207.219 148.763 203.827 152.154 203.827 156.337C203.827 160.52 207.219 163.911 211.404 163.911Z" fill="#F0F1F3"/>
<path d="M229.341 144.556C232.857 144.556 235.707 141.707 235.707 138.193C235.707 134.678 232.857 131.829 229.341 131.829C225.825 131.829 222.974 134.678 222.974 138.193C222.974 141.707 225.825 144.556 229.341 144.556Z" fill="#F0F1F3"/>
<path d="M225.912 191.823C230.514 191.823 234.245 188.094 234.245 183.494C234.245 178.894 230.514 175.165 225.912 175.165C221.31 175.165 217.579 178.894 217.579 183.494C217.579 188.094 221.31 191.823 225.912 191.823Z" fill="#F0F1F3"/>
<path d="M273.638 86.2878C269.112 86.2878 264.771 88.0886 261.572 91.2936C258.373 94.4986 256.578 98.8449 256.582 103.376V185.183C256.582 194.612 264.218 202.256 273.638 202.256H323.986V218.362H304.546V227.704H386.066V218.362H366.626V202.256H416.872C426.312 202.264 433.982 194.632 434.031 185.183V86.2878H273.638Z" fill="#8241AA"/>
<path d="M272.997 197.743C266.6 197.695 261.425 192.499 261.378 186.074V103.964C261.417 97.5334 266.594 92.3281 272.997 92.28H428.036V186.074C427.987 192.533 422.76 197.743 416.328 197.743H272.997Z" fill="#F0F1F3"/>
<path d="M286.818 106.661H407.406C410.842 106.661 413.632 109.43 413.648 112.856V185.759H286.76C283.336 185.759 280.561 182.992 280.561 179.579V112.856C280.557 111.204 281.217 109.62 282.392 108.456C283.568 107.292 285.162 106.646 286.818 106.661Z" fill="white"/>
<path d="M281.76 111.455C281.756 109.867 282.408 108.343 283.571 107.219C284.735 106.095 286.314 105.463 287.962 105.463H408.602C412.04 105.463 414.831 108.141 414.847 111.455H281.76Z" fill="#C0C5CA"/>
<path d="M291.352 109.058C292.014 109.058 292.551 108.522 292.551 107.86C292.551 107.198 292.014 106.661 291.352 106.661C290.69 106.661 290.153 107.198 290.153 107.86C290.153 108.522 290.69 109.058 291.352 109.058Z" fill="white"/>
<path d="M296.148 109.058C296.81 109.058 297.347 108.522 297.347 107.86C297.347 107.198 296.81 106.661 296.148 106.661C295.486 106.661 294.949 107.198 294.949 107.86C294.949 108.522 295.486 109.058 296.148 109.058Z" fill="white"/>
<path d="M300.944 109.058C301.606 109.058 302.143 108.522 302.143 107.86C302.143 107.198 301.606 106.661 300.944 106.661C300.282 106.661 299.745 107.198 299.745 107.86C299.745 108.522 300.282 109.058 300.944 109.058Z" fill="white"/>
<path d="M312.455 122.368L310.568 127.592L308.507 122.194C308.353 121.708 307.9 121.379 307.389 121.384H305.633L309.116 129.878C309.232 130.156 309.232 130.469 309.116 130.747L309.044 130.964C308.637 131.962 308.071 132.237 306.852 132.165L307.694 134.22C309.308 134.311 310.77 133.278 311.221 131.731L315.401 121.369H313.819C313.206 121.38 312.665 121.774 312.469 122.353L312.455 122.368ZM317.041 125.783C316.945 124.948 317.337 124.131 318.051 123.683C318.765 123.235 319.673 123.235 320.387 123.683C321.1 124.131 321.493 124.948 321.396 125.783C321.493 126.618 321.1 127.435 320.387 127.883C319.673 128.331 318.765 128.331 318.051 127.883C317.337 127.435 316.945 126.618 317.041 125.783ZM314.792 125.783C314.792 128.217 316.77 130.19 319.211 130.19C321.652 130.19 323.631 128.217 323.631 125.783C323.631 123.349 321.652 121.376 319.211 121.376C316.77 121.376 314.792 123.349 314.792 125.783ZM299.304 122.426C298.608 121.608 297.578 121.15 296.503 121.181C295.445 121.127 294.414 121.52 293.662 122.264C292.91 123.008 292.508 124.033 292.555 125.088V130.153H293.28C293.708 130.125 294.104 129.923 294.379 129.595C294.653 129.267 294.78 128.841 294.732 128.417V125.045C294.71 124.592 294.883 124.152 295.208 123.834C295.532 123.516 295.976 123.351 296.43 123.381C296.888 123.315 297.349 123.47 297.673 123.799C297.997 124.127 298.144 124.59 298.07 125.045V130.153H298.796C299.233 130.144 299.647 129.952 299.936 129.625C300.226 129.298 300.365 128.865 300.32 128.431V125.045C300.303 124.593 300.478 124.156 300.801 123.839C301.124 123.522 301.566 123.356 302.018 123.381C302.47 123.345 302.914 123.509 303.233 123.83C303.552 124.151 303.713 124.595 303.673 125.045V130.153H304.399C304.829 130.125 305.228 129.921 305.503 129.59C305.778 129.258 305.903 128.829 305.85 128.402V125.088C305.928 124.035 305.545 123 304.799 122.251C304.052 121.501 303.017 121.111 301.96 121.181C300.892 121.163 299.871 121.619 299.173 122.426H299.304ZM326.491 125.797C326.392 124.935 326.798 124.093 327.535 123.631C328.272 123.169 329.209 123.169 329.946 123.631C330.683 124.093 331.089 124.935 330.99 125.797C331.089 126.66 330.683 127.502 329.946 127.964C329.209 128.426 328.272 128.426 327.535 127.964C326.798 127.502 326.392 126.66 326.491 125.797ZM326.026 117.52C325.592 117.454 325.149 117.573 324.807 117.848C324.465 118.123 324.254 118.529 324.226 118.967V130.081H325.431C326.302 130.081 326.491 129.546 326.505 129.227V129.14C327.202 129.865 328.169 130.269 329.176 130.255C331.525 130.026 333.316 128.057 333.316 125.703C333.316 123.35 331.525 121.381 329.176 121.152C328.219 121.137 327.295 121.501 326.607 122.165V117.447L326.026 117.52Z" fill="url(#paint0_linear)"/>
<path d="M413.648 141.343H280.561V142.541H413.648V141.343Z" fill="#C0C5CA"/>
<path d="M404.056 149.805H292.551V153.401H404.056V149.805Z" fill="#ABB2B9"/>
<path d="M404.056 164.187H292.551V167.782H404.056V164.187Z" fill="#E0E2E5"/>
<path d="M404.056 156.996H292.551V160.591H404.056V156.996Z" fill="#E0E2E5"/>
<path d="M404.056 171.377H292.551V174.973H404.056V171.377Z" fill="#E0E2E5"/>
<path d="M311.135 180.965C311.058 180.969 310.983 180.933 310.928 180.867C310.873 180.8 310.844 180.709 310.848 180.615V148.942C310.848 148.851 310.878 148.763 310.933 148.7C310.987 148.637 311.06 148.603 311.135 148.607C311.211 148.603 311.284 148.637 311.338 148.7C311.392 148.763 311.423 148.851 311.423 148.942V180.615C311.423 180.808 311.294 180.965 311.135 180.965Z" fill="white"/>
<path d="M355.491 180.965C355.416 180.965 355.344 180.927 355.292 180.861C355.24 180.796 355.212 180.707 355.216 180.615V148.942C355.216 148.757 355.339 148.607 355.491 148.607C355.567 148.603 355.64 148.637 355.694 148.7C355.749 148.763 355.779 148.851 355.779 148.942V180.615C355.783 180.709 355.753 180.8 355.699 180.867C355.644 180.933 355.569 180.969 355.491 180.965Z" fill="white"/>
<g style="mix-blend-mode:multiply">
<path d="M257.781 189.839C259.854 197.181 266.528 202.25 274.128 202.256H324.323V218.362H304.942V227.704H386.213V218.362H366.832V202.256H416.925C426.336 202.264 433.982 194.632 434.031 185.183V86.2878H360.897L257.781 189.839Z" fill="#F0F1F3"/>
</g>
<mask id="mask0" mask-type="alpha" maskUnits="userSpaceOnUse" x="56" y="50" width="115" height="111">
<path d="M56.5732 54.407V156.637C56.5732 158.821 58.3446 160.591 60.5298 160.591H166.752C168.938 160.591 170.709 158.821 170.709 156.637V64.9999C170.709 62.8157 168.938 61.0451 166.752 61.0451H104.413C102.919 61.0451 101.552 60.2035 100.88 58.8696L97.7335 52.6276C97.0612 51.2937 95.6944 50.4521 94.2 50.4521H60.5298C58.3446 50.4521 56.5732 52.2228 56.5732 54.407Z" fill="white"/>
</mask>
<g mask="url(#mask0)">
<path d="M56.5732 54.407V156.637C56.5732 158.821 58.3446 160.591 60.5298 160.591H166.752C168.938 160.591 170.709 158.821 170.709 156.637V64.9999C170.709 62.8157 168.938 61.0451 166.752 61.0451H104.413C102.919 61.0451 101.552 60.2035 100.88 58.8696L97.7335 52.6276C97.0612 51.2937 95.6944 50.4521 94.2 50.4521H60.5298C58.3446 50.4521 56.5732 52.2228 56.5732 54.407Z" fill="#6F3891"/>
<path fill-rule="evenodd" clip-rule="evenodd" d="M47.9592 50.4521H177.17V178.521H47.9592V50.4521Z" fill="#C5C9CE"/>
</g>
<path d="M115.149 29.9612H166.893L181.046 44.0678V119.609H115.149V29.9612Z" fill="#B93499"/>
<path d="M166.9 29.9612V44.0488H181.046L166.9 29.9612Z" fill="#872670"/>
<mask id="mask1" mask-type="alpha" maskUnits="userSpaceOnUse" x="47" y="61" width="120" height="100">
<path d="M162.095 75.5902V156.355C162.095 158.695 164.023 160.591 166.402 160.591H52.2662C49.8875 160.591 47.9592 158.695 47.9592 156.355V65.2786C47.9592 62.9391 49.8875 61.0425 52.2662 61.0425H85.351C86.9876 61.0425 88.4829 61.9549 89.2098 63.3971L92.1753 69.2807C92.9022 70.723 94.3975 71.6354 96.0342 71.6354H158.138C160.324 71.6354 162.095 73.406 162.095 75.5902Z" fill="white"/>
</mask>
<g mask="url(#mask1)">
<path d="M162.095 75.5902V156.355C162.095 158.695 164.023 160.591 166.402 160.591H52.2662C49.8875 160.591 47.9592 158.695 47.9592 156.355V65.2786C47.9592 62.9391 49.8875 61.0425 52.2662 61.0425H85.351C86.9876 61.0425 88.4829 61.9549 89.2098 63.3971L92.1753 69.2807C92.9022 70.723 94.3975 71.6354 96.0342 71.6354H158.138C160.324 71.6354 162.095 73.406 162.095 75.5902Z" fill="#EC0677"/>
<path fill-rule="evenodd" clip-rule="evenodd" d="M42.7908 42.7681H172.001V170.837H42.7908V42.7681Z" fill="#DCDFE1"/>
</g>
<defs>
<linearGradient id="paint0_linear" x1="292.54" y1="125.87" x2="333.342" y2="125.87" gradientUnits="userSpaceOnUse">
<stop offset="0.36" stop-color="#622E91"/>
<stop offset="0.46" stop-color="#712A8E"/>
<stop offset="0.64" stop-color="#992087"/>
<stop offset="0.9" stop-color="#DA117B"/>
<stop offset="0.97" stop-color="#ED0C77"/>
</linearGradient>
</defs>
</svg>
