<svg xmlns="http://www.w3.org/2000/svg" width="24" height="24" viewBox="0 0 24 24">
  <path fill="#969EA7" d="M12 1c6.0751322 0 11 4.9248677 11 11 0 6.0751322-4.9248678 11-11 11-6.0751323 0-11-4.9248678-11-11C1 5.9248677 5.9248677 1 12 1zm0 2c-4.9705628 0-9 4.0294372-9 9 0 4.9705627 4.0294372 9 9 9 4.9705627 0 9-4.0294373 9-9 0-4.9705628-4.0294373-9-9-9zm0 4c.5522847 0 1 .4477152 1 1v3h3c.5128358 0 .9355072.3860402.9932723.8833789L17 12c0 .5522847-.4477153 1-1 1h-3v3c0 .5128358-.3860402.9355072-.8833789.9932723L12 17c-.5522847 0-1-.4477153-1-1v-3H8c-.5128358 0-.9355072-.3860402-.9932723-.8833789L7 12c0-.5522847.4477152-1 1-1h3V8c0-.5128358.3860402-.9355072.8833789-.9932723z"/>
</svg>
