<svg xmlns="http://www.w3.org/2000/svg" width="24" height="24" viewBox="0 0 24 24">
  <path fill="#969EA7" d="M12 1c6.0751322 0 11 4.9248677 11 11 0 6.0751322-4.9248678 11-11 11-6.0751323 0-11-4.9248678-11-11C1 5.9248677 5.9248677 1 12 1zm0 2c-4.9705628 0-9 4.0294372-9 9 0 4.9705627 4.0294372 9 9 9 4.9705627 0 9-4.0294373 9-9 0-4.9705628-4.0294373-9-9-9zm.01 13c.5522847 0 1 .4477153 1 1 0 .5128358-.3860402.9355072-.8833789.9932723L12 18c-.5522847 0-1-.4477153-1-1 0-.5128358.3860402-.9355072.8833789-.9932723L12.01 16zm.586234-9.946894C14.5186231 6.3828467 15.9229036 8.0510252 15.9200079 10c0 1.2797252-.7581936 2.2906429-1.9453064 3.0820506-.6489196.4326125-1.2864431.715956-1.7384741.8666328-.5239433.1746476-1.0902632-.1085126-1.2649108-.632456-.1621728-.4865188.0703969-1.0095766.5239469-1.2216495l.2951308-.1139258c.0558176-.0227074.1204139-.0500509.1922181-.0819638.3031033-.1347124.6058331-.2961681.8826895-.4807389.6878893-.4585923 1.0547015-.9476746 1.0547026-1.4194369.0014506-.9752331-.7006907-1.8093237-1.6618858-1.9741942-.9077954-.155711-1.7966536.3283881-2.165242 1.15766l-.0595423.1498652c-.183272.5209893-.7541887.7947631-1.275178.611491-.5209892-.1832722-.794763-.7541888-.6114908-1.275178.6472491-1.8399408 2.5271781-2.9447916 4.4495684-2.6150506z"/>
</svg>
