<?xml version="1.0" encoding="UTF-8"?>
<svg width="18px" height="18px" viewBox="0 0 18 18" version="1.1" xmlns="http://www.w3.org/2000/svg" xmlns:xlink="http://www.w3.org/1999/xlink">
    <!-- Generator: Sketch 60.1 (88133) - https://sketch.com -->
    <title>icon/small/switch</title>
    <desc>Created with Sketch.</desc>
    <defs>
        <path d="M15.1128994,7.70837128 L15.2071068,7.79155989 L17.2071068,9.79155989 C17.2355731,9.8200262 17.2623312,9.85020075 17.287214,9.88191659 L17.2071068,9.79155989 C17.2386343,9.82308736 17.2676165,9.85619625 17.2940535,9.89063122 C17.3154744,9.9186686 17.3354818,9.94781012 17.3539326,9.97800648 C17.3613931,9.99005356 17.3685012,10.0022722 17.3753288,10.0146046 C17.3862061,10.0343727 17.3966234,10.0547753 17.4063462,10.0755675 C17.414321,10.0925682 17.4218036,10.109871 17.4287745,10.1273306 C17.4366843,10.1470875 17.4438775,10.166869 17.4504533,10.1869303 C17.4539795,10.1978722 17.4574888,10.2092737 17.4607896,10.2207225 C17.4681845,10.2460694 17.4745175,10.2717863 17.4798348,10.2978726 C17.4832978,10.3152914 17.4863719,10.3327177 17.4889822,10.3501998 C17.4920941,10.3705522 17.494564,10.3916092 17.4963697,10.4128557 C17.497855,10.4307436 17.4988772,10.4480757 17.4994506,10.4654199 C17.4998151,10.4762648 17.5,10.4874441 17.5,10.4986667 L17.4996817,10.5239755 C17.4991702,10.5443056 17.4980423,10.5646231 17.4962979,10.5848975 L17.5,10.4986667 C17.5,10.549287 17.4962388,10.5990288 17.4889807,10.6476279 C17.4863719,10.6646157 17.4832978,10.6820419 17.4797599,10.6993924 C17.4753602,10.7214127 17.4701664,10.7431031 17.464279,10.7645063 C17.4599023,10.7801299 17.4552713,10.795518 17.4502619,10.8108092 C17.4438775,10.8304643 17.4366843,10.8502459 17.428896,10.8697252 C17.4218036,10.8874623 17.414321,10.9047652 17.4063266,10.9218882 C17.3966234,10.9425581 17.3862061,10.9629606 17.3751242,10.9829436 C17.3685012,10.9950611 17.3613931,11.0072798 17.3540045,11.0193754 C17.3382813,11.0449416 17.3215099,11.0697974 17.3036865,11.093826 C17.2992821,11.0998753 17.2948255,11.10574 17.2902954,11.1115661 C17.2849289,11.1183294 17.2826279,11.1212291 17.2803112,11.1241157 L17.2071068,11.2057734 L15.2071068,13.2057734 C14.8165825,13.5962977 14.1834175,13.5962977 13.7928932,13.2057734 C13.4324093,12.8452895 13.4046797,12.2780584 13.7097046,11.8857672 L13.7928932,11.7915599 L14.086,11.4966667 L12.9283879,11.4960992 L12.5110854,11.4702345 C11.321991,11.4007324 10.761014,11.2317418 10.1121488,10.5237831 C10.027044,10.4309277 9.94441628,10.3303839 9.86347276,10.2215335 C9.53391365,9.77835271 9.62602225,9.15192323 10.0692031,8.82236413 C10.5123839,8.49280502 11.1388134,8.58491362 11.4683725,9.02809444 C11.5095753,9.0835027 11.548918,9.131376 11.5865575,9.1724434 C11.7745151,9.37751865 11.8945235,9.42508999 12.473244,9.46400701 L13,9.49866667 L14.084,9.49766667 L13.7928932,9.20577345 C13.4324093,8.84528949 13.4046797,8.27805843 13.7097046,7.88576722 L13.7928932,7.79155989 C14.1533772,7.43107592 14.7206082,7.40334639 15.1128994,7.70837128 Z M15.1128994,0.708371279 L15.2071068,0.791559885 L17.2071068,2.79155989 C17.2355731,2.8200262 17.2623312,2.85020075 17.287214,2.88191659 L17.2071068,2.79155989 C17.2425008,2.82695394 17.274687,2.86434109 17.3036654,2.90336005 C17.3215099,2.92753597 17.3382813,2.95239171 17.3539326,2.97800648 C17.3613931,2.99005356 17.3685012,3.00227223 17.3753288,3.01460457 C17.3856806,3.03342518 17.3956339,3.05284135 17.4049584,3.07261241 C17.411449,3.08630759 17.4176547,3.10032005 17.4235227,3.11443973 C17.4334033,3.13816568 17.4423922,3.16233778 17.4504533,3.18693026 C17.4552713,3.20181533 17.4599023,3.21720339 17.4641549,3.2326737 C17.4701664,3.25423019 17.4753602,3.27592059 17.4798348,3.29787257 C17.4832978,3.3152914 17.4863719,3.33271766 17.4889822,3.3501998 C17.4920328,3.370142 17.4944666,3.39078062 17.4962623,3.41160165 C17.4977017,3.42875182 17.4987062,3.44509566 17.4993116,3.46145152 C17.499759,3.47309801 17.5,3.4858542 17.5,3.49866667 L17.4994506,3.53191344 C17.4988772,3.54925764 17.497855,3.56658976 17.496384,3.5838909 L17.5,3.49866667 C17.5,3.54928695 17.4962388,3.59902876 17.4889807,3.64762788 C17.4863719,3.66461568 17.4832978,3.68204193 17.4797599,3.69939243 C17.4763434,3.71658941 17.4724141,3.73355879 17.4680591,3.75035671 C17.4626544,3.77086235 17.4567783,3.79091774 17.4502619,3.81080919 C17.4438775,3.83046434 17.4366843,3.85024587 17.428896,3.86972519 C17.4218036,3.88746232 17.414321,3.90476516 17.4063266,3.92188821 C17.3992089,3.93702882 17.3916975,3.95208184 17.3838236,3.96691305 C17.3744961,3.98464656 17.3645351,4.00213594 17.3540045,4.01937542 C17.3382813,4.04494162 17.3215099,4.06979736 17.3036865,4.09382597 C17.2992821,4.09987531 17.2948255,4.10574 17.2902954,4.11156611 C17.2648114,4.14397126 17.2408888,4.17127644 17.215568,4.19721043 L17.2071068,4.20577345 L15.2071068,6.20577345 C14.8165825,6.59629774 14.1834175,6.59629774 13.7928932,6.20577345 C13.4324093,5.84528949 13.4046797,5.27805843 13.7097046,4.88576722 L13.7928932,4.79155989 L14.084,4.49866667 L13,4.49866667 C12.2744424,4.49866667 11.5375374,4.98993665 10.8488183,5.86648822 C10.584861,6.20243393 10.350334,6.56725374 10.1505338,6.93210629 L9.98158829,7.25755403 L9.91914503,7.39258597 C9.70025468,7.90333012 9.30192255,8.63071922 8.72381834,9.36648822 C7.75101137,10.6046062 6.59819119,11.4059074 5.24153139,11.4911195 L5,11.4986667 L1.5,11.4986667 C0.94771525,11.4986667 0.5,11.0509514 0.5,10.4986667 C0.5,9.98583083 0.88604019,9.56315951 1.38337887,9.5053944 L1.5,9.49866667 L5,9.49866667 C5.72555759,9.49866667 6.46246257,9.00739668 7.15118166,8.13084511 C7.415139,7.79489941 7.64966603,7.43007959 7.84946623,7.06522704 L7.97198951,6.83323197 C8.0062674,6.76561873 8.03391787,6.70832692 8.05474834,6.66316552 L8.08085497,6.60474737 C8.29974532,6.09400321 8.69807745,5.36661411 9.27618166,4.63084511 C10.2489886,3.39272715 11.4018088,2.59142592 12.7584686,2.5062138 L13,2.49866667 L14.085,2.49866667 L13.7928932,2.20577345 C13.4324093,1.84528949 13.4046797,1.27805843 13.7097046,0.885767223 L13.7928932,0.791559885 C14.1533772,0.431075924 14.7206082,0.403346388 15.1128994,0.708371279 Z M1.5,2.49866667 L5.07274177,2.50131586 L5.53287982,2.52848179 C6.62157266,2.58657824 7.13587644,2.72747009 7.74847828,3.33329062 C7.87276677,3.45620327 7.99153918,3.59464196 8.10729427,3.75042515 C8.43669073,4.19372687 8.34435227,4.82012252 7.90105054,5.14951897 C7.45774882,5.47891543 6.83135318,5.38657697 6.50195672,4.94327525 C6.44447826,4.86592074 6.3913816,4.80403236 6.34215752,4.75535317 C6.20305595,4.61779142 6.10219543,4.57358512 5.70376072,4.54299687 L5,4.49866667 L1.5,4.49866667 C0.94771525,4.49866667 0.5,4.05095142 0.5,3.49866667 C0.5,2.98583083 0.88604019,2.56315951 1.38337887,2.5053944 L1.5,2.49866667 Z" id="path-1"></path>
    </defs>
    <g id="icon/small/switch" stroke="none" stroke-width="1" fill="none" fill-rule="evenodd">
        <g id="Switch" transform="translate(0.000000, 2.000000)">
            <g id="-↳🎨swatch">
                <mask id="mask-2" fill="white">
                    <use xlink:href="#path-1"></use>
                </mask>
                <use id="Mask" fill="#000000" fill-rule="nonzero" xlink:href="#path-1"></use>
                <g id="swatch/icons/default" mask="url(#mask-2)" fill="#969EA7">
                    <g transform="translate(0.000000, -2.000000)" id="Rectangle-2">
                        <rect x="0" y="0" width="18" height="18"></rect>
                    </g>
                </g>
            </g>
        </g>
    </g>
</svg>