<svg width="94" height="110" viewBox="0 0 94 110" fill="none" xmlns="http://www.w3.org/2000/svg">
<path fill-rule="evenodd" clip-rule="evenodd" d="M2.23804 107.755H91.7618V44.8979H2.23804V107.755Z" stroke="white" stroke-width="3" stroke-linecap="round" stroke-linejoin="round"/>
<path fill-rule="evenodd" clip-rule="evenodd" d="M2.23804 107.755H91.7618V44.8979H2.23804V107.755Z" fill="#AE0D5C"/>
<path fill-rule="evenodd" clip-rule="evenodd" d="M13.4285 97.4197H83.706V15.2793L68.47 0H13.4285V97.4197Z" fill="#F3F4F5"/>
<path d="M37.6643 17.8036H49.4373" stroke="#8241AA" stroke-width="2.35294" stroke-linecap="round" stroke-linejoin="round"/>
<path fill-rule="evenodd" clip-rule="evenodd" d="M33.7399 17.8042C33.7399 20.2348 31.7628 22.2045 29.3244 22.2045C26.8861 22.2045 24.9102 20.2348 24.9102 17.8042C24.9102 15.3736 26.8861 13.4027 29.3244 13.4027C31.7628 13.4027 33.7399 15.3736 33.7399 17.8042Z" fill="#8241AA"/>
<path fill-rule="evenodd" clip-rule="evenodd" d="M77.8887 71.1032V77.9491H58.267V71.1032H77.8887ZM56.3048 71.1032V77.9491H19.0237V71.1032H56.3048ZM77.8887 57.4116V64.2574H58.267V57.4116H77.8887ZM56.3048 57.4116V64.2574H19.0237V57.4116H56.3048ZM56.3048 42.7419V49.5878H19.0237V42.7419H56.3048ZM77.8887 42.7419V49.5878H58.267V42.7419H77.8887Z" fill="#DCDFE1"/>
<path fill-rule="evenodd" clip-rule="evenodd" d="M68.2617 0V15.2811H83.4977L68.2617 0Z" fill="#C5C9CE"/>
<path fill-rule="evenodd" clip-rule="evenodd" d="M91.7619 44.8979L50.3572 84.2244L91.7619 107.755V44.8979Z" fill="#EC0677"/>
<path fill-rule="evenodd" clip-rule="evenodd" d="M91.7619 44.8979L50.3572 84.2244L91.7619 107.755V44.8979Z" stroke="white" stroke-width="3" stroke-linecap="round" stroke-linejoin="round"/>
<path fill-rule="evenodd" clip-rule="evenodd" d="M2.23804 107.755L43.6428 84.2261L2.23804 44.8979V107.755Z" fill="#EC0677"/>
<path fill-rule="evenodd" clip-rule="evenodd" d="M2.23804 44.8979L43.6428 84.2244L2.23804 107.755V44.8979Z" stroke="white" stroke-width="3" stroke-linecap="round" stroke-linejoin="round"/>
<path fill-rule="evenodd" clip-rule="evenodd" d="M91.7618 107.755L56.0201 78.4384C50.7623 74.126 43.2376 74.126 37.978 78.4384L2.23804 107.755H91.7618Z" fill="#EC0677"/>
<path fill-rule="evenodd" clip-rule="evenodd" d="M91.7618 107.755L56.0201 78.4384C50.7623 74.126 43.2376 74.126 37.978 78.4384L2.23804 107.755H91.7618Z" stroke="white" stroke-width="3" stroke-linecap="round" stroke-linejoin="round"/>
</svg>
