<svg width="113" height="105" viewBox="0 0 113 105" fill="none" xmlns="http://www.w3.org/2000/svg">
<g clip-path="url(#clip0)">
<path fill-rule="evenodd" clip-rule="evenodd" d="M6.5 103.994H86.5078V47.6523H6.5V103.994Z" fill="#B93499"/>
<path fill-rule="evenodd" clip-rule="evenodd" d="M0 47.7032H92.6067V32.0736H0V47.7032Z" fill="#B93499"/>
<path fill-rule="evenodd" clip-rule="evenodd" d="M6.5 55.4671H86.5078V47.6523H6.5V55.4671Z" fill="#872670"/>
<path fill-rule="evenodd" clip-rule="evenodd" d="M17 39.4528H25.8889V17.5H17V39.4528Z" fill="#B93499"/>
<path fill-rule="evenodd" clip-rule="evenodd" d="M55 104.007H75.2822V69.8248H55V104.007Z" fill="#872670"/>
<path fill-rule="evenodd" clip-rule="evenodd" d="M21.5 92.5245H51.5V69.8248H21.5V92.5245Z" fill="#872670"/>
<path fill-rule="evenodd" clip-rule="evenodd" d="M62.9707 6.29226C62.9707 2.98509 60.4432 0.10285 57.1657 0.00304523C53.7727 -0.099784 50.9902 2.64183 50.9902 6.03973V26.0778C50.9902 29.4137 48.3082 32.1175 45.0007 32.1175H62.9707V6.29226Z" fill="#EAECED"/>
<path fill-rule="evenodd" clip-rule="evenodd" d="M68.9619 61.5553C72.2694 61.5553 74.9514 58.8515 74.9514 55.5156H100.411V6.03959C100.411 2.70368 97.7304 -0.00012207 94.4214 -0.00012207H56.9814C60.2889 -0.00012207 62.9709 2.70368 62.9709 6.03959V55.5156C62.9709 58.8515 65.6529 61.5553 68.9619 61.5553Z" fill="white"/>
<path fill-rule="evenodd" clip-rule="evenodd" d="M62.9707 6.29226C62.9707 2.98509 60.4432 0.10285 57.1657 0.00304523C53.7727 -0.099784 50.9902 2.64183 50.9902 6.03973V26.0778C50.9902 29.4137 48.3082 32.1175 45.0007 32.1175H62.9707V6.29226Z" fill="#EAECED"/>
<path fill-rule="evenodd" clip-rule="evenodd" d="M62.9707 6.29226C62.9707 2.98509 60.4432 0.10285 57.1657 0.00304523C53.7727 -0.099784 50.9902 2.64183 50.9902 6.03973V26.0778C50.9902 29.4137 48.3082 32.1175 45.0007 32.1175H62.9707V6.29226Z" fill="#C5C9CE"/>
<path fill-rule="evenodd" clip-rule="evenodd" d="M100.411 18.9598V6.03959C100.411 2.70368 97.7302 -0.00012207 94.4212 -0.00012207H56.9812C60.2887 -0.00012207 62.9707 2.70368 62.9707 6.03959V55.5156C62.9707 58.8515 65.6527 61.5553 68.9617 61.5553C72.2692 61.5553 74.9512 58.8515 74.9512 55.5156H100.411V6.71402" fill="#E8EAEC"/>
<path fill-rule="evenodd" clip-rule="evenodd" d="M74.9517 55.516V52.8092L78.6957 55.516L82.4397 52.8092L86.1837 55.516L89.9277 52.8092L93.6717 55.516L97.4172 52.8092L101.161 55.516L104.904 52.8092L108.648 55.516L112.392 52.8092V55.516C112.392 58.8519 109.71 61.5557 106.402 61.5557H68.9622C72.2697 61.5557 74.9517 58.8519 74.9517 55.516Z" fill="#EAECED"/>
<path fill-rule="evenodd" clip-rule="evenodd" d="M74.9517 55.516V52.8092L78.6957 55.516L82.4397 52.8092L86.1837 55.516L89.9277 52.8092L93.6717 55.516L97.4172 52.8092L101.161 55.516L104.904 52.8092L108.648 55.516L112.392 52.8092V55.516C112.392 58.8519 109.71 61.5557 106.402 61.5557H68.9622C72.2697 61.5557 74.9517 58.8519 74.9517 55.516Z" fill="#EAECED"/>
<path fill-rule="evenodd" clip-rule="evenodd" d="M74.9517 55.516V52.8092L78.6957 55.516L82.4397 52.8092L86.1837 55.516L89.9277 52.8092L93.6717 55.516L97.4172 52.8092L101.161 55.516L104.904 52.8092L108.648 55.516L112.392 52.8092V55.516C112.392 58.8519 109.71 61.5557 106.402 61.5557H68.9622C72.2697 61.5557 74.9517 58.8519 74.9517 55.516Z" fill="#C5C9CE"/>
<path d="M90.9536 18.4799H95.0486" stroke="#969EA7" stroke-width="3" stroke-linecap="round" stroke-linejoin="round"/>
<path d="M90.9536 26.9261H95.0486" stroke="#969EA7" stroke-width="3" stroke-linecap="round" stroke-linejoin="round"/>
<path d="M90.9536 35.3724H95.0486" stroke="#969EA7" stroke-width="3" stroke-linecap="round" stroke-linejoin="round"/>
<path d="M90.9536 43.8187H95.0486" stroke="#EC0677" stroke-width="3" stroke-linecap="round" stroke-linejoin="round"/>
<path d="M68.5151 18.4799H82.5401" stroke="#969EA7" stroke-width="3" stroke-linecap="round" stroke-linejoin="round"/>
<path d="M68.5151 26.9261H84.4091" stroke="#969EA7" stroke-width="3" stroke-linecap="round" stroke-linejoin="round"/>
<path d="M68.5151 35.3724H80.6696" stroke="#969EA7" stroke-width="3" stroke-linecap="round" stroke-linejoin="round"/>
<path d="M68.5151 43.8187H79.7336" stroke="#EC0677" stroke-width="3" stroke-linecap="round" stroke-linejoin="round"/>
</g>
<defs>
<clipPath id="clip0">
<rect width="113" height="105" fill="white"/>
</clipPath>
</defs>
</svg>
