<svg width="91" height="91" viewBox="0 0 91 91" xmlns="http://www.w3.org/2000/svg" xmlns:xlink="http://www.w3.org/1999/xlink"><defs><circle id="a" cx="45.272" cy="45.226" r="45.037"/></defs><g transform="translate(.5 .682)" fill="none" fill-rule="evenodd"><mask id="b" fill="#fff"><use xlink:href="#a"/></mask><use fill="#EAECED" fill-rule="nonzero" xlink:href="#a"/><g mask="url(#b)" fill-rule="nonzero"><circle fill="#EAECED" cx="45.272" cy="45.226" r="45.037"/><path d="M71.775 27.898H18.417c-1.85 0-3.349 1.499-3.349 3.348v5.023H75.09v-5.023a3.349 3.349 0 00-3.315-3.348z" fill="#C0C5CA"/><path d="M61.847 36.269H47.666l.703-3.867a.887.887 0 01.837-.62h11.067a.92.92 0 01.854.62l.72 3.867z" fill="#EAECED"/><path d="M69.414 31.48l1.306 1.122a.368.368 0 010 .553l-1.306 1.138a.368.368 0 01-.603-.217v-2.327a.368.368 0 01.603-.268zM66.3 31.48l-1.323 1.122a.368.368 0 000 .553l1.323 1.138a.352.352 0 00.67-.217v-2.327a.36.36 0 00-.67-.268z" fill="#FFF"/><circle fill="#FFF" cx="20.325" cy="32.602" r="1.205"/><circle fill="#FFF" cx="24.176" cy="32.602" r="1.205"/><circle fill="#FFF" cx="28.027" cy="32.602" r="1.205"/><path d="M46.21 36.219l-.67-3.817a.887.887 0 00-.838-.62h-11.1a.904.904 0 00-.854.62l-.67 3.9h-17.01v42.381c8.948 7.72 18.96 11.58 30.034 11.58 11.075 0 21.07-3.713 29.988-11.14V36.22H46.21z" fill="#FFF"/><rect fill="#8241AA" transform="rotate(-90 38.993 75.848)" x="6.597" y="72.332" width="64.793" height="7.032"/><rect fill="#8241AA" transform="rotate(-90 63.119 84.496)" x="39.37" y="80.98" width="47.498" height="7.032"/><rect fill="#C0C5CA" transform="rotate(-90 26.955 87.534)" x="6.245" y="84.018" width="41.421" height="7.032"/><rect fill="#C0C5CA" transform="rotate(-90 51.064 79.9)" x="22.719" y="76.384" width="56.69" height="7.032"/></g></g></svg>