<?xml version="1.0" encoding="UTF-8"?>
<svg width="53px" height="100px" viewBox="0 0 53 100" version="1.1" xmlns="http://www.w3.org/2000/svg" xmlns:xlink="http://www.w3.org/1999/xlink">
    <!-- Generator: Sketch 59.1 (86144) - https://sketch.com -->
    <title>illustration/product/device/43 receipt docket 2</title>
    <desc>Created with Sketch.</desc>
    <g id="Listing-pages---Eliza" stroke="none" stroke-width="1" fill="none" fill-rule="evenodd">
        <g id="Bills-list---Empty" transform="translate(-634.000000, -382.000000)">
            <g id="illustration/product/device/43-receipt-docket-2" transform="translate(634.000000, 382.000000)">
                <g id="Group">
                    <polygon id="Fill-1" fill="#E8EAEC" points="42.2239139 0 36.9438101 3.88575152 31.6679354 0 26.3899462 3.88575152 21.1098424 0 15.8339677 3.88575152 10.5559785 0 5.27587466 3.88575152 0 0 0 3.88575152 0 100 5.27798924 96.1120765 10.5559785 100 15.8339677 96.1120765 21.1098424 100 26.3899462 96.1120765 31.6679354 100 36.9459246 96.1120765 42.2239139 100 47.5019031 96.1120765 52.7777778 99.997828 52.7777778 0.00217202433 47.5019031 3.88575152"></polygon>
                    <text id="$" font-family="NeutroMYOB-Bold, Neutro MYOB" font-size="36.1111111" font-weight="bold" fill="#B93499">
                        <tspan x="16.6666667" y="76.6111111">$</tspan>
                    </text>
                    <line x1="8.33333333" y1="25.6944444" x2="25" y2="25.6944444" id="Path-3" stroke="#969EA7" stroke-width="4.16666667" stroke-linecap="round" stroke-linejoin="round" fill-rule="nonzero"></line>
                    <line x1="37.5" y1="25.6944444" x2="44.4444444" y2="25.6944444" id="Path-3" stroke="#969EA7" stroke-width="4.16666667" stroke-linecap="round" stroke-linejoin="round" fill-rule="nonzero"></line>
                    <line x1="8.33333333" y1="35.4166667" x2="29.1666667" y2="35.4166667" id="Path-3" stroke="#969EA7" stroke-width="4.16666667" stroke-linecap="round" stroke-linejoin="round" fill-rule="nonzero"></line>
                    <line x1="37.5" y1="35.4166667" x2="44.4444444" y2="35.4166667" id="Path-3" stroke="#969EA7" stroke-width="4.16666667" stroke-linecap="round" stroke-linejoin="round" fill-rule="nonzero"></line>
                </g>
            </g>
        </g>
    </g>
</svg>