<?xml version="1.0" encoding="UTF-8"?>
<svg width="225px" height="83px" viewBox="0 0 225 83" version="1.1" xmlns="http://www.w3.org/2000/svg" xmlns:xlink="http://www.w3.org/1999/xlink">
    <!-- Generator: Sketch 59 (86127) - https://sketch.com -->
    <title>illustration/product/bespoke/BESPOKE-FINAL-S-01 (1)</title>
    <desc>Created with Sketch.</desc>
    <g id="Page-1" stroke="none" stroke-width="1" fill="none" fill-rule="evenodd">
        <g id="Step-3-ATO-connect-Copy-11" transform="translate(-568.000000, -256.000000)" fill-rule="nonzero">
            <g id="illustration/product/bespoke/BESPOKE-FINAL-S-01-(1)" transform="translate(568.000000, 256.000000)">
                <path d="M0.81,76.75 C0.81,80.2 6.35,82.99 13.2,82.99 L112.1,82.99 C118.95,82.99 124.58,80.2 124.58,76.75 L0.81,76.75 Z" id="Path" fill="#B83498"></path>
                <path d="M110.37,73.45 L110.37,18.45 C110.326066,12.9584199 105.861756,8.53 100.37,8.53 L21.27,8.53 C18.6399711,8.53 16.1178071,9.57545755 14.2590339,11.4361064 C12.4002607,13.2967553 11.3573461,15.8199724 11.3599949,18.45 C11.3599949,18.45 11.56,72.45 11.91,73.45 L110.37,73.45 Z" id="Path" fill="#B83498"></path>
                <path d="M17.92,67.25 C17.75,56.71 17.61,33.72 17.56,18.41 C17.5710037,16.3688384 19.2288087,14.7198789 21.27,14.7198789 L100.39,14.7198789 C101.384571,14.7120116 102.341578,15.0994588 103.050472,15.7971009 C103.759367,16.4947431 104.162075,17.4454282 104.17,18.44 L104.17,67.25 L17.92,67.25 Z" id="Path" fill="#F0F1F3"></path>
                <path d="M104.17,22.9 L104.17,18.44 C104.162075,17.4454282 103.759367,16.4947431 103.050472,15.7971009 C102.341578,15.0994588 101.384571,14.7120116 100.39,14.72 L21.27,14.72 C19.2288087,14.7199703 17.5710037,16.3688384 17.56,18.41 C17.56,21.72 17.56,19.08 17.56,22.9 L104.17,22.9 Z" id="Path" fill="#FFFFFF"></path>
                <path d="M100.39,8.52 L88.93,8.52 L24,73.45 L110.36,73.45 L110.36,18.45 C110.321637,12.9661864 105.873923,8.53631765 100.39,8.52 Z" id="Path" fill="#F0F1F3" style="mix-blend-mode: multiply;"></path>
                <path d="M14.46,83 L112.1,83 C118.95,83 124.58,80.21 124.58,76.76 L20.71,76.76 L14.46,83 Z" id="Path" fill="#F0F1F3" style="mix-blend-mode: multiply;"></path>
                <path d="M80.74,33 L93.27,33 C93.4185212,33 93.5609594,33.0589998 93.6659798,33.1640202 C93.7710002,33.2690406 93.83,33.4114788 93.83,33.56 L93.83,52.56 C93.83,52.8692795 93.5792795,53.12 93.27,53.12 L72,53.12 C71.6946328,53.1145461 71.45,52.8654159 71.45,52.56 L71.45,31.33 C71.45,31.0245841 71.6946328,30.7754539 72,30.77 L78.94,30.77 C79.1512352,30.7726949 79.3436565,30.891996 79.44,31.08 L80.25,32.7 C80.3456807,32.8825522 80.5339048,32.9977914 80.74,33 Z" id="Path" fill="#C0C5CA"></path>
                <path d="M71.43,36.37 L93.82,36.37 L93.82,52.61 C93.82,52.9192795 93.5692795,53.17 93.26,53.17 L72,53.17 C71.6907205,53.17 71.44,52.9192795 71.44,52.61 L71.44,36.37 L71.43,36.37 Z" id="Path" fill="#FFFFFF"></path>
                <path d="M208.08,23.14 C207.85,23.14 207.63,23.14 207.4,23.14 C206.160976,11.1121842 196.418993,1.73663192 184.352532,0.959428055 C172.286071,0.182224193 161.421814,8.23052336 158.65,20 C153.904597,16.620082 147.671241,16.1661053 142.48619,18.8227863 C137.30114,21.4794672 134.028555,26.8040336 134,32.63 C129.760905,30.7041649 124.776464,31.5523517 121.412943,34.7718999 C118.049422,37.9914482 116.98413,42.9340416 118.722793,47.2532793 C120.461456,51.5725171 124.653962,54.3986397 129.31,54.39 L208.09,54.39 C213.766517,54.5336173 219.074391,51.5873188 221.95492,46.693851 C224.835448,41.8003832 224.835448,35.7296168 221.95492,30.836149 C219.074391,25.9426812 213.766517,22.9963827 208.09,23.14 L208.08,23.14 Z" id="Path" fill="#F0F1F3"></path>
                <path d="M131.18,44.32 L129,44.32 L129,42.32 L131.2,42.32 L131.18,44.32 Z M126.78,44.32 L124.58,44.32 L124.58,42.32 L126.78,42.32 L126.78,44.32 Z M122.38,44.32 L120.18,44.32 L120.18,42.32 L122.38,42.32 L122.38,44.32 Z M117.98,44.32 L115.78,44.32 L115.78,42.32 L118,42.32 L117.98,44.32 Z M113.58,44.32 L111.38,44.32 L111.38,42.32 L113.58,42.32 L113.58,44.32 Z M109.18,44.32 L107,44.32 L107,42.32 L109.2,42.32 L109.18,44.32 Z M104.78,44.32 L102.58,44.32 L102.58,42.32 L104.78,42.32 L104.78,44.32 Z M100.38,44.32 L98.18,44.32 L98.18,42.32 L100.38,42.32 L100.38,44.32 Z M95.98,44.32 L93.78,44.32 L93.78,42.32 L96,42.32 L95.98,44.32 Z M91.58,44.32 L89.38,44.32 L89.38,42.32 L91.58,42.32 L91.58,44.32 Z M87.18,44.32 L85,44.32 L85,42.32 L87.2,42.32 L87.18,44.32 Z" id="Shape" fill="#EC0677"></path>
                <path d="M85.13,46.33 C83.4731458,46.33 82.13,44.9868542 82.13,43.33 C82.13,41.6731458 83.4731458,40.33 85.13,40.33 C86.7868542,40.33 88.13,41.6731458 88.13,43.33 C88.13,44.1256495 87.8139295,44.8887112 87.2513203,45.4513203 C86.6887112,46.0139295 85.9256495,46.33 85.13,46.33 L85.13,46.33 Z" id="Path" fill="#EC0677"></path>
                <path d="M131.14,46.33 C132.796854,46.33 134.14,44.9868542 134.14,43.33 C134.14,41.6731458 132.796854,40.33 131.14,40.33 C129.483146,40.33 128.14,41.6731458 128.14,43.33 C128.14,44.1256495 128.456071,44.8887112 129.01868,45.4513203 C129.581289,46.0139295 130.344351,46.33 131.14,46.33 L131.14,46.33 Z" id="Path" fill="#EC0677"></path>
                <path d="M179.28,22.25 L194.28,22.25 C194.650031,22.25 194.950075,22.5499692 194.950075,22.92 L194.950075,45.76 C194.952678,45.9394213 194.883273,46.1124188 194.757332,46.2402393 C194.631392,46.3680598 194.459441,46.44 194.28,46.44 L168.79,46.44 C168.610559,46.44 168.438608,46.3680598 168.312668,46.2402393 C168.186727,46.1124188 168.117322,45.9394213 168.119925,45.76 L168.119925,20.23 C168.119925,19.8599692 168.419969,19.56 168.79,19.56 L177.11,19.56 C177.363304,19.5619511 177.594527,19.7045386 177.71,19.93 L178.71,21.93 C178.832909,22.1269837 179.047829,22.2476406 179.28,22.25 Z" id="Path" fill="#C0C5CA"></path>
                <path d="M168.12,26.28 L195,26.28 L195,45.76 C195,46.1300308 194.700031,46.43 194.33,46.43 L168.79,46.43 C168.419969,46.43 168.12,46.1300308 168.12,45.76 L168.12,26.28 L168.12,26.28 Z" id="Path" fill="#FFFFFF"></path>
                <path d="M181,36.14 C177.590786,36.1455165 174.83,38.9107817 174.83,42.32 L187.18,42.32 C187.18,38.9068802 184.41312,36.14 181,36.14 Z" id="Path" fill="#C0C5CA"></path>
                <circle id="Oval" fill="#C0C5CA" cx="181.01" cy="32.14" r="3.6"></circle>
                <circle id="Oval" fill="#FFFFFF" cx="164.09" cy="56.47" r="11.77"></circle>
                <path d="M164.09,68.94 C157.203009,68.94 151.62,63.3569908 151.62,56.47 C151.62,49.5830092 157.203009,44 164.09,44 C170.976991,44 176.56,49.5830092 176.56,56.47 C176.554486,63.3547054 170.974705,68.9344856 164.09,68.94 L164.09,68.94 Z M164.09,45.4 C157.976208,45.4 153.02,50.3562078 153.02,56.47 C153.02,62.5837922 157.976208,67.54 164.09,67.54 C170.203792,67.54 175.16,62.5837922 175.16,56.47 C175.154487,50.358493 170.201507,45.4055133 164.09,45.4 L164.09,45.4 Z" id="Shape" fill="#EA0C77"></path>
                <line x1="158.43" y1="50.81" x2="169.75" y2="62.13" id="Path" fill="#FFFFFF"></line>
                <path d="M169.75,62.8300255 C169.56413,62.8284953 169.385633,62.7570967 169.25,62.63 L157.93,51.31 C157.655444,51.0332022 157.655444,50.5867978 157.93,50.31 C158.060253,50.1730356 158.240989,50.0954997 158.43,50.0954997 C158.619011,50.0954997 158.799747,50.1730356 158.93,50.31 L170.25,61.63 C170.524556,61.9067978 170.524556,62.3532022 170.25,62.63 C170.116063,62.7597386 169.936464,62.8315785 169.75,62.8300255 Z" id="Path" fill="#EA0C77"></path>
                <line x1="169.75" y1="50.81" x2="158.43" y2="62.13" id="Path" fill="#FFFFFF"></line>
                <path d="M158.43,62.83 C158.24413,62.8284953 158.065633,62.7570967 157.93,62.63 C157.655444,62.3532022 157.655444,61.9067978 157.93,61.63 L169.25,50.31 C169.380253,50.1730356 169.560989,50.0954997 169.75,50.0954997 C169.939011,50.0954997 170.119747,50.1730356 170.25,50.31 C170.524556,50.5867978 170.524556,51.0332022 170.25,51.31 L158.92,62.63 C158.787434,62.7556118 158.6126,62.8269724 158.43,62.83 L158.43,62.83 Z" id="Path" fill="#EA0C77"></path>
            </g>
        </g>
    </g>
</svg>