<?xml version="1.0" encoding="UTF-8"?>
<svg width="329px" height="209px" viewBox="0 0 329 209" version="1.1" xmlns="http://www.w3.org/2000/svg" xmlns:xlink="http://www.w3.org/1999/xlink">
    <!-- Generator: Sketch 56.3 (81716) - https://sketch.com -->
    <title>footer-right-illustration</title>
    <desc>Created with Sketch.</desc>
    <defs>
        <linearGradient x1="50%" y1="0%" x2="50%" y2="89.0892126%" id="linearGradient-1">
            <stop stop-color="#DCDFE1" offset="0%"></stop>
            <stop stop-color="#FFFFFF" stop-opacity="0.5" offset="100%"></stop>
        </linearGradient>
        <path d="M5.64342924,22.2931066 C7.72139995,22.2931066 9.40571541,20.6297286 9.40571541,18.5775888 L9.40571541,13.0043122 L9.40571541,11.1465533 C9.40571541,4.99013397 14.4594397,0 20.6925739,0 C26.925708,0 31.9794324,4.99013397 31.9794324,11.1465533 C31.9794324,12.1730073 32.8219791,13.0043122 33.8605755,13.0043122 L43.2662909,13.0043122 C47.4222323,13.0043122 50.7908632,16.3318365 50.7908632,20.4353477 C50.7908632,21.4610335 51.6326319,22.2931066 52.6720063,22.2931066 L82.2996208,22.2931066 C85.4169659,22.2931066 87.9430501,24.7885577 87.9430501,27.8663833 C87.9430501,30.9442088 85.4169659,33.4396599 82.2996208,33.4396599 L54.8036573,33.4396599 L20.6925739,33.4396599 L5.64342924,33.4396599 C2.52686217,33.4396599 -1.13686838e-13,30.9442088 -1.13686838e-13,27.8663833 C-1.13686838e-13,24.7885577 2.52686217,22.2931066 5.64342924,22.2931066" id="path-2"></path>
        <path d="M44.1954392,10.2836739 C41.9501394,4.2802356 36.1141838,0 29.2674576,0 C22.4214327,0 16.5854772,4.2802356 14.3401774,10.2836739 L0,10.2836739 L0,52.7847125 L58.5342137,52.7847125 L58.5342137,10.2836739 L44.1954392,10.2836739 Z" id="path-4"></path>
        <path d="M48.3807263,63.8384607 L48.8068525,63.8384607 L48.8068525,0.018639241 L14.3182228,0.018639241 C6.44025341,0.018639241 0.0537256208,6.55250053 0.0537256208,14.6129942 L0.0537256208,63.8384607 L48.3807263,63.8384607 Z" id="path-6"></path>
        <path d="M41.4875222,32.5212251 L41.7087869,32.5212251 L41.7087869,-7.10542736e-15 L7.39878152,-7.10542736e-15 C3.31275978,-7.10542736e-15 -2.27373675e-13,3.32992747 -2.27373675e-13,7.43634377 L-2.27373675e-13,32.5212251 L41.4875222,32.5212251 Z" id="path-8"></path>
        <path d="M70.9948148,17.4781709 C70.8118519,17.4781709 70.6340741,17.4974241 70.4533333,17.5055696 C69.4518519,7.67238608 61.1444444,0 51.0437037,0 C41.8207407,0 34.1111111,6.40537975 32.0762963,15.0041392 C30.0659259,13.573481 27.6133333,12.7241203 24.9577778,12.7241203 C18.1896296,12.7241203 12.7022222,18.1883165 12.6607407,24.9446962 C11.5333333,24.4344873 10.2859259,24.1427278 8.96740741,24.1427278 C4.01481481,24.1427278 -1.98951966e-13,28.1562722 -1.98951966e-13,33.108038 C-1.98951966e-13,38.0590633 4.01481481,42.0726076 8.96740741,42.0726076 L70.9948148,42.0726076 C77.7888889,42.0726076 83.2955556,36.5676835 83.2955556,29.7757595 C83.2955556,22.9838354 77.7888889,17.4781709 70.9948148,17.4781709" id="path-10"></path>
        <path d="M5.95566502,23.827375 C8.14860427,23.827375 9.92610837,22.0495191 9.92610837,19.8561458 L9.92610837,13.8993021 L9.92610837,11.9136875 C9.92610837,5.33356771 15.2594417,0 21.8374384,0 C28.4154351,0 33.7487685,5.33356771 33.7487685,11.9136875 C33.7487685,13.0107847 34.637931,13.8993021 35.7339901,13.8993021 L45.6600985,13.8993021 C50.045977,13.8993021 53.6009852,17.4558351 53.6009852,21.8417604 C53.6009852,22.9380365 54.4893268,23.827375 55.5862069,23.827375 L86.8530378,23.827375 C90.1428571,23.827375 92.8087028,26.4945694 92.8087028,29.7842188 C92.8087028,33.0738681 90.1428571,35.7410625 86.8530378,35.7410625 L57.8357964,35.7410625 L21.8374384,35.7410625 L5.95566502,35.7410625 C2.66666667,35.7410625 -1.13686838e-13,33.0738681 -1.13686838e-13,29.7842188 C-1.13686838e-13,26.4945694 2.66666667,23.827375 5.95566502,23.827375" id="path-12"></path>
    </defs>
    <g id="ES---Testing-screens-2-Sept-2019" stroke="none" stroke-width="1" fill="none" fill-rule="evenodd">
        <g id="Dashboard---Slice-1-Copy-7" transform="translate(-920.000000, -1031.000000)">
            <g id="footer-right-illustration" transform="translate(920.000000, 1031.000000)">
                <g id="illustration/product/scenes/scene-03-buildings" transform="translate(38.000000, 58.000000)">
                    <g id="Group">
                        <g id="illustration/product/scene-elements/sky-1" transform="translate(144.391034, 0.000000)">
                            <path d="M125.875219,62.7491151 C125.875219,97.4044743 97.6970714,125.49823 62.9383885,125.49823 C28.1789268,125.49823 0,97.4044743 0,62.7491151 C0,28.093756 28.1789268,0 62.9383885,0" id="Clip-2"></path>
                            <path d="M125.875219,62.7491151 C125.875219,97.4044743 97.6970714,125.49823 62.9383885,125.49823 C28.1789268,125.49823 0,97.4044743 0,62.7491151 C0,28.093756 28.1789268,0 62.9383885,0 C97.6970714,0 125.875219,28.093756 125.875219,62.7491151" id="Fill-1" fill="url(#linearGradient-1)" fill-rule="evenodd"></path>
                            <g id="illustration/product/scene-elements/clouds-1" transform="translate(43.005186, 30.259697)" fill-rule="evenodd" stroke-width="1">
                                <g id="swatch/ui_storm_17%" transform="translate(-0.000000, -0.000000)">
                                    <mask id="mask-3" fill="white">
                                        <use xlink:href="#path-2"></use>
                                    </mask>
                                    <use id="Mask" fill="#FFFFFF" xlink:href="#path-2"></use>
                                    <g id="swatch/ui_storm_11%" mask="url(#mask-3)" fill="#E8EAEC">
                                        <g transform="translate(0.000000, 0.000000)">
                                            <polygon points="0 0 88.5942529 0 88.5942529 34.2295977 0 34.2295977"></polygon>
                                        </g>
                                    </g>
                                </g>
                            </g>
                        </g>
                        <g id="illustration/product/scene-elements/building-5" transform="translate(133.041520, 49.944484)">
                            <polygon id="Fill-17" fill="#E8EAEC" points="27.6587631 0 0 27.479074 0 100.33454 55.3168166 100.33454 55.3168166 27.479074"></polygon>
                            <path d="M15.8918783,28.1359897 C13.1107606,28.1359897 10.8561651,30.3741103 10.8561651,33.1342004 L10.8561651,43.8310485 L20.9268811,43.8310485 L20.9268811,33.1342004 C20.9268811,30.3741103 18.6729961,28.1359897 15.8918783,28.1359897" id="Fill-18" fill="#C5C9CE"></path>
                            <path d="M29.5076313,28.1359897 C26.7265135,28.1359897 24.4719181,30.3741103 24.4719181,33.1342004 L24.4719181,43.8310485 L34.5426341,43.8310485 L34.5426341,33.1342004 C34.5426341,30.3741103 32.2887491,28.1359897 29.5076313,28.1359897" id="Fill-19" fill="#C5C9CE"></path>
                            <path d="M43.1233843,28.1359897 C40.3422665,28.1359897 38.087671,30.3741103 38.087671,33.1342004 L38.087671,43.8310485 L48.1583871,43.8310485 L48.1583871,33.1342004 C48.1583871,30.3741103 45.9045021,28.1359897 43.1233843,28.1359897" id="Fill-20" fill="#C5C9CE"></path>
                            <path d="M17.8556431,69.7303995 C13.0501501,69.7303995 9.15416929,73.597206 9.15416929,78.3682894 L9.15416929,100.306527 L26.5571169,100.306527 L26.5571169,78.3682894 C26.5571169,73.597206 22.6611361,69.7303995 17.8556431,69.7303995" id="Fill-21" fill="#C5C9CE"></path>
                            <path d="M43.9293685,88.508323 C43.9293685,91.5964074 41.4076038,94.1004503 38.2960772,94.1004503 C35.1852613,94.1004503 32.6634966,91.5964074 32.6634966,88.508323 C32.6634966,85.4202385 35.1852613,79.09947 38.2960772,79.09947 C41.4076038,79.09947 43.9293685,85.4202385 43.9293685,88.508323" id="Fill-22" fill="#EC0677"></path>
                            <polygon id="Fill-23" fill="#FFFFFF" points="41.3699443 100.306668 35.2229208 100.306668 34.1379011 93.7362003 42.4549639 93.7362003"></polygon>
                            <polygon id="Fill-24" fill="#C5C9CE" points="41.9802412 97.2106832 42.4548929 94.3356188 34.1378301 94.3356188 34.6124818 97.2106832"></polygon>
                            <path d="M42.1890737,95.5402397 L34.4035071,95.5402397 C34.1349168,95.5402397 33.916776,95.3236929 33.916776,95.0570653 L33.916776,93.5109069 C33.916776,93.2435739 34.1349168,93.0270271 34.4035071,93.0270271 L42.1890737,93.0270271 C42.457664,93.0270271 42.6758048,93.2435739 42.6758048,93.5109069 L42.6758048,95.0570653 C42.6758048,95.3236929 42.457664,95.5402397 42.1890737,95.5402397" id="Fill-25" fill="#FFFFFF"></path>
                        </g>
                        <g id="illustration/product/scene-elements/building-6" style="mix-blend-mode: multiply;" transform="translate(177.178518, 87.560898)">
                            <polygon id="Fill-5" fill="#E8EAEC" points="4.11160489 61.923126 54.7208926 61.923126 54.7208926 18.9567838 4.11160489 18.9567838"></polygon>
                            <polygon id="Fill-7" fill="#E8EAEC" points="-8.52651283e-14 18.9887783 58.5787728 18.9887783 58.5787728 9.16244548 -8.52651283e-14 9.16244548"></polygon>
                            <polygon id="Fill-9" fill="#C5C9CE" points="4.11160489 23.8699502 54.7208926 23.8699502 54.7208926 18.9567838 4.11160489 18.9567838"></polygon>
                            <polygon id="Fill-14" fill="#DCDFE1" points="41.4323262 13.8017864 47.0550337 13.8017864 47.0550337 1.0658141e-14 41.4323262 1.0658141e-14"></polygon>
                            <polygon id="Fill-16" fill="#C5C9CE" points="34.7905029 61.9313286 47.6201158 61.9313286 47.6201158 40.4411387 34.7905029 40.4411387"></polygon>
                            <polygon id="Fill-26" fill="#C5C9CE" points="13.5999239 54.7124834 32.5765618 54.7124834 32.5765618 40.4411387 13.5999239 40.4411387"></polygon>
                        </g>
                        <g id="illustration/product/scene-elements/building-7" transform="translate(225.098686, 96.095715)">
                            <g id="swatch/tertiary_rogue" stroke-width="1" transform="translate(6.628579, 0.000000)">
                                <mask id="mask-5" fill="white">
                                    <use xlink:href="#path-4"></use>
                                </mask>
                                <use id="Mask" fill="#B93499" xlink:href="#path-4"></use>
                                <g id="illustration/product/swatches/tertiary_rogue" mask="url(#mask-5)" fill="#B93499">
                                    <g transform="translate(-6.628579, -0.312525)" id="swatch/tertiary_rogue">
                                        <polygon points="0 0 65.4389368 0 65.4389368 53.3579023 0 53.3579023"></polygon>
                                    </g>
                                </g>
                            </g>
                            <polygon id="Fill-11" fill="#E0E2E4" style="mix-blend-mode: multiply;" points="12.6258655 52.8009459 45.0701311 52.8009459 45.0701311 35.9403585 12.6258655 35.9403585"></polygon>
                            <polygon id="Fill-12" fill="#E0E2E4" style="mix-blend-mode: multiply;" points="48.9252287 52.8009459 61.7299605 52.8009459 61.7299605 35.9403585 48.9252287 35.9403585"></polygon>
                            <polygon id="Fill-13" fill="#DCDFE1" points="14.5197453 28.3450491 65.0288186 28.3450491 65.1452571 20.9391654 14.6368853 20.9391654"></polygon>
                            <polygon id="Fill-15" fill="#FFFFFF" points="58.5342137 30.8562595 2.13162821e-13 30.8562595 6.51214083 20.9391654 65.0463545 20.9391654"></polygon>
                        </g>
                        <g id="illustration/product/scene-elements/building-1" transform="translate(86.697673, 21.495094)">
                            <path d="M9.46976282,2.01476585 C7.60933709,2.01476585 6.10141307,3.50617935 6.10141307,5.34623496 L6.10141307,13.9933342 C6.10141307,15.8333898 7.60933709,17.3248033 9.46976282,17.3248033 L21.3569041,17.3248033 L21.3569041,24.4990833 L24.1314843,24.4990833 L24.1314843,17.3248033 L34.4543013,17.3248033 C36.314727,17.3248033 37.8438011,15.8333898 37.8438011,13.9933342 L37.8438011,2.01476585 L9.46976282,2.01476585 Z" id="Fill-4" fill="#C0C5CA" fill-rule="evenodd"></path>
                            <polygon id="Fill-8" fill="#687480" fill-rule="evenodd" points="-1.42108547e-14 36.7953793 47.0691627 36.7953793 47.0691627 24.5302529 -1.42108547e-14 24.5302529"></polygon>
                            <polygon id="Fill-10" fill="#687480" fill-rule="evenodd" points="-1.42108547e-14 51.8909196 47.0691627 51.8909196 47.0691627 39.6257931 -1.42108547e-14 39.6257931"></polygon>
                            <polygon id="Fill-12" fill="#687480" fill-rule="evenodd" points="-1.42108547e-14 66.9864598 47.0691627 66.9864598 47.0691627 54.7213334 -1.42108547e-14 54.7213334"></polygon>
                            <polygon id="Fill-14" fill="#687480" fill-rule="evenodd" points="-1.42108547e-14 82.0820001 47.0691627 82.0820001 47.0691627 69.8168736 -1.42108547e-14 69.8168736"></polygon>
                            <polygon id="Fill-16" fill="#687480" fill-rule="evenodd" points="-1.42108547e-14 97.1775403 47.0691627 97.1775403 47.0691627 84.9124139 -1.42108547e-14 84.9124139"></polygon>
                            <polygon id="Fill-18" fill="#687480" fill-rule="evenodd" points="-1.42108547e-14 112.587571 47.0691627 112.587571 47.0691627 100.322445 -1.42108547e-14 100.322445"></polygon>
                            <polygon id="Fill-20" fill="#687480" fill-rule="evenodd" points="-1.42108547e-14 127.683111 47.0691627 127.683111 47.0691627 115.417985 -1.42108547e-14 115.417985"></polygon>
                            <path d="M9.46976282,2.0146109 C7.60933709,2.0146109 6.10141307,3.5060244 6.10141307,5.34685477 L6.10141307,5.34685477 L6.10141307,13.9931792 C6.10141307,15.8340096 7.60933709,17.3254231 9.46976282,17.3254231 L9.46976282,17.3254231 L34.4543013,17.3254231 C36.3139437,17.3254231 37.8438011,15.8340096 37.8438011,13.9931792 L37.8438011,13.9931792 L37.8438011,2.0146109" id="Clip-37"></path>
                            <path d="M20.2719821,3.42738623 C19.0350928,2.5526819 17.4096682,2.23503019 15.6455929,2.70298539 C12.0915923,3.64509386 10.4661677,6.72089208 11.3513387,9.98650657 L13.3645151,17.4149079 L14.4478704,17.1282466 C15.1732406,16.8880709 16.5315472,16.1404273 16.0043613,13.9989899 L14.6578048,9.02967765 C14.2661362,7.58397501 15.0298899,6.31336819 16.5166638,5.91901522 C18.7092245,5.33794502 19.4024779,6.9974815 19.5983122,7.72110758 L21.6310721,15.2238859 L22.7167774,14.9364499 C23.4390142,14.6970489 24.7887042,13.9532791 24.2779683,11.8312107 L22.9251451,6.83865564 C22.5334765,5.392953 23.3215137,4.11537334 24.7840041,3.72721845 C26.9765648,3.14614826 27.694885,4.79948665 27.8907193,5.52233797 L29.9234792,13.0258911 L31.0060511,12.7392298 C31.735338,12.4975046 33.1046113,11.7436628 32.5547087,9.57588363 L31.2379189,4.71581254 C30.3253311,1.35025398 27.5413509,-0.45028886 23.9121499,0.51196338 C22.223275,0.959000049 20.9511354,2.04521393 20.2719821,3.42738623" id="Fill-36" fill="#F0F1F3" fill-rule="evenodd"></path>
                        </g>
                        <g id="illustration/product/scene-elements/building-2" style="mix-blend-mode: multiply;" transform="translate(41.614883, 86.296481)">
                            <g id="swatch/dusk" stroke-width="1">
                                <mask id="mask-7" fill="white">
                                    <use xlink:href="#path-6"></use>
                                </mask>
                                <use id="Mask" fill="#EC0677" xlink:href="#path-6"></use>
                                <g id="illustration/product/swatches/tertiary_rogue" mask="url(#mask-7)" fill="#B93499">
                                    <polygon id="swatch/tertiary_rogue" points="0 0 49.3308908 0 49.3308908 64.432184 0 64.432184"></polygon>
                                </g>
                            </g>
                            <polygon id="Fill-27" fill="#969EA7" opacity="0.5" style="mix-blend-mode: multiply;" points="27.4905035 20.8465472 41.8607658 20.8465472 41.8607658 12.2701192 27.4905035 12.2701192"></polygon>
                            <polygon id="Fill-29" fill="#969EA7" opacity="0.5" style="mix-blend-mode: multiply;" points="27.4905035 36.5284416 41.8607658 36.5284416 41.8607658 27.9520136 27.4905035 27.9520136"></polygon>
                            <polygon id="Fill-31" fill="#969EA7" opacity="0.5" style="mix-blend-mode: multiply;" points="27.4905035 63.8384607 41.8607658 63.8384607 41.8607658 41.4290336 27.4905035 41.4290336"></polygon>
                        </g>
                        <g id="illustration/product/scene-elements/building-4" transform="translate(0.000000, 117.274705)">
                            <polygon id="Clip-25" points="0 0 41.7081658 0 41.7081658 32.5212251 0 32.5212251"></polygon>
                            <g id="swatch/ui_storm_11%" stroke-width="1" fill-rule="evenodd">
                                <mask id="mask-9" fill="white">
                                    <use xlink:href="#path-8"></use>
                                </mask>
                                <use id="Mask" fill="#B93499" style="mix-blend-mode: multiply;" xlink:href="#path-8"></use>
                                <g mask="url(#mask-9)" fill="#E8EAEC">
                                    <polygon points="0 0 42.2836207 0 42.2836207 33.2228449 0 33.2228449"></polygon>
                                </g>
                            </g>
                            <path d="M35.5638388,32.6584699 L35.6717539,32.6584699 L35.6717539,12.3542625 L26.9376204,12.3542625 C24.9423561,12.3542625 23.3251828,13.9805969 23.3251828,15.9862012 L23.3251828,32.6584699 L35.5638388,32.6584699 Z" id="Fill-55" fill="#E0E2E4" fill-rule="evenodd" style="mix-blend-mode: multiply;"></path>
                        </g>
                    </g>
                </g>
                <g id="illustration/product/scene-elements/clouds-3">
                    <g id="illustration/product/scene-elements/clouds-2" transform="translate(15.666667, 0.000000)">
                        <mask id="mask-11" fill="white">
                            <use xlink:href="#path-10"></use>
                        </mask>
                        <use id="Mask" fill="#DCDFE1" fill-rule="evenodd" xlink:href="#path-10"></use>
                        <g id="swatch/ui_storm_28%" mask="url(#mask-11)" fill="#C5C9CE" fill-rule="evenodd">
                            <polygon points="0 0 83.8383838 0 83.8383838 42.4242424 0 42.4242424"></polygon>
                        </g>
                    </g>
                    <g id="illustration/product/scene-elements/clouds-1" transform="translate(46.500000, 32.000000) scale(-1, 1) translate(-46.500000, -32.000000) translate(0.000000, 14.000000)" fill-rule="evenodd" stroke-width="1">
                        <g id="swatch/ui_storm_17%" transform="translate(-0.000000, -0.000000)">
                            <mask id="mask-13" fill="white">
                                <use xlink:href="#path-12"></use>
                            </mask>
                            <use id="Mask" fill="#FFFFFF" xlink:href="#path-12"></use>
                            <g id="swatch/ui_storm_06%" mask="url(#mask-13)" fill="#F3F4F5">
                                <g transform="translate(0.000000, 0.000000)" id="swatch/ui_storm_6%">
                                    <polygon points="0 0 93.9393939 0 93.9393939 36.3636364 0 36.3636364"></polygon>
                                </g>
                            </g>
                        </g>
                    </g>
                </g>
            </g>
        </g>
    </g>
</svg>