<?xml version="1.0" encoding="UTF-8"?>
<svg width="290px" height="167px" viewBox="0 0 290 167" version="1.1" xmlns="http://www.w3.org/2000/svg" xmlns:xlink="http://www.w3.org/1999/xlink">
  <!-- Generator: Sketch 56.3 (81716) - https://sketch.com -->
  <title>top-right-corner-illustration</title>
  <desc>Created with Sketch.</desc>
  <defs>
    <path d="M70.0718582,37.2337123 L70.0718582,66.5759942 L1.56319402e-12,66.5759942 L1.56319402e-12,1.98951966e-13 L17.9921872,1.98951966e-13 L88.0640454,1.56319402e-13 L88.0640454,23.979569 C88.0640454,31.2991124 82.0680205,37.2337123 74.6727175,37.2337123 L70.0718582,37.2337123 Z" id="path-1"></path>
    <path d="M50.2238091,36.2442285 C50.2238091,45.152486 43.0271093,52.3728632 34.1493594,52.3728632 C25.2726596,52.3728632 18.0770097,45.152486 18.0770097,36.2442285 C18.0770097,27.3359709 25.2726596,20.1155937 34.1493594,20.1155937 C43.0271093,20.1155937 50.2238091,27.3359709 50.2238091,36.2442285 Z M35.0947794,14.7394523 C35.0947794,15.2631549 34.6716885,15.6876997 34.1497794,15.6876997 C33.6278703,15.6876997 33.2047794,15.2631549 33.2047794,14.7394523 L33.2047794,1.24589173 C33.2047794,0.72218915 33.6278703,0.297644325 34.1497794,0.297644325 C34.6716885,0.297644325 35.0947794,0.72218915 35.0947794,1.24589173 L35.0947794,14.7394523 Z M22.3183854,18.2889318 C22.6251637,18.7126104 22.5315735,19.3056173 22.1093458,19.6134498 C21.6871182,19.9212823 21.0961421,19.8273705 20.7893639,19.4036919 L12.884964,8.48725701 C12.5781857,8.06357842 12.6717759,7.47057152 13.0940036,7.16273902 C13.5162312,6.85490653 14.1072073,6.94881835 14.4139855,7.37249694 L22.3183854,18.2889318 Z M14.060156,28.6971824 C14.5565192,28.8590211 14.8281543,29.3939819 14.6668698,29.8920508 C14.5055854,30.3901197 13.9724567,30.6626882 13.4760935,30.5008495 L0.686043706,26.3306682 C0.189680509,26.1688295 -0.0819545086,25.6338687 0.0793299124,25.1357998 C0.240614333,24.6377309 0.773743064,24.3651624 1.27010626,24.5270011 L14.060156,28.6971824 Z M13.4760935,41.9876074 C13.9724567,41.8257687 14.5055854,42.0983372 14.6668698,42.5964061 C14.8281543,43.094475 14.5565192,43.6294358 14.060156,43.7912745 L1.27010626,47.9614558 C0.773743064,48.1232945 0.240614333,47.850726 0.0793299124,47.3526571 C-0.0819545086,46.8545882 0.189680509,46.3196274 0.686043706,46.1577887 L13.4760935,41.9876074 Z M20.7893639,53.084765 C21.0961421,52.6610864 21.6871182,52.5671746 22.1093458,52.8750071 C22.5315735,53.1828396 22.6251637,53.7758465 22.3183854,54.1995251 L14.4139855,65.11596 C14.1072073,65.5396386 13.5162312,65.6335504 13.0940036,65.3257179 C12.6717759,65.0178854 12.5781857,64.4248785 12.884964,64.0011999 L20.7893639,53.084765 Z M33.2047794,57.7491099 C33.2047794,57.2254074 33.6278703,56.8008625 34.1497794,56.8008625 C34.6716885,56.8008625 35.0947794,57.2254074 35.0947794,57.7491099 L35.0947794,71.2437241 C35.0947794,71.7674267 34.6716885,72.1919716 34.1497794,72.1919716 C33.6278703,72.1919716 33.2047794,71.7674267 33.2047794,71.2437241 L33.2047794,57.7491099 Z M45.9822234,54.1995251 C45.6754452,53.7758465 45.7690354,53.1828396 46.191263,52.8750071 C46.6134906,52.5671746 47.2044667,52.6610864 47.511245,53.084765 L55.4156448,64.0011999 C55.7224231,64.4248785 55.6288329,65.0178854 55.2066053,65.3257179 C54.7843776,65.6335504 54.1934016,65.5396386 53.8866233,65.11596 L45.9822234,54.1995251 Z M54.2404528,43.7912745 C53.7440896,43.6294358 53.4724546,43.094475 53.633739,42.5964061 C53.7950234,42.0983372 54.3281522,41.8257687 54.8245153,41.9876074 L67.6145651,46.1577887 C68.1109283,46.3196274 68.3825633,46.8545882 68.2212789,47.3526571 C68.0599945,47.850726 67.5268658,48.1232945 67.0305026,47.9614558 L54.2404528,43.7912745 Z M54.8245153,30.5008495 C54.3281522,30.6626882 53.7950234,30.3901197 53.633739,29.8920508 C53.4724546,29.3939819 53.7440896,28.8590211 54.2404528,28.6971824 L67.0305026,24.5270011 C67.5268658,24.3651624 68.0599945,24.6377309 68.2212789,25.1357998 C68.3825633,25.6338687 68.1109283,26.1688295 67.6145651,26.3306682 L54.8245153,30.5008495 Z M47.511245,19.4036919 C47.2044667,19.8273705 46.6134906,19.9212823 46.191263,19.6134498 C45.7690354,19.3056173 45.6754452,18.7126104 45.9822234,18.2889318 L53.8866233,7.37249694 C54.1934016,6.94881835 54.7843776,6.85490653 55.2066053,7.16273902 C55.6288329,7.47057152 55.7224231,8.06357842 55.4156448,8.48725701 L47.511245,19.4036919 Z" id="path-3"></path>
  </defs>
  <g id="ES---Testing-screens-2-Sept-2019" stroke="none" stroke-width="1" fill="none" fill-rule="evenodd">
    <g id="Dashboard---Slice-1-Copy-7" transform="translate(-949.000000, -37.000000)">
      <g id="top-right-corner-illustration" transform="translate(932.000000, 37.000000)">
        <g id="illustration/product/characters/male/male-07-retail-barista-3" transform="translate(113.000000, 37.000000)">
          <path d="M72.8054439,98.2012425 C71.2882579,98.2012425 70.0480136,96.9814346 70.0116012,95.4524437 C69.2907898,64.1961247 49.2365871,58.2760686 37.3459927,57.5607051 C36.3478489,57.4983207 35.4585411,56.9038738 35.0130631,56.0012869 C34.567585,55.0986999 34.6336154,54.0250973 35.1862813,53.1848948 C35.7389472,52.3446922 36.6942854,51.8655365 37.6924292,51.9279209 C48.8063354,52.6151206 74.7443707,58.2197408 75.5992866,95.3003585 C75.6336321,96.8538066 74.4134544,98.141805 72.8724961,98.1787112 L72.8054439,98.2012425 Z" id="Path" fill="#A1A8B0" fill-rule="nonzero"></path>
          <path d="M22.156113,25.433787 L22.3639728,25.433787 C20.8374719,25.433787 19.5999985,26.6819249 19.5999985,28.221581 C19.5999985,29.7612371 20.8374719,31.0093749 22.3639728,31.0093749 C22.3639728,40.0658073 29.6429325,47.4074964 38.6219843,47.4074964 C47.6010361,47.4074964 54.8799958,40.0658073 54.8799958,31.0093749 L54.8799958,9.02999931 L38.6219843,9.02999931 C29.6374828,9.04874817 22.3639536,16.4001698 22.3639728,25.4621182 L22.156113,25.433787 Z" id="Path" fill="#D5D8DC" fill-rule="nonzero"></path>
          <ellipse id="Oval" fill="#2E3E4F" fill-rule="nonzero" cx="26.319998" cy="11.2874991" rx="4.47999966" ry="4.51499965"></ellipse>
          <ellipse id="Oval" fill="#2E3E4F" fill-rule="nonzero" cx="26.319998" cy="18.0599986" rx="7.27999944" ry="7.33687444"></ellipse>
          <ellipse id="Oval" fill="#2E3E4F" fill-rule="nonzero" cx="43.6799967" cy="7.33687444" rx="7.27999944" ry="7.33687444"></ellipse>
          <ellipse id="Oval" fill="#2E3E4F" fill-rule="nonzero" cx="50.3999961" cy="13.544999" rx="7.27999944" ry="7.33687444"></ellipse>
          <ellipse id="Oval" fill="#2E3E4F" fill-rule="nonzero" cx="38.3599971" cy="11.0053117" rx="8.67999933" ry="8.74781183"></ellipse>
          <path d="M54.8799958,30.9732937 L54.8799958,23.1393732 L46.7712269,23.1393732 C43.5830395,23.1393732 40.9985029,25.7521065 40.9985029,28.9750763 L40.9985029,34.8334864 L38.639997,34.8334864 L38.639997,47.4074964 C47.6131097,47.4012281 54.8830975,40.0443026 54.8799958,30.9732937 Z" id="Path" fill="#ABB2B9" fill-rule="nonzero"></path>
          <ellipse id="Oval" fill="#2E3E4F" fill-rule="nonzero" cx="31.9199976" cy="30.4762477" rx="1.67999987" ry="1.69312487"></ellipse>
          <path d="M32.4799975,38.3774971 C34.1128565,39.8228298 36.3290023,40.6349969 38.639997,40.6349969 C40.9509918,40.6349969 43.1671376,39.8228298 44.7999966,38.3774971 L32.4799975,38.3774971 Z" id="Path" fill="#ABB2B9" fill-rule="nonzero"></path>
          <ellipse id="Oval" fill="#2E3E4F" fill-rule="nonzero" cx="45.9199965" cy="30.4762477" rx="1.67999987" ry="1.69312487"></ellipse>
          <path d="M2.79388507,126.41999 C1.25086495,126.41999 1.44950718e-12,125.154609 1.44950718e-12,123.593681 L1.44950718e-12,94.3244258 C0.854928832,57.1019368 26.8212967,51.477582 37.9074327,50.7992678 C39.4504527,50.7024904 40.7788713,51.8894183 40.8745385,53.4503456 C40.9702058,55.0112729 39.7968945,56.3551082 38.2538744,56.4518857 C26.3686873,57.1923787 6.31976803,63.1106696 5.58777014,94.4431308 L5.58777014,123.616292 C5.57549548,125.168382 4.32821853,126.41999 2.79388507,126.41999 Z" id="Path" fill="#D5D8DC" fill-rule="nonzero"></path>
          <path d="M7.8399994,66.7834094 C16.6536106,53.9645399 30.7915237,51.2667198 38.4363857,50.7992479 C39.9955218,50.7028201 41.337815,51.8854591 41.4344815,53.440746 C41.5311479,54.996033 40.345582,56.3350123 38.7864458,56.4314401 C32.1691798,56.8369579 19.9509513,59.1348924 12.4980578,69.9824946 L7.8399994,66.7834094 Z" id="Path" fill="#B93499" fill-rule="nonzero"></path>
          <path d="M67.485465,54.5581271 C58.7438657,67.4033011 46.2223965,70.1178139 38.639997,70.5862451 C37.0935999,70.6828707 34.2613443,69.4922919 34.1654677,67.9338135 C34.0695911,66.3753352 35.2454703,65.0336082 36.7918674,64.9369825 C43.3550669,64.5306326 55.473466,62.222339 62.8654654,51.3581211 L67.485465,54.5581271 Z" id="Path" fill="#B93499" fill-rule="nonzero" transform="translate(50.822731, 60.974928) scale(-1, 1) rotate(180.000000) translate(-50.822731, -60.974928) "></path>
          <path d="M23.7578485,126.41999 L19.0399985,75.3277199 C19.4577539,57.0970048 31.6339287,53.9993066 37.7999971,53.6156209 C43.9660655,53.9993066 56.1422404,57.0970048 56.5599957,75.3277199 L51.8254355,126.41999 L23.7578485,126.41999 Z" id="Path" fill="#B93499" fill-rule="nonzero"></path>
          <path d="M54.3199958,129.241865 L21.2565444,129.241865 L16.2399988,75.4251689 L16.2399988,75.2558808 C16.7193576,54.3487968 31.3565229,51.1831088 37.627205,50.7937461 L37.7999971,50.7937461 L37.9727892,50.7937461 C44.2434713,51.1831088 58.8806366,54.3487968 59.3599955,75.2558808 L59.3599955,75.4251689 L54.3199958,129.241865 Z M26.3204862,123.598116 L49.2739422,123.598116 L53.7599959,75.2280237 C53.3592566,60.6188114 44.9103366,56.9284194 37.7972142,56.4374957 C30.6840918,56.9284194 22.2129085,60.6188114 21.8399983,75.2280237 L26.3204862,123.598116 Z" id="Shape" fill="#B93499" fill-rule="nonzero"></path>
          <polygon id="Path" fill="#6100A5" fill-rule="nonzero" points="22.9599982 119.083116 23.6406805 126.41999 51.9649392 126.41999 52.639996 119.083116"></polygon>
          <path d="M54.4715252,129.327077 L21.3442995,129.241865 L20.1599985,116.261241 L55.4399958,116.261241 L54.4715252,129.327077 Z M26.4683752,123.598116 L49.131619,123.598116 L49.2799962,121.904991 L26.319998,121.904991 L26.4683752,123.598116 Z" id="Shape" fill="#6100A5" fill-rule="nonzero"></path>
          <path d="M43.8808769,51.9337677 C46.0216437,57.2163404 47.4143429,61.1397134 47.6702036,66.8405054 L31.8478084,66.8405054 C32.1594778,61.8647842 32.0116652,56.8706182 31.4062792,51.922496 C30.3499624,52.1479287 29.2489339,52.418448 28.1311384,52.7509612 C30.2828947,97.5500759 15.1199988,123.429751 15.1199988,123.429751 L26.6500593,127.470632 C27.8560488,127.893399 29.1234792,128.110535 30.4002632,128.113115 C30.6517672,128.113115 30.9032712,128.113115 31.1547752,128.084936 C34.1304209,127.887006 36.9127527,126.528651 38.9122759,124.297667 C39.9072173,123.149661 40.6856985,121.827949 41.2093456,120.397681 C46.0270442,107.790357 51.0962468,80.5129991 51.5098311,68.5481582 C51.6495555,61.2215952 50.3361458,58.0091791 48.3520588,53.0609312 C46.1164678,52.4973494 44.4397746,51.9337677 43.8808769,51.9337677 Z" id="Path" fill="#1B2830" fill-rule="nonzero"></path>
          <path d="M72.2537296,98.7656174 L38.066262,98.7656174 C36.5274505,98.7656174 35.2799973,97.5022211 35.2799973,95.9437426 C35.2799973,94.3852642 36.5274505,93.1218679 38.066262,93.1218679 L72.2537296,93.1218679 C73.7925411,93.1218679 75.0399942,94.3852642 75.0399942,95.9437426 C75.0399942,97.5022211 73.7925411,98.7656174 72.2537296,98.7656174 L72.2537296,98.7656174 Z" id="Path" fill="#D5D8DC" fill-rule="nonzero"></path>
          <path d="M43.6799967,93.1218679 L72.7836895,93.1218679 C74.3390916,93.1218679 75.5999942,94.3852642 75.5999942,95.9437426 C75.5999942,97.5022211 74.3390916,98.7656174 72.7836895,98.7656174 L43.6799967,98.7656174 L43.6799967,93.1218679 Z" id="Path" fill="#A1A8B0" fill-rule="nonzero"></path>
          <g id="Group" stroke-width="1" fill-rule="evenodd" transform="translate(21.839998, 80.705619)" fill="#828B95">
            <path d="M32.4771355,12.980624 L0.562861967,12.980624 C0.252001886,12.980624 0,12.7279447 0,12.416249 C0,12.1045534 0.252001886,11.8518741 0.562861967,11.8518741 L32.4771355,11.8518741 C32.7879956,11.8518741 33.0399975,12.1045534 33.0399975,12.416249 C33.0399975,12.7279447 32.7879956,12.980624 32.4771355,12.980624 Z" id="Path" fill-rule="nonzero"></path>
            <path d="M21.8399983,0.564374957 L21.8399983,6.4593745 C21.8337781,8.811613 19.9166811,10.7169422 17.5499144,10.7231242 L16.0387635,10.7231242 C13.6777031,10.7077242 11.7692562,8.80597432 11.7599991,6.4593745 L11.7599991,0.564374957 L21.8399983,0.564374957 Z" id="Path" fill-rule="nonzero"></path>
            <path d="M17.5395148,11.2874991 L16.0322568,11.2874991 C13.3629389,11.2781955 11.2030904,9.12031797 11.1999991,6.45963805 L11.1999991,3.46944695e-18 L22.3999983,3.46944695e-18 L22.3999983,6.45963805 C22.3985034,7.7425322 21.8853971,8.97220739 20.9737164,9.87776662 C20.0620357,10.7833259 18.8265782,11.2904738 17.5395148,11.2874991 Z M12.3199991,1.12874991 L12.3199991,6.45903593 C12.3231197,8.50324034 13.9911437,10.1587492 16.0476755,10.1587492 L17.5579785,10.1587492 C19.6123016,10.1556529 21.2768834,8.50104725 21.2799984,6.45903593 L21.2799984,1.12874991 L12.3199991,1.12874991 Z" id="Shape" fill-rule="nonzero"></path>
            <path d="M21.8399983,7.90124939 L21.8399983,6.8091624 C23.4158163,6.74226858 24.6579236,5.48225978 24.6579236,3.9506247 C24.6579236,2.41898962 23.4158163,1.15898082 21.8399983,1.09208699 L21.8399983,3.46944695e-18 C24.0281249,0.0790065065 25.759998,1.8244099 25.759998,3.9506247 C25.759998,6.07683949 24.0281249,7.82224289 21.8399983,7.90124939 L21.8399983,7.90124939 Z" id="Path" fill-rule="nonzero"></path>
          </g>
        </g>
        <g id="Group" stroke-width="1" fill-rule="evenodd" transform="translate(17.000000, 62.499999)">
          <path d="M20.983768,103.499997 C22.1817384,101.263871 24.8584311,95.8795585 29.0138459,87.34706 C29.1797394,87.0063734 29.1797394,87.0063734 29.3456102,86.6655063 C34.9593147,75.1271032 37.5911105,69.3042377 38.3884327,66.0961883 C41.1682487,55.0212559 35.329645,46.0445736 24.3712702,46.0445736 L14.0178377,46.0445736 C12.5968295,46.0445736 11.3904158,47.0858679 11.1827584,48.4916213 L2.98376797,103.499997 L20.983768,103.499997 Z" id="Path" fill="#EC0D79" fill-rule="nonzero"></path>
          <path d="M42.7035782,35.6001619 L42.7035782,0.0272962577 L20.7230044,0.0272962577 C9.20915388,0.266069556 7.10542736e-13,9.66818216 7.10542736e-13,21.1845083 C7.10542736e-13,32.7008344 9.20915388,42.102947 20.7230044,42.3417203 L49.4360387,42.3417203 C47.6489017,42.3417203 45.9350938,41.6311624 44.6722507,40.3666128 C43.4094076,39.1020631 42.7011631,37.3872972 42.7035782,35.6001619 L42.7035782,35.6001619 Z" id="Path" fill="#221F1F" fill-rule="nonzero"></path>
          <path d="M26.1180708,3.44811153 C21.7161678,3.44569872 17.4938615,5.19327827 14.3812456,8.30589418 C11.2686297,11.4185101 9.5210501,15.6408164 9.52346541,20.0427194 C7.96582632,20.0427194 6.70311034,21.3054353 6.70311034,22.8630744 C6.70311034,24.4207135 7.96582632,25.6834295 9.52346541,25.6834295 C9.38248786,31.7031052 12.5133393,37.32684 17.7043037,40.3781115 C22.8952682,43.4293829 29.3317754,43.4293829 34.5227398,40.3781115 C39.7137043,37.32684 42.8445557,31.7031052 42.7035782,25.6834295 L42.7035782,3.44811153 L26.1180708,3.44811153 Z" id="Path" fill="#D2D3D3" fill-rule="nonzero"></path>
          <path d="M42.721814,25.6834295 L42.721814,17.7682395 L34.4335693,17.7682395 C31.1776011,17.7682395 28.5381174,20.4077232 28.5381174,23.6636914 L28.5381174,29.5773391 L26.1180708,29.5773391 L26.1180708,42.3144291 C30.5271225,42.3168544 34.7558897,40.5645713 37.8709992,37.4443411 C40.9861087,34.3241109 42.7314437,30.0924714 42.721814,25.6834295 Z" id="Path" fill="#A8AAAC" fill-rule="nonzero"></path>
          <path d="M19.9314854,33.0072548 C23.3562231,36.4304763 28.9072121,36.4304763 32.3319498,33.0072548 L19.9314854,33.0072548 Z" id="Path" fill="#A8AAAC" fill-rule="nonzero"></path>
          <circle id="Oval" fill="#221F1F" fill-rule="nonzero" cx="19.2309456" cy="24.7645396" r="1.62852761"></circle>
          <circle id="Oval" fill="#221F1F" fill-rule="nonzero" cx="33.9422816" cy="24.7645396" r="1.62852761"></circle>
          <path d="M30.6670306,2.49892592e-06 L30.6670306,11.9637668 C37.3447801,11.9637668 42.7581657,17.3771524 42.7581657,24.0549019 L42.7581657,2.49892592e-06 L30.6670306,2.49892592e-06 Z" id="Path" fill="#221F1F" fill-rule="nonzero"></path>
          <path d="M26.199952,3.44811403 C21.7996252,3.44811403 17.5796571,5.19675885 14.4690095,8.30911284 C11.3583618,11.4214668 9.61203082,15.6423932 9.61444461,20.0427194 L9.54166125,20.0427194 C13.7994876,21.1799593 20.1043459,20.1246006 26.199952,18.5324647 C34.579136,16.348964 41.9575488,11.9091793 42.721774,3.44811403 L26.199952,3.44811403 Z" id="Path" fill="#221F1F" fill-rule="nonzero"></path>
          <path d="M9.54166125,20.0427194 C9.53924767,15.6439691 11.28433,11.4244215 14.39301,8.31232915 C17.5016899,5.20023682 21.7193205,3.45052628 26.1180708,3.44811403 L42.7035782,3.44811403 L42.7035782,3.55271368e-15 L26.1180708,3.55271368e-15 C21.7177446,-0.00241128431 17.4968182,1.74391972 14.3844642,4.85456738 C11.2721102,7.96521504 9.52346541,12.1851831 9.52346541,16.5855099 L9.54166125,20.0427194 Z" id="Path" fill="#EC0D79" fill-rule="nonzero"></path>
          <path d="M14.0178377,48.9104183 L14.0178377,69.5444999 C14.0178377,85.0555705 26.5920449,97.6297777 42.1031155,97.6297777 L59.3891627,97.6297777" id="Path" stroke="#D2D3D3" stroke-width="5.9409415" stroke-linecap="round" stroke-linejoin="round"></path>
          <path d="M11.0519159,69.6735562 L11.0519159,49.0394746 C10.9909896,47.9389999 11.5434563,46.8950176 12.4876337,46.3264354 C13.431811,45.7578532 14.6129623,45.7578532 15.5571396,46.3264354 C16.501317,46.8950176 17.0537837,47.9389999 16.9928574,49.0394746 L16.9928574,69.6735562 L11.0519159,69.6735562 Z" id="Path" fill="#EC0D79" fill-rule="nonzero"></path>
          <polygon id="Path" fill="#81409A" fill-rule="nonzero" points="50.5095932 92.953447 61.3634113 92.953447 62.8827638 75.4399518 48.9902406 75.4399518"></polygon>
          <polygon id="Path" stroke="#B3B3B3" stroke-width="1.63762553" fill="#B3B3B3" fill-rule="nonzero" points="62.3732803 72.8015551 61.3088238 70.6362502 50.5186911 70.6362502 49.4451366 72.8015551 47.6892381 72.8015551 47.6892381 75.4399518 64.1837663 75.4399518 64.1837663 72.8015551"></polygon>
        </g>
        <path d="M282.7856,97.8689328 L282.7856,88.2760876 C282.7856,84.4560451 285.944,81.3310183 289.802553,81.3310183 L292.27211,81.3310183 C296.131691,81.3310183 299.289063,84.4560451 299.289063,88.2760876 L299.289063,97.8689328 L282.7856,97.8689328 Z" id="Fill-35" fill="#E0E2E4" fill-rule="evenodd" transform="translate(291.037332, 89.599976) scale(-1, 1) translate(-291.037332, -89.599976) "></path>
        <path d="M282.7856,97.8689328 L282.7856,88.2760876 C282.7856,84.4560451 285.944,81.3310183 289.802553,81.3310183 L292.27211,81.3310183 C296.131691,81.3310183 299.289063,84.4560451 299.289063,88.2760876 L299.289063,97.8689328 L282.7856,97.8689328 Z" id="Stroke-37" stroke="#E0E2E4" stroke-width="2.51999996" transform="translate(291.037332, 89.599976) scale(-1, 1) translate(-291.037332, -89.599976) "></path>
        <path d="M304.94375,97.8333171 C301.759647,97.8333171 299.178025,95.2781421 299.178025,92.1266579 C299.178025,88.9741561 301.759647,86.4189812 304.94375,86.4189812" id="Stroke-39" stroke="#E0E2E4" stroke-width="2.51999996" transform="translate(302.060888, 92.126149) scale(-1, 1) translate(-302.060888, -92.126149) "></path>
        <path d="M281.45123,84.5200189 L282.890605,75.0330033 C283.464299,71.2556997 287.056567,68.6292933 290.872967,69.1971099 L293.314764,69.5593729 C297.131164,70.1271895 299.784755,73.682658 299.211061,77.4599616 L297.771686,86.9469772 L281.45123,84.5200189 Z" id="Fill-41" fill="#8241AA" fill-rule="evenodd" transform="translate(290.370146, 78.033442) scale(-1, 1) translate(-290.370146, -78.033442) "></path>
        <path d="M281.45123,84.5200189 L282.890605,75.0330033 C283.464299,71.2556997 287.056567,68.6292933 290.872967,69.1971099 L293.314764,69.5593729 C297.131164,70.1271895 299.784755,73.682658 299.211061,77.4599616 L297.771686,86.9469772 L281.45123,84.5200189 Z" id="Stroke-43" stroke="#8241AA" stroke-width="2.51999996" transform="translate(290.370146, 78.033442) scale(-1, 1) translate(-290.370146, -78.033442) "></path>
        <path d="M302.201741,84.5414841 C299.052594,84.0733915 296.88325,81.1671471 297.356188,78.0502611 C297.829125,74.933375 300.766478,72.7862547 303.915625,73.2543473" id="Stroke-45" stroke="#8241AA" stroke-width="2.51999996" transform="translate(300.603540, 78.865881) scale(-1, 1) translate(-300.603540, -78.865881) "></path>
        <g id="swatch/dusk" stroke-width="1" fill-rule="evenodd" transform="translate(262.500000, 133.147685) scale(-1, 1) translate(-262.500000, -133.147685) translate(218.000000, 99.647685)">
          <mask id="mask-2" fill="white">
            <use xlink:href="#path-1"></use>
          </mask>
          <use id="Mask" fill="#B73895" xlink:href="#path-1"></use>
          <g id="swatch/tertiary_rogue" mask="url(#mask-2)" fill="#B93499">
            <g transform="translate(0.000000, -0.508796)">
              <polygon points="0 0 87.9999985 0 87.9999985 66.9999989 0 66.9999989"></polygon>
            </g>
          </g>
        </g>
        <g id="illustration/product/scene-elements/cup-mug-silhouette-2" stroke-width="1" fill-rule="evenodd" transform="translate(219.400001, 156.399999) scale(-1, 1) translate(-219.400001, -156.399999) translate(203.900001, 143.899999)"></g>
        <g id="illustration/product/scene-elements/Sun" transform="translate(211.000000, 0.000000)" fill-rule="evenodd" stroke-width="1">
          <g id="Combined-Shape">
            <g id="Mask">
              <mask id="mask-4" fill="white">
                <use xlink:href="#path-3"></use>
              </mask>
              <use fill="#FFFFFF" xlink:href="#path-3"></use>
            </g>
          </g>
        </g>
        <g id="Group-2" stroke-width="1" fill-rule="evenodd" transform="translate(212.000000, 141.500000) scale(-1, 1) translate(-212.000000, -141.500000) translate(203.000000, 130.000000)" fill="#F0F1F3">
          <path d="M17.0987466,4.89970825 C17.0987466,7.6065045 14.8821091,9.80043409 12.1472967,9.80043409 C9.41248421,9.80043409 7.19687488,7.6065045 7.19687488,4.89970825 C7.19687488,2.19392959 9.41248421,0 12.1472967,0 C14.8821091,0 17.0987466,2.19392959 17.0987466,4.89970825" id="Fill-25"></path>
          <path d="M10.8919561,17.0925025 C10.8919561,20.0699784 8.45324361,22.483708 5.44597803,22.483708 C2.43768433,22.483708 0,20.0699784 0,17.0925025 C0,14.1160442 2.43768433,11.7023146 5.44597803,11.7023146 C8.45324361,11.7023146 10.8919561,14.1160442 10.8919561,17.0925025" id="Fill-27"></path>
        </g>
        <path d="M226.300001,142.842131 L226.300001,156.241921 C226.300001,161.57597 222.013133,165.94213 216.775954,165.94213 L213.424048,165.94213 C208.185473,165.94213 203.900001,161.57597 203.900001,156.241921 L203.900001,142.842131 L226.300001,142.842131 Z" id="Fill-29" fill="#E0E2E4" fill-rule="evenodd"></path>
        <path d="M225.600001,145.642131 L225.600001,142.842131 C230.58845,142.842131 234.700001,146.916299 234.700001,151.94213 C234.700001,156.967712 230.588703,161.04213 225.600001,161.04213 L223.500001,161.04213 L223.500001,158.24213 L225.600001,158.24213 C229.162337,158.482755 232.117372,155.554227 231.900001,151.94213 C232.117372,148.329853 229.162155,145.401506 225.600001,145.642131 Z" id="Stroke-33" fill="#E0E2E4" fill-rule="nonzero"></path>
      </g>
    </g>
  </g>
</svg>
