<svg width="329" height="209" xmlns="http://www.w3.org/2000/svg" xmlns:xlink="http://www.w3.org/1999/xlink">
  <defs>
    <path d="M5.643 22.293c2.078 0 3.763-1.663 3.763-3.715v-7.431C9.406 4.99 14.459 0 20.693 0c6.233 0 11.286 4.99 11.286 11.147a1.87 1.87 0 001.882 1.857h9.405c4.156 0 7.525 3.328 7.525 7.431a1.87 1.87 0 001.881 1.858H82.3c3.117 0 5.643 2.496 5.643 5.573 0 3.078-2.526 5.574-5.643 5.574H5.643C2.527 33.44 0 30.944 0 27.866c0-3.077 2.527-5.573 5.643-5.573" id="b"/>
    <path d="M44.195 10.284C41.95 4.28 36.115 0 29.267 0 22.421 0 16.585 4.28 14.34 10.284H0v42.5h58.534v-42.5H44.195z" id="d"/>
    <path d="M48.38 63.838h.427V.018H14.318C6.44.019.054 6.554.054 14.614v49.225H48.38z" id="f"/>
    <path d="M41.488 32.521h.22V0H7.399C3.314 0 0 3.33 0 7.436v25.085h41.488z" id="h"/>
    <path d="M70.995 17.478c-.183 0-.36.02-.542.028C69.452 7.672 61.144 0 51.043 0c-9.222 0-16.932 6.405-18.967 15.004a12.233 12.233 0 00-7.118-2.28c-6.768 0-12.256 5.464-12.297 12.22a8.93 8.93 0 00-3.694-.801 8.966 8.966 0 100 17.93h62.028c6.794 0 12.3-5.505 12.3-12.297 0-6.792-5.506-12.298-12.3-12.298" id="j"/>
    <path d="M5.956 23.827a3.97 3.97 0 003.97-3.97V11.913C9.926 5.334 15.26 0 21.837 0 28.415 0 33.75 5.334 33.75 11.914c0 1.097.889 1.985 1.985 1.985h9.926a7.942 7.942 0 017.941 7.943c0 1.096.888 1.985 1.985 1.985h31.267a5.956 5.956 0 015.956 5.957 5.956 5.956 0 01-5.956 5.957H5.956a5.957 5.957 0 010-11.914" id="l"/>
    <linearGradient x1="50%" y1="0%" x2="50%" y2="89.089%" id="a">
      <stop stop-color="#DCDFE1" offset="0%"/>
      <stop stop-color="#FFF" stop-opacity=".5" offset="100%"/>
    </linearGradient>
  </defs>
  <g fill="none" fill-rule="evenodd">
    <path d="M308.266 120.75c0 34.654-28.178 62.748-62.937 62.748s-62.938-28.094-62.938-62.749S210.57 58 245.329 58"/>
    <path d="M125.875 62.75c0 34.654-28.178 62.748-62.937 62.748C28.178 125.498 0 97.404 0 62.75S28.179 0 62.938 0c34.76 0 62.937 28.094 62.937 62.75" fill="url(#a)" transform="translate(182.391 58)"/>
    <g transform="translate(225.396 88.26)">
      <mask id="c" fill="#fff">
        <use xlink:href="#b"/>
      </mask>
      <use fill="#FFF" xlink:href="#b"/>
      <g mask="url(#c)" fill="#E8EAEC">
        <path d="M0 0h88.594v34.23H0z"/>
      </g>
    </g>
    <path fill="#E8EAEC" d="M198.7 107.944l-27.658 27.48v72.855h55.316v-72.855z"/>
    <path d="M186.933 136.08c-2.78 0-5.035 2.239-5.035 4.999v10.697h10.07v-10.697c0-2.76-2.253-4.999-5.035-4.999M200.55 136.08c-2.782 0-5.037 2.239-5.037 4.999v10.697h10.071v-10.697c0-2.76-2.254-4.999-5.035-4.999M214.165 136.08c-2.781 0-5.036 2.239-5.036 4.999v10.697h10.07v-10.697c0-2.76-2.253-4.999-5.034-4.999M188.897 177.675c-4.805 0-8.701 3.867-8.701 8.638v21.938h17.403v-21.938c0-4.771-3.896-8.638-8.702-8.638" fill="#C5C9CE"/>
    <path d="M214.97 196.453c0 3.088-2.52 5.592-5.632 5.592-3.111 0-5.633-2.504-5.633-5.592 0-3.088 2.522-9.409 5.633-9.409s5.633 6.32 5.633 9.409" fill="#EC0677"/>
    <path fill="#FFF" d="M212.411 208.251h-6.147l-1.085-6.57h8.317z"/>
    <path fill="#C5C9CE" d="M213.022 205.155l.474-2.875h-8.317l.475 2.875z"/>
    <path d="M213.23 203.485h-7.785a.485.485 0 01-.487-.483v-1.547c0-.267.218-.483.487-.483h7.786c.268 0 .486.216.486.483v1.547a.485.485 0 01-.486.483" fill="#FFF"/>
    <g style="mix-blend-mode:multiply">
      <path fill="#E8EAEC" d="M219.29 207.484h50.61v-42.966h-50.61z"/>
      <path fill="#E8EAEC" d="M215.179 164.55h58.578v-9.827H215.18z"/>
      <path fill="#C5C9CE" d="M219.29 169.43h50.61v-4.912h-50.61z"/>
      <path fill="#DCDFE1" d="M256.61 159.363h5.624V145.56h-5.623z"/>
      <path fill="#C5C9CE" d="M249.969 207.492h12.83v-21.49h-12.83zM228.778 200.273h18.977v-14.271h-18.977z"/>
    </g>
    <g>
      <g transform="translate(269.727 154.096)">
        <mask id="e" fill="#fff">
          <use xlink:href="#d"/>
        </mask>
        <use fill="#B93499" xlink:href="#d"/>
        <g mask="url(#e)" fill="#B93499">
          <path d="M-6.629-.313h65.44v53.358H-6.63z"/>
        </g>
      </g>
      <path fill="#E0E2E4" style="mix-blend-mode:multiply" d="M275.725 206.897h32.444v-16.86h-32.444zM312.024 206.897h12.805v-16.86h-12.805z"/>
      <path fill="#DCDFE1" d="M277.618 182.44h50.51l.116-7.405h-50.508z"/>
      <path fill="#FFF" d="M321.633 184.952h-58.534l6.512-9.917h58.534z"/>
    </g>
    <g>
      <path d="M134.167 81.51c-1.86 0-3.368 1.491-3.368 3.331v8.647c0 1.84 1.508 3.332 3.368 3.332h11.888v7.174h2.774V96.82h10.323c1.86 0 3.39-1.492 3.39-3.332V81.51h-28.375z" fill="#C0C5CA"/>
      <path fill="#687480" d="M124.698 116.29h47.069v-12.265h-47.07zM124.698 131.386h47.069v-12.265h-47.07zM124.698 146.482h47.069v-12.266h-47.07zM124.698 161.577h47.069v-12.265h-47.07zM124.698 176.673h47.069v-12.265h-47.07zM124.698 192.083h47.069v-12.265h-47.07zM124.698 207.178h47.069v-12.265h-47.07z"/>
      <path d="M134.167 81.51c-1.86 0-3.368 1.491-3.368 3.332v8.646c0 1.841 1.508 3.333 3.368 3.333h24.985c1.86 0 3.39-1.492 3.39-3.333V81.51"/>
      <path d="M144.97 82.922c-1.237-.874-2.863-1.192-4.627-.724-3.554.942-5.18 4.018-4.294 7.284l2.013 7.428 1.084-.287c.725-.24 2.083-.987 1.556-3.129l-1.347-4.97c-.391-1.445.373-2.716 1.86-3.11 2.192-.581 2.885 1.079 3.081 1.802l2.033 7.503 1.085-.287c.723-.24 2.072-.984 1.562-3.106l-1.353-4.992c-.392-1.446.396-2.724 1.859-3.112 2.192-.58 2.91 1.073 3.106 1.795l2.033 7.504 1.083-.287c.729-.241 2.098-.995 1.548-3.163l-1.316-4.86c-.913-3.366-3.697-5.166-7.326-4.204-1.69.447-2.961 1.533-3.64 2.915" fill="#F0F1F3"/>
    </g>
    <g style="mix-blend-mode:multiply">
      <g transform="translate(79.615 144.296)">
        <mask id="g" fill="#fff">
          <use xlink:href="#f"/>
        </mask>
        <use fill="#EC0677" xlink:href="#f"/>
        <g mask="url(#g)" fill="#B93499">
          <path d="M0 0h49.33v64.432H0z"/>
        </g>
      </g>
      <path fill="#969EA7" opacity=".5" style="mix-blend-mode:multiply" d="M107.105 165.143h14.37v-8.576h-14.37zM107.105 180.825h14.37v-8.577h-14.37zM107.105 208.135h14.37v-22.41h-14.37z"/>
    </g>
    <g>
      <path d="M38 175.275h41.708v32.52H38z"/>
      <g transform="translate(38 175.275)">
        <mask id="i" fill="#fff">
          <use xlink:href="#h"/>
        </mask>
        <use fill="#B93499" style="mix-blend-mode:multiply" xlink:href="#h"/>
        <g mask="url(#i)" fill="#E8EAEC">
          <path d="M0 0h42.284v33.223H0z"/>
        </g>
      </g>
      <path d="M73.564 207.933h.108V187.63h-8.734c-1.996 0-3.613 1.626-3.613 3.632v16.672h12.239z" fill="#E0E2E4" style="mix-blend-mode:multiply"/>
    </g>
    <g>
      <g transform="translate(15.667)">
        <mask id="k" fill="#fff">
          <use xlink:href="#j"/>
        </mask>
        <use fill="#DCDFE1" xlink:href="#j"/>
        <g mask="url(#k)" fill="#C5C9CE">
          <path d="M0 0h83.838v42.424H0z"/>
        </g>
      </g>
      <g transform="matrix(-1 0 0 1 93 14)">
        <mask id="m" fill="#fff">
          <use xlink:href="#l"/>
        </mask>
        <use fill="#FFF" xlink:href="#l"/>
        <g mask="url(#m)" fill="#F3F4F5">
          <path d="M0 0h93.94v36.364H0z"/>
        </g>
      </g>
    </g>
  </g>
</svg>
