<svg xmlns="http://www.w3.org/2000/svg" viewBox="0 0 508.34 375.48"><defs><style>.cls-3{font-size:31.5px;font-family:Helvetica-Bold,Helvetica;font-weight:700}</style></defs><g id="Layer_2" data-name="Layer 2"><g id="Layer_1-2" data-name="Layer 1"><g id="Symbols"><path id="Rectangle" fill="#fff" d="M100.34 7.48h408v128h-408z"/><path d="M508.34 7.48v128h-408v-128zm-4 4h-400v120h400z" fill-rule="evenodd" fill="#162756"/><text class="cls-3" transform="translate(308.44 61.66)">123456</text><path id="BillerCode:" d="M136.22 61.79a16.24 16.24 0 003.22-.3 6.32 6.32 0 004.17-2.91 6.57 6.57 0 001-3.61 6 6 0 00-.88-3.31 5 5 0 00-2.61-2 5.4 5.4 0 001.72-1.29 5.05 5.05 0 001-3.32 5.76 5.76 0 00-1-3.45q-1.74-2.36-5.89-2.41H126v22.6zM136 48.11h-5.55v-5h5a8.56 8.56 0 012.7.36 2 2 0 011.22 2.08 2.16 2.16 0 01-.92 2 4.69 4.69 0 01-2.42.56zm0 9.76h-5.55v-6h5.63a5.73 5.73 0 012.28.38 2.43 2.43 0 011.46 2.42 2.84 2.84 0 01-1.5 2.82 5.43 5.43 0 01-2.32.4zm16.68-14.78v-4h-4.43v4zm0 18.7v-16.7h-4.43v16.7zm8.69 0V39.2H157v22.59zm8.72 0V39.2h-4.37v22.59zm11 .56a7.61 7.61 0 006-2.44 5.59 5.59 0 001.55-3h-4.47a3.56 3.56 0 01-.81 1.15 3.13 3.13 0 01-2.19.77 3.73 3.73 0 01-2.18-.63 4.19 4.19 0 01-1.58-3.53h11.44a22.64 22.64 0 00-.14-3.31 8.4 8.4 0 00-1.27-3.45 6.66 6.66 0 00-2.76-2.47 8.78 8.78 0 00-3.76-.78 7.51 7.51 0 00-5.65 2.34q-2.19 2.31-2.19 6.65c0 3.09.81 5.31 2.43 6.68a8.49 8.49 0 005.63 2.02zm3.23-10.58h-6.79a4.75 4.75 0 011-2.58 3 3 0 012.35-.95 3.26 3.26 0 012.34.9 3.79 3.79 0 011.05 2.63zm11.84 10v-8a6.7 6.7 0 01.5-3q.91-1.71 3.54-1.71h.52l.74.06v-4.4H200.88a4.83 4.83 0 00-3.19 1A9.11 9.11 0 00196 48v-2.91h-4.17v16.7zm26.41.63a9.2 9.2 0 006.46-2.31 10.15 10.15 0 003.13-6h-4.67a7.12 7.12 0 01-1.2 2.62 4.58 4.58 0 01-3.78 1.63 5 5 0 01-4-1.9 8.8 8.8 0 01-1.51-5.68 10 10 0 011.49-5.88 4.71 4.71 0 014.06-2.08 4.81 4.81 0 013.82 1.47 6.48 6.48 0 011.18 2.46h4.72a8.1 8.1 0 00-1.56-4.22q-2.64-3.73-8.34-3.74a9.46 9.46 0 00-7 2.79q-3.18 3.21-3.18 9.12 0 5.48 2.79 8.62a9.77 9.77 0 007.64 3.12zm20.35 0q4.32 0 6.43-2.62a10.4 10.4 0 000-12.56q-2.11-2.66-6.43-2.65t-6.42 2.65a10.4 10.4 0 000 12.56q2.17 2.61 6.5 2.6zm0-3.67a3.47 3.47 0 01-3-1.36 6.31 6.31 0 01-1-3.88 6.3 6.3 0 011-3.87 3.87 3.87 0 015.89 0 6.3 6.3 0 011 3.87 6.31 6.31 0 01-1 3.88 3.44 3.44 0 01-2.81 1.34zm17.54 3.61a6 6 0 003-.68 6.12 6.12 0 002.13-2.16v2.31h4.25V39.23h-4.43v8a5.32 5.32 0 00-1.92-1.85 5.45 5.45 0 00-2.7-.66 6.4 6.4 0 00-5.26 2.45 10.43 10.43 0 00-2 6.73 9.07 9.07 0 002 6.08 6.19 6.19 0 004.97 2.34zm1.25-3.68a3.08 3.08 0 01-2.71-1.41 6.65 6.65 0 01-.92-3.7A6.72 6.72 0 01259 50a3.09 3.09 0 012.81-1.45 3.34 3.34 0 012.21.8c1 .88 1.55 2.34 1.55 4.39a6 6 0 01-1 3.57 3.22 3.22 0 01-2.82 1.33zm18.81 3.71a7.6 7.6 0 006-2.44 5.53 5.53 0 001.55-3h-4.46a3.73 3.73 0 01-.82 1.15 3.13 3.13 0 01-2.19.77 3.68 3.68 0 01-2.17-.63 4.14 4.14 0 01-1.58-3.53h11.43a21.3 21.3 0 00-.14-3.31 8.26 8.26 0 00-1.27-3.45 6.54 6.54 0 00-2.76-2.47 8.74 8.74 0 00-3.75-.78A7.49 7.49 0 00274.7 47q-2.2 2.31-2.2 6.65c0 3.09.81 5.31 2.43 6.68a8.51 8.51 0 005.63 2.02zm3.24-10.58H277a4.9 4.9 0 011.05-2.58 3 3 0 012.36-.95 3.26 3.26 0 012.34.9 3.88 3.88 0 011.05 2.63zm13.64-1.46v-4.58h-4.65v4.56zm0 11.48v-4.58h-4.65v4.56z"/><text class="cls-3" transform="translate(192.86 101.12)">12345678</text><path id="Ref:" d="M130.63 101.26V92.4h4.87a4.22 4.22 0 012.85.72 4.13 4.13 0 01.79 2.88v2.1a10.57 10.57 0 00.2 2c.06.3.16.71.3 1.21h5.2v-.57a1.9 1.9 0 01-.84-1.34 11.89 11.89 0 01-.12-2.1v-1.52a7.48 7.48 0 00-.65-3.53 4.24 4.24 0 00-2.23-1.79 4.55 4.55 0 002.69-2.19 6.82 6.82 0 00.81-3.17 6.35 6.35 0 00-.43-2.38 7.32 7.32 0 00-1.17-1.9 5.72 5.72 0 00-2.17-1.58 10.46 10.46 0 00-3.65-.58H126v22.6zm5.37-12.6h-5.35v-6.07h5.49a5.26 5.26 0 012.3.39 2.81 2.81 0 011.36 2.76 2.52 2.52 0 01-1.41 2.55 6 6 0 01-2.39.37zm19 13.15a7.56 7.56 0 006-2.44 5.53 5.53 0 001.55-3h-4.46a3.89 3.89 0 01-.81 1.15 3.17 3.17 0 01-2.2.77 3.7 3.7 0 01-2.17-.63 4.16 4.16 0 01-1.58-3.53h11.43a22.92 22.92 0 00-.13-3.31 8.41 8.41 0 00-1.28-3.45 6.51 6.51 0 00-2.76-2.46 8.59 8.59 0 00-3.75-.79 7.51 7.51 0 00-5.71 2.32q-2.21 2.31-2.2 6.65c0 3.09.81 5.31 2.44 6.68a8.46 8.46 0 005.63 2.04zm3.24-10.58h-6.79a4.68 4.68 0 011.05-2.57 2.93 2.93 0 012.35-1 3.25 3.25 0 012.34.89 3.9 3.9 0 011.05 2.63zm12.55 10V87.78h2.87V84.7h-2.87v-1.41a1.39 1.39 0 01.33-.9 1.45 1.45 0 011.2-.38c.57 0 1 0 1.23.07v-3.56l-.92-.07h-.75q-3.63 0-4.58 1.5c-.61.68-.91 1.91-.91 3.7v1.05H164v3.08h2.44v13.48zm11.51-11.46v-4.56h-4.64v4.56zm0 11.49v-4.57h-4.64v4.57z"/><g id="Group-8" fill-rule="evenodd"><path id="Fill-2" d="M96.11 136.21a4.61 4.61 0 01-4.61 4.61H5.72a4.62 4.62 0 01-4.61-4.61V5.72a4.61 4.61 0 014.61-4.6H91.5a4.6 4.6 0 014.61 4.6z" fill="#0a2752"/><path id="Fill-4" d="M90.65 133a2.16 2.16 0 01-2.34 2.34H8.63a2.16 2.16 0 01-2-2.15V35.51h24.2l-9.76 3.55v53.51a2.16 2.16 0 002.1 2.4h32.9a20.9 20.9 0 0010.55-38.54A19.24 19.24 0 0073 42.73C73 28.88 63.19 21 49.16 21H35.52V6.59h52.79a2.12 2.12 0 012.34 2.33zM6.6 8.76a2.16 2.16 0 012-2.17h12.47V21H6.6zm28.7 26.35H51a7.61 7.61 0 017.45 7.63A7.45 7.45 0 0151 50.2l-2.72.14A2.14 2.14 0 0046 52.6v9.16A2.18 2.18 0 0048.41 64h6.75a8.07 8.07 0 01.71 16.12H37.6a2.19 2.19 0 01-2.3-2.31zM92.62 0H4.6A4.6 4.6 0 000 4.61v132.71a4.6 4.6 0 004.6 4.61h88a4.61 4.61 0 004.61-4.61V4.61A4.61 4.61 0 0092.62 0zM44 117.28l3.9-11 4.13 11zm6.87-13.93a1.42 1.42 0 00-1.57-1h-2.8a1.41 1.41 0 00-1.57 1c-.27.6-8.11 21.82-8.11 21.82s-.46.91.72.91h2a1.33 1.33 0 001.45-.94c.26-.74 1.43-4 1.43-4h11s1.17 3.25 1.43 4a1.33 1.33 0 001.45.94h2c1.18 0 .71-.91.71-.91s-7.83-21.22-8.1-21.82zm-20.38 10.41H25v-7.51h5.53a3.76 3.76 0 110 7.51zm.07-11.4h-8.64c-.75 0-.85.62-.85 1v21.86a.82.82 0 00.92.86h2.21a.76.76 0 00.76-.71v-7.83h5.6a7.59 7.59 0 000-15.18zm44.17 0h-2.26a1.35 1.35 0 00-1.45 1l-1.08 1.93-4.3 7.62-4.31-7.62-1.08-1.93a1.34 1.34 0 00-1.45-1h-2.26c-1.26 0-.72.92-.72.92s4.38 7.75 7.89 14c0 0-.05 7.45-.05 8a.76.76 0 00.84.85h2c.37 0 1 0 1-.82v-8c3.51-6.26 7.88-14 7.88-14s.47-.92-.71-.92z" fill="#fffffe"/></g><path d="M18.15 177.58v-16.27h5.92v-3.5h-16v3.5H14v16.27zm10.07.48a6.63 6.63 0 005.25-2.13 4.87 4.87 0 001.36-2.65h-3.9a3.39 3.39 0 01-.71 1 2.76 2.76 0 01-1.92.67 3.26 3.26 0 01-1.91-.55 3.67 3.67 0 01-1.39-3.07h10a20.46 20.46 0 00-.12-2.9 7.26 7.26 0 00-1.12-3 5.8 5.8 0 00-2.41-2.16 7.77 7.77 0 00-3.29-.68 6.57 6.57 0 00-5 2 8.1 8.1 0 00-1.93 5.82q0 4.05 2.13 5.85a7.44 7.44 0 004.96 1.8zm2.83-9.26h-5.94a4.19 4.19 0 01.91-2.25 2.62 2.62 0 012.06-.83 2.86 2.86 0 012.05.78 3.38 3.38 0 01.92 2.3zM42 177.58v-19.77h-3.84v19.77zm9.83.48a6.65 6.65 0 005.26-2.13 4.91 4.91 0 001.35-2.65h-3.9a3.22 3.22 0 01-.71 1 2.72 2.72 0 01-1.92.67 3.2 3.2 0 01-1.9-.55 3.65 3.65 0 01-1.39-3.08h10a19 19 0 00-.12-2.9 7.39 7.39 0 00-1.11-3 5.82 5.82 0 00-2.39-2.17 7.73 7.73 0 00-3.28-.68 6.58 6.58 0 00-5 2 8.14 8.14 0 00-1.93 5.82c0 2.7.72 4.65 2.14 5.85a7.4 7.4 0 004.88 1.82zm2.83-9.26H48.7a4.12 4.12 0 01.92-2.25 2.6 2.6 0 012.06-.83 2.86 2.86 0 012 .78 3.33 3.33 0 01.92 2.3zm10.74 14.53v-7.62a5.52 5.52 0 001.24 1.41 4.64 4.64 0 002.89.87A5.63 5.63 0 0074 176a8.86 8.86 0 001.73-5.89 7.84 7.84 0 00-1.73-5.58 5.75 5.75 0 00-4.34-1.89 4.82 4.82 0 00-3 1 6 6 0 00-1.32 1.51V163h-3.72v20.37zm3.13-8.54a3.05 3.05 0 01-1.91-.61 4.24 4.24 0 01-1.35-3.58 7.39 7.39 0 01.4-2.65 2.85 2.85 0 012.86-2 2.69 2.69 0 012.5 1.31 6.51 6.51 0 01-.07 6.27 2.75 2.75 0 01-2.43 1.26zm14 2.79v-7.92a4.6 4.6 0 01.79-2.89 2.74 2.74 0 012.3-1 2 2 0 012 1 3.88 3.88 0 01.4 1.9v8.9h3.91V169a20.42 20.42 0 00-.14-2.82 3.78 3.78 0 00-.73-1.68 4.28 4.28 0 00-1.82-1.44 6.31 6.31 0 00-2.46-.47 5.5 5.5 0 00-2.3.5 4.76 4.76 0 00-1.93 1.78v-7H78.7v19.71zm19.57.51a6.83 6.83 0 005.62-2.29 9.09 9.09 0 000-11 6.76 6.76 0 00-5.62-2.32 6.73 6.73 0 00-5.62 2.32 9.09 9.09 0 000 11 6.8 6.8 0 005.6 2.29zm0-3.21a3.07 3.07 0 01-2.58-1.19 5.57 5.57 0 01-.9-3.4 5.51 5.51 0 01.9-3.38 3.39 3.39 0 015.16 0 5.51 5.51 0 01.9 3.38 5.57 5.57 0 01-.9 3.4 3 3 0 01-2.62 1.19zm14.14 2.7v-7.92a5.46 5.46 0 01.38-2.22 2.65 2.65 0 012.66-1.65 2.17 2.17 0 012.15 1.12 4 4 0 01.31 1.77v8.9h3.92v-9.85a4.82 4.82 0 00-1.45-3.93 5.58 5.58 0 00-3.71-1.19 4.86 4.86 0 00-3 .88 6.68 6.68 0 00-1.39 1.63V163h-3.69v14.6zm19 .48a6.63 6.63 0 005.26-2.13 4.87 4.87 0 001.36-2.65H138a3.07 3.07 0 01-.71 1 2.72 2.72 0 01-1.92.67 3.23 3.23 0 01-1.9-.55 3.61 3.61 0 01-1.38-3.08h10a19 19 0 00-.12-2.9 7.39 7.39 0 00-1.11-3 5.86 5.86 0 00-2.41-2.16 7.77 7.77 0 00-3.29-.68 6.59 6.59 0 00-5 2 8.14 8.14 0 00-1.92 5.82q0 4.05 2.13 5.85a7.4 7.4 0 004.88 1.81zm2.83-9.26h-5.94a4.2 4.2 0 01.92-2.25 2.61 2.61 0 012.06-.83 2.86 2.86 0 012 .78 3.33 3.33 0 01.92 2.3zm20.27 9.26a7.56 7.56 0 003.53-.79 8.65 8.65 0 001.85-1.37l1.37 1.68h4.64l-3.6-4.32a10.19 10.19 0 001.4-2.28 10.65 10.65 0 00.86-3.64H165a6.08 6.08 0 01-.27 1.73 5.67 5.67 0 01-.75 1.52l-2.8-3.46a8.22 8.22 0 002.42-2 4.57 4.57 0 00.83-2.83 4.09 4.09 0 00-1.38-3.18 5 5 0 00-3.48-1.24 5.62 5.62 0 00-3.75 1.22 4.14 4.14 0 00-1.45 3.37 4.76 4.76 0 00.47 2.09 8.09 8.09 0 001.32 2l-.41.26a9.69 9.69 0 00-2.9 2.52 5.23 5.23 0 00-.88 3.06 5.55 5.55 0 001.69 3.93 6.17 6.17 0 004.69 1.73zm1-13.23a17.19 17.19 0 01-1-1.38 2.11 2.11 0 01-.38-1.12 1.44 1.44 0 01.67-1.32 1.73 1.73 0 01.95-.28 1.48 1.48 0 011.22.48 1.69 1.69 0 01.41 1.1 2.29 2.29 0 01-.67 1.57 7 7 0 01-1.24.95zm-.68 10a2.76 2.76 0 01-2.05-.81 2.56 2.56 0 01-.8-1.8 2.93 2.93 0 01.47-1.6 6.6 6.6 0 011.9-1.67l3.62 4.48a5.65 5.65 0 01-1.36 1 3.83 3.83 0 01-1.82.42zm25.2 2.73v-19.75h-4.1v19.77zm7.6 0v-7.92a5.64 5.64 0 01.38-2.22 2.65 2.65 0 012.66-1.65 2.16 2.16 0 012.15 1.12 4 4 0 01.31 1.77v8.9h3.92v-9.85a4.79 4.79 0 00-1.45-3.93 5.57 5.57 0 00-3.7-1.19 4.87 4.87 0 00-3 .88 6.68 6.68 0 00-1.39 1.63V163h-3.69v14.6zm17.3.21h.53l1.81-.07v-2.86h-.75a2.5 2.5 0 01-1.4-.22 1.75 1.75 0 01-.23-1.12v-7.73h2.38v-2.72h-2.38V159h-3.82v4.08h-2v2.72h2v9a2.79 2.79 0 00.64 2c.67.69 1.9 1 3.71.94zm10.72.27a6.63 6.63 0 005.25-2.13 4.87 4.87 0 001.36-2.65h-3.9a3.39 3.39 0 01-.71 1 2.76 2.76 0 01-1.92.67 3.26 3.26 0 01-1.91-.55 3.67 3.67 0 01-1.38-3.08h10a19 19 0 00-.12-2.9 7.26 7.26 0 00-1.12-3 5.8 5.8 0 00-2.41-2.16 7.77 7.77 0 00-3.29-.68 6.57 6.57 0 00-5 2 8.1 8.1 0 00-1.93 5.82q0 4.05 2.13 5.85a7.44 7.44 0 004.91 1.83zm2.83-9.26h-5.94a4.19 4.19 0 01.91-2.25 2.62 2.62 0 012.06-.83 2.86 2.86 0 012 .78 3.38 3.38 0 01.92 2.3zm10.86 8.78v-7a5.74 5.74 0 01.45-2.6 3.16 3.16 0 013.09-1.51h.46c.19 0 .4 0 .64.05v-3.91h-.51a4.21 4.21 0 00-2.79.9 8 8 0 00-1.54 2V163h-3.65v14.62zm10.68 0v-7.92a5.64 5.64 0 01.38-2.22 2.66 2.66 0 012.67-1.65 2.16 2.16 0 012.14 1.12 4 4 0 01.31 1.77v8.9h3.92v-9.85a4.79 4.79 0 00-1.45-3.93 5.57 5.57 0 00-3.7-1.19 4.82 4.82 0 00-3 .88 6.48 6.48 0 00-1.4 1.63V163H240v14.6zm19.05.48a6.63 6.63 0 005.26-2.13 4.87 4.87 0 001.36-2.65h-3.91a3.07 3.07 0 01-.71 1 2.72 2.72 0 01-1.9.74 3.24 3.24 0 01-1.91-.55 3.61 3.61 0 01-1.38-3.08h10a19 19 0 00-.12-2.9 7.39 7.39 0 00-1.11-3 5.8 5.8 0 00-2.41-2.16 7.77 7.77 0 00-3.29-.68 6.59 6.59 0 00-5 2 8.14 8.14 0 00-1.92 5.82q0 4.05 2.13 5.85a7.4 7.4 0 004.87 1.76zm2.83-9.26h-5.94a4.2 4.2 0 01.92-2.25 2.62 2.62 0 012.06-.83 2.88 2.88 0 012 .78 3.32 3.32 0 01.91 2.3zm11.38 9h.52l1.81-.07v-2.86h-.75c-.78 0-1.24-.07-1.39-.22s-.23-.52-.23-1.12v-7.73h2.37v-2.72H277V159h-3.78v4.08h-2v2.72h2v9a2.79 2.79 0 00.64 2c.66.69 1.9 1 3.7.94zm21.75-.21a13.75 13.75 0 002.81-.27 5.49 5.49 0 002.25-1 5.56 5.56 0 001.41-1.56 5.75 5.75 0 00.88-3.15 5.19 5.19 0 00-.77-2.9 4.37 4.37 0 00-2.28-1.74 4.74 4.74 0 001.5-1.13 4.39 4.39 0 00.91-2.91 5 5 0 00-.91-3q-1.51-2.06-5.15-2.1h-9.61v19.77zm-.16-12h-4.85v-4.36h4.34a7.41 7.41 0 012.36.31 1.76 1.76 0 011.08 1.82 1.87 1.87 0 01-.81 1.74 4.06 4.06 0 01-2.12.49zm0 8.54h-4.85v-5.27h4.92a5 5 0 012 .34 2.11 2.11 0 011.27 2.12 2.46 2.46 0 01-1.31 2.46 4.66 4.66 0 01-2 .35zM313 178a5.46 5.46 0 002.79-.71 7.84 7.84 0 001.82-1.46c0 .33.06.63.11.89a4 4 0 00.24.83h4.16V177a1.36 1.36 0 01-.57-.44 2.13 2.13 0 01-.22-1v-8.39a3.66 3.66 0 00-1.86-3.6 9.35 9.35 0 00-4.27-.95q-3.69 0-5.2 1.93a5.55 5.55 0 00-1.08 3.15h3.69a2.78 2.78 0 01.54-1.34 2.36 2.36 0 011.92-.67 3.9 3.9 0 011.83.34 1.3 1.3 0 01.62 1.24 1.15 1.15 0 01-.82 1.09 6.2 6.2 0 01-1.51.33l-1.3.17a9.27 9.27 0 00-3.36.93 4.19 4.19 0 00-2.08 3.91 4.06 4.06 0 001.3 3.21A4.76 4.76 0 00313 178zm1.12-2.77a2.08 2.08 0 01-1.32-.44 1.71 1.71 0 01-.54-1.41 1.74 1.74 0 01.89-1.63 5.5 5.5 0 011.73-.52l.85-.16a6.73 6.73 0 001-.26 5 5 0 00.73-.37v1.42a3.1 3.1 0 01-1.08 2.64 3.87 3.87 0 01-2.24.76zm14.56 2.32v-7.92a5.65 5.65 0 01.37-2.22 2.67 2.67 0 012.67-1.65 2.17 2.17 0 012.15 1.12 4.19 4.19 0 01.31 1.77v8.9h3.91v-9.85a4.82 4.82 0 00-1.44-3.93 5.6 5.6 0 00-3.71-1.19 4.86 4.86 0 00-3 .88 6.47 6.47 0 00-1.39 1.63V163h-3.69v14.6zm16.69 0V173l1.58-1.65 3.51 6.25h4.61l-5.31-9 5.11-5.6h-4.74l-4.76 5.5v-10.63h-3.75v19.71zm15.67-16.37v-3.52h-3.88v3.52zm0 16.37V163h-3.88v14.62zm7.48 0v-7.92a5.64 5.64 0 01.38-2.22 2.66 2.66 0 012.67-1.65 2.16 2.16 0 012.14 1.12 4 4 0 01.31 1.77v8.9H378v-9.85a4.82 4.82 0 00-1.44-3.93 5.6 5.6 0 00-3.71-1.19 4.82 4.82 0 00-3 .88 6.48 6.48 0 00-1.4 1.63V163h-3.69v14.6zm19 6q4.64 0 6.28-2.47a7.82 7.82 0 00.95-4.26V163h-3.65v2.1a4.6 4.6 0 00-2.25-2.12 5.15 5.15 0 00-1.92-.33 5.36 5.36 0 00-4.6 2.22 9 9 0 00-1.62 5.48 8 8 0 001.68 5.36 5.62 5.62 0 004.5 2 4.76 4.76 0 003-.87 4.63 4.63 0 001.18-1.41v.94a7 7 0 01-.46 3 2.8 2.8 0 01-2.76 1.38 3.22 3.22 0 01-2.08-.52 1.77 1.77 0 01-.53-1h-4.15a4 4 0 002 3.29 8.57 8.57 0 004.5 1.04zm.29-9.12a2.8 2.8 0 01-2.79-1.85 5.78 5.78 0 01-.43-2.27 6.66 6.66 0 01.41-2.48 2.77 2.77 0 012.77-1.89 2.89 2.89 0 012.43 1.06 5 5 0 01.88 3.17 4.69 4.69 0 01-.93 3.23 3 3 0 01-2.27 1.04zm31.67-3.09v-2.92h-15.31v2.92zm18.71 6.23a13.75 13.75 0 002.81-.27 5.45 5.45 0 003.66-2.55 5.75 5.75 0 00.88-3.15 5.27 5.27 0 00-.77-2.9 4.39 4.39 0 00-2.29-1.74 4.68 4.68 0 001.51-1.13 4.44 4.44 0 00.91-2.91 5.07 5.07 0 00-.91-3q-1.51-2.06-5.15-2.1h-9.54v19.77zm-.16-12h-4.85v-4.36h4.34a7.46 7.46 0 012.36.31 1.75 1.75 0 011.07 1.82 1.87 1.87 0 01-.81 1.74 4 4 0 01-2.11.49zm0 8.54h-4.85v-5.27h4.92a5 5 0 012 .34 2.11 2.11 0 011.27 2.12 2.48 2.48 0 01-1.31 2.46 4.69 4.69 0 01-2 .35z"/><path id="PAY" d="M454.6 178.18v-6h3.57a6.6 6.6 0 004.3-1.24q1.5-1.23 1.5-4.2a5.06 5.06 0 00-1.5-4 6 6 0 00-4-1.3h-7.32v16.81zm3.27-8.94h-3.27v-5h3.27a3 3 0 011.94.56 2.28 2.28 0 01.69 1.87 2.45 2.45 0 01-.69 1.92 2.87 2.87 0 01-1.94.6zm9.83 8.94l1.17-3.46h6.19l1.08 3.46H480l-6-16.81h-4l-6 16.81zm6.38-6.35h-4.27l2.17-6.61zm13.62 6.35v-6.32l5.62-10.49h-4l-3.32 7.32-3.49-7.32h-4.13l5.81 10.49v6.32z"/><path d="M498.58 170.58a4.9 4.9 0 100-9.8 4.79 4.79 0 00-3.37 1.33 5 5 0 00-.11 7 4.74 4.74 0 003.48 1.47zm0-.82a3.9 3.9 0 01-2.86-1.19 4.07 4.07 0 010-5.73 4 4 0 015.74 0 4.07 4.07 0 010 5.72 3.86 3.86 0 01-2.88 1.2zm-.72-1.36v-1.92h.61a1.57 1.57 0 01.48.09.64.64 0 01.4.4 2.82 2.82 0 01.09.66 4 4 0 00.08.75h1.36l-.05-.15a.9.9 0 010-.16.86.86 0 010-.16v-.48a1.47 1.47 0 00-.48-1.22 1.84 1.84 0 00-.77-.31 1.75 1.75 0 00.94-.37 1.2 1.2 0 00.38-1 1.34 1.34 0 00-.73-1.29 2.51 2.51 0 00-1.07-.28h-2.63v5.43zm.55-2.9h-.55v-1.57h.34a2.45 2.45 0 01.82.11.62.62 0 01.44.62.74.74 0 01-.28.65 1.31 1.31 0 01-.77.19z"/><path id="Contactyourbankorfnancialinstitutiontomakethis" d="M15.3 206.64a6.27 6.27 0 004.85-1.95 6.79 6.79 0 001.77-4h-2a6.65 6.65 0 01-.94 2.4 3.9 3.9 0 01-3.44 1.74 4.31 4.31 0 01-3.69-1.65 6.94 6.94 0 01-1.24-4.3 7.14 7.14 0 011.37-4.8 4.54 4.54 0 013.6-1.57 4.26 4.26 0 012.84.86 4 4 0 011.35 2.31h2a5.3 5.3 0 00-1.77-3.42 6.18 6.18 0 00-4.45-1.51 6.44 6.44 0 00-5.27 2.32 8.28 8.28 0 00-1.77 5.47q0 4.4 2.36 6.5a6.35 6.35 0 004.43 1.6zm13.05 0a4.7 4.7 0 004-1.74 7.18 7.18 0 001.29-4.4 5.55 5.55 0 00-1.47-4.17 5 5 0 00-3.59-1.41 4.68 4.68 0 00-3.78 1.64 6.57 6.57 0 00-1.39 4.44 6.06 6.06 0 001.33 4.12 4.56 4.56 0 003.61 1.53zm.17-1.6a2.71 2.71 0 01-2.44-1.17 5.22 5.22 0 01-.77-2.92 6.08 6.08 0 01.77-3.13 2.64 2.64 0 012.46-1.29 2.8 2.8 0 012.7 1.52 5.63 5.63 0 01.49 2.51 7 7 0 01-.68 3.09 2.56 2.56 0 01-2.53 1.4zm9.19 1.2v-5.77a7.14 7.14 0 01.14-1.66 2.68 2.68 0 01.6-1.12 2.73 2.73 0 011.33-.9 3.58 3.58 0 011.08-.14 1.81 1.81 0 011.79 1 3.72 3.72 0 01.3 1.62v6.94h1.88v-7.06a5.83 5.83 0 00-.46-2.56 3.19 3.19 0 00-3.16-1.59 4.41 4.41 0 00-1.94.42 4.89 4.89 0 00-1.66 1.39v-1.57h-1.75v11zm12.44.17a5.8 5.8 0 00.74 0 4.53 4.53 0 00.66-.13v-1.46h-.64a1.73 1.73 0 01-.72-.11.79.79 0 01-.39-.78v-7.18h1.75v-1.51H49.8v-3.07h-1.87v3.07h-1.49v1.51h1.49V204a2.94 2.94 0 00.46 1.72 2 2 0 001.76.7zm6.21.2a5 5 0 002.33-.55 4.72 4.72 0 001.63-1.28 2.56 2.56 0 00.31 1 1.51 1.51 0 001.39.68 3.61 3.61 0 001.27-.18v-1.37L63 205h-.28a.59.59 0 01-.5-.17.81.81 0 01-.12-.46V198a2.51 2.51 0 00-1.2-2.3 5.92 5.92 0 00-3.15-.74 5.45 5.45 0 00-2.95.79 3.21 3.21 0 00-1.32 2.83h1.73a2.57 2.57 0 01.44-1.28 2.45 2.45 0 012.06-.78 3.55 3.55 0 011.92.43 1.49 1.49 0 01.67 1.37 1.71 1.71 0 01-.12.71 1 1 0 01-.85.53l-2.95.37a4.59 4.59 0 00-2.51 1 3 3 0 00-1 2.37 3.09 3.09 0 001 2.33 3.47 3.47 0 002.49.99zm.43-1.58a2.15 2.15 0 01-1.38-.46 1.5 1.5 0 01-.59-1.26 1.63 1.63 0 01.85-1.54 4.38 4.38 0 011.51-.42l1.12-.15a8.4 8.4 0 001.05-.2 3.26 3.26 0 00.87-.36v1.49a2.54 2.54 0 01-1.54 2.45 4.23 4.23 0 01-1.89.42zm12.29 1.52a4.34 4.34 0 004.69-4.21H72a3.84 3.84 0 01-.93 1.93 2.71 2.71 0 01-4-.43 5.24 5.24 0 01-.7-2.78 6.78 6.78 0 01.5-2.76 2.59 2.59 0 012.52-1.73 2.35 2.35 0 011.88.67 3.32 3.32 0 01.75 1.69h1.8a4.32 4.32 0 00-1.4-3.11 4.83 4.83 0 00-3-.9 4.52 4.52 0 00-3.58 1.61 6.62 6.62 0 00-1.41 4.51 6 6 0 001.21 3.96 4.19 4.19 0 003.44 1.56zm9.13-.14a5.7 5.7 0 00.74 0 5 5 0 00.67-.13v-1.46H79a1.73 1.73 0 01-.72-.11.79.79 0 01-.39-.78v-7.18h1.76v-1.51h-1.79v-3.07H76v3.07h-1.5v1.51H76V204a2.94 2.94 0 00.46 1.72 2 2 0 001.75.7zm10.08 4.34a2.59 2.59 0 002.26-.93 32.37 32.37 0 002.26-5.14q.68-1.78 1.68-4.62 1.35-3.76 1.74-4.83h-2l-3 9-2.94-9h-2.1l4.07 11.32c-.1.25-.25.63-.46 1.13l-.37.85a1.6 1.6 0 01-.43.47 1.28 1.28 0 01-.76.17h-.38a5.83 5.83 0 01-.69-.16v1.68a3.4 3.4 0 00.51.11 3.3 3.3 0 00.61-.04zm13.71-4.1a4.7 4.7 0 004-1.74 7.18 7.18 0 001.29-4.4 5.55 5.55 0 00-1.47-4.17 5 5 0 00-3.59-1.41 4.68 4.68 0 00-3.78 1.64 6.57 6.57 0 00-1.37 4.43 6.06 6.06 0 001.33 4.12 4.56 4.56 0 003.59 1.53zm.17-1.6a2.71 2.71 0 01-2.44-1.17A5.22 5.22 0 0199 201a6.08 6.08 0 01.77-3.13 2.64 2.64 0 012.46-1.29 2.79 2.79 0 012.7 1.52 5.63 5.63 0 01.49 2.51 7 7 0 01-.68 3.09 2.56 2.56 0 01-2.55 1.35zm11 1.49a3.89 3.89 0 002.57-.86 3.7 3.7 0 00.9-1.06v1.63h1.74v-11h-1.85v5.41a6.67 6.67 0 01-.38 2.53 2.58 2.58 0 01-2.63 1.73 1.87 1.87 0 01-1.84-1 3.16 3.16 0 01-.26-1.37v-7.31h-1.89v7.48A4.65 4.65 0 00110 205a3.31 3.31 0 003.15 1.54zm10-.29v-6.33a3.14 3.14 0 01.75-2.07A2.62 2.62 0 01126 197h.61v-1.95H126a2.76 2.76 0 00-2 .79 4.23 4.23 0 00-1 1.36v-1.91h-1.76v11zm15.72.35a4.12 4.12 0 003.51-1.73 7.17 7.17 0 001.26-4.34 6 6 0 00-1.28-4.16A4.28 4.28 0 00139 195a4 4 0 00-3.28 1.62v-5.47h-1.8v15.14h1.71v-1.41a5.1 5.1 0 001.1 1.15 3.6 3.6 0 002.12.57zm-.11-1.64a2.69 2.69 0 01-2.72-1.82 6.78 6.78 0 01-.39-2.51 4.21 4.21 0 011-3.08 3 3 0 012.21-.94 2.46 2.46 0 012.2 1.14 5.22 5.22 0 01.74 2.88 5.91 5.91 0 01-.74 3.14 2.49 2.49 0 01-2.34 1.23zm10 1.66a5.06 5.06 0 002.33-.55 4.77 4.77 0 001.62-1.28 2.55 2.55 0 00.32 1 1.51 1.51 0 001.39.68 4.82 4.82 0 00.61 0 5.41 5.41 0 00.66-.15v-1.37H155.1c-.25 0-.42-.06-.49-.17a.81.81 0 01-.12-.46V198a2.51 2.51 0 00-1.2-2.3 5.94 5.94 0 00-3.16-.74 5.41 5.41 0 00-2.94.79 3.16 3.16 0 00-1.32 2.83h1.72a2.57 2.57 0 01.45-1.28 2.44 2.44 0 012.05-.78 3.56 3.56 0 011.91.48 1.49 1.49 0 01.67 1.37 1.71 1.71 0 01-.12.71 1 1 0 01-.86.53l-2.94.37a4.56 4.56 0 00-2.51 1 3 3 0 00-1 2.37 3.12 3.12 0 001 2.33 3.49 3.49 0 002.5.94zm.43-1.58a2.16 2.16 0 01-1.39-.46 1.52 1.52 0 01-.58-1.26 1.63 1.63 0 01.85-1.54 4.31 4.31 0 011.51-.42l1.12-.15a8.4 8.4 0 001-.2 3.56 3.56 0 00.87-.36v1.49a2.55 2.55 0 01-1.54 2.45 4.23 4.23 0 01-1.88.41zm10.16 1.21v-5.77a7.14 7.14 0 01.14-1.66 2.68 2.68 0 01.6-1.12 2.73 2.73 0 011.33-.9 3.58 3.58 0 011.08-.14 1.81 1.81 0 011.79 1 3.72 3.72 0 01.3 1.62v6.94h1.87v-7.06a5.84 5.84 0 00-.45-2.56 3.19 3.19 0 00-3.16-1.63 4.41 4.41 0 00-1.94.42 4.89 4.89 0 00-1.66 1.39v-1.57h-1.75v11zm11.58 0v-4.13l1.55-1.42 3.44 5.55h2.36l-4.45-6.89 4.21-4.12h-2.36l-4.75 4.68v-8.76h-1.77v15.09zm18.82.4a4.69 4.69 0 004-1.74 7.18 7.18 0 001.29-4.4 5.55 5.55 0 00-1.47-4.17 5 5 0 00-3.59-1.41 4.71 4.71 0 00-3.78 1.64 6.57 6.57 0 00-1.41 4.42 6.06 6.06 0 001.34 4.12 4.54 4.54 0 003.58 1.54zm.18-1.6a2.72 2.72 0 01-2.45-1.17 5.22 5.22 0 01-.77-2.92 6.08 6.08 0 01.77-3.13 2.66 2.66 0 012.47-1.29 2.78 2.78 0 012.69 1.52 5.5 5.5 0 01.49 2.51 7 7 0 01-.68 3.09 2.55 2.55 0 01-2.56 1.39zm9.23 1.2v-6.33a3.14 3.14 0 01.75-2.07A2.65 2.65 0 01202 197h.6v-1.95h-.59a2.72 2.72 0 00-1.94.79 4.14 4.14 0 00-1.06 1.36v-1.91h-1.76v11zm13.24 0v-9.5h1.85v-1.45h-1.87a8.51 8.51 0 01.17-2.23c.11-.29.44-.43 1-.43H214.23V191h-.78a2.84 2.84 0 00-2.5.95 3.28 3.28 0 00-.4 1.68v1.73H209v1.45h1.53v9.5zm5.48-13v-2.09H216v2.09zm0 13V195.3H216v10.95zm4.6 0v-5.77a7.14 7.14 0 01.14-1.66 2.68 2.68 0 01.6-1.12 2.78 2.78 0 011.33-.9 3.58 3.58 0 011.08-.14 1.81 1.81 0 011.79 1 3.72 3.72 0 01.3 1.62v6.94h1.88v-7.06a5.69 5.69 0 00-.46-2.56A3.19 3.19 0 00226 195a4.41 4.41 0 00-1.94.42 4.86 4.86 0 00-1.65 1.39v-1.57h-1.76v11zm12.81.37a5.06 5.06 0 002.33-.55 4.67 4.67 0 001.62-1.28 2.55 2.55 0 00.32 1 1.51 1.51 0 001.39.68 4.82 4.82 0 00.61 0 5.41 5.41 0 00.66-.15v-1.37H241.63a.58.58 0 01-.49-.17.81.81 0 01-.12-.46V198a2.51 2.51 0 00-1.2-2.3 5.94 5.94 0 00-3.16-.74 5.44 5.44 0 00-2.94.79 3.16 3.16 0 00-1.32 2.83h1.73a2.47 2.47 0 01.44-1.28 2.44 2.44 0 012.05-.78 3.56 3.56 0 011.93.43 1.49 1.49 0 01.67 1.37 1.71 1.71 0 01-.12.71 1 1 0 01-.86.53l-2.94.37a4.56 4.56 0 00-2.51 1 3 3 0 00-.95 2.37 3.09 3.09 0 001 2.33 3.45 3.45 0 002.43.99zm.43-1.58a2.16 2.16 0 01-1.39-.46 1.52 1.52 0 01-.58-1.26 1.63 1.63 0 01.85-1.54 4.31 4.31 0 011.51-.42l1.12-.15a8.4 8.4 0 001-.2 3.56 3.56 0 00.87-.36v1.49a2.54 2.54 0 01-1.54 2.45 4.23 4.23 0 01-1.88.41zm10.16 1.21v-5.77a7.14 7.14 0 01.14-1.66 2.68 2.68 0 01.6-1.12 2.78 2.78 0 011.33-.9 3.58 3.58 0 011.08-.14 1.81 1.81 0 011.79 1 3.72 3.72 0 01.3 1.62v6.94H253v-7.06a5.69 5.69 0 00-.46-2.56 3.19 3.19 0 00-3.16-1.63 4.41 4.41 0 00-1.94.42 5 5 0 00-1.66 1.39v-1.57H244v11zm13.82.31a4.34 4.34 0 004.7-4.21h-1.8a3.84 3.84 0 01-.93 1.93 2.71 2.71 0 01-4-.43 5.15 5.15 0 01-.7-2.78 6.78 6.78 0 01.49-2.76 2.61 2.61 0 012.53-1.73 2.37 2.37 0 011.88.67 3.32 3.32 0 01.75 1.69h1.8a4.36 4.36 0 00-1.4-3.11 4.83 4.83 0 00-3-.9 4.51 4.51 0 00-3.58 1.61 6.62 6.62 0 00-1.41 4.51 6.08 6.08 0 001.28 3.94 4.22 4.22 0 003.35 1.57zm8.43-13.31v-2.09h-1.88v2.09zm0 13V195.3h-1.88v10.95zm5.75.37a5 5 0 002.33-.55 4.58 4.58 0 001.62-1.28 2.73 2.73 0 00.32 1 1.51 1.51 0 001.39.68 4.82 4.82 0 00.61 0 5 5 0 00.66-.15v-1.37H280.23a.59.59 0 01-.5-.17.81.81 0 01-.12-.46V198a2.51 2.51 0 00-1.2-2.3 5.94 5.94 0 00-3.16-.74 5.44 5.44 0 00-2.94.79 3.21 3.21 0 00-1.31 2.85h1.73a2.57 2.57 0 01.44-1.28 2.44 2.44 0 012.05-.78 3.56 3.56 0 011.93.43 1.49 1.49 0 01.67 1.37 1.71 1.71 0 01-.12.71 1 1 0 01-.85.53l-2.95.37a4.56 4.56 0 00-2.51 1 3 3 0 00-.95 2.37 3.09 3.09 0 001 2.33 3.45 3.45 0 002.42.97zm.43-1.58a2.18 2.18 0 01-1.39-.46 1.52 1.52 0 01-.58-1.26 1.63 1.63 0 01.85-1.54 4.38 4.38 0 011.51-.42l1.12-.15a8.4 8.4 0 001.05-.2 3.56 3.56 0 00.87-.36v1.49a2.54 2.54 0 01-1.54 2.45 4.23 4.23 0 01-1.93.41zm10.21 1.21v-15.09h-1.85v15.09zm10.5-13v-2.09h-1.88v2.09zm0 13V195.3h-1.88v10.95zm4.64 0v-5.77a7.74 7.74 0 01.14-1.66 2.68 2.68 0 01.6-1.12 2.76 2.76 0 011.34-.9 3.56 3.56 0 011.07-.14 1.8 1.8 0 011.79 1 3.72 3.72 0 01.3 1.62v6.94h1.88v-7.06a5.84 5.84 0 00-.45-2.56 3.2 3.2 0 00-3.17-1.63 4.41 4.41 0 00-1.94.42 4.86 4.86 0 00-1.65 1.39v-1.57h-1.76v11zm13.75.42a4.74 4.74 0 003.39-1.07 3.4 3.4 0 001.11-2.54 2.48 2.48 0 00-1.07-2.23 9.67 9.67 0 00-2.67-.93l-1.23-.3a4.28 4.28 0 01-1.21-.45A1.31 1.31 0 01311 198a1.26 1.26 0 01.54-1.06 2.63 2.63 0 011.59-.4 2.81 2.81 0 012.21.73 2.17 2.17 0 01.44 1.14h1.74a3.1 3.1 0 00-.66-2 4.2 4.2 0 00-3.59-1.46 4.5 4.5 0 00-3 1 3.19 3.19 0 00-1.13 2.53 2.34 2.34 0 001.19 2.07 7.35 7.35 0 002.08.79l1.47.37a7 7 0 011.58.52 1.18 1.18 0 01.63 1.08 1.49 1.49 0 01-.78 1.38 3.57 3.57 0 01-1.81.45 2.91 2.91 0 01-2.43-.9 2.77 2.77 0 01-.46-1.42h-1.78a4.23 4.23 0 001.1 2.76 4.53 4.53 0 003.46 1.09zm9.21-.25a5.7 5.7 0 00.74 0 5 5 0 00.67-.13v-1.46H323.4a1.73 1.73 0 01-.72-.11.79.79 0 01-.39-.78v-7.18H324v-1.51h-1.76v-3.07h-1.87v3.07h-1.49v1.51h1.49V204a2.94 2.94 0 00.46 1.72 2 2 0 001.77.7zm5.14-13.17v-2.09h-1.88v2.09zm0 13V195.3h-1.88v10.95zm5.38.17a5.8 5.8 0 00.74 0 4.53 4.53 0 00.66-.13v-1.46H333.92a1.73 1.73 0 01-.72-.11.79.79 0 01-.39-.78v-7.18h1.75v-1.51h-1.75v-3.07h-1.91v3.07h-1.49v1.51h1.49V204a2.94 2.94 0 00.46 1.72 2 2 0 001.76.7zm6.88.12a3.91 3.91 0 002.57-.86 3.84 3.84 0 00.89-1.06v1.63h1.75v-11h-1.85v5.41a6.87 6.87 0 01-.38 2.53 2.59 2.59 0 01-2.63 1.73 1.86 1.86 0 01-1.84-1 3 3 0 01-.27-1.37v-7.31h-1.89v7.48a4.77 4.77 0 00.46 2.25 3.32 3.32 0 003.15 1.57zm10.66-.12a5.86 5.86 0 00.75 0 4.53 4.53 0 00.66-.13v-1.46H351.46a1.8 1.8 0 01-.72-.11.79.79 0 01-.39-.78v-7.18h1.76v-1.51h-1.76v-3.07h-1.87v3.07H347v1.51h1.49V204a2.94 2.94 0 00.47 1.72 2 2 0 001.7.7zm5.14-13.17v-2.09h-1.88v2.09zm0 13V195.3h-1.88v10.95zm7 .4a4.67 4.67 0 004-1.74 7.18 7.18 0 001.29-4.4 5.55 5.55 0 00-1.47-4.17 5 5 0 00-3.59-1.41 4.71 4.71 0 00-3.78 1.64 6.57 6.57 0 00-1.41 4.42 6.06 6.06 0 001.34 4.12 4.54 4.54 0 003.56 1.54zm.18-1.6a2.73 2.73 0 01-2.45-1.17 5.22 5.22 0 01-.77-2.92 6.08 6.08 0 01.77-3.13 2.67 2.67 0 012.47-1.29 2.78 2.78 0 012.69 1.52 5.5 5.5 0 01.49 2.51 7 7 0 01-.68 3.09 2.55 2.55 0 01-2.54 1.39zm9.18 1.2v-5.77a7.74 7.74 0 01.14-1.66 2.68 2.68 0 01.6-1.12 2.76 2.76 0 011.34-.9 3.56 3.56 0 011.07-.14 1.8 1.8 0 011.79 1 3.72 3.72 0 01.3 1.62v6.94h1.88v-7.06a5.84 5.84 0 00-.45-2.56 3.21 3.21 0 00-3.17-1.63 4.41 4.41 0 00-1.94.42 4.86 4.86 0 00-1.65 1.39v-1.57h-1.76v11zm18.28.17a5.86 5.86 0 00.75 0 4.53 4.53 0 00.66-.13v-1.46H391.24a1.71 1.71 0 01-.71-.11.79.79 0 01-.39-.78v-7.18h1.75v-1.51h-1.75v-3.07h-1.87v3.07h-1.49v1.51h1.49V204a2.94 2.94 0 00.46 1.72 2 2 0 001.69.7zm7.45.23a4.67 4.67 0 004-1.74 7.18 7.18 0 001.29-4.4 5.55 5.55 0 00-1.47-4.17 5 5 0 00-3.59-1.41 4.71 4.71 0 00-3.78 1.64 6.57 6.57 0 00-1.41 4.42 6.06 6.06 0 001.34 4.12 4.54 4.54 0 003.56 1.54zm.18-1.6a2.73 2.73 0 01-2.45-1.17 5.22 5.22 0 01-.77-2.92 6.08 6.08 0 01.77-3.13 2.67 2.67 0 012.47-1.29 2.78 2.78 0 012.69 1.52 5.5 5.5 0 01.49 2.51 7 7 0 01-.68 3.09 2.55 2.55 0 01-2.58 1.39zm15 1.2v-5.84a4 4 0 01.86-2.94 2.72 2.72 0 011.91-.81 1.64 1.64 0 011.57.77 3.74 3.74 0 01.27 1.64v7.18h1.88v-6.4a3.23 3.23 0 01.78-2.44 2.71 2.71 0 011.88-.73 2.22 2.22 0 011.34.41 1.81 1.81 0 01.55 1.51v7.65H426v-7.33a5.36 5.36 0 00-.43-2.32 3.06 3.06 0 00-3-1.6 3.81 3.81 0 00-3.32 1.73 3.32 3.32 0 00-.82-1.08 3.23 3.23 0 00-2.12-.65 3.61 3.61 0 00-2.07.62 6.31 6.31 0 00-1.2 1.19v-1.57h-1.82v11zm18.64.37a5.06 5.06 0 002.33-.55 4.67 4.67 0 001.62-1.28 2.55 2.55 0 00.32 1 1.51 1.51 0 001.39.68 4.82 4.82 0 00.61 0 5.41 5.41 0 00.66-.15v-1.37H438a.59.59 0 01-.5-.17.81.81 0 01-.12-.46V198a2.51 2.51 0 00-1.2-2.3 5.94 5.94 0 00-3.16-.74 5.44 5.44 0 00-2.94.79 3.21 3.21 0 00-1.32 2.83h1.73a2.47 2.47 0 01.44-1.28 2.44 2.44 0 012-.78 3.56 3.56 0 012.07.48 1.49 1.49 0 01.67 1.37 1.71 1.71 0 01-.12.71 1 1 0 01-.85.53l-2.95.37a4.56 4.56 0 00-2.51 1 3 3 0 00-.95 2.37 3.09 3.09 0 001 2.33 3.45 3.45 0 002.42.94zm.43-1.58a2.18 2.18 0 01-1.39-.46 1.52 1.52 0 01-.58-1.26 1.63 1.63 0 01.85-1.54 4.38 4.38 0 011.51-.42l1.12-.15a8.4 8.4 0 001.05-.2 3.56 3.56 0 00.87-.36v1.49a2.54 2.54 0 01-1.54 2.45 4.23 4.23 0 01-1.93.41zm10.05 1.21v-4.13l1.55-1.42 3.43 5.55h2.36l-4.45-6.89 4.21-4.12h-2.36l-4.74 4.68v-8.76h-1.78v15.09zm13.07.39a6.28 6.28 0 001.51-.17 4.28 4.28 0 002.09-1.11 4.91 4.91 0 00.91-1.21 3.68 3.68 0 00.47-1.36h-1.81a3.24 3.24 0 01-.7 1.29 3 3 0 01-2.31.95 2.65 2.65 0 01-2.3-1 4.76 4.76 0 01-.79-2.68h8.07a12.65 12.65 0 00-.17-2.43 4.88 4.88 0 00-.74-1.94 4.13 4.13 0 00-1.67-1.42 5 5 0 00-2.27-.55 4.75 4.75 0 00-3.76 1.65 6.32 6.32 0 00-1.44 4.31 5.81 5.81 0 001.43 4.18 4.62 4.62 0 003.44 1.49zm3.24-6.77h-6.11a3.42 3.42 0 01.91-2.34 2.82 2.82 0 012.14-.92A2.68 2.68 0 01458 198a4.77 4.77 0 01.53 1.92zm12.6 6.55a5.86 5.86 0 00.75 0 4.81 4.81 0 00.66-.13v-1.46H471.9a1.8 1.8 0 01-.72-.11.79.79 0 01-.39-.78v-7.18h1.76v-1.51h-1.76v-3.07h-1.87v3.07h-1.49v1.51h1.49V204a3 3 0 00.46 1.72 2 2 0 001.72.7zm5.11-.17v-5.84a3.83 3.83 0 01.93-3 3.19 3.19 0 012.09-.79 2 2 0 011.89.91 3.91 3.91 0 01.3 1.77v6.94h1.9v-7.06a5.71 5.71 0 00-.46-2.54 3.3 3.3 0 00-3.24-1.67 4 4 0 00-2.23.58 5.33 5.33 0 00-1.18 1.17v-5.62h-1.85v15.14zm11.73-13v-2.09h-1.88v2.09zm0 13V195.3h-1.88v10.95zm6.68.42a4.76 4.76 0 003.4-1.07 3.4 3.4 0 001.11-2.54 2.49 2.49 0 00-1.08-2.23 9.42 9.42 0 00-2.67-.93l-1.22-.3a4.28 4.28 0 01-1.21-.45 1.31 1.31 0 01-.71-1.15 1.26 1.26 0 01.54-1.06 2.63 2.63 0 011.59-.4 2.83 2.83 0 012.21.73 2.17 2.17 0 01.44 1.14h1.74a3.16 3.16 0 00-.66-2 4.2 4.2 0 00-3.59-1.46 4.48 4.48 0 00-3 1 3.19 3.19 0 00-1.13 2.53 2.34 2.34 0 001.19 2.07 7.35 7.35 0 002.08.79l1.47.37a7.24 7.24 0 011.58.52 1.17 1.17 0 01.62 1.08 1.49 1.49 0 01-.78 1.38 3.54 3.54 0 01-1.8.45 2.91 2.91 0 01-2.43-.9 2.68 2.68 0 01-.46-1.42h-1.78a4.23 4.23 0 001.1 2.76 4.52 4.52 0 003.41 1.09z"/><path d="M10.67 238.11v-5.62a4.81 4.81 0 001.1 1.06 3.8 3.8 0 002.09.54 4.26 4.26 0 002.77-1q1.88-1.53 1.88-5.13a5.89 5.89 0 00-1.31-4.1 4.13 4.13 0 00-3.2-1.41 3.91 3.91 0 00-2.2.62 4.4 4.4 0 00-1.21 1.16v-1.46H8.82v15.34zm2.94-5.63a2.62 2.62 0 01-2.61-1.71 5.58 5.58 0 01-.38-2.17A7.64 7.64 0 0111 226a2.63 2.63 0 012.63-1.93 2.63 2.63 0 012.63 1.82 6.14 6.14 0 01.38 2.26 5.16 5.16 0 01-.86 3.24 2.62 2.62 0 01-2.17 1.09zm10 1.61a5.1 5.1 0 002.34-.54 4.91 4.91 0 001.62-1.29 2.61 2.61 0 00.32 1 1.51 1.51 0 001.38.68 5 5 0 00.62 0 5.91 5.91 0 00.66-.16v-1.36H29.94a.57.57 0 01-.5-.18.78.78 0 01-.12-.46v-6.34a2.51 2.51 0 00-1.2-2.3 6 6 0 00-3.15-.74 5.39 5.39 0 00-2.94.8 3.15 3.15 0 00-1.32 2.83h1.72a2.67 2.67 0 01.44-1.29 2.46 2.46 0 012.06-.78 3.62 3.62 0 011.92.43 1.8 1.8 0 01.55 2.08 1 1 0 01-.85.53l-2.95.37a4.53 4.53 0 00-2.5 1 3 3 0 00-1 2.37 3.11 3.11 0 001 2.33 3.47 3.47 0 002.52 1.02zm.44-1.57a2.21 2.21 0 01-1.39-.46 1.53 1.53 0 01-.59-1.27 1.65 1.65 0 01.86-1.54 4.25 4.25 0 011.51-.42l1.12-.14a6.61 6.61 0 001-.21 2.88 2.88 0 00.88-.36v1.49a2.56 2.56 0 01-1.44 2.46 4.23 4.23 0 01-1.94.45zm9.28 5.71a2.6 2.6 0 002.26-.92 31.41 31.41 0 002.26-5.14q.68-1.78 1.69-4.62 1.34-3.78 1.73-4.83h-2l-3 9-3-9h-2.1L35.29 234c-.09.25-.25.62-.46 1.13s-.34.79-.37.84a1.49 1.49 0 01-.41.42 1.34 1.34 0 01-.75.17h-.38a6.51 6.51 0 01-.7-.17v1.69l.52.11a4.54 4.54 0 00.6.04zm11.39-4.51v-5.83a4 4 0 01.86-2.94 2.72 2.72 0 011.91-.81 1.62 1.62 0 011.57.77 3.69 3.69 0 01.26 1.63v7.18h1.88v-6.4a3.19 3.19 0 01.79-2.43 2.64 2.64 0 011.87-.73 2.17 2.17 0 011.35.41 1.8 1.8 0 01.54 1.51v7.64h1.93v-7.32a5.23 5.23 0 00-.44-2.33 3.06 3.06 0 00-3-1.6 3.82 3.82 0 00-3.31 1.74 3.36 3.36 0 00-.83-1.09 3.24 3.24 0 00-2.11-.65 3.57 3.57 0 00-2.08.63 6.5 6.5 0 00-1.19 1.18v-1.56h-1.84v11zm20 .39a6.3 6.3 0 001.51-.16 4.5 4.5 0 002.09-1.11 5 5 0 00.91-1.22 3.7 3.7 0 00.47-1.35h-1.83a3.21 3.21 0 01-.7 1.28 3 3 0 01-2.31 1 2.68 2.68 0 01-2.3-1 4.79 4.79 0 01-.79-2.69h8.07a12.45 12.45 0 00-.17-2.42 4.92 4.92 0 00-.74-1.95 4.21 4.21 0 00-1.67-1.49 5.1 5.1 0 00-2.27-.55 4.73 4.73 0 00-3.76 1.66 6.3 6.3 0 00-1.44 4.3 5.85 5.85 0 001.43 4.19 4.64 4.64 0 003.48 1.51zm3.24-6.77h-6.13a3.46 3.46 0 01.91-2.34 2.81 2.81 0 012.14-.91 2.67 2.67 0 012.53 1.33 4.77 4.77 0 01.53 1.92zm6 6.38V228a7.86 7.86 0 01.13-1.66 2.86 2.86 0 01.61-1.13 2.73 2.73 0 011.33-.9 3.62 3.62 0 011.08-.13 1.82 1.82 0 011.79 1 3.78 3.78 0 01.29 1.63v6.93h1.88v-7.06a5.77 5.77 0 00-.45-2.55 3.2 3.2 0 00-3.16-1.64 4.41 4.41 0 00-1.94.42 5 5 0 00-1.66 1.39v-1.56h-1.75v11zm12.44.17a5.8 5.8 0 00.74 0 3.51 3.51 0 00.66-.13v-1.46h-.64a1.73 1.73 0 01-.72-.11.78.78 0 01-.39-.77v-7.18h1.75v-1.51h-1.75v-3.07h-1.87v3.07h-1.49v1.51h1.49v7.28a2.92 2.92 0 00.46 1.72 2 2 0 001.76.65zm11.39-.17v-9.49h1.85v-1.46h-1.83a8.66 8.66 0 01.16-2.22c.11-.29.45-.44 1-.44H99.63v-1.68h-.78a2.83 2.83 0 00-2.5.94A3.33 3.33 0 0096 221v1.73h-1.57v1.46H96v9.49zm5.45 0v-6.33a3.14 3.14 0 01.75-2.07 2.65 2.65 0 012.15-.9h.6v-2h-.59a2.75 2.75 0 00-1.94.8 4.17 4.17 0 00-1.06 1.35v-1.9h-1.76v11zm9.3.4a4.67 4.67 0 004-1.74 7.08 7.08 0 001.3-4.39 5.52 5.52 0 00-1.47-4.17 5 5 0 00-3.6-1.42A4.74 4.74 0 00109 224a6.62 6.62 0 00-1.4 4.42 6.08 6.08 0 001.33 4.13 4.54 4.54 0 003.61 1.57zm.17-1.59a2.71 2.71 0 01-2.44-1.17 5.18 5.18 0 01-.77-2.93 5.92 5.92 0 01.77-3.12 2.63 2.63 0 012.46-1.3 2.77 2.77 0 012.69 1.52 5.52 5.52 0 01.5 2.51 6.89 6.89 0 01-.69 3.1 2.55 2.55 0 01-2.52 1.39zm9.19 1.19v-5.83a4 4 0 01.85-2.94 2.72 2.72 0 011.91-.81 1.61 1.61 0 011.57.77 3.66 3.66 0 01.27 1.63v7.18h1.88v-6.4a3.19 3.19 0 01.78-2.43 2.66 2.66 0 011.88-.73 2.16 2.16 0 011.34.41 1.8 1.8 0 01.55 1.51v7.64h1.92v-7.32a5.38 5.38 0 00-.43-2.33 3.07 3.07 0 00-3-1.6 4 4 0 00-1.87.43 3.91 3.91 0 00-1.45 1.31 3.49 3.49 0 00-.82-1.09 3.29 3.29 0 00-2.12-.65 3.56 3.56 0 00-2.07.63 6.21 6.21 0 00-1.2 1.18v-1.56h-1.82v11zm22.49 4.51a2.6 2.6 0 002.26-.92 31.41 31.41 0 002.26-5.14q.68-1.78 1.69-4.62 1.34-3.78 1.73-4.83h-2l-3 9-2.95-9h-2.09l4.05 11.28c-.09.25-.25.62-.46 1.13s-.34.79-.37.84a1.49 1.49 0 01-.41.42 1.34 1.34 0 01-.75.17h-.38a6.51 6.51 0 01-.7-.17v1.69l.52.11a4.54 4.54 0 00.6.04zm13.73-4.11a4.67 4.67 0 004-1.74 7.15 7.15 0 001.3-4.39 5.52 5.52 0 00-1.47-4.17 5 5 0 00-3.6-1.42 4.74 4.74 0 00-3.78 1.64 6.57 6.57 0 00-1.41 4.42 6.09 6.09 0 001.34 4.13 4.53 4.53 0 003.62 1.53zm.18-1.59a2.73 2.73 0 01-2.45-1.17 5.26 5.26 0 01-.77-2.93 6 6 0 01.77-3.12 2.66 2.66 0 012.47-1.3 2.78 2.78 0 012.69 1.52 5.53 5.53 0 01.49 2.51 6.88 6.88 0 01-.68 3.1 2.55 2.55 0 01-2.52 1.39zm11 1.49a4 4 0 002.57-.86 3.84 3.84 0 00.89-1.06v1.62h1.75v-11h-1.91v5.4a6.93 6.93 0 01-.38 2.54 2.6 2.6 0 01-2.63 1.72 1.86 1.86 0 01-1.84-1 3.08 3.08 0 01-.27-1.38v-7.3h-1.89v7.48a4.77 4.77 0 00.46 2.25 3.33 3.33 0 003.21 1.57zm10-.3v-6.33a3.14 3.14 0 01.75-2.07 2.65 2.65 0 012.15-.9h.61v-2h-.6a2.75 2.75 0 00-1.94.8 4.17 4.17 0 00-1.06 1.35v-1.9h-1.76v11zm14.93.32a4.34 4.34 0 004.69-4.21h-1.79a4 4 0 01-.93 1.92 2.71 2.71 0 01-4-.42 5.27 5.27 0 01-.69-2.79 6.85 6.85 0 01.49-2.76 2.61 2.61 0 012.53-1.73 2.37 2.37 0 011.88.68 3.32 3.32 0 01.75 1.69h1.79a4.31 4.31 0 00-1.4-3.12 4.8 4.8 0 00-3-.9 4.56 4.56 0 00-3.59 1.61 6.64 6.64 0 00-1.41 4.51 6 6 0 001.29 3.94 4.2 4.2 0 003.32 1.54zm8.39-.32v-5.83a3.76 3.76 0 01.94-3 3.11 3.11 0 012.08-.79 2 2 0 011.89.9 3.83 3.83 0 01.31 1.78v6.93h1.9v-7.06a5.66 5.66 0 00-.46-2.53 3.3 3.3 0 00-3.25-1.68 4 4 0 00-2.23.59 5.11 5.11 0 00-1.18 1.17v-5.63h-1.92v15.14zm14.15.39a6.36 6.36 0 001.51-.16 4.46 4.46 0 002.08-1.11 4.73 4.73 0 00.91-1.22 3.94 3.94 0 00.48-1.35h-1.82a3.21 3.21 0 01-.7 1.28 3 3 0 01-2.31 1 2.66 2.66 0 01-2.29-1 4.71 4.71 0 01-.79-2.69h8.06a12.65 12.65 0 00-.16-2.42 5.08 5.08 0 00-.74-1.95 4.24 4.24 0 00-1.68-1.42 5.1 5.1 0 00-2.27-.55 4.74 4.74 0 00-3.76 1.66 6.29 6.29 0 00-1.43 4.3 5.84 5.84 0 001.42 4.19 4.67 4.67 0 003.42 1.44zm3.23-6.77h-6.11a3.51 3.51 0 01.91-2.34 2.83 2.83 0 012.14-.91 2.69 2.69 0 012.54 1.33 4.77 4.77 0 01.52 1.92zm13.14 10.77v-15.39h-1.76v1.53a4.08 4.08 0 00-1-1.09 3.78 3.78 0 00-2.3-.69 4.07 4.07 0 00-3.37 1.7 6.88 6.88 0 00-1.3 4.33 5.63 5.63 0 001.39 4.19 4.33 4.33 0 003.14 1.38 4.28 4.28 0 002-.44 3.3 3.3 0 001.28-1.17v5.65zm-4.84-5.63a2.55 2.55 0 01-2.54-1.72 6.38 6.38 0 01-.4-2.39 5 5 0 01.86-3.22 2.57 2.57 0 012.06-1 2.67 2.67 0 012.64 1.63 5.75 5.75 0 01.44 2.38 6.82 6.82 0 01-.4 2.55 2.66 2.66 0 01-2.73 1.77zm11.2 1.54a4 4 0 002.57-.86 3.84 3.84 0 00.89-1.06v1.62h1.74v-11h-1.84v5.4a6.93 6.93 0 01-.38 2.54 2.6 2.6 0 01-2.63 1.72 1.86 1.86 0 01-1.84-1 3.08 3.08 0 01-.27-1.38v-7.3h-1.89v7.48a4.65 4.65 0 00.46 2.25 3.33 3.33 0 003.12 1.57zm12.36.09a6.25 6.25 0 001.51-.16 4.45 4.45 0 002.09-1.11 4.73 4.73 0 00.91-1.22 3.94 3.94 0 00.48-1.35H255a3.21 3.21 0 01-.7 1.28 3 3 0 01-2.31 1 2.65 2.65 0 01-2.29-1 4.64 4.64 0 01-.79-2.69h8.06a12.65 12.65 0 00-.16-2.42 5.08 5.08 0 00-.74-1.95 4.24 4.24 0 00-1.68-1.42 5.1 5.1 0 00-2.27-.55 4.73 4.73 0 00-3.76 1.66 6.3 6.3 0 00-1.44 4.3 5.85 5.85 0 001.43 4.19 4.64 4.64 0 003.44 1.44zm3.24-6.77h-6.11a3.51 3.51 0 01.91-2.34 2.83 2.83 0 012.14-.91 2.69 2.69 0 012.54 1.33 4.94 4.94 0 01.52 1.92zm4.56 9.5a2.24 2.24 0 001.71-1.14 4.56 4.56 0 00.49-2.14v-2.08h-2.2v2.24h1.12v.28a2.91 2.91 0 01-.15.89 1.32 1.32 0 01-1 1zm15.19-2.7a4.72 4.72 0 003.4-1.07 3.38 3.38 0 001.11-2.53 2.47 2.47 0 00-1.08-2.23 9.35 9.35 0 00-2.67-.94l-1.22-.3a4.28 4.28 0 01-1.21-.45 1.31 1.31 0 01-.71-1.15 1.26 1.26 0 01.54-1.06 2.7 2.7 0 011.59-.4 2.82 2.82 0 012.2.73 2.17 2.17 0 01.45 1.14h1.74a3.18 3.18 0 00-.66-2 4.22 4.22 0 00-3.59-1.46 4.42 4.42 0 00-3 1 3.16 3.16 0 00-1.13 2.52 2.34 2.34 0 001.19 2.08 7.09 7.09 0 002.08.78l1.47.37a7.84 7.84 0 011.58.52 1.18 1.18 0 01.62 1.08 1.48 1.48 0 01-.78 1.38 3.54 3.54 0 01-1.8.45 2.94 2.94 0 01-2.43-.89 2.68 2.68 0 01-.46-1.42h-1.78a4.22 4.22 0 001.1 2.76 4.56 4.56 0 003.38 1.09zm9.59 0a5.06 5.06 0 002.33-.54 4.91 4.91 0 001.62-1.29 2.61 2.61 0 00.32 1 1.53 1.53 0 001.29.69 4.82 4.82 0 00.61 0 5.91 5.91 0 00.66-.16v-1.36H290.66a.55.55 0 01-.49-.18.78.78 0 01-.12-.46v-6.34a2.51 2.51 0 00-1.2-2.3 6 6 0 00-3.16-.74 5.44 5.44 0 00-2.94.8 3.15 3.15 0 00-1.32 2.83h1.73a2.48 2.48 0 01.44-1.29 2.44 2.44 0 012.05-.78 3.65 3.65 0 011.93.43 1.49 1.49 0 01.67 1.37 1.65 1.65 0 01-.12.71 1 1 0 01-.86.53l-2.94.37a4.56 4.56 0 00-2.51 1 3 3 0 00-1 2.37 3.07 3.07 0 001 2.33 3.45 3.45 0 002.55.96zm.43-1.57a2.21 2.21 0 01-1.39-.46 1.53 1.53 0 01-.58-1.27 1.64 1.64 0 01.85-1.54 4.31 4.31 0 011.51-.42l1.12-.14a7 7 0 001.05-.21 2.92 2.92 0 00.87-.36v1.49a2.54 2.54 0 01-1.54 2.46 4.23 4.23 0 01-1.96.4zm13.1 1.2l4.14-11h-2l-3.07 9-2.94-9h-2.14l4.05 11zm7.61-13v-2.1h-1.88v2.1zm0 13v-11h-1.88v10.95zm4.64 0V228a7.74 7.74 0 01.14-1.66 2.71 2.71 0 01.6-1.13 2.78 2.78 0 011.33-.9 3.66 3.66 0 011.08-.13 1.81 1.81 0 011.79 1 3.77 3.77 0 01.3 1.63v6.93h1.88v-7.06a5.77 5.77 0 00-.45-2.55 3.22 3.22 0 00-3.17-1.64 4.41 4.41 0 00-1.94.42 5 5 0 00-1.65 1.39v-1.56h-1.83v11zm13.78 4.6c2.12 0 3.57-.74 4.34-2.24a7.35 7.35 0 00.62-3.3v-10h-1.71v1.39a5 5 0 00-1.07-1.05 4 4 0 00-2.26-.64 4.19 4.19 0 00-3.26 1.55 6.39 6.39 0 00-1.35 4.32 5.61 5.61 0 001.34 4.2 4.44 4.44 0 003.13 1.26 4.34 4.34 0 002.06-.41 3.62 3.62 0 001.34-1.25 8.45 8.45 0 01-.36 3.15 2.72 2.72 0 01-2.78 1.5 2.75 2.75 0 01-2-.61 2.17 2.17 0 01-.53-1.14h-1.88a3.11 3.11 0 001.36 2.49 5.31 5.31 0 003.01.78zm0-6a2.43 2.43 0 01-2-1 4.48 4.48 0 01-.76-2.83 7.22 7.22 0 01.38-2.55 2.65 2.65 0 012.67-1.83 2.72 2.72 0 012.15 1 4.6 4.6 0 01.84 3 5.84 5.84 0 01-.45 2.38 2.85 2.85 0 01-2.83 1.8zm11.63 1.8a4.72 4.72 0 003.4-1.07 3.38 3.38 0 001.11-2.53 2.47 2.47 0 00-1.08-2.23 9.35 9.35 0 00-2.67-.94l-1.22-.3a4.28 4.28 0 01-1.21-.45 1.31 1.31 0 01-.71-1.15 1.26 1.26 0 01.54-1.06 2.7 2.7 0 011.59-.4 2.82 2.82 0 012.2.73 2.17 2.17 0 01.45 1.14h1.74a3.18 3.18 0 00-.66-2 4.22 4.22 0 00-3.59-1.46 4.42 4.42 0 00-3 1 3.16 3.16 0 00-1.13 2.52 2.34 2.34 0 001.19 2.08 7.09 7.09 0 002.08.78l1.47.37a7.84 7.84 0 011.58.52 1.18 1.18 0 01.62 1.08 1.48 1.48 0 01-.78 1.38 3.54 3.54 0 01-1.8.45 2.94 2.94 0 01-2.43-.89 2.68 2.68 0 01-.46-1.42H331a4.22 4.22 0 001.1 2.76 4.56 4.56 0 003.49 1.06zm7 2.7a2.2 2.2 0 001.7-1.14 4.45 4.45 0 00.5-2.14v-2.08h-2.2v2.24h1.12a.69.69 0 010 .13.53.53 0 010 .13 2.91 2.91 0 01-.15.89 1.33 1.33 0 01-1 1zm15.05-2.73a4.39 4.39 0 002-.45 4 4 0 001.53-1.47v1.53h1.67v-15.17h-1.78v5.56a4.75 4.75 0 00-1.12-1.08 3.88 3.88 0 00-2.12-.54 4 4 0 00-3.51 1.77 7.14 7.14 0 00-1.22 4.16 6.07 6.07 0 001.34 4.11 4.08 4.08 0 003.19 1.55zm.57-1.61a2.63 2.63 0 01-2.4-1.19 5.47 5.47 0 01-.75-3 4.91 4.91 0 01.87-3.15 2.77 2.77 0 012.26-1.06 2.66 2.66 0 012.11 1 4.66 4.66 0 01.85 3.08 5.21 5.21 0 01-.83 3.17 2.52 2.52 0 01-2.13 1.12zm11.67 1.61a6.3 6.3 0 001.51-.16 4.45 4.45 0 002.09-1.11 5 5 0 00.91-1.22 3.7 3.7 0 00.47-1.35h-1.81a3.21 3.21 0 01-.7 1.28 3 3 0 01-2.31 1 2.68 2.68 0 01-2.3-1 4.79 4.79 0 01-.79-2.69H375a12.45 12.45 0 00-.17-2.42 4.92 4.92 0 00-.74-1.95 4.21 4.21 0 00-1.67-1.42 5.1 5.1 0 00-2.27-.55 4.73 4.73 0 00-3.76 1.66 6.3 6.3 0 00-1.44 4.3 5.85 5.85 0 001.43 4.19 4.64 4.64 0 003.52 1.41zm3.24-6.77H367a3.46 3.46 0 01.91-2.34 2.81 2.81 0 012.14-.91 2.67 2.67 0 012.53 1.33 4.77 4.77 0 01.53 1.92zm8.94 6.73a4.12 4.12 0 003.51-1.73 7.14 7.14 0 001.26-4.33 6 6 0 00-1.28-4.17 4.28 4.28 0 00-3.33-1.41 4 4 0 00-1.83.42 4.15 4.15 0 00-1.45 1.2v-5.47h-1.8v15.14h1.71v-1.41a5.1 5.1 0 001.1 1.15 3.53 3.53 0 002.09.58zm-.11-1.63a2.7 2.7 0 01-2.72-1.82 6.84 6.84 0 01-.39-2.52 4.21 4.21 0 01.95-3.08 3.06 3.06 0 012.21-.93 2.46 2.46 0 012.2 1.14 5.18 5.18 0 01.74 2.87 5.91 5.91 0 01-.74 3.14 2.48 2.48 0 01-2.24 1.17zm8.92-11.71v-2.1H389v2.1zm0 13v-10.99H389v10.95zm5.38.17a5.7 5.7 0 00.74 0 3.78 3.78 0 00.67-.13v-1.46h-.7a1.73 1.73 0 01-.72-.11.78.78 0 01-.39-.77v-7.18h1.76v-1.51h-1.76v-3.07h-1.87v3.07h-1.49v1.51h1.49v7.28a2.92 2.92 0 00.46 1.72 2 2 0 001.79.61zm3.65 3a2.23 2.23 0 001.7-1.14 4.45 4.45 0 00.49-2.14v-2.08h-2.19v2.24H401a.69.69 0 010 .13v.13a2.66 2.66 0 01-.16.89 1.31 1.31 0 01-1 1zm15.27-2.8a4.34 4.34 0 004.69-4.21h-1.79a3.85 3.85 0 01-.93 1.92 2.42 2.42 0 01-1.83.71 2.38 2.38 0 01-2.19-1.13 5.18 5.18 0 01-.7-2.79 6.85 6.85 0 01.49-2.76 2.61 2.61 0 012.53-1.73 2.37 2.37 0 011.88.68 3.32 3.32 0 01.75 1.69h1.79a4.31 4.31 0 00-1.4-3.12 4.78 4.78 0 00-3-.9 4.58 4.58 0 00-3.59 1.61 6.64 6.64 0 00-1.4 4.51 6 6 0 001.28 3.94 4.22 4.22 0 003.4 1.45zm8.44-.32v-6.33a3.14 3.14 0 01.75-2.07 2.65 2.65 0 012.15-.9h.61v-2h-.6a2.75 2.75 0 00-1.94.8 4.31 4.31 0 00-1.06 1.35v-1.9h-1.75v11zm9.4.39a6.3 6.3 0 001.51-.16 4.45 4.45 0 002.09-1.11 5 5 0 00.91-1.22 3.7 3.7 0 00.47-1.35h-1.83a3.21 3.21 0 01-.7 1.28 3 3 0 01-2.31 1 2.65 2.65 0 01-2.29-1 4.64 4.64 0 01-.79-2.69h8.06a12.45 12.45 0 00-.17-2.42 4.92 4.92 0 00-.74-1.95 4.21 4.21 0 00-1.67-1.42 5.1 5.1 0 00-2.27-.55 4.73 4.73 0 00-3.76 1.66 6.3 6.3 0 00-1.44 4.3 5.85 5.85 0 001.43 4.19 4.64 4.64 0 003.45 1.35zm3.24-6.77h-6.11a3.51 3.51 0 01.91-2.34 2.83 2.83 0 012.14-.91 2.67 2.67 0 012.53 1.33 4.77 4.77 0 01.53 1.92zm7.92 6.77a4.39 4.39 0 002-.45 4 4 0 001.53-1.47v1.53h1.67v-15.23h-1.78v5.56a4.75 4.75 0 00-1.12-1.08 3.88 3.88 0 00-2.12-.54 4 4 0 00-3.5 1.77 7.07 7.07 0 00-1.23 4.16 6.07 6.07 0 001.34 4.11 4.08 4.08 0 003.19 1.55zm.57-1.61a2.63 2.63 0 01-2.4-1.19 5.47 5.47 0 01-.75-3 4.91 4.91 0 01.87-3.15 2.77 2.77 0 012.26-1.06 2.66 2.66 0 012.11 1 4.66 4.66 0 01.85 3.08 5.14 5.14 0 01-.83 3.17 2.52 2.52 0 01-2.13 1.06zm9.22-11.86v-2.1h-1.88v2.1zm0 13v-10.96h-1.88v10.95zm5.38.17a5.86 5.86 0 00.75 0 3.51 3.51 0 00.66-.13v-1.46H460.14a1.8 1.8 0 01-.72-.11.78.78 0 01-.39-.77v-7.18h1.76v-1.51h-1.76v-3.07h-1.87v3.07h-1.49v1.51h1.49v7.28a3 3 0 00.46 1.72 2 2 0 001.78.64zm13.08.15a4.34 4.34 0 004.69-4.21h-1.8a3.85 3.85 0 01-.93 1.92 2.38 2.38 0 01-1.82.71 2.41 2.41 0 01-2.2-1.13 5.27 5.27 0 01-.7-2.79 6.84 6.84 0 01.5-2.76 2.59 2.59 0 012.52-1.73 2.36 2.36 0 011.88.68 3.32 3.32 0 01.75 1.69h1.8a4.35 4.35 0 00-1.4-3.12 4.83 4.83 0 00-3-.9 4.56 4.56 0 00-3.58 1.61 6.64 6.64 0 00-1.41 4.51 6 6 0 001.29 3.94 4.2 4.2 0 003.43 1.53zm9.5.05a5 5 0 002.33-.54 4.71 4.71 0 001.62-1.29 2.78 2.78 0 00.32 1 1.53 1.53 0 001.39.68 4.82 4.82 0 00.61 0 5.43 5.43 0 00.66-.16v-1.36H488.29c-.26 0-.42-.06-.5-.18a.78.78 0 01-.12-.46v-6.34a2.51 2.51 0 00-1.2-2.3 6 6 0 00-3.16-.74 5.44 5.44 0 00-2.94.8 3.2 3.2 0 00-1.32 2.83h1.73a2.57 2.57 0 01.44-1.29 2.44 2.44 0 012.05-.78 3.65 3.65 0 011.93.43 1.49 1.49 0 01.67 1.37 1.65 1.65 0 01-.12.71 1 1 0 01-.85.53l-2.95.37a4.56 4.56 0 00-2.51 1 3 3 0 00-.95 2.37 3.07 3.07 0 001 2.33 3.45 3.45 0 002.51 1.01zm.43-1.57a2.23 2.23 0 01-1.39-.46 1.53 1.53 0 01-.58-1.27 1.64 1.64 0 01.85-1.54 4.38 4.38 0 011.51-.42l1.12-.14a7 7 0 001.05-.21 2.92 2.92 0 00.87-.36v1.49a2.54 2.54 0 01-1.54 2.46 4.23 4.23 0 01-1.87.44zm10.21 1.2v-6.33a3.14 3.14 0 01.75-2.07 2.65 2.65 0 012.15-.9h.6v-2h-.59a2.73 2.73 0 00-1.94.8 4 4 0 00-1.06 1.35v-1.9h-1.76v11zm8.85.39a4.4 4.4 0 002-.45 4 4 0 001.53-1.47v1.53h1.66v-15.15h-1.77v5.56a4.75 4.75 0 00-1.12-1.08 3.9 3.9 0 00-2.12-.54 4 4 0 00-3.51 1.77 7.07 7.07 0 00-1.23 4.16 6 6 0 001.35 4.11 4.08 4.08 0 003.23 1.55zm.58-1.61a2.63 2.63 0 01-2.4-1.19 5.47 5.47 0 01-.75-3 5 5 0 01.86-3.15 2.79 2.79 0 012.27-1.06 2.66 2.66 0 012.11 1 4.72 4.72 0 01.85 3.08 5.21 5.21 0 01-.83 3.17 2.52 2.52 0 01-2.09 1.14z"/><path id="ortransactionaccount.Moreinfo:www.bpay.com.au" d="M13.16 261.6a4.67 4.67 0 004-1.74 7.12 7.12 0 001.3-4.4 5.55 5.55 0 00-1.46-4.17 5 5 0 00-3.6-1.42 4.72 4.72 0 00-3.78 1.65 6.55 6.55 0 00-1.4 4.42 6.06 6.06 0 001.33 4.12 4.55 4.55 0 003.61 1.54zm.17-1.6a2.71 2.71 0 01-2.44-1.17 5.15 5.15 0 01-.77-2.93 5.94 5.94 0 01.77-3.12 2.64 2.64 0 012.46-1.29A2.76 2.76 0 0116 253a5.47 5.47 0 01.5 2.5 6.89 6.89 0 01-.69 3.1 2.53 2.53 0 01-2.48 1.4zm9.24 1.19v-6.32a3.14 3.14 0 01.75-2.07 2.62 2.62 0 012.14-.9h.61V250h-.6a2.74 2.74 0 00-1.94.79 4.31 4.31 0 00-1.06 1.35v-1.9h-1.75v11zm13.53.18a5.86 5.86 0 00.75 0 3.51 3.51 0 00.66-.14v-1.45H36.86a1.53 1.53 0 01-.71-.12.78.78 0 01-.4-.77v-7.19h1.76v-1.51h-1.76v-3.07h-1.86v3.07H32.4v1.51h1.49v7.3a3 3 0 00.46 1.72 2 2 0 001.75.65zm5.16-.18v-6.32a3.14 3.14 0 01.74-2.07 2.65 2.65 0 012.15-.9h.6V250h-.59a2.72 2.72 0 00-1.94.79 4 4 0 00-1.06 1.35v-1.9h-1.75v11zm8.06.37a5.1 5.1 0 002.34-.54 4.77 4.77 0 001.62-1.28 2.61 2.61 0 00.32 1 1.51 1.51 0 001.38.68 5 5 0 00.62 0 5.41 5.41 0 00.66-.15v-1.37l-.33.05h-.28a.6.6 0 01-.5-.17.82.82 0 01-.11-.47V253a2.51 2.51 0 00-1.21-2.3 5.9 5.9 0 00-3.15-.74 5.39 5.39 0 00-2.94.79 3.16 3.16 0 00-1.32 2.83h1.72a2.63 2.63 0 01.44-1.28 2.46 2.46 0 012.06-.78 3.62 3.62 0 011.92.42 1.52 1.52 0 01.68 1.38 1.48 1.48 0 01-.13.7 1 1 0 01-.85.54l-2.95.37a4.46 4.46 0 00-2.5 1 3 3 0 00-1 2.37 3.09 3.09 0 001 2.32 3.47 3.47 0 002.51.94zm.44-1.57a2.16 2.16 0 01-1.39-.46 1.53 1.53 0 01-.59-1.26 1.64 1.64 0 01.86-1.54 3.87 3.87 0 011.51-.42l1.12-.15a7.93 7.93 0 001-.2 3.49 3.49 0 00.88-.36v1.49a2.55 2.55 0 01-1.54 2.45 4.23 4.23 0 01-1.85.46zm10.15 1.2v-5.76a7.74 7.74 0 01.14-1.66 3 3 0 011.94-2 4 4 0 011.08-.13 1.81 1.81 0 011.79 1 3.88 3.88 0 01.29 1.62v6.93H67v-7.05a5.84 5.84 0 00-.45-2.56 3.19 3.19 0 00-3.13-1.58 4.41 4.41 0 00-1.94.42 4.87 4.87 0 00-1.66 1.38v-1.56h-1.75v11zm13.75.43a4.74 4.74 0 003.39-1.07 3.38 3.38 0 001.12-2.55 2.48 2.48 0 00-1.08-2.23 9.42 9.42 0 00-2.67-.93l-1.22-.3a4.37 4.37 0 01-1.2-.44 1.3 1.3 0 01-.7-1.15 1.28 1.28 0 01.53-1.06 2.63 2.63 0 011.59-.4 2.8 2.8 0 012.21.73 2.09 2.09 0 01.44 1.14h1.73a3.19 3.19 0 00-.67-2 4.2 4.2 0 00-3.58-1.45 4.51 4.51 0 00-3 1 3.17 3.17 0 00-1.12 2.53 2.32 2.32 0 001.19 2.07 6.9 6.9 0 002.07.78l1.47.37a7.25 7.25 0 011.58.53 1.17 1.17 0 01.63 1.08 1.49 1.49 0 01-.78 1.38 3.54 3.54 0 01-1.81.44 2.88 2.88 0 01-2.42-.89 2.68 2.68 0 01-.47-1.42h-1.8a4.22 4.22 0 001.09 2.76 4.57 4.57 0 003.48 1.08zm9.58-.06a5 5 0 002.33-.54 4.72 4.72 0 001.63-1.28 2.45 2.45 0 00.32 1 1.51 1.51 0 001.38.68 5 5 0 00.62 0 5.41 5.41 0 00.66-.15v-1.37l-.33.05h-.28a.6.6 0 01-.5-.17.82.82 0 01-.12-.47V253a2.51 2.51 0 00-1.2-2.3 5.92 5.92 0 00-3.15-.74 5.39 5.39 0 00-2.94.79 3.16 3.16 0 00-1.32 2.83h1.72a2.63 2.63 0 01.44-1.28 2.46 2.46 0 012.06-.78 3.65 3.65 0 011.92.42 1.52 1.52 0 01.68 1.38 1.61 1.61 0 01-.13.7 1 1 0 01-.85.54l-3 .37a4.46 4.46 0 00-2.5 1 3 3 0 00-1 2.37 3 3 0 001 2.32 3.47 3.47 0 002.56.94zm.43-1.57a2.15 2.15 0 01-1.38-.46 1.53 1.53 0 01-.59-1.26 1.65 1.65 0 01.85-1.54 4 4 0 011.51-.42l1.12-.15a7.76 7.76 0 001-.2 3.26 3.26 0 00.87-.36v1.49a2.54 2.54 0 01-1.54 2.45 4.23 4.23 0 01-1.84.46zM96 261.51a4.34 4.34 0 004.69-4.21h-1.83a4 4 0 01-.93 1.93 2.72 2.72 0 01-4-.43 5.23 5.23 0 01-.69-2.78 6.87 6.87 0 01.49-2.77 2.6 2.6 0 012.53-1.72 2.37 2.37 0 011.88.67 3.32 3.32 0 01.75 1.69h1.79a4.28 4.28 0 00-1.4-3.11 4.8 4.8 0 00-3-.91 4.54 4.54 0 00-3.59 1.62 6.62 6.62 0 00-1.46 4.51 6 6 0 001.29 3.94 4.19 4.19 0 003.48 1.57zm9.13-.14a5.86 5.86 0 00.75 0 3.69 3.69 0 00.66-.14v-1.45H105.89a1.61 1.61 0 01-.72-.12.77.77 0 01-.39-.77v-7.19h1.76v-1.51h-1.76v-3.07h-1.87v3.07h-1.49v1.51h1.49v7.3a3 3 0 00.46 1.72 2 2 0 001.72.65zm5.14-13.17v-2.09h-1.88v2.09zm0 13v-10.96h-1.88v10.95zm7 .41a4.69 4.69 0 004-1.74 7.18 7.18 0 001.29-4.4 5.55 5.55 0 00-1.47-4.17 5 5 0 00-3.59-1.42 4.72 4.72 0 00-3.78 1.65 6.55 6.55 0 00-1.41 4.42 6.06 6.06 0 001.34 4.12 4.54 4.54 0 003.56 1.53zm.18-1.6a2.72 2.72 0 01-2.45-1.17 5.23 5.23 0 01-.77-2.93 6 6 0 01.77-3.12 2.66 2.66 0 012.47-1.29 2.76 2.76 0 012.63 1.5 5.48 5.48 0 01.49 2.5 7 7 0 01-.68 3.1 2.55 2.55 0 01-2.52 1.4zm9.18 1.19v-5.76a7.74 7.74 0 01.14-1.66 2.68 2.68 0 01.6-1.12 2.87 2.87 0 011.33-.91 4 4 0 011.08-.13 1.8 1.8 0 011.79 1 3.72 3.72 0 01.3 1.62v6.93h1.88v-7.05a5.84 5.84 0 00-.45-2.56 3.21 3.21 0 00-3.17-1.63 4.41 4.41 0 00-1.94.42 4.94 4.94 0 00-1.65 1.38v-1.56h-1.76v11zm18.65.37a5 5 0 002.33-.54 4.72 4.72 0 001.63-1.28 2.61 2.61 0 00.32 1 1.51 1.51 0 001.38.68 5 5 0 00.62 0 5.41 5.41 0 00.66-.15v-1.37l-.33.05h-.28a.6.6 0 01-.5-.17.82.82 0 01-.12-.47V253a2.51 2.51 0 00-1.2-2.3 5.92 5.92 0 00-3.15-.74 5.39 5.39 0 00-2.94.79 3.16 3.16 0 00-1.32 2.83H144a2.63 2.63 0 01.44-1.28 2.46 2.46 0 012.06-.78 3.62 3.62 0 011.92.42 1.52 1.52 0 01.68 1.38 1.48 1.48 0 01-.13.7 1 1 0 01-.85.54l-2.95.37a4.46 4.46 0 00-2.5 1 3 3 0 00-1 2.37 3 3 0 001 2.32 3.47 3.47 0 002.55.94zm.43-1.57a2.15 2.15 0 01-1.38-.46 1.53 1.53 0 01-.59-1.26 1.65 1.65 0 01.85-1.54 4 4 0 011.51-.42l1.12-.15a7.76 7.76 0 001.05-.2 3.49 3.49 0 00.88-.36v1.49a2.55 2.55 0 01-1.55 2.45 4.17 4.17 0 01-1.95.45zm12.29 1.52a4.34 4.34 0 004.69-4.21h-1.79a3.84 3.84 0 01-.93 1.93 2.41 2.41 0 01-1.83.7 2.38 2.38 0 01-2.19-1.13 5.15 5.15 0 01-.7-2.78 6.87 6.87 0 01.49-2.77 2.6 2.6 0 012.53-1.72 2.37 2.37 0 011.88.67 3.32 3.32 0 01.75 1.69h1.79a4.28 4.28 0 00-1.4-3.11 4.8 4.8 0 00-3-.91 4.55 4.55 0 00-3.59 1.62 6.62 6.62 0 00-1.41 4.51 6 6 0 001.29 3.94 4.19 4.19 0 003.36 1.56zm10.52 0a4.34 4.34 0 004.69-4.21h-1.8a3.92 3.92 0 01-.92 1.93 2.72 2.72 0 01-4-.43 5.23 5.23 0 01-.69-2.78 6.87 6.87 0 01.49-2.77 2.6 2.6 0 012.53-1.72 2.38 2.38 0 011.88.67 3.23 3.23 0 01.74 1.69h1.8a4.28 4.28 0 00-1.4-3.11 4.82 4.82 0 00-3-.91 4.54 4.54 0 00-3.59 1.62 6.62 6.62 0 00-1.41 4.51 6 6 0 001.29 3.94 4.19 4.19 0 003.33 1.56zm10.73.09a4.67 4.67 0 004-1.74 7.18 7.18 0 001.29-4.4 5.55 5.55 0 00-1.47-4.17 5 5 0 00-3.59-1.42 4.72 4.72 0 00-3.78 1.65 6.55 6.55 0 00-1.41 4.42 6.06 6.06 0 001.34 4.12 4.54 4.54 0 003.56 1.53zm.18-1.6a2.73 2.73 0 01-2.45-1.17 5.23 5.23 0 01-.77-2.93 6 6 0 01.77-3.12 2.67 2.67 0 012.47-1.29 2.76 2.76 0 012.69 1.52 5.48 5.48 0 01.49 2.5 7 7 0 01-.68 3.1 2.55 2.55 0 01-2.58 1.38zm11 1.49a4 4 0 002.57-.86 3.84 3.84 0 00.89-1.06v1.62h1.74v-11h-1.84v5.41a6.87 6.87 0 01-.38 2.53 2.61 2.61 0 01-2.63 1.73 1.86 1.86 0 01-1.84-1 3 3 0 01-.27-1.37v-7.31h-1.89v7.48a4.65 4.65 0 00.46 2.25 3.32 3.32 0 003.09 1.57zm9.92-.3v-5.76a7.74 7.74 0 01.14-1.66 2.68 2.68 0 01.6-1.12 2.87 2.87 0 011.33-.91 4.09 4.09 0 011.08-.13 1.8 1.8 0 011.79 1 3.72 3.72 0 01.3 1.62v6.93h1.88v-7.05a5.84 5.84 0 00-.45-2.56 3.21 3.21 0 00-3.17-1.63 4.41 4.41 0 00-1.94.42 4.94 4.94 0 00-1.65 1.38v-1.56h-1.86v11zm12.44.18a5.7 5.7 0 00.74 0 3.8 3.8 0 00.67-.14v-1.45H213.55a1.55 1.55 0 01-.72-.12.77.77 0 01-.39-.77v-7.2h1.76v-1.51h-1.76v-3.07h-1.87v3.07H209v1.51h1.49v7.3a3 3 0 00.46 1.72 2 2 0 001.74.65zm5.84-.18V259h-2.14v2.23zm11.25 0v-9.14-1.43-2.15l4.34 12.72h2l4.3-12.72v12.72h1.94v-15.09h-3.06l-4.31 12.75-4.33-12.75h-2.93v15.08zm19.57.41a4.7 4.7 0 004-1.74 7.18 7.18 0 001.29-4.4 5.55 5.55 0 00-1.47-4.17 5 5 0 00-3.59-1.42 4.69 4.69 0 00-3.78 1.65 6.55 6.55 0 00-1.41 4.42 6.06 6.06 0 001.33 4.12 4.56 4.56 0 003.53 1.53zm.17-1.6a2.71 2.71 0 01-2.44-1.17 5.23 5.23 0 01-.77-2.93 6 6 0 01.77-3.12 2.66 2.66 0 012.47-1.29 2.76 2.76 0 012.69 1.52 5.62 5.62 0 01.49 2.5 7 7 0 01-.68 3.1 2.56 2.56 0 01-2.63 1.38zm9.24 1.19v-6.32a3.14 3.14 0 01.75-2.07 2.63 2.63 0 012.15-.9h.6V250h-.59a2.76 2.76 0 00-1.95.79 4.11 4.11 0 00-1.05 1.35v-1.9h-1.76v11zm9.4.39a6.36 6.36 0 001.51-.16 4.25 4.25 0 002.08-1.11 4.57 4.57 0 00.91-1.22 3.8 3.8 0 00.48-1.35h-1.82a3.24 3.24 0 01-.7 1.29 3 3 0 01-2.31 1 2.63 2.63 0 01-2.29-1 4.69 4.69 0 01-.79-2.69h8.06a12.79 12.79 0 00-.16-2.42 4.82 4.82 0 00-.74-1.94 4.13 4.13 0 00-1.67-1.42 5 5 0 00-2.27-.55 4.73 4.73 0 00-3.76 1.65 6.31 6.31 0 00-1.44 4.3 5.79 5.79 0 001.43 4.19 4.61 4.61 0 003.38 1.42zm3.23-6.76h-6.11a3.47 3.47 0 01.92-2.34 2.8 2.8 0 012.13-.92 2.68 2.68 0 012.54 1.33 4.78 4.78 0 01.52 1.93zm11.9-6.62v-2.09h-1.88v2.09zm0 13v-10.97h-1.88v10.95zm4.64 0v-5.76a7.74 7.74 0 01.14-1.66 2.68 2.68 0 01.6-1.12 2.85 2.85 0 011.34-.91 4 4 0 011.07-.13 1.8 1.8 0 011.79 1 3.72 3.72 0 01.3 1.62v6.93h1.88v-7.05a5.84 5.84 0 00-.45-2.56 3.2 3.2 0 00-3.17-1.63 4.41 4.41 0 00-1.94.42 4.94 4.94 0 00-1.65 1.38v-1.56h-1.76v11zm12.14 0v-9.51h1.85v-1.46h-1.83a8.47 8.47 0 01.17-2.22c.11-.29.44-.44 1-.44H302.02v-1.69h-.78a2.85 2.85 0 00-2.5.94 3.45 3.45 0 00-.4 1.69v1.72h-1.53v1.46h1.53v9.49zm7.75.41a4.67 4.67 0 004-1.74 7.12 7.12 0 001.3-4.4 5.55 5.55 0 00-1.47-4.17 5 5 0 00-3.6-1.42 4.72 4.72 0 00-3.78 1.65 6.6 6.6 0 00-1.4 4.42 6.06 6.06 0 001.33 4.12 4.55 4.55 0 003.52 1.52zM308 260a2.71 2.71 0 01-2.44-1.17 5.15 5.15 0 01-.77-2.93 5.94 5.94 0 01.77-3.12 2.64 2.64 0 012.46-1.29 2.76 2.76 0 012.68 1.51 5.47 5.47 0 01.5 2.5 6.89 6.89 0 01-.69 3.1A2.53 2.53 0 01308 260zm10.46-7.42v-2.24h-2.16v2.24zm0 8.61V259h-2.16v2.23zm12.49 0l2.17-8.51 2.24 8.51h1.92l3.19-11h-1.85l-2.25 8.62-2.15-8.62h-2.08l-2.14 8.67-2.11-8.67h-2l3.17 11zm15.19 0l2.17-8.51 2.24 8.51h1.92l3.19-11h-1.84l-2.25 8.62-2.16-8.62h-2.08l-2.14 8.67-2.12-8.67h-2l3.17 11zm15.19 0l2.17-8.51 2.24 8.51h1.92l3.2-11H369l-2.25 8.62-2.16-8.62h-2.07l-2.15 8.67-2.12-8.67h-2l3.17 11zm12.71 0V259h-2.15v2.23zm8 .35a4.11 4.11 0 003.51-1.72 7.17 7.17 0 001.26-4.34 6 6 0 00-1.28-4.16 4.28 4.28 0 00-3.33-1.41 4 4 0 00-1.83.41 4.09 4.09 0 00-1.45 1.21v-5.48h-1.8v15.14h1.71v-1.4a5.33 5.33 0 001.1 1.15 3.6 3.6 0 002.13.6zm-.11-1.63a2.69 2.69 0 01-2.72-1.82 6.78 6.78 0 01-.39-2.51 4.19 4.19 0 011-3.09 3.06 3.06 0 012.21-.93 2.44 2.44 0 012.19 1.14 5.14 5.14 0 01.75 2.88 5.84 5.84 0 01-.75 3.14 2.46 2.46 0 01-2.22 1.19zm8.74 5.67V260a5 5 0 001.1 1.06 3.8 3.8 0 002.09.54 4.24 4.24 0 002.77-1q1.88-1.54 1.88-5.14a5.86 5.86 0 00-1.31-4.09 4.09 4.09 0 00-3.17-1.43 3.93 3.93 0 00-2.2.61 4.55 4.55 0 00-1.21 1.16v-1.46h-1.8v15.34zm2.94-5.63a2.63 2.63 0 01-2.63-1.7 5.62 5.62 0 01-.38-2.17 7.66 7.66 0 01.38-2.61 2.79 2.79 0 015.26-.1 6.11 6.11 0 01.38 2.26 5.16 5.16 0 01-.86 3.24 2.64 2.64 0 01-2.13 1.13zm10 1.61A5.1 5.1 0 00406 261a4.77 4.77 0 001.62-1.28 2.61 2.61 0 00.32 1 1.52 1.52 0 001.38.68 5 5 0 00.62 0 5.41 5.41 0 00.66-.15v-1.37l-.33.05H410a.6.6 0 01-.5-.17.91.91 0 01-.11-.47V253a2.49 2.49 0 00-1.21-2.3 5.9 5.9 0 00-3.15-.74 5.39 5.39 0 00-2.94.79 3.16 3.16 0 00-1.32 2.83h1.72a2.53 2.53 0 01.45-1.28 2.43 2.43 0 012-.78 3.66 3.66 0 011.93.42 1.54 1.54 0 01.67 1.38 1.63 1.63 0 01-.12.7 1 1 0 01-.86.54l-2.95.37a4.49 4.49 0 00-2.5 1 3 3 0 00-1 2.37 3.09 3.09 0 001 2.32 3.47 3.47 0 002.53.94zm.44-1.57a2.16 2.16 0 01-1.39-.46 1.53 1.53 0 01-.59-1.26 1.64 1.64 0 01.86-1.54 3.92 3.92 0 011.51-.42l1.12-.15a7.93 7.93 0 001-.2 3.49 3.49 0 00.88-.36v1.49a2.55 2.55 0 01-1.54 2.45 4.23 4.23 0 01-1.82.46zm9.28 5.71a2.57 2.57 0 002.26-.92 31.41 31.41 0 002.26-5.14c.45-1.19 1-2.73 1.69-4.62q1.33-3.77 1.73-4.83h-2l-3 9-3-9h-2.09l4.06 11.32c-.09.25-.25.63-.46 1.13s-.33.79-.37.85a1.56 1.56 0 01-.4.41 1.38 1.38 0 01-.76.17h-.38c-.14 0-.38-.08-.7-.16v1.68l.52.11a4.54 4.54 0 00.67 0zm10.58-4.51V259h-2.11v2.23zm7.23.32a4.34 4.34 0 004.7-4.21h-1.8a3.84 3.84 0 01-.93 1.93 2.71 2.71 0 01-4-.43 5.15 5.15 0 01-.7-2.78 7 7 0 01.49-2.77 2.6 2.6 0 012.53-1.72 2.37 2.37 0 011.88.67 3.32 3.32 0 01.75 1.69h1.8a4.36 4.36 0 00-1.4-3.11 4.83 4.83 0 00-3-.91 4.52 4.52 0 00-3.58 1.62 6.62 6.62 0 00-1.41 4.51 6.08 6.08 0 001.28 3.94 4.22 4.22 0 003.42 1.57zm10.74.09a4.67 4.67 0 004-1.74 7.12 7.12 0 001.3-4.4 5.55 5.55 0 00-1.47-4.17 5 5 0 00-3.6-1.42 4.72 4.72 0 00-3.78 1.65 6.6 6.6 0 00-1.4 4.42 6.06 6.06 0 001.33 4.12 4.55 4.55 0 003.65 1.54zm.17-1.6a2.71 2.71 0 01-2.44-1.17 5.15 5.15 0 01-.77-2.93 5.94 5.94 0 01.77-3.12 2.64 2.64 0 012.46-1.29 2.76 2.76 0 012.69 1.52 5.47 5.47 0 01.5 2.5 6.89 6.89 0 01-.69 3.1 2.53 2.53 0 01-2.49 1.39zm9.19 1.19v-5.83a4 4 0 01.85-2.94 2.74 2.74 0 011.91-.81 1.63 1.63 0 011.57.77 3.69 3.69 0 01.27 1.63v7.18h1.88v-6.39a3.23 3.23 0 01.78-2.44 2.66 2.66 0 011.88-.73 2.22 2.22 0 011.34.41 1.81 1.81 0 01.55 1.51v7.64h1.92v-7.32a5.33 5.33 0 00-.43-2.32 3.06 3.06 0 00-3-1.6 4.08 4.08 0 00-1.87.42 4 4 0 00-1.45 1.31 3.49 3.49 0 00-.82-1.09 3.29 3.29 0 00-2.12-.64 3.63 3.63 0 00-2.07.62 5.93 5.93 0 00-1.19 1.18v-1.56h-1.83v11zm18.26 0V259h-2.15v2.23zm6.21.37a5.1 5.1 0 002.34-.54 4.77 4.77 0 001.62-1.28 2.61 2.61 0 00.32 1 1.51 1.51 0 001.38.68 5 5 0 00.62 0 5.41 5.41 0 00.66-.15v-1.37l-.33.05h-.28a.6.6 0 01-.5-.17.82.82 0 01-.12-.47V253a2.51 2.51 0 00-1.2-2.3 5.92 5.92 0 00-3.15-.74 5.39 5.39 0 00-2.94.79 3.16 3.16 0 00-1.32 2.83h1.72a2.63 2.63 0 01.44-1.28 2.46 2.46 0 012.06-.78 3.62 3.62 0 011.92.42 1.52 1.52 0 01.68 1.38 1.48 1.48 0 01-.13.7 1 1 0 01-.85.54l-2.95.37a4.46 4.46 0 00-2.5 1 3 3 0 00-1 2.37 3.09 3.09 0 001 2.32 3.47 3.47 0 002.54.94zm.44-1.57a2.16 2.16 0 01-1.39-.46 1.53 1.53 0 01-.59-1.26 1.64 1.64 0 01.86-1.54 3.87 3.87 0 011.51-.42l1.12-.15a7.93 7.93 0 001-.2 3.49 3.49 0 00.88-.36v1.49a2.55 2.55 0 01-1.54 2.45 4.23 4.23 0 01-1.82.46zm11.93 1.5a4 4 0 002.57-.86 3.67 3.67 0 00.89-1.06v1.62h1.75v-11h-1.85v5.41a6.87 6.87 0 01-.38 2.53 2.6 2.6 0 01-2.63 1.73 1.86 1.86 0 01-1.84-1 3 3 0 01-.27-1.37v-7.31h-1.89v7.48a4.65 4.65 0 00.47 2.25 3.29 3.29 0 003.21 1.58z"/><path id="Anypaymentmustbefortheexactamountofthis" d="M10 316.14l1.64-4.52h6l1.54 4.52h2.23l-5.47-15.09H13.6l-5.68 15.09zm7-6.14h-4.77l2.44-6.67zm7.89 6.18v-5.76a7.86 7.86 0 01.13-1.66 2.76 2.76 0 01.61-1.12 2.69 2.69 0 011.33-.91 3.62 3.62 0 011.08-.13 1.81 1.81 0 011.79 1 3.73 3.73 0 01.29 1.62v6.93H32v-7.05a5.81 5.81 0 00-.45-2.56 3.19 3.19 0 00-3.16-1.63 4.41 4.41 0 00-1.94.42 5 5 0 00-1.66 1.38v-1.56H23v11zm10.82 4.51a2.6 2.6 0 002.26-.92 31.41 31.41 0 002.26-5.14c.45-1.19 1-2.73 1.69-4.62q1.34-3.77 1.73-4.83h-2l-3 9-3-9h-2.09l4.06 11.32c-.09.25-.25.62-.46 1.13a7.91 7.91 0 01-.37.84 1.46 1.46 0 01-.4.42 1.38 1.38 0 01-.76.17h-.38a6.51 6.51 0 01-.7-.17v1.69l.52.11a4.54 4.54 0 00.6-.04zm17.1-.12v-5.62a5 5 0 001.05 1.05 3.82 3.82 0 002.09.54 4.24 4.24 0 002.77-1c1.26-1 1.88-2.74 1.88-5.14a5.86 5.86 0 00-1.3-4.09 4.13 4.13 0 00-3.18-1.44 3.88 3.88 0 00-2.19.62 4.43 4.43 0 00-1.22 1.16v-1.46h-1.79v15.34zm2.93-5.63a2.63 2.63 0 01-2.63-1.7 5.62 5.62 0 01-.38-2.17 7.66 7.66 0 01.38-2.61 2.79 2.79 0 015.26-.1 5.91 5.91 0 01.38 2.26 5.2 5.2 0 01-.85 3.24 2.66 2.66 0 01-2.2 1.04zm10 1.61a5.06 5.06 0 002.33-.54 4.49 4.49 0 001.62-1.29 2.61 2.61 0 00.32 1 1.53 1.53 0 001.39.68 4.82 4.82 0 00.61 0 4.27 4.27 0 00.66-.16v-1.36H72.07a.59.59 0 01-.5-.17.84.84 0 01-.12-.47v-6.33a2.52 2.52 0 00-1.2-2.31 6 6 0 00-3.16-.74 5.44 5.44 0 00-2.94.8 3.2 3.2 0 00-1.32 2.83h1.73a2.5 2.5 0 01.44-1.28 2.44 2.44 0 012-.78 3.66 3.66 0 011.93.42 1.5 1.5 0 01.67 1.37 1.65 1.65 0 01-.12.71 1 1 0 01-.85.54l-3 .37a4.55 4.55 0 00-2.51 1 3 3 0 00-1 2.38 3.06 3.06 0 001 2.32 3.45 3.45 0 002.6.97zm.43-1.57a2.18 2.18 0 01-1.39-.46 1.52 1.52 0 01-.58-1.26 1.65 1.65 0 01.85-1.55 4.38 4.38 0 011.51-.42l1.12-.14a7 7 0 001-.21 2.92 2.92 0 00.87-.36V312a2.54 2.54 0 01-1.55 2.49 4.23 4.23 0 01-1.85.45zm9.29 5.71a2.61 2.61 0 002.26-.92 32.37 32.37 0 002.28-5.18q.67-1.79 1.68-4.62 1.35-3.77 1.74-4.83h-2l-3 9-3-9h-2.1l4.07 11.32c-.1.25-.25.62-.47 1.13s-.33.79-.36.84a1.49 1.49 0 01-.41.42 1.35 1.35 0 01-.76.17L75 319a6.49 6.49 0 01-.69-.17v1.69c.2.05.37.09.51.11a4.71 4.71 0 00.62.02zm11.39-4.51v-5.83a4 4 0 01.85-2.94 2.74 2.74 0 011.91-.81 1.63 1.63 0 011.57.77 3.69 3.69 0 01.27 1.63v7.18h1.88v-6.4a3.22 3.22 0 01.78-2.43 2.66 2.66 0 011.88-.73 2.2 2.2 0 011.34.41 1.77 1.77 0 01.55 1.51v7.64h1.92v-7.32a5.19 5.19 0 00-.43-2.32 3.06 3.06 0 00-3-1.6 4.08 4.08 0 00-1.87.42 4 4 0 00-1.5 1.27 3.49 3.49 0 00-.82-1.09 3.29 3.29 0 00-2.12-.64 3.56 3.56 0 00-2.07.62 5.93 5.93 0 00-1.19 1.18v-1.56H85v11zm20 .39a6.36 6.36 0 001.51-.16 4.29 4.29 0 002.08-1.11 4.73 4.73 0 00.91-1.22 3.8 3.8 0 00.48-1.35H110a3.24 3.24 0 01-.7 1.29 3 3 0 01-2.31.95 2.66 2.66 0 01-2.29-1 4.71 4.71 0 01-.79-2.69h8.06a12.72 12.72 0 00-.16-2.42 5 5 0 00-.74-1.94 4.26 4.26 0 00-1.68-1.43 5.08 5.08 0 00-2.27-.54 4.76 4.76 0 00-3.76 1.65 6.36 6.36 0 00-1.43 4.3 5.83 5.83 0 001.42 4.19 4.64 4.64 0 003.45 1.44zm3.23-6.77h-6.11a3.46 3.46 0 01.91-2.33 2.8 2.8 0 012.14-.92 2.68 2.68 0 012.54 1.33 4.77 4.77 0 01.52 1.92zm6 6.38v-5.76a7.74 7.74 0 01.14-1.66 2.62 2.62 0 01.6-1.12 2.71 2.71 0 011.34-.91 3.59 3.59 0 011.07-.13 1.8 1.8 0 011.79 1 3.72 3.72 0 01.3 1.62v6.93h1.88v-7.05a5.81 5.81 0 00-.45-2.56 3.21 3.21 0 00-3.17-1.63 4.41 4.41 0 00-1.94.42 4.94 4.94 0 00-1.64 1.37v-1.56h-1.8v11zm12.44.18h.74a4.67 4.67 0 00.67-.14v-1.46H129.28a1.55 1.55 0 01-.72-.12.77.77 0 01-.39-.77v-7.18h1.76v-1.51h-1.76v-3.07h-1.87v3.07h-1.49v1.51h1.49v7.28a3 3 0 00.46 1.73 2 2 0 001.73.62zm10.95-.18v-5.83a4 4 0 01.86-2.94 2.7 2.7 0 011.9-.81 1.63 1.63 0 011.57.77 3.69 3.69 0 01.2 1.63v7.18h1.88v-6.4a3.18 3.18 0 01.79-2.43 2.64 2.64 0 011.87-.73 2.18 2.18 0 011.34.41 1.77 1.77 0 01.55 1.51v7.64h1.92v-7.32a5.19 5.19 0 00-.43-2.32 3 3 0 00-3-1.6 3.81 3.81 0 00-3.32 1.73 3.34 3.34 0 00-.82-1.09 3.26 3.26 0 00-2.11-.64 3.57 3.57 0 00-2.08.62 6.2 6.2 0 00-1.19 1.18v-1.56h-1.83v11zm19.3.3a4 4 0 002.57-.86 3.67 3.67 0 00.89-1.06v1.62h1.75v-11h-1.85v5.4a6.89 6.89 0 01-.38 2.54 2.6 2.6 0 01-2.63 1.73 1.86 1.86 0 01-1.84-1 3 3 0 01-.27-1.37v-7.31h-1.89v7.48a4.65 4.65 0 00.47 2.25 3.29 3.29 0 003.15 1.54zm12 .12a4.74 4.74 0 003.39-1.06 3.39 3.39 0 001.12-2.54 2.48 2.48 0 00-1.08-2.23 9.42 9.42 0 00-2.67-.93l-1.22-.3a4.37 4.37 0 01-1.22-.45 1.32 1.32 0 01-.71-1.16 1.24 1.24 0 01.54-1.05 2.63 2.63 0 011.59-.4 2.81 2.81 0 012.21.73 2.09 2.09 0 01.44 1.14h1.75a3.19 3.19 0 00-.67-2 4.21 4.21 0 00-3.59-1.46 4.51 4.51 0 00-3 1 3.18 3.18 0 00-1.13 2.53 2.33 2.33 0 001.2 2.07 6.9 6.9 0 002.07.78l1.47.37a7.25 7.25 0 011.58.53 1.16 1.16 0 01.63 1.07 1.49 1.49 0 01-.78 1.39 3.65 3.65 0 01-1.81.44 2.88 2.88 0 01-2.42-.89 2.68 2.68 0 01-.47-1.42h-1.77a4.17 4.17 0 001.09 2.76 4.57 4.57 0 003.4 1.04zm9.21-.24h.75a4.54 4.54 0 00.66-.14v-1.46H180.74a1.61 1.61 0 01-.72-.12.77.77 0 01-.39-.77v-7.18h1.76v-1.51h-1.76v-3.07h-1.93v3.07h-1.49v1.51h1.49v7.28a3 3 0 00.47 1.73 2 2 0 001.75.62zm13.88.17a4.09 4.09 0 003.5-1.72 7.18 7.18 0 001.27-4.34 6 6 0 00-1.28-4.16 4.32 4.32 0 00-3.34-1.42 4 4 0 00-3.27 1.63V301h-1.8v15.14h1.7v-1.4a5.33 5.33 0 001.1 1.15 3.63 3.63 0 002.06.6zm-.11-1.63A2.71 2.71 0 01191 313a6.8 6.8 0 01-.39-2.52 4.22 4.22 0 011-3.08 3.1 3.1 0 012.22-.93 2.46 2.46 0 012.19 1.14 5.13 5.13 0 01.75 2.87 5.85 5.85 0 01-.75 3.15 2.47 2.47 0 01-2.33 1.23zm11.25 1.63a6.36 6.36 0 001.51-.16 4.29 4.29 0 002.08-1.11 4.73 4.73 0 00.91-1.22 3.8 3.8 0 00.48-1.35h-1.82a3.24 3.24 0 01-.7 1.29 3 3 0 01-2.31.95 2.66 2.66 0 01-2.29-1 4.71 4.71 0 01-.79-2.69h8.06a12.72 12.72 0 00-.16-2.42 5 5 0 00-.74-1.94 4.26 4.26 0 00-1.68-1.43 5.08 5.08 0 00-2.27-.54 4.76 4.76 0 00-3.76 1.65 6.36 6.36 0 00-1.43 4.3 5.83 5.83 0 001.42 4.19 4.64 4.64 0 003.49 1.48zm3.23-6.77h-6.11a3.46 3.46 0 01.91-2.33 2.8 2.8 0 012.14-.92 2.68 2.68 0 012.54 1.33 4.77 4.77 0 01.52 1.92zm12.31 6.38v-9.49h1.85v-1.46h-1.83a8.66 8.66 0 01.16-2.22c.11-.29.45-.44 1-.44h.7v-1.68h-.78a2.83 2.83 0 00-2.5.94 3.35 3.35 0 00-.4 1.69v1.72h-1.54v1.46h1.53v9.49zm7.74.4a4.67 4.67 0 004-1.73 7.2 7.2 0 001.29-4.4 5.55 5.55 0 00-1.47-4.17 5 5 0 00-3.59-1.42 4.72 4.72 0 00-3.78 1.65 6.52 6.52 0 00-1.41 4.41 6.09 6.09 0 001.38 4.12 4.53 4.53 0 003.6 1.54zm.18-1.59a2.73 2.73 0 01-2.45-1.17 5.26 5.26 0 01-.77-2.93 6 6 0 01.77-3.12 2.67 2.67 0 012.47-1.29 2.76 2.76 0 012.69 1.52 5.48 5.48 0 01.49 2.5 7 7 0 01-.68 3.1 2.55 2.55 0 01-2.5 1.44zm9.23 1.19v-6.32a3.1 3.1 0 01.75-2.07 2.65 2.65 0 012.15-.9h.3a1.77 1.77 0 01.3 0V305h-.59a2.74 2.74 0 00-1.94.79 4.17 4.17 0 00-1.06 1.35v-1.9h-1.76v11zm13.54.18h.74a4.67 4.67 0 00.67-.14v-1.46H252a1.58 1.58 0 01-.72-.12.77.77 0 01-.39-.77v-7.18h1.76v-1.51h-1.75v-3.07H249v3.07h-1.49v1.51H249v7.28a3 3 0 00.46 1.73 2 2 0 001.79.66zm5.11-.18v-5.83a3.81 3.81 0 01.93-3 3.13 3.13 0 012.09-.79 2 2 0 011.89.9 4 4 0 01.3 1.78v6.93h1.9v-7.05a5.68 5.68 0 00-.46-2.54 3.29 3.29 0 00-3.24-1.68 4 4 0 00-2.23.59 5.33 5.33 0 00-1.18 1.17V301h-1.85v15.14zm14.14.39a6.36 6.36 0 001.51-.16 4.25 4.25 0 002.08-1.11A4.73 4.73 0 00275 314a3.8 3.8 0 00.48-1.35h-1.82A3.22 3.22 0 01273 314a3 3 0 01-2.32.95 2.67 2.67 0 01-2.29-1 4.79 4.79 0 01-.79-2.69h8.07a12.52 12.52 0 00-.17-2.42 4.82 4.82 0 00-.74-1.94 4.23 4.23 0 00-1.67-1.43 5.11 5.11 0 00-2.27-.54 4.75 4.75 0 00-3.76 1.65 6.31 6.31 0 00-1.44 4.3A5.83 5.83 0 00267 315a4.61 4.61 0 003.5 1.53zm3.24-6.77h-6.12a3.47 3.47 0 01.92-2.33 2.78 2.78 0 012.13-.92 2.68 2.68 0 012.54 1.33 4.77 4.77 0 01.53 1.92zm14.3 6.77a6.25 6.25 0 001.51-.16 4.28 4.28 0 002.09-1.11 4.73 4.73 0 00.91-1.22 3.8 3.8 0 00.48-1.35h-1.82a3.24 3.24 0 01-.7 1.29 3 3 0 01-2.31.95 2.65 2.65 0 01-2.29-1 4.64 4.64 0 01-.79-2.69h8.06a12.72 12.72 0 00-.16-2.42 5 5 0 00-.74-1.94 4.33 4.33 0 00-1.68-1.43 5.08 5.08 0 00-2.27-.54 4.75 4.75 0 00-3.76 1.65 6.31 6.31 0 00-1.44 4.3 5.83 5.83 0 001.43 4.19 4.61 4.61 0 003.46 1.48zm3.24-6.77h-6.11a3.46 3.46 0 01.91-2.33 2.8 2.8 0 012.14-.92 2.69 2.69 0 012.54 1.33 4.94 4.94 0 01.52 1.92zm5.27 6.38l2.67-4.14 2.73 4.13h2.36l-3.87-5.64 3.71-5.31-2.25-.05-2.56 3.87-2.52-3.87h-2.4l3.68 5.36-3.87 5.64zm12.38.37a5.06 5.06 0 002.33-.54 4.58 4.58 0 001.62-1.29 2.61 2.61 0 00.32 1 1.53 1.53 0 001.39.68 4.82 4.82 0 00.61 0 4.27 4.27 0 00.66-.16v-1.36H315.23a.58.58 0 01-.49-.17.84.84 0 01-.12-.47v-6.33a2.52 2.52 0 00-1.2-2.31 6 6 0 00-3.16-.74 5.44 5.44 0 00-2.94.8 3.15 3.15 0 00-1.32 2.88h1.73a2.41 2.41 0 01.44-1.28 2.44 2.44 0 012.05-.78 3.66 3.66 0 011.93.42 1.5 1.5 0 01.67 1.37 1.65 1.65 0 01-.12.71 1 1 0 01-.86.54l-2.94.37a4.55 4.55 0 00-2.51 1 3 3 0 00-1 2.38 3.06 3.06 0 001 2.32 3.45 3.45 0 002.54.96zm.43-1.57a2.16 2.16 0 01-1.39-.46 1.52 1.52 0 01-.58-1.26 1.65 1.65 0 01.85-1.55 4.31 4.31 0 011.51-.42l1.12-.14a7 7 0 001.05-.21 2.92 2.92 0 00.87-.36V312a2.54 2.54 0 01-1.54 2.46 4.23 4.23 0 01-1.87.48zm12.28 1.52a4.34 4.34 0 004.7-4.21h-1.8a3.89 3.89 0 01-.93 1.93 2.71 2.71 0 01-4-.43 5.15 5.15 0 01-.7-2.78 7 7 0 01.49-2.77 2.6 2.6 0 012.53-1.72 2.37 2.37 0 011.88.67 3.32 3.32 0 01.75 1.69h1.8a4.36 4.36 0 00-1.4-3.11 4.77 4.77 0 00-3-.91 4.52 4.52 0 00-3.58 1.62 6.61 6.61 0 00-1.41 4.51 6 6 0 001.28 3.93 4.2 4.2 0 003.41 1.58zm9.14-.14h.74a4.54 4.54 0 00.66-.14v-1.46h-.64a1.55 1.55 0 01-.72-.12.77.77 0 01-.39-.77v-7.18h1.75v-1.51h-1.75v-3.07h-1.87v3.07h-1.49v1.51h1.49v7.28a3 3 0 00.46 1.73 2 2 0 001.78.66zm12.05.19a5.1 5.1 0 002.34-.54 4.67 4.67 0 001.62-1.29 2.61 2.61 0 00.32 1 1.52 1.52 0 001.38.68 5 5 0 00.62 0 4.27 4.27 0 00.66-.16v-1.36H349.14a.6.6 0 01-.5-.17.93.93 0 01-.11-.47v-6.33a2.51 2.51 0 00-1.21-2.31 6 6 0 00-3.15-.74 5.39 5.39 0 00-2.94.8 3.15 3.15 0 00-1.32 2.83h1.72a2.49 2.49 0 01.45-1.28 2.43 2.43 0 012-.78 3.66 3.66 0 011.93.42 1.52 1.52 0 01.67 1.37 1.65 1.65 0 01-.12.71 1 1 0 01-.86.54l-2.95.37a4.55 4.55 0 00-2.5 1 3 3 0 00-1 2.38 3.1 3.1 0 001 2.32 3.47 3.47 0 002.58 1.01zm.44-1.57a2.16 2.16 0 01-1.39-.46 1.53 1.53 0 01-.59-1.26 1.66 1.66 0 01.86-1.55 4.31 4.31 0 011.51-.42l1.12-.14a6.61 6.61 0 001-.21 2.88 2.88 0 00.88-.36V312a2.56 2.56 0 01-1.54 2.46 4.23 4.23 0 01-1.83.48zm10.16 1.2v-5.83a4 4 0 01.85-2.94 2.72 2.72 0 011.91-.81 1.63 1.63 0 011.57.77A3.69 3.69 0 01358 309v7.18h1.88v-6.4a3.22 3.22 0 01.78-2.43 2.66 2.66 0 011.88-.73 2.22 2.22 0 011.34.41 1.8 1.8 0 01.55 1.51v7.64h1.92v-7.32a5.33 5.33 0 00-.43-2.32 3.06 3.06 0 00-3-1.6 4.08 4.08 0 00-1.87.42 4 4 0 00-1.45 1.31 3.49 3.49 0 00-.82-1.09 3.29 3.29 0 00-2.12-.64 3.56 3.56 0 00-2.07.62 6.21 6.21 0 00-1.2 1.18v-1.56h-1.82v11zm19.86.4a4.68 4.68 0 004-1.73 7.2 7.2 0 001.29-4.4 5.55 5.55 0 00-1.47-4.17 5 5 0 00-3.59-1.42 4.72 4.72 0 00-3.78 1.65 6.52 6.52 0 00-1.41 4.41 6.09 6.09 0 001.34 4.13 4.53 4.53 0 003.64 1.53zm.18-1.59a2.72 2.72 0 01-2.45-1.17 5.26 5.26 0 01-.77-2.93 6 6 0 01.77-3.12 2.66 2.66 0 012.47-1.29 2.76 2.76 0 012.69 1.52 5.48 5.48 0 01.49 2.5 7 7 0 01-.68 3.1 2.55 2.55 0 01-2.5 1.44zm11 1.49a3.94 3.94 0 002.56-.86 3.7 3.7 0 00.9-1.06v1.62h1.74v-11h-1.85v5.4a6.69 6.69 0 01-.38 2.54 2.6 2.6 0 01-2.63 1.73 1.85 1.85 0 01-1.83-1 3 3 0 01-.27-1.37v-7.31h-1.89v7.48a4.65 4.65 0 00.46 2.25 3.32 3.32 0 003.17 1.58zm9.92-.3v-5.76a7.14 7.14 0 01.14-1.66 2.62 2.62 0 01.6-1.12 2.73 2.73 0 011.33-.91 3.62 3.62 0 011.08-.13 1.8 1.8 0 011.79 1 3.72 3.72 0 01.3 1.62v6.93h1.88v-7.05a5.81 5.81 0 00-.45-2.56 3.21 3.21 0 00-3.17-1.63 4.41 4.41 0 00-1.94.42 4.94 4.94 0 00-1.65 1.38v-1.56h-1.78v11zm12.44.18h.74a5 5 0 00.67-.14v-1.46H407.57a1.55 1.55 0 01-.72-.12.77.77 0 01-.39-.77v-7.18h1.76v-1.51h-1.76v-3.07h-1.87v3.07h-1.49v1.51h1.49v7.28a3 3 0 00.46 1.73 2 2 0 001.74.66zm13.29.22a4.69 4.69 0 004-1.73 7.2 7.2 0 001.29-4.4 5.55 5.55 0 00-1.47-4.17 5 5 0 00-3.59-1.42 4.69 4.69 0 00-3.78 1.65 6.52 6.52 0 00-1.41 4.41 6.08 6.08 0 001.33 4.13 4.56 4.56 0 003.61 1.53zm.17-1.59a2.71 2.71 0 01-2.44-1.17 5.26 5.26 0 01-.77-2.93 6 6 0 01.77-3.12 2.66 2.66 0 012.47-1.29A2.76 2.76 0 01423 308a5.48 5.48 0 01.49 2.5 7 7 0 01-.68 3.1 2.56 2.56 0 01-2.56 1.4zm9.63 1.19v-9.49h1.85v-1.46h-1.85a8.66 8.66 0 01.16-2.22c.11-.29.45-.44 1-.44H431.72v-1.68H431a2.84 2.84 0 00-2.5.94 3.35 3.35 0 00-.4 1.69v1.72h-1.53v1.46h1.53v9.49zm12 .18h.74a4.54 4.54 0 00.66-.14v-1.46h-.64a1.55 1.55 0 01-.72-.12.77.77 0 01-.39-.77v-7.18h1.75v-1.51h-1.75v-3.07h-1.87v3.07h-1.49v1.51h1.49v7.28a3 3 0 00.46 1.73 2 2 0 001.73.66zm5.1-.18v-5.83a3.78 3.78 0 01.94-3 3.11 3.11 0 012.08-.79 2 2 0 011.89.9 3.83 3.83 0 01.31 1.78v6.93h1.9v-7.05a5.68 5.68 0 00-.46-2.54 3.3 3.3 0 00-3.25-1.68 4 4 0 00-2.23.59 5.55 5.55 0 00-1.18 1.17V301h-1.85v15.14zm11.73-13v-2.1h-1.88v2.1zm0 13v-10.95h-1.88v10.95zm6.69.42a4.74 4.74 0 003.39-1.06 3.39 3.39 0 001.09-2.5 2.48 2.48 0 00-1.08-2.23 9.42 9.42 0 00-2.67-.93l-1.22-.3a4.17 4.17 0 01-1.21-.45 1.31 1.31 0 01-.71-1.16 1.24 1.24 0 01.54-1.05 2.59 2.59 0 011.58-.4 2.8 2.8 0 012.21.73 2.09 2.09 0 01.44 1.14h1.75a3.19 3.19 0 00-.67-2 4.2 4.2 0 00-3.58-1.46 4.52 4.52 0 00-3 1 3.17 3.17 0 00-1.12 2.53 2.32 2.32 0 001.19 2.07 6.9 6.9 0 002.07.78l1.47.37a7.25 7.25 0 011.58.53 1.16 1.16 0 01.63 1.07 1.49 1.49 0 01-.78 1.39 3.65 3.65 0 01-1.81.44 2.88 2.88 0 01-2.42-.89 2.59 2.59 0 01-.46-1.42h-1.78a4.22 4.22 0 001.09 2.76 4.57 4.57 0 003.45 1.04z"/><path d="M10.85 330.62v-2.09H9v2.09zm0 13v-10.95H9v10.95zm4.64 0v-5.77a7 7 0 01.14-1.65 2.65 2.65 0 01.6-1.13 2.78 2.78 0 011.33-.9 3.58 3.58 0 011.08-.14 1.82 1.82 0 011.79 1 3.72 3.72 0 01.3 1.62v6.94h1.88v-7.06a5.69 5.69 0 00-.46-2.56 3.19 3.19 0 00-3.15-1.6 4.41 4.41 0 00-1.94.42 4.86 4.86 0 00-1.65 1.39v-1.56h-1.77v11zm14.64 0l4.15-11h-2l-3.07 8.95-2.94-8.95H24.1l4 11zm9.92.4a4.67 4.67 0 004-1.74 7.1 7.1 0 001.3-4.39 5.52 5.52 0 00-1.47-4.17 5 5 0 00-3.59-1.42 4.71 4.71 0 00-3.78 1.64 6.57 6.57 0 00-1.41 4.42 6.06 6.06 0 001.33 4.12 4.53 4.53 0 003.62 1.52zm.17-1.59a2.69 2.69 0 01-2.44-1.18 5.14 5.14 0 01-.77-2.92 6 6 0 01.77-3.13 2.64 2.64 0 012.46-1.29 2.77 2.77 0 012.69 1.52 5.49 5.49 0 01.5 2.51 6.84 6.84 0 01-.69 3.09 2.54 2.54 0 01-2.52 1.4zm9.22-11.81v-2.09h-1.88v2.09zm0 13v-10.95h-1.88v10.95zm6.77.32a4.36 4.36 0 004.69-4.22h-1.8a3.84 3.84 0 01-.93 1.93 2.71 2.71 0 01-4-.43 5.24 5.24 0 01-.7-2.78 6.78 6.78 0 01.5-2.76 2.59 2.59 0 012.5-1.68 2.39 2.39 0 011.88.67 3.36 3.36 0 01.75 1.69h1.8a4.32 4.32 0 00-1.4-3.11 4.83 4.83 0 00-3-.9 4.56 4.56 0 00-3.58 1.61 6.64 6.64 0 00-1.41 4.51 6 6 0 001.29 3.94 4.2 4.2 0 003.41 1.53zM67 344a6.28 6.28 0 001.51-.17 4.28 4.28 0 002.09-1.11 4.91 4.91 0 00.91-1.21 3.94 3.94 0 00.48-1.35h-1.78a3.27 3.27 0 01-.7 1.28 3 3 0 01-2.31 1 2.63 2.63 0 01-2.29-1 4.61 4.61 0 01-.79-2.68h8.06a12.65 12.65 0 00-.17-2.43 4.87 4.87 0 00-.73-1.94 4.31 4.31 0 00-1.68-1.42 5 5 0 00-2.27-.55 4.75 4.75 0 00-3.76 1.58 6.34 6.34 0 00-1.44 4.31 5.81 5.81 0 001.43 4.18A4.62 4.62 0 0067 344zm3.24-6.77h-6.07a3.47 3.47 0 01.91-2.34 2.84 2.84 0 012.14-.92 2.7 2.7 0 012.54 1.34 4.94 4.94 0 01.52 1.92zm13 6.75a4.91 4.91 0 002.33-.55 4.72 4.72 0 001.63-1.28 2.45 2.45 0 00.32 1 1.51 1.51 0 001.38.67 5 5 0 00.62 0 5.41 5.41 0 00.66-.15v-1.37l-.33.05h-.28c-.25 0-.42-.05-.5-.17a.81.81 0 01-.12-.46v-6.34a2.51 2.51 0 00-1.2-2.3 6 6 0 00-3.15-.74 5.31 5.31 0 00-2.94.8 3.15 3.15 0 00-1.31 2.86h1.72a2.67 2.67 0 01.44-1.29 2.46 2.46 0 012.06-.78 3.55 3.55 0 011.92.43 1.5 1.5 0 01.68 1.37 1.66 1.66 0 01-.13.71 1 1 0 01-.85.53l-3 .37a4.53 4.53 0 00-2.5 1 3 3 0 00-1 2.37 3.09 3.09 0 001 2.33 3.47 3.47 0 002.56.96zm.43-1.57a2.16 2.16 0 01-1.37-.41 1.52 1.52 0 01-.59-1.26 1.65 1.65 0 01.85-1.54 4.38 4.38 0 011.51-.42l1.12-.15a7.76 7.76 0 001-.2 3.26 3.26 0 00.87-.36v1.49a2.53 2.53 0 01-1.49 2.44 4.25 4.25 0 01-1.89.42zm10.16 1.2v-5.77a7.63 7.63 0 01.17-1.64 2.65 2.65 0 01.6-1.13 2.81 2.81 0 011.34-.9A3.58 3.58 0 0197 334a1.81 1.81 0 011.78 1 3.72 3.72 0 01.3 1.62v6.94H101v-7.06a5.84 5.84 0 00-.45-2.56 3.19 3.19 0 00-3.16-1.63 4.46 4.46 0 00-1.95.42 4.86 4.86 0 00-1.65 1.39v-1.56H92v11zm13.6.39a4.43 4.43 0 002-.45 4.11 4.11 0 001.53-1.47v1.53h1.66v-15.13h-1.78V334a4.69 4.69 0 00-1.12-1.07 3.85 3.85 0 00-2.11-.54 4 4 0 00-3.51 1.76 7.12 7.12 0 00-1.23 4.17 6 6 0 001.35 4.11 4.11 4.11 0 003.22 1.57zm.58-1.62a2.63 2.63 0 01-2.41-1.19 5.43 5.43 0 01-.75-2.95 4.89 4.89 0 01.87-3.15A2.8 2.8 0 01108 334a2.66 2.66 0 012.1 1 4.64 4.64 0 01.86 3.08 5.23 5.23 0 01-.83 3.17 2.52 2.52 0 01-2.13 1.14zM126 344a4.12 4.12 0 003.51-1.73 7.14 7.14 0 001.26-4.33 6 6 0 00-1.28-4.17 4.28 4.28 0 00-3.33-1.41 4 4 0 00-3.28 1.62v-5.47h-1.8v15.14h1.71v-1.41a5.1 5.1 0 001.1 1.15 3.6 3.6 0 002.11.61zm-.11-1.64a2.69 2.69 0 01-2.72-1.81 6.87 6.87 0 01-.39-2.52 4.21 4.21 0 01.95-3.08A3 3 0 01126 334a2.46 2.46 0 012.2 1.14 5.22 5.22 0 01.74 2.88 5.91 5.91 0 01-.74 3.14 2.47 2.47 0 01-2.3 1.17zm11.34 1.64a6.28 6.28 0 001.51-.17 4.28 4.28 0 002.09-1.11 4.91 4.91 0 00.91-1.21 3.7 3.7 0 00.47-1.35h-1.81a3.27 3.27 0 01-.7 1.28 3 3 0 01-2.31 1 2.66 2.66 0 01-2.3-1 4.76 4.76 0 01-.79-2.68h8.07a12.65 12.65 0 00-.17-2.43 4.88 4.88 0 00-.74-1.94 4.21 4.21 0 00-1.67-1.42 5 5 0 00-2.27-.55 4.75 4.75 0 00-3.76 1.65 6.34 6.34 0 00-1.44 4.31 5.81 5.81 0 001.43 4.18 4.62 4.62 0 003.48 1.44zm3.24-6.77h-6.11a3.42 3.42 0 01.91-2.34 2.82 2.82 0 012.14-.92 2.68 2.68 0 012.53 1.34 4.77 4.77 0 01.53 1.92zm11.86 6.38v-5.84a4 4 0 01.86-2.93 2.68 2.68 0 011.9-.82 1.64 1.64 0 011.58.77 3.92 3.92 0 01.26 1.64v7.18h1.88v-6.4a3.19 3.19 0 01.79-2.44 2.68 2.68 0 011.87-.73 2.12 2.12 0 011.34.42 1.76 1.76 0 01.55 1.51v7.64h1.92v-7.33a5.22 5.22 0 00-.43-2.32 3 3 0 00-3-1.6 4 4 0 00-1.87.43 4.07 4.07 0 00-1.45 1.31 2.9 2.9 0 00-2.93-1.74 3.57 3.57 0 00-2.08.63 6.19 6.19 0 00-1.19 1.18v-1.56h-1.83v11zM171 344a5 5 0 002.34-.55 4.77 4.77 0 001.62-1.28 2.61 2.61 0 00.32 1 1.52 1.52 0 001.38.67 5 5 0 00.62 0 5.41 5.41 0 00.66-.15v-1.39l-.33.05h-.28c-.25 0-.42-.05-.5-.17a.89.89 0 01-.11-.46v-6.34a2.49 2.49 0 00-1.21-2.3 6 6 0 00-3.15-.74 5.31 5.31 0 00-2.94.8 3.15 3.15 0 00-1.32 2.83h1.72a2.57 2.57 0 01.45-1.29 2.43 2.43 0 012.05-.78 3.59 3.59 0 011.93.43 1.81 1.81 0 01.54 2.08 1 1 0 01-.85.53l-3 .37a4.53 4.53 0 00-2.5 1 3 3 0 00-1 2.37 3.12 3.12 0 001 2.33 3.47 3.47 0 002.56.99zm.44-1.57A2.16 2.16 0 01170 342a1.52 1.52 0 01-.59-1.26 1.64 1.64 0 01.86-1.54 4.31 4.31 0 011.51-.42l1.12-.15a7.93 7.93 0 001-.2 3.49 3.49 0 00.88-.36v1.49a2.54 2.54 0 01-1.54 2.45 4.25 4.25 0 01-1.84.41zm12.02 1.57a4.39 4.39 0 002-.45 4.11 4.11 0 001.53-1.47v1.53h1.66v-15.13h-1.75V334a4.88 4.88 0 00-1.12-1.07 3.9 3.9 0 00-2.12-.54 4 4 0 00-3.51 1.76 7.12 7.12 0 00-1.22 4.17 6 6 0 001.34 4.11 4.11 4.11 0 003.19 1.57zm.57-1.62a2.61 2.61 0 01-2.4-1.19 5.43 5.43 0 01-.75-2.95 5 5 0 01.86-3.15A2.8 2.8 0 01184 334a2.66 2.66 0 012.11 1 4.7 4.7 0 01.85 3.08 5.23 5.23 0 01-.83 3.17 2.51 2.51 0 01-2.13 1.14zM195.7 344a6.34 6.34 0 001.51-.17 4.25 4.25 0 002.08-1.11 4.67 4.67 0 00.91-1.21 3.94 3.94 0 00.48-1.35h-1.82a3.15 3.15 0 01-.7 1.28 2.94 2.94 0 01-2.31 1 2.65 2.65 0 01-2.29-1 4.76 4.76 0 01-.79-2.68h8.07a12.65 12.65 0 00-.17-2.43 4.88 4.88 0 00-.74-1.94 4.21 4.21 0 00-1.67-1.42 5 5 0 00-2.27-.55 4.75 4.75 0 00-3.76 1.65 6.34 6.34 0 00-1.44 4.31 5.81 5.81 0 001.43 4.18 4.62 4.62 0 003.48 1.44zm3.24-6.77h-6.12a3.47 3.47 0 01.92-2.34 2.8 2.8 0 012.13-.92 2.69 2.69 0 012.54 1.34 4.77 4.77 0 01.53 1.92zm14.79 6.77a4.1 4.1 0 003.5-1.73 7.14 7.14 0 001.26-4.33 6 6 0 00-1.28-4.17 4.28 4.28 0 00-3.33-1.41 4 4 0 00-3.28 1.64v-5.47h-1.79v15.14h1.7v-1.41a5.1 5.1 0 001.1 1.15 3.63 3.63 0 002.12.59zm-.12-1.64a2.7 2.7 0 01-2.72-1.81 6.87 6.87 0 01-.39-2.52 4.21 4.21 0 01.95-3.08 3 3 0 012.22-.94 2.46 2.46 0 012.19 1.14 5.22 5.22 0 01.74 2.88 5.91 5.91 0 01-.74 3.14 2.47 2.47 0 01-2.25 1.16zm8 5.8a2.59 2.59 0 002.26-.93 32.08 32.08 0 002.26-5.13q.67-1.8 1.68-4.63 1.35-3.76 1.74-4.82h-2l-3 8.95-2.94-8.95h-2.1l4.07 11.32-.46 1.13-.37.84a1.6 1.6 0 01-.41.41 1.28 1.28 0 01-.76.17h-.38a5.83 5.83 0 01-.69-.16V348a3.6 3.6 0 00.51.12 4.82 4.82 0 00.61.01zm18-4.34a5.86 5.86 0 00.75 0 4.53 4.53 0 00.66-.13v-1.46H240.37a1.8 1.8 0 01-.72-.11.78.78 0 01-.39-.77v-7.18H241v-1.51h-1.76v-3.08h-1.87v3.08h-1.49v1.51h1.49v7.28a2.94 2.94 0 00.47 1.72 2 2 0 001.76.62zm5.11-.17v-5.84a3.83 3.83 0 01.93-3 3.19 3.19 0 012.09-.79 2 2 0 011.89.91 3.92 3.92 0 01.31 1.77v6.94h1.9v-7.06a5.69 5.69 0 00-.47-2.54 3.3 3.3 0 00-3.24-1.67 4 4 0 00-2.23.58 5.41 5.41 0 00-1.18 1.18v-5.63h-1.85v15.14zm14.14.39a6.28 6.28 0 001.51-.17 4.28 4.28 0 002.09-1.11 4.91 4.91 0 00.91-1.21 3.7 3.7 0 00.47-1.35H262a3.27 3.27 0 01-.7 1.28 3 3 0 01-2.31 1 2.66 2.66 0 01-2.3-1 4.76 4.76 0 01-.79-2.68h8.1a12.65 12.65 0 00-.17-2.43 4.88 4.88 0 00-.74-1.94 4.21 4.21 0 00-1.67-1.42 5 5 0 00-2.27-.55 4.75 4.75 0 00-3.76 1.65 6.34 6.34 0 00-1.44 4.31 5.81 5.81 0 001.43 4.18 4.62 4.62 0 003.47 1.4zm3.24-6.77H256a3.42 3.42 0 01.91-2.34A2.82 2.82 0 01259 334a2.68 2.68 0 012.53 1.34 4.77 4.77 0 01.53 1.92zm13.75 6.73a4.43 4.43 0 002-.45 4.26 4.26 0 001.53-1.47v1.53h1.66v-15.13h-1.78V334a4.88 4.88 0 00-1.12-1.07 3.87 3.87 0 00-2.11-.54 4 4 0 00-3.51 1.76 7.12 7.12 0 00-1.23 4.17 6 6 0 001.35 4.11 4.09 4.09 0 003.21 1.57zm.58-1.62a2.62 2.62 0 01-2.43-1.18 5.43 5.43 0 01-.75-2.95 4.89 4.89 0 01.87-3.15 2.79 2.79 0 012.27-1.07 2.66 2.66 0 012.1 1 4.64 4.64 0 01.85 3.08 5.23 5.23 0 01-.82 3.17 2.52 2.52 0 01-2.09 1.11zm11 1.53a3.94 3.94 0 002.57-.87 3.84 3.84 0 00.89-1.06v1.63h1.75v-11h-1.85V338a7 7 0 01-.38 2.54 2.6 2.6 0 01-2.63 1.72 1.87 1.87 0 01-1.84-1 3.08 3.08 0 01-.27-1.38v-7.3h-1.89v7.47a4.65 4.65 0 00.46 2.25 3.32 3.32 0 003.19 1.62zm12.37.09a6.34 6.34 0 001.51-.17 4.29 4.29 0 002.08-1.11 4.67 4.67 0 00.91-1.21 3.94 3.94 0 00.48-1.35H303a3.27 3.27 0 01-.7 1.28 2.94 2.94 0 01-2.31 1 2.64 2.64 0 01-2.29-1 4.68 4.68 0 01-.79-2.68h8.06a12.84 12.84 0 00-.16-2.43 5 5 0 00-.74-1.94 4.24 4.24 0 00-1.68-1.42 5 5 0 00-2.27-.55 4.76 4.76 0 00-3.76 1.65 6.34 6.34 0 00-1.43 4.31 5.8 5.8 0 001.42 4.18 4.65 4.65 0 003.45 1.44zm3.23-6.77h-6.11a3.47 3.47 0 01.91-2.34A2.84 2.84 0 01300 334a2.7 2.7 0 012.54 1.34 4.77 4.77 0 01.52 1.92zM316.8 344a4.39 4.39 0 002-.45 4.11 4.11 0 001.53-1.47v1.53H322v-15.13h-1.77V334a4.88 4.88 0 00-1.12-1.07 3.9 3.9 0 00-2.12-.54 4 4 0 00-3.51 1.76 7.12 7.12 0 00-1.22 4.17 6 6 0 001.34 4.11 4.11 4.11 0 003.2 1.57zm.57-1.62a2.61 2.61 0 01-2.4-1.19 5.43 5.43 0 01-.75-2.95 4.89 4.89 0 01.87-3.15 2.77 2.77 0 012.26-1.07 2.66 2.66 0 012.11 1 4.7 4.7 0 01.85 3.08 5.23 5.23 0 01-.83 3.17 2.51 2.51 0 01-2.11 1.12zM327.7 344a5 5 0 002.34-.55 4.77 4.77 0 001.62-1.28 2.61 2.61 0 00.32 1 1.52 1.52 0 001.38.67 5 5 0 00.62 0 5.41 5.41 0 00.66-.15v-1.39l-.33.05H334c-.25 0-.42-.05-.5-.17a.81.81 0 01-.11-.46v-6.34a2.51 2.51 0 00-1.21-2.3 6 6 0 00-3.15-.74 5.31 5.31 0 00-2.94.8 3.15 3.15 0 00-1.29 2.86h1.72a2.67 2.67 0 01.44-1.29 2.46 2.46 0 012.06-.78 3.59 3.59 0 011.93.43 1.81 1.81 0 01.54 2.08 1 1 0 01-.85.53l-2.95.37a4.53 4.53 0 00-2.5 1 3 3 0 00-1 2.37 3.12 3.12 0 001 2.33 3.47 3.47 0 002.51.96zm.44-1.57a2.16 2.16 0 01-1.39-.47 1.52 1.52 0 01-.59-1.26 1.64 1.64 0 01.86-1.54 4.25 4.25 0 011.51-.42l1.12-.15a7.93 7.93 0 001-.2 3.49 3.49 0 00.88-.36v1.49A2.54 2.54 0 01330 342a4.25 4.25 0 01-1.86.42zm10.86 1.36a5.86 5.86 0 00.75 0 4.53 4.53 0 00.66-.13v-1.46H339.76a1.71 1.71 0 01-.71-.11.79.79 0 01-.4-.77v-7.18h1.76v-1.51h-1.76v-3.08h-1.86v3.08h-1.49v1.51h1.49v7.28a2.94 2.94 0 00.46 1.72 2 2 0 001.75.65zm7.55.22a6.22 6.22 0 001.51-.17 4.28 4.28 0 002.09-1.11 4.91 4.91 0 00.91-1.21 3.94 3.94 0 00.48-1.35h-1.82a3.27 3.27 0 01-.7 1.28 3 3 0 01-2.31 1 2.63 2.63 0 01-2.29-1 4.61 4.61 0 01-.79-2.68h8.06a12.84 12.84 0 00-.16-2.43 5 5 0 00-.74-1.94 4.31 4.31 0 00-1.68-1.42 5 5 0 00-2.27-.55 4.75 4.75 0 00-3.76 1.65 6.34 6.34 0 00-1.44 4.31 5.81 5.81 0 001.43 4.18 4.62 4.62 0 003.51 1.43zm3.24-6.77h-6.11a3.47 3.47 0 01.91-2.34 2.84 2.84 0 012.14-.92 2.7 2.7 0 012.54 1.34 4.94 4.94 0 01.52 1.92zm6.76 6.38v-2.24h-2.15v2.24zm15.82.44a6.81 6.81 0 005.74-2.63 9 9 0 001.71-5.62 8.34 8.34 0 00-1.49-5.13q-1.94-2.56-5.92-2.56a6.58 6.58 0 00-5.77 2.79 8.88 8.88 0 00-1.52 5.24 8.72 8.72 0 001.77 5.61 6.89 6.89 0 005.51 2.3zm.24-1.83a4.77 4.77 0 01-4.11-1.72 6.92 6.92 0 01-1.27-4.23 6.75 6.75 0 011.48-4.74 5 5 0 013.82-1.6 4.77 4.77 0 013.81 1.62 6.33 6.33 0 011.39 4.28 8.18 8.18 0 01-1.21 4.45 4.23 4.23 0 01-3.88 1.94zm12 1.56a5.86 5.86 0 00.75 0 4.53 4.53 0 00.66-.13v-1.46H385.37a1.8 1.8 0 01-.72-.11.78.78 0 01-.39-.77v-7.18H386v-1.51h-1.76v-3.08h-1.87v3.08h-1.49v1.51h1.49v7.28a3 3 0 00.46 1.72 2 2 0 001.8.65zm5.11-.17v-5.84a3.83 3.83 0 01.93-3 3.19 3.19 0 012.09-.79 2 2 0 011.89.91 3.94 3.94 0 01.3 1.77v6.94h1.91v-7.06a5.69 5.69 0 00-.47-2.54 3.3 3.3 0 00-3.24-1.67 4 4 0 00-2.23.58 5.2 5.2 0 00-1.18 1.18v-5.63h-1.85v15.14zm14.14.39a6.28 6.28 0 001.51-.17 4.32 4.32 0 002.09-1.11 5.17 5.17 0 00.91-1.21 3.7 3.7 0 00.47-1.35H407a3.13 3.13 0 01-.69 1.28 3 3 0 01-2.31 1 2.66 2.66 0 01-2.3-1 4.76 4.76 0 01-.79-2.68H409a12.65 12.65 0 00-.17-2.43 4.88 4.88 0 00-.74-1.94 4.21 4.21 0 00-1.67-1.42 5 5 0 00-2.27-.55 4.75 4.75 0 00-3.76 1.65 6.34 6.34 0 00-1.44 4.31 5.81 5.81 0 001.43 4.18 4.62 4.62 0 003.5 1.43zm3.24-6.77H401a3.47 3.47 0 01.92-2.34 2.82 2.82 0 012.14-.92 2.68 2.68 0 012.53 1.34 4.77 4.77 0 01.53 1.92zm6.07 6.38v-6.33a3.14 3.14 0 01.75-2.07 2.62 2.62 0 012.14-.9h.61v-1.95h-.6a2.71 2.71 0 00-1.94.8 4.31 4.31 0 00-1.06 1.35v-1.9h-1.75v11zm9 0l2.16-8.52 2.24 8.52h1.92l3.2-11h-1.85l-2.25 8.61-2.16-8.61h-2.07l-2.15 8.67-2.11-8.67h-2l3.18 11zm13.14-13v-2.09h-1.88v2.09zm0 13v-10.95h-1.88v10.95zm6.69.42a4.78 4.78 0 003.4-1.07 3.4 3.4 0 001.11-2.54 2.49 2.49 0 00-1.08-2.23 9.42 9.42 0 00-2.67-.93l-1.22-.3a4.28 4.28 0 01-1.21-.45 1.29 1.29 0 01-.71-1.15 1.26 1.26 0 01.54-1.06 2.61 2.61 0 011.58-.4 2.8 2.8 0 012.21.73 2.18 2.18 0 01.45 1.14h1.74a3.17 3.17 0 00-.67-2 4.16 4.16 0 00-3.58-1.46 4.51 4.51 0 00-3 1 3.18 3.18 0 00-1.12 2.53 2.35 2.35 0 001.23 2.05 7.72 7.72 0 002.08.78l1.46.37a7.18 7.18 0 011.59.52 1.2 1.2 0 01.62 1.08A1.49 1.49 0 01444 342a3.55 3.55 0 01-1.81.45 2.89 2.89 0 01-2.42-.9 2.67 2.67 0 01-.46-1.41h-1.78a4.21 4.21 0 001.09 2.75 4.54 4.54 0 003.43 1.11zm11-.04a6.28 6.28 0 001.51-.17 4.32 4.32 0 002.09-1.11 4.89 4.89 0 00.9-1.21 3.74 3.74 0 00.48-1.35h-1.82a3.25 3.25 0 01-.69 1.28 3 3 0 01-2.32 1 2.65 2.65 0 01-2.29-1 4.76 4.76 0 01-.79-2.68h8.07a12.65 12.65 0 00-.17-2.43 4.88 4.88 0 00-.74-1.94 4.21 4.21 0 00-1.67-1.42 5 5 0 00-2.27-.55 4.75 4.75 0 00-3.79 1.58 6.34 6.34 0 00-1.44 4.31 5.81 5.81 0 001.43 4.18A4.62 4.62 0 00453 344zm3.24-6.77h-6.12a3.47 3.47 0 01.92-2.34 2.82 2.82 0 012.14-.92 2.68 2.68 0 012.53 1.34 4.77 4.77 0 01.53 1.92zm4.56 9.5a2.22 2.22 0 001.7-1.14 4.49 4.49 0 00.5-2.15v-2.07h-2.2v2.24h1.12a.69.69 0 010 .13.45.45 0 010 .12 2.67 2.67 0 01-.16.9 1.28 1.28 0 01-1 1zM475 344a5 5 0 002.34-.55 4.77 4.77 0 001.62-1.28 2.61 2.61 0 00.32 1 1.52 1.52 0 001.38.67 5 5 0 00.62 0 5.41 5.41 0 00.66-.15v-1.39l-.33.05h-.28c-.25 0-.42-.05-.5-.17a.89.89 0 01-.11-.46v-6.34a2.49 2.49 0 00-1.21-2.3 6 6 0 00-3.15-.74 5.31 5.31 0 00-2.94.8 3.15 3.15 0 00-1.32 2.83h1.72a2.57 2.57 0 01.45-1.29 2.43 2.43 0 012-.78 3.59 3.59 0 011.93.43 1.81 1.81 0 01.54 2.08 1 1 0 01-.85.53l-2.95.37a4.53 4.53 0 00-2.5 1 3 3 0 00-1 2.37 3.12 3.12 0 001 2.33 3.47 3.47 0 002.56.99zm.44-1.57a2.16 2.16 0 01-1.39-.47 1.52 1.52 0 01-.59-1.26 1.64 1.64 0 01.86-1.54 4.31 4.31 0 011.51-.42l1.12-.15a7.93 7.93 0 001-.2 3.49 3.49 0 00.88-.36v1.49a2.54 2.54 0 01-1.54 2.45 4.25 4.25 0 01-1.83.45zm10.15 1.2v-5.77a7.63 7.63 0 01.14-1.65 2.89 2.89 0 01.6-1.13 2.81 2.81 0 011.34-.9 3.58 3.58 0 011.08-.14 1.82 1.82 0 011.79 1 3.88 3.88 0 01.29 1.62v6.94h1.88v-7.06a5.84 5.84 0 00-.45-2.56 3.19 3.19 0 00-3.16-1.63 4.41 4.41 0 00-1.94.42 4.8 4.8 0 00-1.66 1.39v-1.56h-1.75v11zm10.83 4.51a2.58 2.58 0 002.26-.93 31.14 31.14 0 002.26-5.13q.68-1.8 1.69-4.63 1.34-3.76 1.73-4.82h-2l-3 8.95-2.95-8.95h-2.09l4.06 11.32c-.09.24-.25.62-.46 1.13s-.33.78-.37.84a1.56 1.56 0 01-.4.41 1.32 1.32 0 01-.76.17h-.38a5.87 5.87 0 01-.7-.16V348a4 4 0 00.52.12 4.54 4.54 0 00.61.01z"/><path id="amountpaidwillnotbeacceptedandwillbereturned." d="M11.92 371.46a5.1 5.1 0 002.34-.54 4.79 4.79 0 001.62-1.29 2.61 2.61 0 00.32 1 1.51 1.51 0 001.38.68 5 5 0 00.62 0 4.27 4.27 0 00.66-.16v-1.36H18.25a.57.57 0 01-.5-.18.78.78 0 01-.11-.46v-6.34a2.52 2.52 0 00-1.21-2.3 6 6 0 00-3.15-.74 5.39 5.39 0 00-2.94.8A3.15 3.15 0 009 363.45h1.72a2.59 2.59 0 01.44-1.28 2.44 2.44 0 012.06-.79 3.62 3.62 0 011.92.43 1.8 1.8 0 01.55 2.08 1 1 0 01-.85.54l-2.95.36a4.6 4.6 0 00-2.5 1 3 3 0 00-1 2.38 3.1 3.1 0 001 2.32 3.47 3.47 0 002.53.97zm.44-1.57a2.16 2.16 0 01-1.39-.46 1.53 1.53 0 01-.59-1.27 1.66 1.66 0 01.86-1.54 4.25 4.25 0 011.51-.42l1.12-.14a6.61 6.61 0 001-.21 2.88 2.88 0 00.88-.36V367a2.56 2.56 0 01-1.54 2.46 4.23 4.23 0 01-1.85.43zm10.15 1.2v-5.83a4 4 0 01.86-2.94 2.72 2.72 0 011.91-.81 1.62 1.62 0 011.57.77 3.69 3.69 0 01.27 1.63v7.18H29v-6.4a3.21 3.21 0 01.78-2.43 2.66 2.66 0 011.88-.73 2.22 2.22 0 011.34.41 1.8 1.8 0 01.55 1.51v7.64h1.92v-7.32a5.33 5.33 0 00-.43-2.32 3.06 3.06 0 00-3-1.61 4.06 4.06 0 00-1.87.43 3.91 3.91 0 00-1.45 1.31 3.49 3.49 0 00-.82-1.09 3.29 3.29 0 00-2.12-.65 3.54 3.54 0 00-2.07.63 6.21 6.21 0 00-1.2 1.18v-1.56h-1.84v11zm19.87.4a4.71 4.71 0 004-1.73 7.2 7.2 0 001.29-4.4 5.52 5.52 0 00-1.47-4.17 5 5 0 00-3.59-1.42 4.69 4.69 0 00-3.78 1.65 6.52 6.52 0 00-1.41 4.41 6.08 6.08 0 001.35 4.17 4.57 4.57 0 003.61 1.49zm.17-1.59a2.71 2.71 0 01-2.44-1.17 5.26 5.26 0 01-.77-2.93 6 6 0 01.77-3.12 2.67 2.67 0 012.47-1.3 2.78 2.78 0 012.69 1.52 5.53 5.53 0 01.49 2.51 7 7 0 01-.68 3.1 2.56 2.56 0 01-2.53 1.39zm11 1.49a3.94 3.94 0 002.56-.86 3.7 3.7 0 00.9-1.06v1.62h1.69v-11h-1.85v5.4a6.72 6.72 0 01-.38 2.54 2.6 2.6 0 01-2.63 1.73 1.85 1.85 0 01-1.83-1 3.05 3.05 0 01-.27-1.38v-7.3h-1.89v7.48a4.65 4.65 0 00.46 2.25 3.32 3.32 0 003.21 1.58zm9.92-.3v-5.76a7.14 7.14 0 01.14-1.66 2.62 2.62 0 01.6-1.12 2.73 2.73 0 011.33-.91 3.62 3.62 0 011.08-.13 1.81 1.81 0 011.79 1 3.72 3.72 0 01.3 1.62v6.93h1.88V364a5.64 5.64 0 00-.46-2.55 3.19 3.19 0 00-3.16-1.64 4.41 4.41 0 00-1.94.42 5.1 5.1 0 00-1.65 1.39v-1.56h-1.79v11zm12.44.18h.74a4.54 4.54 0 00.66-.14v-1.46h-.64a1.58 1.58 0 01-.72-.11.78.78 0 01-.39-.77v-7.19h1.75v-1.51h-1.78V357h-1.87v3.07h-1.49v1.51h1.49v7.28a2.92 2.92 0 00.46 1.72 2 2 0 001.76.69zm10.8 4.21v-5.62a5 5 0 001.1 1.06 3.8 3.8 0 002.09.54 4.24 4.24 0 002.77-1q1.88-1.55 1.88-5.14a5.86 5.86 0 00-1.3-4.09 4.13 4.13 0 00-3.25-1.41 3.94 3.94 0 00-2.2.62 4.54 4.54 0 00-1.21 1.16v-1.46h-1.8v15.34zm2.94-5.63a2.63 2.63 0 01-2.65-1.71 5.53 5.53 0 01-.38-2.16 7.66 7.66 0 01.38-2.61 2.79 2.79 0 015.26-.11 6.14 6.14 0 01.38 2.26 5.21 5.21 0 01-.86 3.25 2.64 2.64 0 01-2.16 1.08zm10 1.61a5.06 5.06 0 002.33-.54 4.79 4.79 0 001.62-1.29 2.61 2.61 0 00.32 1 1.53 1.53 0 001.39.68 4.82 4.82 0 00.61 0 4.27 4.27 0 00.66-.16v-1.36H105.97c-.25 0-.42-.06-.49-.18a.78.78 0 01-.12-.46v-6.34a2.52 2.52 0 00-1.2-2.3 6 6 0 00-3.16-.74 5.42 5.42 0 00-2.94.8 3.15 3.15 0 00-1.32 2.83h1.72a2.49 2.49 0 01.45-1.28 2.42 2.42 0 012-.79 3.65 3.65 0 011.93.43 1.5 1.5 0 01.67 1.37 1.65 1.65 0 01-.12.71 1 1 0 01-.86.54l-2.94.36a4.63 4.63 0 00-2.51 1 3 3 0 00-1 2.38 3.1 3.1 0 001 2.32 3.49 3.49 0 002.56 1.02zm.43-1.57a2.16 2.16 0 01-1.39-.46 1.53 1.53 0 01-.58-1.27 1.65 1.65 0 01.85-1.54 4.31 4.31 0 011.51-.42l1.12-.14a7 7 0 001-.21 2.92 2.92 0 00.87-.36V367a2.56 2.56 0 01-1.54 2.46 4.23 4.23 0 01-1.85.43zm10.19-11.79V356h-1.88v2.1zm0 13v-10.96h-1.88v10.95zm6.54.39a4.36 4.36 0 002-.45 4 4 0 001.53-1.47v1.53H122V356h-1.78v5.56a4.75 4.75 0 00-1.12-1.08 3.87 3.87 0 00-2.11-.53 4 4 0 00-3.51 1.76 7.07 7.07 0 00-1.23 4.16 6.05 6.05 0 001.35 4.12 4.07 4.07 0 003.2 1.49zm.58-1.61a2.64 2.64 0 01-2.41-1.19 5.47 5.47 0 01-.75-3 4.88 4.88 0 01.87-3.14 2.76 2.76 0 012.27-1.07 2.65 2.65 0 012.1 1 4.69 4.69 0 01.85 3.09 5.25 5.25 0 01-.82 3.17 2.55 2.55 0 01-2.12 1.13zm17.14 1.22l2.17-8.51 2.24 8.51h1.92l3.19-11h-1.85l-2.25 8.62-2.15-8.62h-2.08l-2.15 8.67-2.11-8.67h-2l3.18 11zm13.15-13V356h-1.88v2.1zm0 13v-10.96h-1.88v10.95zm4.69 0V356h-1.85v15.09zm4.68 0V356h-1.85v15.09zm10.46 0v-5.76a7.74 7.74 0 01.14-1.66 2.62 2.62 0 01.6-1.12 2.76 2.76 0 011.34-.91 3.62 3.62 0 011.08-.13 1.78 1.78 0 011.78 1 3.72 3.72 0 01.3 1.62v6.93h1.88V364a5.79 5.79 0 00-.45-2.55 3.2 3.2 0 00-3.16-1.64 4.46 4.46 0 00-1.95.42 5.1 5.1 0 00-1.65 1.39v-1.56h-1.76v11zm14 .4a4.69 4.69 0 004-1.73 7.2 7.2 0 001.3-4.4 5.52 5.52 0 00-1.47-4.17 5 5 0 00-3.6-1.42 4.72 4.72 0 00-3.78 1.65 6.52 6.52 0 00-1.41 4.41 6.09 6.09 0 001.34 4.13 4.53 4.53 0 003.65 1.52zm.18-1.59a2.73 2.73 0 01-2.45-1.17 5.26 5.26 0 01-.77-2.93 6 6 0 01.77-3.12 2.68 2.68 0 012.47-1.3 2.78 2.78 0 012.69 1.52 5.53 5.53 0 01.49 2.51 6.88 6.88 0 01-.68 3.1 2.53 2.53 0 01-2.49 1.38zm9.92 1.37h.75a4.54 4.54 0 00.66-.14v-1.46H192.37a1.64 1.64 0 01-.72-.11.78.78 0 01-.39-.77v-7.2h1.76v-1.51h-1.76V357h-1.87v3.07h-1.49v1.51h1.49v7.28a2.92 2.92 0 00.47 1.72 2 2 0 001.78.69zm13.88.17a4.09 4.09 0 003.5-1.72 7.2 7.2 0 001.27-4.34 6 6 0 00-1.28-4.16 4.29 4.29 0 00-3.34-1.42 4 4 0 00-3.27 1.63V356h-1.8v15.14h1.7v-1.41a4.89 4.89 0 001.1 1.15 3.56 3.56 0 002.15.56zm-.11-1.63a2.71 2.71 0 01-2.73-1.82 6.8 6.8 0 01-.39-2.52 4.21 4.21 0 011-3.08 3.1 3.1 0 012.22-.93 2.46 2.46 0 012.19 1.14 5.13 5.13 0 01.75 2.87 5.88 5.88 0 01-.75 3.15 2.47 2.47 0 01-2.26 1.18zm11.33 1.67a6.36 6.36 0 001.51-.16 4.29 4.29 0 002.08-1.11 4.73 4.73 0 00.91-1.22 3.94 3.94 0 00.48-1.35h-1.79a3.21 3.21 0 01-.7 1.28 2.94 2.94 0 01-2.31 1 2.66 2.66 0 01-2.29-1 4.71 4.71 0 01-.79-2.69h8.06a12.65 12.65 0 00-.16-2.42 5 5 0 00-.74-1.94 4.18 4.18 0 00-1.68-1.43 5.1 5.1 0 00-2.27-.55 4.77 4.77 0 00-3.76 1.66 6.34 6.34 0 00-1.43 4.3 5.83 5.83 0 001.42 4.19 4.68 4.68 0 003.49 1.43zm3.23-6.77h-6.11a3.46 3.46 0 01.91-2.33 2.8 2.8 0 012.14-.92 2.68 2.68 0 012.54 1.33 4.77 4.77 0 01.52 1.92zm13 6.75a5.09 5.09 0 002.33-.54 4.79 4.79 0 001.62-1.29 2.61 2.61 0 00.32 1 1.53 1.53 0 001.39.68 4.82 4.82 0 00.61 0 4.27 4.27 0 00.66-.16v-1.36H239.26a.57.57 0 01-.5-.18.87.87 0 01-.11-.46v-6.34a2.51 2.51 0 00-1.21-2.3 6 6 0 00-3.15-.74 5.42 5.42 0 00-2.94.8 3.15 3.15 0 00-1.32 2.83h1.72a2.49 2.49 0 01.45-1.28 2.4 2.4 0 012-.79 3.65 3.65 0 011.93.43 1.52 1.52 0 01.67 1.37 1.65 1.65 0 01-.12.71 1 1 0 01-.86.54l-2.94.36a4.63 4.63 0 00-2.51 1 3 3 0 00-1 2.38 3.1 3.1 0 001 2.32 3.49 3.49 0 002.63 1.01zm.43-1.57a2.16 2.16 0 01-1.39-.46 1.53 1.53 0 01-.59-1.27 1.66 1.66 0 01.86-1.54 4.31 4.31 0 011.51-.42l1.12-.14a6.61 6.61 0 001-.21 2.88 2.88 0 00.88-.36v1.5a2.56 2.56 0 01-1.54 2.46 4.23 4.23 0 01-1.84.43zm12.28 1.52a4.34 4.34 0 004.7-4.21h-1.8a3.81 3.81 0 01-.93 1.92 2.7 2.7 0 01-4-.42 5.18 5.18 0 01-.7-2.79 6.85 6.85 0 01.49-2.76 2.6 2.6 0 012.53-1.72 2.37 2.37 0 011.88.67 3.32 3.32 0 01.75 1.69h1.8a4.33 4.33 0 00-1.41-3.11 4.72 4.72 0 00-3-.91 4.58 4.58 0 00-3.59 1.61 6.69 6.69 0 00-1.4 4.51 6.06 6.06 0 001.28 3.94 4.22 4.22 0 003.41 1.57zm10.52 0a4.34 4.34 0 004.69-4.21h-1.79a3.81 3.81 0 01-.93 1.92 2.42 2.42 0 01-1.83.71 2.38 2.38 0 01-2.19-1.13 5.18 5.18 0 01-.7-2.79 6.85 6.85 0 01.49-2.76 2.6 2.6 0 012.53-1.72 2.37 2.37 0 011.88.67 3.32 3.32 0 01.75 1.69h1.79a4.28 4.28 0 00-1.4-3.11 4.72 4.72 0 00-3-.91 4.58 4.58 0 00-3.59 1.61 6.64 6.64 0 00-1.4 4.51 6 6 0 001.28 3.94 4.22 4.22 0 003.43 1.57zm10.84.07a6.36 6.36 0 001.51-.16 4.25 4.25 0 002.08-1.11 4.73 4.73 0 00.91-1.22 3.94 3.94 0 00.48-1.35h-1.82a3.21 3.21 0 01-.7 1.28 2.94 2.94 0 01-2.31 1 2.66 2.66 0 01-2.29-1 4.71 4.71 0 01-.79-2.69h8.06a12.65 12.65 0 00-.16-2.42 4.82 4.82 0 00-.74-1.94 4.15 4.15 0 00-1.67-1.43 5.13 5.13 0 00-2.27-.55 4.74 4.74 0 00-3.76 1.66 6.3 6.3 0 00-1.44 4.3 5.79 5.79 0 001.43 4.19 4.64 4.64 0 003.47 1.43zm3.23-6.77h-6.11a3.47 3.47 0 01.92-2.33 2.77 2.77 0 012.13-.92 2.68 2.68 0 012.54 1.33 4.77 4.77 0 01.52 1.92zm5.88 10.77v-5.62a4.81 4.81 0 001.1 1.06 3.76 3.76 0 002.08.54 4.26 4.26 0 002.78-1q1.88-1.55 1.88-5.14a5.86 5.86 0 00-1.31-4.09 4.13 4.13 0 00-3.17-1.44 3.91 3.91 0 00-2.2.62 4.4 4.4 0 00-1.21 1.16v-1.46h-1.8v15.34zm2.94-5.63a2.62 2.62 0 01-2.63-1.71 5.35 5.35 0 01-.38-2.16 7.42 7.42 0 01.38-2.61 2.79 2.79 0 015.26-.11 6.14 6.14 0 01.38 2.26 5.21 5.21 0 01-.86 3.25 2.64 2.64 0 01-2.14 1.07zm9.64 1.42h.75a4.54 4.54 0 00.66-.14v-1.46H289.46a1.64 1.64 0 01-.72-.11.78.78 0 01-.39-.77v-7.2h1.76v-1.51h-1.76V357h-1.87v3.07H285v1.51h1.49v7.28a2.92 2.92 0 00.47 1.72 2 2 0 001.75.69zm7.55.21a6.3 6.3 0 001.51-.16 4.28 4.28 0 002.09-1.11 5 5 0 00.91-1.22 3.7 3.7 0 00.47-1.35h-1.81a3.21 3.21 0 01-.7 1.28 3 3 0 01-2.31 1 2.65 2.65 0 01-2.29-1 4.72 4.72 0 01-.8-2.69h8.07a12.45 12.45 0 00-.17-2.42 4.82 4.82 0 00-.74-1.94 4.15 4.15 0 00-1.67-1.43 5.1 5.1 0 00-2.27-.55 4.76 4.76 0 00-3.76 1.66 6.3 6.3 0 00-1.44 4.3 5.83 5.83 0 001.43 4.19 4.64 4.64 0 003.49 1.43zm3.24-6.77h-6.11a3.41 3.41 0 01.91-2.33 2.8 2.8 0 012.14-.92 2.67 2.67 0 012.53 1.33 4.77 4.77 0 01.53 1.92zm7.92 6.77a4.39 4.39 0 002-.45 4 4 0 001.53-1.47v1.53h1.67V356h-1.78v5.56a4.75 4.75 0 00-1.12-1.08 3.9 3.9 0 00-2.12-.53 4 4 0 00-3.51 1.76 7.14 7.14 0 00-1.22 4.16 6.1 6.1 0 001.34 4.12 4.1 4.1 0 003.22 1.49zm.57-1.61a2.63 2.63 0 01-2.4-1.19 5.47 5.47 0 01-.75-3 4.88 4.88 0 01.87-3.14 2.75 2.75 0 012.26-1.07 2.66 2.66 0 012.11 1 4.69 4.69 0 01.85 3.09 5.25 5.25 0 01-.83 3.17 2.53 2.53 0 01-2.09 1.13zm16.18 1.59a5 5 0 002.33-.54 4.73 4.73 0 001.63-1.29 2.62 2.62 0 00.31 1 1.53 1.53 0 001.39.68 5 5 0 00.62 0 4 4 0 00.65-.16v-1.36H330.49c-.26 0-.42-.06-.5-.18a.78.78 0 01-.12-.46v-6.34a2.52 2.52 0 00-1.2-2.3 6 6 0 00-3.15-.74 5.45 5.45 0 00-2.95.8 3.2 3.2 0 00-1.32 2.83H323a2.59 2.59 0 01.44-1.28 2.44 2.44 0 012.06-.79 3.64 3.64 0 011.92.43 1.5 1.5 0 01.67 1.37 1.65 1.65 0 01-.12.71 1 1 0 01-.85.54l-2.95.36a4.67 4.67 0 00-2.51 1 3 3 0 00-.95 2.38 3.06 3.06 0 001 2.32 3.47 3.47 0 002.46 1.01zm.43-1.57a2.15 2.15 0 01-1.38-.46 1.53 1.53 0 01-.59-1.27 1.65 1.65 0 01.85-1.54 4.38 4.38 0 011.51-.42l1.12-.14a7 7 0 001.05-.21 2.71 2.71 0 00.87-.36v1.5a2.54 2.54 0 01-1.54 2.46 4.23 4.23 0 01-1.88.43zm10.16 1.2v-5.76a7.74 7.74 0 01.14-1.66 2.62 2.62 0 01.6-1.12 2.71 2.71 0 011.34-.91 3.59 3.59 0 011.07-.13 1.8 1.8 0 011.79 1 3.72 3.72 0 01.3 1.62v6.93h1.88V364a5.79 5.79 0 00-.45-2.55 3.21 3.21 0 00-3.17-1.64 4.41 4.41 0 00-1.94.42 5.1 5.1 0 00-1.65 1.39v-1.56h-1.76v11zm13.6.39a4.36 4.36 0 002-.45 4.05 4.05 0 001.54-1.47v1.53h1.66V356h-1.75v5.56a4.75 4.75 0 00-1.12-1.08 3.87 3.87 0 00-2.11-.53 4 4 0 00-3.51 1.76 7.07 7.07 0 00-1.23 4.16 6.05 6.05 0 001.35 4.12 4.08 4.08 0 003.18 1.49zm.58-1.61a2.64 2.64 0 01-2.41-1.19 5.47 5.47 0 01-.75-3 4.88 4.88 0 01.87-3.14 2.76 2.76 0 012.27-1.07 2.65 2.65 0 012.1 1 4.69 4.69 0 01.85 3.09 5.25 5.25 0 01-.82 3.17 2.55 2.55 0 01-2.1 1.13zm17.14 1.22l2.17-8.51 2.24 8.51h1.92l3.19-11h-1.85l-2.25 8.62-2.15-8.62h-2.08l-2.15 8.67-2.11-8.68h-2l3.17 11zm13.15-13V356h-1.88v2.1zm0 13v-10.96h-1.88v10.95zm4.69 0V356h-1.85v15.09zm4.68 0V356h-1.85v15.09zm13.39.35a4.09 4.09 0 003.5-1.72 7.13 7.13 0 001.27-4.34 6 6 0 00-1.28-4.16 4.27 4.27 0 00-3.33-1.42 4 4 0 00-1.83.42 4.09 4.09 0 00-1.45 1.21V356h-1.8v15.14h1.71v-1.41a4.88 4.88 0 001.09 1.15 3.58 3.58 0 002.14.56zm-.11-1.63a2.69 2.69 0 01-2.72-1.82 6.8 6.8 0 01-.39-2.52 4.16 4.16 0 011-3.08 3.06 3.06 0 012.21-.93 2.45 2.45 0 012.19 1.14 5.13 5.13 0 01.75 2.87 5.88 5.88 0 01-.75 3.15 2.46 2.46 0 01-2.28 1.18zm11.33 1.67a6.36 6.36 0 001.51-.16 4.25 4.25 0 002.08-1.11 4.73 4.73 0 00.91-1.22 3.94 3.94 0 00.48-1.35h-1.82a3.21 3.21 0 01-.7 1.28 2.94 2.94 0 01-2.31 1 2.66 2.66 0 01-2.29-1 4.71 4.71 0 01-.79-2.69h8.06a12.65 12.65 0 00-.16-2.42 4.82 4.82 0 00-.74-1.94 4.15 4.15 0 00-1.67-1.43 5.13 5.13 0 00-2.27-.55 4.74 4.74 0 00-3.76 1.66 6.3 6.3 0 00-1.44 4.3 5.79 5.79 0 001.43 4.19 4.64 4.64 0 003.49 1.43zm3.23-6.77h-6.11a3.47 3.47 0 01.92-2.33 2.77 2.77 0 012.13-.92 2.68 2.68 0 012.54 1.33 4.77 4.77 0 01.52 1.92zm11.92 6.38v-6.33a3.14 3.14 0 01.75-2.07 2.66 2.66 0 012.15-.89h.3a1.77 1.77 0 01.3 0v-2h-.59a2.77 2.77 0 00-1.95.8 4.11 4.11 0 00-1.05 1.35v-1.9h-1.76v11zm9.4.39a6.36 6.36 0 001.51-.16 4.25 4.25 0 002.08-1.11 4.73 4.73 0 00.91-1.22 3.94 3.94 0 00.48-1.35h-1.82a3.21 3.21 0 01-.7 1.28 2.94 2.94 0 01-2.31 1 2.66 2.66 0 01-2.29-1 4.71 4.71 0 01-.79-2.69h8.06a12.65 12.65 0 00-.16-2.42 4.82 4.82 0 00-.74-1.94 4.15 4.15 0 00-1.67-1.43 5.13 5.13 0 00-2.27-.55 4.74 4.74 0 00-3.76 1.66 6.3 6.3 0 00-1.44 4.3 5.79 5.79 0 001.43 4.19 4.64 4.64 0 003.49 1.43zm3.23-6.77h-6.11a3.47 3.47 0 01.92-2.33 2.77 2.77 0 012.13-.92 2.68 2.68 0 012.54 1.33 4.77 4.77 0 01.52 1.92zm6.76 6.56h.75a4.54 4.54 0 00.66-.14v-1.46H448.5a1.64 1.64 0 01-.72-.11.78.78 0 01-.39-.77v-7.2h1.76v-1.51h-1.75V357h-1.87v3.07H444v1.51h1.49v7.28a2.92 2.92 0 00.47 1.72 2 2 0 001.79.69zm6.88.12a4 4 0 002.57-.86 3.7 3.7 0 00.9-1.06v1.62h1.74v-11H458v5.4a6.72 6.72 0 01-.38 2.54 2.6 2.6 0 01-2.63 1.73 1.87 1.87 0 01-1.84-1 3.2 3.2 0 01-.26-1.38v-7.3H451v7.48a4.65 4.65 0 00.46 2.25 3.31 3.31 0 003.17 1.57zm10-.3v-6.33a3.14 3.14 0 01.75-2.07 2.66 2.66 0 012.15-.89h.3a1.77 1.77 0 01.3 0v-2h-.59a2.77 2.77 0 00-1.95.8 4.11 4.11 0 00-1.05 1.35v-1.9h-1.76v11zm6.95 0v-5.76a7.74 7.74 0 01.14-1.66 2.62 2.62 0 01.6-1.12 2.76 2.76 0 011.34-.91 3.62 3.62 0 011.08-.13 1.78 1.78 0 011.78 1 3.72 3.72 0 01.3 1.62v6.93h1.88V364a5.79 5.79 0 00-.45-2.55 3.2 3.2 0 00-3.16-1.64 4.46 4.46 0 00-1.95.42 5.1 5.1 0 00-1.65 1.39v-1.56h-1.76v11zm14.15.39a6.36 6.36 0 001.51-.16 4.25 4.25 0 002.08-1.11 4.73 4.73 0 00.91-1.22 3.94 3.94 0 00.48-1.35h-1.82a3.21 3.21 0 01-.7 1.28 2.94 2.94 0 01-2.31 1 2.66 2.66 0 01-2.29-1 4.71 4.71 0 01-.79-2.69h8.06a12.65 12.65 0 00-.16-2.42 4.82 4.82 0 00-.74-1.94 4.15 4.15 0 00-1.67-1.43 5.13 5.13 0 00-2.27-.55 4.74 4.74 0 00-3.76 1.66 6.3 6.3 0 00-1.44 4.3 5.79 5.79 0 001.43 4.19 4.64 4.64 0 003.47 1.43zm3.23-6.77h-6.11a3.47 3.47 0 01.92-2.33 2.77 2.77 0 012.13-.92 2.68 2.68 0 012.54 1.33 4.77 4.77 0 01.52 1.92zm7.92 6.77a4.43 4.43 0 002-.45 4 4 0 001.53-1.47v1.53h1.66V356h-1.76v5.56a4.57 4.57 0 00-1.12-1.08 3.84 3.84 0 00-2.11-.53 4 4 0 00-3.51 1.76 7.07 7.07 0 00-1.23 4.16 6.05 6.05 0 001.35 4.12 4.1 4.1 0 003.18 1.49zm.58-1.61a2.65 2.65 0 01-2.41-1.19 5.47 5.47 0 01-.75-3 4.88 4.88 0 01.87-3.14 2.77 2.77 0 012.27-1.07 2.65 2.65 0 012.1 1 4.69 4.69 0 01.86 3.09 5.25 5.25 0 01-.83 3.17 2.55 2.55 0 01-2.12 1.13zm10 1.22v-2.24h-2.15v2.24z"/></g></g></g></svg>