<?xml version="1.0" encoding="UTF-8"?>
<svg width="347px" height="68px" viewBox="0 0 347 68" version="1.1" xmlns="http://www.w3.org/2000/svg" xmlns:xlink="http://www.w3.org/1999/xlink">
    <!-- Generator: Sketch 60 (88103) - https://sketch.com -->
    <title>Group 3 Copy</title>
    <desc>Created with Sketch.</desc>
    <g id="Symbols" stroke="none" stroke-width="1" fill="none" fill-rule="evenodd">
        <g id="Group-3-Copy" fill-rule="nonzero">
            <g id="American_Express_logo_(2018)">
                <polygon id="path3078" fill="#016FD0" points="-1.05976922e-13 1.35634266e-05 67.6487296 1.35634266e-05 67.6487296 36.5188141 64.3002993 41.7507364 67.6487296 46.4071489 67.6487296 67.6487432 -1.13686838e-13 67.6487432 -1.13686838e-13 33.2227048 2.09276816 30.8160239 -1.05976922e-13 28.5139781"></polygon>
                <path d="M13.1321198,47.1396146 L13.1321198,36.5188141 L24.3775751,36.5188141 L25.5840908,38.0916562 L26.8305025,36.5188141 L67.6487296,36.5188141 L67.6487296,46.4071489 C67.6487296,46.4071489 66.5812608,47.1289945 65.3466838,47.1396146 L42.7447891,47.1396146 L41.3844899,45.4653995 L41.3844899,47.1396146 L36.9268935,47.1396146 L36.9268935,44.2816786 C36.9268935,44.2816786 36.3179791,44.6806128 35.0015475,44.6806128 L33.4842904,44.6806128 L33.4842904,47.1396146 L26.735113,47.1396146 L25.5303213,45.5330403 L24.3070311,47.1396146 L13.1321198,47.1396146 Z" id="path3082" fill="#FFFFFF"></path>
                <path d="M-5.68434189e-14,28.5139781 L2.53589453,22.601911 L6.92145933,22.601911 L8.36060874,25.9136115 L8.36060874,22.601911 L13.8122701,22.601911 L14.6689964,24.9955099 L15.4995637,22.601911 L39.9718713,22.601911 L39.9718713,23.8052514 C39.9718713,23.8052514 41.2583589,22.601911 43.3726197,22.601911 L51.3129881,22.6296618 L52.7272934,25.8980203 L52.7272934,22.601911 L57.2895276,22.601911 L58.5451889,24.4793198 L58.5451889,22.601911 L63.1492785,22.601911 L63.1492785,33.2227048 L58.5451889,33.2227048 L57.3418471,31.3392127 L57.3418471,33.2227048 L50.6389136,33.2227048 L49.9648391,31.5484896 L48.1628646,31.5484896 L47.4997616,33.2227048 L42.9540659,33.2227048 C41.134811,33.2227048 39.9718713,32.0439345 39.9718713,32.0439345 L39.9718713,33.2227048 L33.1180561,33.2227048 L31.7577563,31.5484896 L31.7577563,33.2227048 L6.27176441,33.2227048 L5.59815446,31.5484896 L3.80192614,31.5484896 L3.13307695,33.2227048 L-5.68434189e-14,33.2227048 L-5.68434189e-14,28.5139781 Z" id="path3080" fill="#FFFFFF"></path>
                <path d="M3.43344785,23.9112293 L0.0130798226,31.8637444 L2.23991588,31.8637444 L2.87101629,30.2712896 L6.53990047,30.2712896 L7.16773114,31.8637444 L9.44361649,31.8637444 L6.02651799,23.9112293 L3.43344785,23.9112293 Z M4.69891827,25.7620199 L5.81724178,28.5447535 L3.57732529,28.5447535 L4.69891827,25.7620199 L4.69891827,25.7620199 Z" id="path3046" fill="#016FD0"></path>
                <polygon id="path3048" fill="#016FD0" points="9.67905248 31.8624084 9.67905248 23.9098865 12.8435105 23.9216392 14.6840668 29.0489196 16.4805494 23.9098865 19.6197014 23.9098865 19.6197014 31.8624084 17.6315716 31.8624084 17.6315716 26.0026554 15.5241122 31.8624084 13.7805181 31.8624084 11.6671823 26.0026554 11.6671823 31.8624084"></polygon>
                <polygon id="path3050" fill="#016FD0" points="20.9800005 31.8624084 20.9800005 23.9098865 27.4675821 23.9098865 27.4675821 25.6887435 22.989058 25.6887435 22.989058 27.0490399 27.3629437 27.0490399 27.3629437 28.723255 22.989058 28.723255 22.989058 30.1358723 27.4675821 30.1358723 27.4675821 31.8624084"></polygon>
                <path d="M28.6186043,23.9112293 L28.6186043,31.8637444 L30.6067341,31.8637444 L30.6067341,29.0385097 L31.443841,29.0385097 L33.8276349,31.8637444 L36.2572081,31.8637444 L33.6412477,28.9338747 C34.7148539,28.8432777 35.8223043,27.9218192 35.8223043,26.4912236 C35.8223043,24.8177341 34.5088038,23.9112293 33.0428469,23.9112293 L28.6186043,23.9112293 L28.6186043,23.9112293 Z M30.6067341,25.6900795 L32.8793493,25.6900795 C33.4245184,25.6900795 33.8210953,26.1165272 33.8210953,26.527187 C33.8210953,27.0555164 33.3072632,27.3642946 32.9087792,27.3642946 L30.6067341,27.3642946 L30.6067341,25.6900795 L30.6067341,25.6900795 Z" id="path3052" fill="#016FD0"></path>
                <polygon id="path3054" fill="#016FD0" points="38.6638917 31.8624084 36.6339065 31.8624084 36.6339065 23.9098865 38.6638917 23.9098865"></polygon>
                <path d="M43.4772582,31.8624084 L43.0390849,31.8624084 C40.9190047,31.8624084 39.6317968,30.1921266 39.6317968,27.9188488 C39.6317968,25.5894117 40.9045928,23.9098865 43.5818966,23.9098865 L45.7793033,23.9098865 L45.7793033,25.7933785 L43.5015584,25.7933785 C42.414721,25.7933785 41.6460857,26.6415471 41.6460857,27.9384683 C41.6460857,29.4785683 42.5249869,30.1254081 43.7911735,30.1254081 L44.3143651,30.1254081 L43.4772582,31.8624084 Z" id="path3056" fill="#016FD0"></path>
                <path d="M47.8034019,23.9112293 L44.3830347,31.8637444 L46.6098706,31.8637444 L47.2409707,30.2712896 L50.9098552,30.2712896 L51.5376852,31.8637444 L53.8135706,31.8637444 L50.3964728,23.9112293 L47.8034019,23.9112293 Z M49.068873,25.7620199 L50.1871959,28.5447535 L47.94728,28.5447535 L49.068873,25.7620199 Z" id="path3058" fill="#016FD0"></path>
                <polygon id="path3060" fill="#016FD0" points="54.0457371 31.8624084 54.0457371 23.9098865 56.5734085 23.9098865 59.8008496 28.9063748 59.8008496 23.9098865 61.7889794 23.9098865 61.7889794 31.8624084 59.3430568 31.8624084 56.0338669 26.7351279 56.0338669 31.8624084"></polygon>
                <polygon id="path3062" fill="#016FD0" points="14.4924196 45.7793182 14.4924196 37.8267964 20.9800005 37.8267964 20.9800005 39.6056533 16.5014771 39.6056533 16.5014771 40.9659497 20.8753621 40.9659497 20.8753621 42.6401648 16.5014771 42.6401648 16.5014771 44.0527822 20.9800005 44.0527822 20.9800005 45.7793182"></polygon>
                <polygon id="path3064" fill="#016FD0" points="46.2815672 45.7793182 46.2815672 37.8267964 52.7691487 37.8267964 52.7691487 39.6056533 48.2906246 39.6056533 48.2906246 40.9659497 52.6435826 40.9659497 52.6435826 42.6401648 48.2906246 42.6401648 48.2906246 44.0527822 52.7691487 44.0527822 52.7691487 45.7793182"></polygon>
                <polygon id="path3066" fill="#016FD0" points="21.2317866 45.7793182 24.3905587 41.8521026 21.156578 37.8267964 23.6613598 37.8267964 25.5873602 40.315224 27.519901 37.8267964 29.9265846 37.8267964 26.735113 41.8030573 29.8996998 45.7793182 27.3953141 45.7793182 25.5252316 43.330116 23.7005994 45.7793182"></polygon>
                <path d="M30.1358615,37.8281391 L30.1358615,45.7806542 L32.1763101,45.7806542 L32.1763101,43.2693315 L34.2690784,43.2693315 C36.0398563,43.2693315 37.3820706,42.3299015 37.3820706,40.5029554 C37.3820706,38.9895211 36.3293649,37.8281391 34.5274047,37.8281391 L30.1358615,37.8281391 L30.1358615,37.8281391 Z M32.1763101,39.6266088 L34.3802564,39.6266088 C34.9523251,39.6266088 35.3612414,39.9772302 35.3612414,40.5421944 C35.3612414,41.0729448 34.9543895,41.4577799 34.3737168,41.4577799 L32.1763101,41.4577799 L32.1763101,39.6266088 Z" id="path3068" fill="#016FD0"></path>
                <path d="M38.2453379,37.8267964 L38.2453379,45.7793182 L40.2334677,45.7793182 L40.2334677,42.9540768 L41.0705746,42.9540768 L43.4543685,45.7793182 L45.8839417,45.7793182 L43.2679813,42.8494417 C44.3415869,42.7588313 45.4490379,41.8373863 45.4490379,40.4067839 C45.4490379,38.7333012 44.1355374,37.8267964 42.6695805,37.8267964 L38.2453379,37.8267964 L38.2453379,37.8267964 Z M40.2334677,39.6056533 L42.5060829,39.6056533 C43.051252,39.6056533 43.4478282,40.0320942 43.4478282,40.4427541 C43.4478282,40.9710903 42.9339961,41.2798617 42.5355122,41.2798617 L40.2334677,41.2798617 L40.2334677,39.6056533 L40.2334677,39.6056533 Z" id="path3072" fill="#016FD0"></path>
                <path d="M53.6899664,45.7793182 L53.6899664,44.0527822 L57.6688423,44.0527822 C58.257573,44.0527822 58.5124895,43.7346384 58.5124895,43.3857125 C58.5124895,43.0514012 58.2583767,42.7134141 57.6688423,42.7134141 L55.8708338,42.7134141 C54.3079398,42.7134141 53.4375266,41.7612006 53.4375266,40.3315815 C53.4375266,39.0564634 54.2346139,37.8267964 56.5570591,37.8267964 L60.4286802,37.8267964 L59.5915727,39.6161107 L56.2431438,39.6161107 C55.6030714,39.6161107 55.4060362,39.9519819 55.4060362,40.272723 C55.4060362,40.6023956 55.6495241,40.9659497 56.1385053,40.9659497 L58.0219967,40.9659497 C59.7642385,40.9659497 60.5202388,41.9542081 60.5202388,43.248376 C60.5202388,44.6397327 59.6778062,45.7793182 57.9271517,45.7793182 L53.6899664,45.7793182 Z" id="path3074" fill="#016FD0"></path>
                <path d="M60.9868614,45.7793182 L60.9868614,44.0527822 L64.9657346,44.0527822 C65.5544687,44.0527822 65.8093865,43.7346384 65.8093865,43.3857125 C65.8093865,43.0514012 65.5552689,42.7134141 64.9657346,42.7134141 L63.1677288,42.7134141 C61.6048348,42.7134141 60.7344209,41.7612006 60.7344209,40.3315815 C60.7344209,39.0564634 61.5315082,37.8267964 63.8539534,37.8267964 L67.7255732,37.8267964 L66.8884656,39.6161107 L63.5400381,39.6161107 C62.8999664,39.6161107 62.7029312,39.9519819 62.7029312,40.272723 C62.7029312,40.6023956 62.9464184,40.9659497 63.4353996,40.9659497 L65.3188923,40.9659497 C67.0611348,40.9659497 67.8171331,41.9542081 67.8171331,43.248376 C67.8171331,44.6397327 66.9747019,45.7793182 65.2240433,45.7793182 L60.9868614,45.7793182 Z" id="path3076" fill="#016FD0"></path>
            </g>
            <g id="Visa_Inc._logo" transform="translate(88.000000, 12.000000)">
                <polygon id="polygon9" fill="#00579F" points="58.5746643 43.1158904 47.6247355 43.1158904 54.4736055 0.767623144 65.4229355 0.767623144"></polygon>
                <path d="M98.2691292,1.80291744 C96.1093221,0.946060218 92.6836895,-1.55454462e-05 88.4479047,-1.55454462e-05 C77.6344983,-1.55454462e-05 70.0197859,5.76625636 69.9730809,14.0102887 C69.8832636,20.0927176 75.4249922,23.4710463 79.5697621,25.4991214 C83.8061457,27.5715064 85.2462167,28.9241552 85.2462167,30.7713981 C85.2031044,33.6084278 81.8229793,34.916168 78.6703913,34.916168 C74.298683,34.916168 71.9562473,34.2419393 68.3964876,32.6635496 L66.9546202,31.9869258 L65.4223367,41.4931909 C67.9905133,42.6632111 72.7220897,43.7014994 77.6344983,43.7470068 C89.1239298,43.7470068 96.6039161,38.0699534 96.6925359,29.284622 C96.736247,24.4638271 93.8099987,20.7699402 87.5012302,17.7514794 C83.6714197,15.8138205 81.3259901,14.5072779 81.3259901,12.5247102 C81.3708987,10.722376 83.3097553,8.87633073 87.6329623,8.87633073 C91.192722,8.78591463 93.8082023,9.64157429 95.7895724,10.4978327 L96.7799581,10.9475181 L98.2691292,1.80291744 L98.2691292,1.80291744 L98.2691292,1.80291744 Z" id="path11" fill="#00579F"></path>
                <path d="M112.822529,28.1134042 C113.724295,25.6805524 117.194237,16.2647034 117.194237,16.2647034 C117.14873,16.3551195 118.094207,13.786943 118.634907,12.2103496 L119.400151,15.8593279 C119.400151,15.8593279 121.473733,25.9961106 121.924017,28.1134042 C120.212698,28.1134042 114.98533,28.1134042 112.822529,28.1134042 L112.822529,28.1134042 Z M126.338838,0.767623144 L117.869065,0.767623144 C115.257177,0.767623144 113.272813,1.5328667 112.145905,4.28127668 L95.8811861,43.1152916 L107.370618,43.1152916 C107.370618,43.1152916 109.26217,37.8885224 109.668743,36.762812 C110.92918,36.762812 122.106047,36.762812 123.727549,36.762812 C124.04191,38.2495881 125.034092,43.1152916 125.034092,43.1152916 L135.172671,43.1152916 L126.338838,0.767623144 L126.338838,0.767623144 L126.338838,0.767623144 Z" id="path13" fill="#00579F"></path>
                <path d="M38.4789373,0.767623144 L27.7553481,29.6450889 L26.5835315,23.7884009 C24.6009639,17.0305458 18.3832103,9.6882793 11.444523,6.03750466 L21.266945,43.0709818 L32.8461938,43.0709818 L50.0575873,0.767623144 L38.4789373,0.767623144 L38.4789373,0.767623144 L38.4789373,0.767623144 Z" id="path15" fill="#00579F"></path>
                <path d="M17.7976013,0.767623144 L0.180233545,0.767623144 L1.24109785e-07,1.62328281 C13.7426488,5.13753512 22.8441371,13.6085059 26.5835315,23.7901972 L22.753721,4.3273829 C22.1232034,1.62268402 20.1855445,0.856841681 17.7976013,0.767623144 L17.7976013,0.767623144 Z" id="path17" fill="#FAA61A"></path>
            </g>
            <g id="Group" transform="translate(242.587041, 0.582835)">
                <rect id="Rectangle" fill="#FF5F00" x="36.2071305" y="6.81190866" width="30.664585" height="50.0843091"></rect>
                <path d="M39.3656005,31.8584869 C39.357901,22.0866953 43.8437347,12.854034 51.5305758,6.82075592 C38.4718423,-3.44201378 19.7189772,-1.94715262 8.45099025,10.2547911 C-2.81699675,22.4567349 -2.81699675,41.2690861 8.45099025,53.4710298 C19.7189772,65.6729736 38.4718423,67.1678347 51.5305758,56.905065 C43.8412885,50.8698711 39.3551808,41.6333831 39.3656005,31.8584869 Z" id="Path" fill="#EB001B"></path>
                <path d="M100.434141,54.802541 L100.434141,51.1200013 L101.174881,51.1200013 L101.174881,50.3580965 L99.4119185,50.3580965 L99.4119185,51.1200013 L100.108215,51.1200013 L100.108215,54.802541 L100.434141,54.802541 Z M103.856363,54.802541 L103.856363,50.3580965 L103.32303,50.3580965 L102.700807,53.5326997 L102.078585,50.3580965 L101.545252,50.3580965 L101.545252,54.802541 L101.930437,54.802541 L101.930437,51.4374616 L102.508215,54.3263505 L102.908215,54.3263505 L103.485993,51.4374616 L103.485993,54.802541 L103.856363,54.802541 Z" id="Shape" fill="#F79E1B"></path>
                <path d="M103.065835,31.8584869 C103.065835,44.0529946 96.1025329,55.1768868 85.1340023,60.5058038 C74.1654717,65.8347208 61.1170981,64.4331011 51.5305758,56.8962178 C59.2140629,50.8578176 63.7002342,41.6263838 63.7002342,31.8540632 C63.7002342,22.0817426 59.2140629,12.8503088 51.5305758,6.81190866 C61.1170981,-0.724974608 74.1654717,-2.12659439 85.1340023,3.20232261 C96.1025329,8.53123961 103.065835,19.6551318 103.065835,31.8496396 L103.065835,31.8584869 Z" id="Path" fill="#F79E1B"></path>
            </g>
        </g>
    </g>
</svg>