<?xml version="1.0" encoding="UTF-8"?>
<svg width="429px" height="278px" viewBox="0 0 429 278" version="1.1" xmlns="http://www.w3.org/2000/svg" xmlns:xlink="http://www.w3.org/1999/xlink">
    <title>Send e-invoices</title>
    <defs>
        <linearGradient x1="-0.0267523599%" y1="50.1990886%" x2="100.062419%" y2="50.1990886%" id="linearGradient-1">
            <stop stop-color="#622E91" offset="36%"></stop>
            <stop stop-color="#712A8E" offset="46%"></stop>
            <stop stop-color="#992087" offset="64%"></stop>
            <stop stop-color="#DA117B" offset="90%"></stop>
            <stop stop-color="#ED0C77" offset="97%"></stop>
        </linearGradient>
    </defs>
    <g id="Send-e-invoices" stroke="none" stroke-width="1" fill="none" fill-rule="evenodd">
        <g id="Group" transform="translate(259.000000, 127.000000) scale(-1, 1) translate(-259.000000, -127.000000) translate(190.000000, 96.000000)" fill="#ED0677" fill-rule="nonzero">
            <path d="M8.45,59.35 L6.45,59.28 L6.45,59.02 L8.45,59.11 L8.45,59.35 Z M8.6,57.16 L6.6,56.98 C6.66,56.3 6.74,55.62 6.84,54.98 L8.84,55.26 C8.74,55.82 8.66,56.47 8.6,57.11 L8.6,57.16 Z M9.15,53.3 L7.15,52.93 C7.28,52.26 7.42,51.6 7.58,50.93 L9.52,51.39 C9.41,51.98 9.27,52.61 9.15,53.25 L9.15,53.3 Z M10.05,49.51 L8.13,48.96 C8.31,48.31 8.52,47.66 8.73,47.01 L10.63,47.65 C10.42,48.21 10.23,48.84 10.05,49.46 L10.05,49.51 Z M11.29,45.81 L9.42,45.09 C9.67,44.45 9.93,43.82 10.2,43.19 L12.03,43.99 C11.77,44.54 11.53,45.15 11.29,45.76 L11.29,45.81 Z M12.85,42.21 L11.05,41.34 C11.34,40.73 11.65,40.12 11.97,39.52 L13.74,40.46 C13.43,40.99 13.13,41.57 12.85,42.16 L12.85,42.21 Z M14.69,38.75 L12.97,37.75 C13.31,37.17 13.66,36.59 14.03,36.01 L15.71,37.09 C15.36,37.58 15.02,38.14 14.69,38.7 L14.69,38.75 Z M16.8,35.44 L15.15,34.31 C15.53,33.75 15.92,33.2 16.33,32.65 L17.94,33.84 C17.55,34.35 17.17,34.85 16.8,35.35 L16.8,35.44 Z M19.13,32.28 L17.56,31.04 C17.98,30.51 18.41,29.98 18.85,29.46 L20.38,30.76 C19.97,31.21 19.54,31.72 19.13,32.23 L19.13,32.28 Z M21.67,29.28 L20.19,27.93 C20.64,27.43 21.1,26.93 21.57,26.45 L23.02,27.83 C22.56,28.26 22.11,28.74 21.67,29.23 L21.67,29.28 Z M24.4,26.43 L22.97,24.95 C23.45,24.48 23.97,24.02 24.44,23.55 L25.8,25.02 C25.34,25.47 24.87,25.92 24.4,26.35 L24.4,26.43 Z M27.29,23.75 L25.97,22.25 C26.48,21.8 26.97,21.36 27.51,20.93 L28.79,22.47 C28.28,22.84 27.78,23.27 27.29,23.7 L27.29,23.75 Z M30.29,21.22 L29.05,19.65 C29.57,19.24 30.11,18.82 30.65,18.42 L31.85,20.02 L30.29,21.22 Z M33.45,18.86 L32.29,17.23 C32.84,16.84 33.39,16.45 33.96,16.08 L35.07,17.73 C34.56,18.05 34.02,18.43 33.49,18.81 L33.45,18.86 Z M135.19,18 C134.68,17.59 134.19,17.18 133.63,16.78 L134.85,15.19 C135.38,15.6 135.92,16.02 136.44,16.44 L135.19,18 Z M36.72,16.65 L35.65,14.96 L37.36,13.89 L38.36,15.6 L36.72,16.65 Z M132.05,15.65 L130.42,14.53 L131.54,12.87 C132.1,13.24 132.66,13.63 133.21,14.03 L132.05,15.65 Z M40.05,14.65 L39.05,12.91 L40.82,11.91 L41.82,13.67 C41.29,13.89 40.71,14.22 40.14,14.55 L40.05,14.65 Z M128.81,13.35 L127.13,12.35 L128.13,10.63 C128.72,10.97 129.29,11.33 129.87,11.69 L128.81,13.35 Z M43.61,12.64 L42.69,10.86 L44.5,9.95 L45.38,11.74 C44.79,12.05 44.2,12.35 43.61,12.65 L43.61,12.64 Z M125.41,11.34 C124.843333,11.02 124.263333,10.71 123.67,10.41 L124.59,8.63 C125.2,8.94 125.79,9.26 126.38,9.63 L125.41,11.34 Z M47.16,10.89 L46.32,9.08 C46.93,8.79 47.54,8.51 48.16,8.24 L48.97,10.07 L47.16,10.89 Z M121.91,9.52 C121.32,9.23 120.72,8.96 120.12,8.69 L120.94,6.86 L122.78,7.72 L121.91,9.52 Z M50.79,9.35 L50.02,7.5 L51.89,6.74 L52.62,8.61 C51.97,8.81 51.4,9.05 50.79,9.35 Z M118.31,7.95 C117.7,7.7 117.09,7.45 116.48,7.22 L117.2,5.35 C117.83,5.59 118.46,5.84 119.08,6.1 L118.31,7.95 Z M54.47,7.95 L53.78,6.08 C54.42,5.84 55.05,5.62 55.69,5.4 L56.34,7.29 C55.71,7.41 55.09,7.64 54.47,7.86 L54.47,7.95 Z M58.22,6.66 L57.61,4.76 C58.25,4.55 58.89,4.35 59.54,4.16 L60.12,6.07 L58.22,6.66 Z M114.63,6.58 L112.76,5.94 L113.38,4.04 L115.3,4.69 L114.63,6.58 Z M62.03,5.52 L61.49,3.6 C62.14,3.42 62.79,3.24 63.49,3.08 L63.99,5.01 L62.03,5.52 Z M110.88,5.36 L108.98,4.82 L109.5,2.89 C110.15,3.06 110.8,3.25 111.5,3.44 L110.88,5.36 Z M65.88,4.54 L65.43,2.59 L67.43,2.15 L67.84,4.15 L65.88,4.54 Z M107.07,4.33 C106.43,4.17 105.79,4.03 105.15,3.89 L105.57,1.89 C106.23,2.03 106.89,2.19 107.57,2.34 L107.07,4.33 Z M69.77,3.72 L69.39,1.72 L71.39,1.36 L71.73,3.36 C71.05,3.35 70.4,3.5 69.76,3.63 L69.77,3.72 Z M103.21,3.5 C102.56,3.37 101.92,3.26 101.27,3.15 L101.59,1.15 L103.59,1.5 L103.21,3.5 Z M73.67,3.05 L73.38,1.05 C74.05,0.95 74.72,0.85 75.38,0.77 L75.63,2.77 L73.67,3.05 Z M99.31,2.85 L97.31,2.6 L97.54,0.6 C98.21,0.67 98.88,0.76 99.54,0.85 L99.31,2.85 Z M77.61,2.55 L77.39,0.55 L79.39,0.36 L79.56,2.36 L77.61,2.55 Z M95.38,2.35 C94.72,2.29 94.06,2.23 93.38,2.19 L93.51,0.19 C94.19,0.19 94.86,0.29 95.51,0.36 L95.38,2.35 Z M81.54,2.17 L81.42,0.17 L83.42,0.06 L83.5,2.06 C82.86,2.05 82.2,2.08 81.54,2.13 L81.54,2.17 Z M91.43,2.07 L89.43,2.01 L89.43,0.01 C90.11,0.01 90.78,0.01 91.43,0.08 L91.43,2.07 Z M85.5,2 L85.5,-3.90798505e-14 L87.38,-3.90798505e-14 L87.52,-3.90798505e-14 L87.52,2 L87.38,2 L85.5,2 Z" id="Shape"></path>
            <polygon id="Path" points="-2.84217094e-14 51.98 1.57 50.75 7.66 58.51 14.96 51.87 16.3 53.35 7.42 61.43"></polygon>
        </g>
        <g id="illustration/product/device/17-document-invoice" transform="translate(104.000000, 21.000000)">
            <path d="M1.49505978e-13,0.871287129 L1.49505978e-13,79.1048991 C1.49505978e-13,84.0180221 3.98769606,88 8.90787423,88 L63.1232877,88 L63.1232877,14.5369678 L49.4390101,0.871287129 L1.49505978e-13,0.871287129 Z" id="Fill-1" fill="#F3F4F5"></path>
            <polygon id="Fill-3" fill="#C5C9CE" points="49.0958904 0.871287129 49.0958904 14.8118812 63.1232877 14.8118812"></polygon>
            <line x1="22.7945205" y1="17.8613861" x2="33.3150685" y2="17.8613861" id="Stroke-5" stroke="#B83498" stroke-width="2.35294118" stroke-linecap="round" stroke-linejoin="round"></line>
            <path d="M19.2876712,17.8619007 C19.2876712,20.0273677 17.5208985,21.7821782 15.3419479,21.7821782 C13.1629973,21.7821782 11.3972603,20.0273677 11.3972603,17.8619007 C11.3972603,15.6964337 13.1629973,13.9405941 15.3419479,13.9405941 C17.5208985,13.9405941 19.2876712,15.6964337 19.2876712,17.8619007" id="Fill-7" fill="#B83498"></path>
            <polygon id="Fill-12" fill="#C5C9CE" points="41.2054795 71.4455446 58.739726 71.4455446 58.739726 65.3465347 41.2054795 65.3465347"></polygon>
            <polygon id="Fill-13" fill="#DCDFE1" points="6.1369863 71.4455446 39.4520548 71.4455446 39.4520548 65.3465347 6.1369863 65.3465347"></polygon>
            <polygon id="Fill-14" fill="#DCDFE1" points="41.2054795 59.2475248 58.739726 59.2475248 58.739726 53.1485149 41.2054795 53.1485149"></polygon>
            <polygon id="Fill-15" fill="#DCDFE1" points="6.1369863 59.2475248 39.4520548 59.2475248 39.4520548 53.1485149 6.1369863 53.1485149"></polygon>
            <polygon id="Fill-16" fill="#DCDFE1" points="6.1369863 46.1782178 39.4520548 46.1782178 39.4520548 40.0792079 6.1369863 40.0792079"></polygon>
            <polygon id="Fill-17" fill="#DCDFE1" points="41.2054795 46.1782178 58.739726 46.1782178 58.739726 40.0792079 41.2054795 40.0792079"></polygon>
        </g>
        <g id="illustration/product/device/17-document-invoice" transform="translate(185.000000, 19.000000)">
            <path d="M1.14465515e-13,0.673267327 L1.14465515e-13,61.126513 C1.14465515e-13,64.923017 3.0530798,68 6.82009121,68 L48.3287671,68 L48.3287671,11.2331115 L37.8517421,0.673267327 L1.14465515e-13,0.673267327 Z" id="Fill-1" fill="#F3F4F5"></path>
            <polygon id="Fill-3" fill="#C5C9CE" points="37.5890411 0.673267327 37.5890411 11.4455446 48.3287671 11.4455446"></polygon>
            <line x1="17.4520548" y1="13.8019802" x2="25.5068493" y2="13.8019802" id="Stroke-5" stroke="#B83498" stroke-width="2.35294118" stroke-linecap="round" stroke-linejoin="round"></line>
            <path d="M14.7671233,13.8023778 C14.7671233,15.4756933 13.4144379,16.8316832 11.7461789,16.8316832 C10.0779198,16.8316832 8.7260274,15.4756933 8.7260274,13.8023778 C8.7260274,12.1290624 10.0779198,10.7722772 11.7461789,10.7722772 C13.4144379,10.7722772 14.7671233,12.1290624 14.7671233,13.8023778" id="Fill-7" fill="#B83498"></path>
            <polygon id="Fill-12" fill="#C5C9CE" points="31.5479452 55.2079208 44.9726027 55.2079208 44.9726027 50.4950495 31.5479452 50.4950495"></polygon>
            <polygon id="Fill-13" fill="#DCDFE1" points="4.69863014 55.2079208 30.2054795 55.2079208 30.2054795 50.4950495 4.69863014 50.4950495"></polygon>
            <polygon id="Fill-14" fill="#DCDFE1" points="31.5479452 45.7821782 44.9726027 45.7821782 44.9726027 41.0693069 31.5479452 41.0693069"></polygon>
            <polygon id="Fill-15" fill="#DCDFE1" points="4.69863014 45.7821782 30.2054795 45.7821782 30.2054795 41.0693069 4.69863014 41.0693069"></polygon>
            <polygon id="Fill-16" fill="#DCDFE1" points="4.69863014 35.6831683 30.2054795 35.6831683 30.2054795 30.970297 4.69863014 30.970297"></polygon>
            <polygon id="Fill-17" fill="#DCDFE1" points="31.5479452 35.6831683 44.9726027 35.6831683 44.9726027 30.970297 31.5479452 30.970297"></polygon>
        </g>
        <g id="illustration/product/device/17-document-invoice" transform="translate(299.000000, 68.000000)">
            <path d="M6.30728346e-14,0.376237624 L6.30728346e-14,34.1589337 C6.30728346e-14,36.2805095 1.68230928,38 3.75800944,38 L26.630137,38 L26.630137,6.27732701 L20.8570824,0.376237624 L6.30728346e-14,0.376237624 Z" id="Fill-1" fill="#F3F4F5"></path>
            <polygon id="Fill-3" fill="#C5C9CE" points="20.7123288 0.376237624 20.7123288 6.3960396 26.630137 6.3960396"></polygon>
            <line x1="9.61643836" y1="7.71287129" x2="14.0547945" y2="7.71287129" id="Stroke-5" stroke="#B83498" stroke-width="1.81512605" stroke-linecap="round" stroke-linejoin="round"></line>
            <path d="M8.1369863,7.7130935 C8.1369863,8.64818153 7.39162907,9.40594059 6.47238429,9.40594059 C5.5531395,9.40594059 4.80821918,8.64818153 4.80821918,7.7130935 C4.80821918,6.77800548 5.5531395,6.01980198 6.47238429,6.01980198 C7.39162907,6.01980198 8.1369863,6.77800548 8.1369863,7.7130935" id="Fill-7" fill="#B83498"></path>
            <polygon id="Fill-12" fill="#C5C9CE" points="17.3835616 30.8514851 24.7808219 30.8514851 24.7808219 28.2178218 17.3835616 28.2178218"></polygon>
            <polygon id="Fill-13" fill="#DCDFE1" points="2.5890411 30.8514851 16.6438356 30.8514851 16.6438356 28.2178218 2.5890411 28.2178218"></polygon>
            <polygon id="Fill-14" fill="#DCDFE1" points="17.3835616 25.5841584 24.7808219 25.5841584 24.7808219 22.950495 17.3835616 22.950495"></polygon>
            <polygon id="Fill-15" fill="#DCDFE1" points="2.5890411 25.5841584 16.6438356 25.5841584 16.6438356 22.950495 2.5890411 22.950495"></polygon>
            <polygon id="Fill-16" fill="#DCDFE1" points="2.5890411 19.9405941 16.6438356 19.9405941 16.6438356 17.3069307 2.5890411 17.3069307"></polygon>
            <polygon id="Fill-17" fill="#DCDFE1" points="17.3835616 19.9405941 24.7808219 19.9405941 24.7808219 17.3069307 17.3835616 17.3069307"></polygon>
        </g>
        <g id="illustration/product/device/17-document-invoice" transform="translate(328.000000, 115.000000)">
            <path d="M3.97125255e-14,0.237623762 L3.97125255e-14,21.5740634 C3.97125255e-14,22.914006 1.05923177,24 2.36615409,24 L16.7671233,24 L16.7671233,3.96462758 L13.132237,0.237623762 L3.97125255e-14,0.237623762 Z" id="Fill-1" fill="#F3F4F5"></path>
            <polygon id="Fill-3" fill="#C5C9CE" points="13.0410959 0.237623762 13.0410959 4.03960396 16.7671233 4.03960396"></polygon>
            <line x1="6.05479452" y1="4.87128713" x2="8.84931507" y2="4.87128713" id="Stroke-5" stroke="#B83498" stroke-width="1.14285714" stroke-linecap="round" stroke-linejoin="round"></line>
            <path d="M5.12328767,4.87142748 C5.12328767,5.46200939 4.65398868,5.94059406 4.07520492,5.94059406 C3.49642117,5.94059406 3.02739726,5.46200939 3.02739726,4.87142748 C3.02739726,4.28084557 3.49642117,3.8019802 4.07520492,3.8019802 C4.65398868,3.8019802 5.12328767,4.28084557 5.12328767,4.87142748" id="Fill-7" fill="#B83498"></path>
            <polygon id="Fill-12" fill="#C5C9CE" points="10.9452055 19.4851485 15.6027397 19.4851485 15.6027397 17.8217822 10.9452055 17.8217822"></polygon>
            <polygon id="Fill-13" fill="#DCDFE1" points="1.63013699 19.4851485 10.4794521 19.4851485 10.4794521 17.8217822 1.63013699 17.8217822"></polygon>
            <polygon id="Fill-14" fill="#DCDFE1" points="10.9452055 16.1584158 15.6027397 16.1584158 15.6027397 14.4950495 10.9452055 14.4950495"></polygon>
            <polygon id="Fill-15" fill="#DCDFE1" points="1.63013699 16.1584158 10.4794521 16.1584158 10.4794521 14.4950495 1.63013699 14.4950495"></polygon>
            <polygon id="Fill-16" fill="#DCDFE1" points="1.63013699 12.5940594 10.4794521 12.5940594 10.4794521 10.9306931 1.63013699 10.9306931"></polygon>
            <polygon id="Fill-17" fill="#DCDFE1" points="10.9452055 12.5940594 15.6027397 12.5940594 15.6027397 10.9306931 10.9452055 10.9306931"></polygon>
        </g>
        <g id="illustration/product/device/17-document-invoice" transform="translate(250.000000, 38.000000)">
            <path d="M8.17610819e-14,0.485148515 L8.17610819e-14,44.0470461 C8.17610819e-14,46.7827623 2.18077128,49 4.87149372,49 L34.5205479,49 L34.5205479,8.09444799 L27.0369586,0.485148515 L8.17610819e-14,0.485148515 Z" id="Fill-1" fill="#F3F4F5"></path>
            <polygon id="Fill-3" fill="#C5C9CE" points="26.8493151 0.485148515 26.8493151 8.24752475 34.5205479 8.24752475"></polygon>
            <line x1="12.4657534" y1="9.94554455" x2="18.2191781" y2="9.94554455" id="Stroke-5" stroke="#B83498" stroke-width="2.35294118" stroke-linecap="round" stroke-linejoin="round"></line>
            <path d="M10.5479452,9.9458311 C10.5479452,11.1516025 9.58174139,12.1287129 8.39012778,12.1287129 C7.19851417,12.1287129 6.23287671,11.1516025 6.23287671,9.9458311 C6.23287671,8.7400597 7.19851417,7.76237624 8.39012778,7.76237624 C9.58174139,7.76237624 10.5479452,8.7400597 10.5479452,9.9458311" id="Fill-7" fill="#B83498"></path>
            <polygon id="Fill-12" fill="#C5C9CE" points="22.5342466 39.7821782 32.1232877 39.7821782 32.1232877 36.3861386 22.5342466 36.3861386"></polygon>
            <polygon id="Fill-13" fill="#DCDFE1" points="3.35616438 39.7821782 21.5753425 39.7821782 21.5753425 36.3861386 3.35616438 36.3861386"></polygon>
            <polygon id="Fill-14" fill="#DCDFE1" points="22.5342466 32.990099 32.1232877 32.990099 32.1232877 29.5940594 22.5342466 29.5940594"></polygon>
            <polygon id="Fill-15" fill="#DCDFE1" points="3.35616438 32.990099 21.5753425 32.990099 21.5753425 29.5940594 3.35616438 29.5940594"></polygon>
            <polygon id="Fill-16" fill="#DCDFE1" points="3.35616438 25.7128713 21.5753425 25.7128713 21.5753425 22.3168317 3.35616438 22.3168317"></polygon>
            <polygon id="Fill-17" fill="#DCDFE1" points="22.5342466 25.7128713 32.1232877 25.7128713 32.1232877 22.3168317 22.5342466 22.3168317"></polygon>
        </g>
        <path d="M244.067657,253 L22.9323429,253 C20.7299989,252.895086 19,251.135322 19,249 C19,246.864678 20.7299989,245.104914 22.9323429,245 L244.067657,245 C246.270001,245.104914 248,246.864678 248,249 C248,251.135322 246.270001,252.895086 244.067657,253 Z" id="Path" fill="#EDEDED" fill-rule="nonzero"></path>
        <path d="M403.066919,253 L269.933081,253 C267.730324,252.895086 266,251.135322 266,249 C266,246.864678 267.730324,245.104914 269.933081,245 L403.066919,245 C405.269676,245.104914 407,246.864678 407,249 C407,251.135322 405.269676,252.895086 403.066919,253 Z" id="Path" fill="#EDEDED" fill-rule="nonzero"></path>
        <g id="Group-3" transform="translate(291.000000, 170.000000)">
            <path d="M8.56406221,0 C6.29145939,0 4.11204363,0.916835004 2.50575971,2.54860456 C0.899475792,4.18037412 -0.0019459049,6.39325694 0,8.69993822 L0,50.3507993 C0,55.1515252 3.834263,59.0432825 8.56406221,59.0432825 L33.8449295,59.0432825 L33.8449295,67.2437384 L24.083665,67.2437384 L24.083665,72 L65.0163417,72 L65.0163417,67.2437384 L55.2550772,67.2437384 L55.2550772,59.0432825 L80.4845307,59.0432825 C85.2243766,59.0474504 89.0757399,55.1616613 89.1000035,50.3507993 L89.1000035,0 L8.56406221,0 Z" id="Path" fill="#ED0677" fill-rule="nonzero"></path>
            <path d="M8.53577484,55.8000022 C5.32276267,55.7758309 2.72400867,53.1594603 2.70000011,49.9246675 L2.70000011,8.58273445 C2.72000978,5.34505235 5.3199205,2.72422052 8.53577484,2.70000011 L86.4000034,2.70000011 L86.4000034,49.9246675 C86.3757768,53.1766938 83.7503502,55.8000022 80.5201296,55.8000022 L8.53577484,55.8000022 Z" id="Path" fill="#F0F1F3" fill-rule="nonzero"></path>
            <path d="M14.8734339,9.90000039 L76.033976,9.90000039 C77.7767632,9.90000039 79.1918593,11.3176624 79.2000005,13.0716373 L79.2000005,50.4000004 L14.8438448,50.4000004 C13.1075525,50.4000004 11.7000005,48.9834078 11.7000005,47.2359503 L11.7000005,13.0716373 C11.6979953,12.2260037 12.0324068,11.4147466 12.6286223,10.8188934 C13.2248377,10.2230402 14.0332382,9.89217946 14.8734339,9.90000039 Z" id="Path" fill="#FFFFFF" fill-rule="nonzero"></path>
            <path d="M11.7000005,12.6000005 C11.6980434,11.645999 12.0285452,10.7303019 12.6186005,10.0549268 C13.2086557,9.37955184 14.0097768,9.00000036 14.8452232,9.00000036 L76.0325876,9.00000036 C77.776139,9.00000036 79.1918557,10.6090445 79.2000005,12.6000005 L11.7000005,12.6000005 Z" id="Path" fill="#C0C5CA" fill-rule="nonzero"></path>
            <circle id="Oval" fill="#FFFFFF" fill-rule="nonzero" cx="17.1000007" cy="10.8000004" r="1"></circle>
            <circle id="Oval" fill="#FFFFFF" fill-rule="nonzero" cx="19.8000008" cy="10.8000004" r="1"></circle>
            <circle id="Oval" fill="#FFFFFF" fill-rule="nonzero" cx="22.5000009" cy="10.8000004" r="1"></circle>
            <rect id="Rectangle" x="15.3000006" y="13.5000005" width="26.100001" height="13.5000005"></rect>
            <rect id="Rectangle" fill="#C0C5CA" fill-rule="nonzero" x="11.7000005" y="27.8550011" width="67.5000027" height="1"></rect>
            <rect id="Rectangle" fill="#ABB2B9" fill-rule="nonzero" x="18.0000007" y="32.4000013" width="56.7000023" height="1.80000007"></rect>
            <rect id="Rectangle" fill="#ABB2B9" fill-rule="nonzero" x="18.0000007" y="17.1000007" width="10.8000004" height="3.60000014" rx="1.80000007"></rect>
            <rect id="Rectangle" fill="#E0E2E5" fill-rule="nonzero" x="18.0000007" y="39.6000016" width="56.7000023" height="1.80000007"></rect>
            <rect id="Rectangle" fill="#E0E2E5" fill-rule="nonzero" x="18.0000007" y="36.0000014" width="56.7000023" height="1.80000007"></rect>
            <rect id="Rectangle" fill="#E0E2E5" fill-rule="nonzero" x="18.0000007" y="43.2000017" width="56.7000023" height="1.80000007"></rect>
            <path d="M27.4501036,47.6998359 C27.3920633,47.7019277 27.335609,47.684174 27.2945277,47.6509104 C27.2534464,47.6176469 27.2315201,47.5719358 27.2341035,47.5249406 L27.2341035,31.6677679 C27.2340501,31.6220236 27.2570901,31.5782492 27.297879,31.5465984 C27.338668,31.5149477 27.3936616,31.498171 27.4501036,31.5000013 C27.5065455,31.498171 27.5615391,31.5149477 27.6023281,31.5465984 C27.6431171,31.5782492 27.666157,31.6220236 27.6661036,31.6677679 L27.6661036,47.5249406 C27.6661036,47.6215326 27.5693971,47.6998359 27.4501036,47.6998359 Z" id="Path" fill="#FFFFFF" fill-rule="nonzero"></path>
            <path d="M49.9454975,47.6998359 C49.8890021,47.7000019 49.8349396,47.6812237 49.7958501,47.6481968 C49.7567607,47.61517 49.7360411,47.5706417 49.7384975,47.5249406 L49.7384975,31.6677679 C49.7384975,31.5752006 49.8311745,31.5000013 49.9454975,31.5000013 C50.0019394,31.498171 50.056933,31.5149477 50.097722,31.5465984 C50.138511,31.5782492 50.1615509,31.6220236 50.1614975,31.6677679 L50.1614975,47.5249406 C50.1640809,47.5719358 50.1421546,47.6176469 50.1010733,47.6509104 C50.059992,47.684174 50.0035377,47.7019277 49.9454975,47.6998359 Z" id="Path" fill="#FFFFFF" fill-rule="nonzero"></path>
            <path d="M0,52.7214765 C1.04791156,56.4596803 4.42185379,59.0406212 8.26419857,59.0432825 L33.6391954,59.0432825 L33.6391954,67.2437384 L23.8415863,67.2437384 L23.8415863,72 L64.9266698,72 L64.9266698,67.2437384 L55.1290606,67.2437384 L55.1290606,59.0432825 L80.4524523,59.0432825 C85.2099463,59.0474504 89.0756495,55.1616613 89.1000035,50.3507993 L89.1000035,0 L52.1285889,0 L0,52.7214765 Z" id="Path" fill="#F0F1F3" fill-rule="nonzero" style="mix-blend-mode: multiply;"></path>
        </g>
        <g id="Group-4" transform="translate(37.000000, 123.000000)">
            <path d="M14.2253777,0 C10.4504596,0 6.83033034,1.50259064 4.16220452,4.17687953 C1.4940787,6.85116843 -0.00323225492,10.4778373 0,14.2582315 L0,82.5193622 C0,90.3872183 6.36892145,96.7653759 14.2253777,96.7653759 L56.218287,96.7653759 L56.218287,110.205011 L40.0042904,110.205011 L40.0042904,118 L107.995715,118 L107.995715,110.205011 L91.7817183,110.205011 L91.7817183,96.7653759 L133.689226,96.7653759 C141.562371,96.7722066 147.959697,90.4038302 148,82.5193622 L148,0 L14.2253777,0 Z" id="Path" fill="#8241AA" fill-rule="nonzero"></path>
            <path d="M13.6914296,93 C8.35560312,92.9599421 4.03987085,88.6239608 4,83.2630992 L4,14.7491639 C4.03322991,9.38351389 8.35088316,5.04013929 13.6914296,5 L143,5 L143,83.2630992 C142.959767,88.6525211 138.59974,93 133.235335,93 L13.6914296,93 Z" id="Path" fill="#F0F1F3" fill-rule="nonzero"></path>
            <path d="M25.2185347,17 L125.793645,17 C128.659561,17 130.986608,19.3102639 131,22.1685933 L131,83 L25.1698772,83 C22.3146411,83 20,80.6914762 20,77.8437679 L20,22.1685933 C19.9967025,20.7905238 20.5466238,19.4684753 21.5270669,18.4974553 C22.50751,17.5264353 23.8368796,16.9872548 25.2185347,17 Z" id="Path" fill="#FFFFFF" fill-rule="nonzero"></path>
            <path d="M21,21 C20.9967818,19.674998 21.5402736,18.4031964 22.5105866,17.4651756 C23.4808997,16.5271548 24.7982987,16 26.1721439,16 L126.791361,16 C129.658535,16 131.986602,18.2347835 132,21 L21,21 Z" id="Path" fill="#C0C5CA" fill-rule="nonzero"></path>
            <circle id="Oval" fill="#FFFFFF" fill-rule="nonzero" cx="29" cy="18" r="1"></circle>
            <circle id="Oval" fill="#FFFFFF" fill-rule="nonzero" cx="33" cy="18" r="1"></circle>
            <circle id="Oval" fill="#FFFFFF" fill-rule="nonzero" cx="37" cy="18" r="1"></circle>
            <path d="M46.6005082,30.1056299 L45.0267119,34.4648429 L43.3076421,29.9607253 C43.1798491,29.5553471 42.8014835,29.2808709 42.3754705,29.2845039 L40.9106293,29.2845039 L43.8160994,36.3727533 L43.8160994,36.3727533 C43.9129484,36.6046006 43.9129484,36.8654289 43.8160994,37.0972762 L43.7555687,37.2784069 C43.4165972,38.1116083 42.9444583,38.3410406 41.9275438,38.2806636 L41.9275438,38.2806636 L42.6296991,39.9953679 C43.9756395,40.071168 45.1957164,39.2097675 45.5714876,37.9184022 L49.0580517,29.2724286 L47.738484,29.2724286 C47.2269471,29.2813433 46.776253,29.6100462 46.6126143,30.0935545 L46.6005082,30.1056299 Z M50.4260438,32.9554201 C50.3452152,32.258362 50.6725777,31.5768867 51.2678727,31.2029728 C51.8631676,30.8290589 52.6207576,30.8290589 53.2160526,31.2029728 C53.8113475,31.5768867 54.1387101,32.258362 54.0578814,32.9554201 C54.1387101,33.6524782 53.8113475,34.3339535 53.2160526,34.7078674 C52.6207576,35.0817813 51.8631676,35.0817813 51.2678727,34.7078674 C50.6725777,34.3339535 50.3452152,33.6524782 50.4260438,32.9554201 L50.4260438,32.9554201 Z M48.5495944,32.9554201 C48.5495944,34.9861457 50.2000139,36.632374 52.2359096,36.632374 C54.2718052,36.632374 55.9222248,34.9861457 55.9222248,32.9554201 C55.9222248,30.9246946 54.2718052,29.2784663 52.2359096,29.2784663 C50.2000139,29.2784663 48.5495944,30.9246946 48.5495944,32.9554201 L48.5495944,32.9554201 Z M35.6323586,30.1539315 C35.0519704,29.4719194 34.192372,29.0898586 33.2958764,29.1154486 C32.4137332,29.0703809 31.5534506,29.3985416 30.926563,30.0192395 C30.2996754,30.6399373 29.9643393,31.4955901 30.0030103,32.3758018 L30.0030103,36.6021855 L30.6083166,36.6021855 C30.9646849,36.5780927 31.2956564,36.4096215 31.5243213,36.1359204 C31.7529862,35.8622194 31.8594341,35.5071204 31.8189291,35.1531397 L31.8189291,32.3395756 C31.8008972,31.9617799 31.9451863,31.5942328 32.215613,31.3291038 C32.4860398,31.0639747 32.8569554,30.92641 33.2353458,30.9509067 C33.6168251,30.8959576 34.0017387,31.0254848 34.2718823,31.2997116 C34.5420259,31.5739384 34.6651106,31.9600875 34.603338,32.3395756 L34.603338,36.6021855 L35.2086442,36.6021855 C35.57341,36.5939784 35.9181452,36.434114 36.1595435,36.161224 C36.4009417,35.888334 36.5170417,35.5272449 36.4797874,35.165215 L36.4797874,32.3395756 C36.4656009,31.962861 36.611113,31.5976026 36.8806508,31.3333451 C37.1501885,31.0690876 37.5188311,30.9302637 37.8962041,30.9509067 C38.2727797,30.9210045 38.6434336,31.0581272 38.9093862,31.3257315 C39.1753388,31.5933357 39.3095683,31.9642317 39.2763024,32.3395756 L39.2763024,36.6021855 L39.8816086,36.6021855 C40.2403474,36.5783257 40.573405,36.4081673 40.8024457,36.1317319 C41.0314863,35.8552966 41.1362952,35.4969819 41.0922212,35.1410643 L41.0922212,32.3758018 C41.1572552,31.4970921 40.8372549,30.6334031 40.2149626,30.008059 C39.5926703,29.3827148 38.7291856,29.0571145 37.8477796,29.1154486 C36.9568813,29.1004222 36.105317,29.4808834 35.5234035,30.1539315 L35.6323586,30.1539315 Z M58.3071314,32.9674955 C58.2250668,32.2480412 58.5636983,31.5453474 59.1782286,31.1598827 C59.7927589,30.774418 60.5744029,30.774418 61.1889332,31.1598827 C61.8034635,31.5453474 62.1420949,32.2480412 62.0600303,32.9674955 C62.1420949,33.6869498 61.8034635,34.3896436 61.1889332,34.7751083 C60.5744029,35.160573 59.7927589,35.160573 59.1782286,34.7751083 C58.5636983,34.3896436 58.2250668,33.6869498 58.3071314,32.9674955 L58.3071314,32.9674955 Z M57.9197354,26.0603769 L57.9197354,26.0603769 C57.5571731,26.0054656 57.1881573,26.1049556 56.9026992,26.3345791 C56.6172412,26.5642026 56.4415846,26.9028491 56.4185759,27.2679151 L56.4185759,36.5418086 L57.4233843,36.5418086 C58.1497518,36.5418086 58.3071314,36.0950195 58.3192376,35.8293611 L58.3192376,35.7569088 C58.9002689,36.3616685 59.7070873,36.6984471 60.5467646,36.6867132 C62.5060092,36.4956171 64,34.8525955 64,32.8890055 C64,30.9254156 62.5060092,29.282394 60.5467646,29.0912978 C59.748463,29.0788911 58.9778327,29.3828862 58.4039805,29.9365746 L58.4039805,26 L57.9197354,26.0603769 Z" id="Shape" fill="url(#linearGradient-1)" fill-rule="nonzero"></path>
            <rect id="Rectangle" x="25" y="21" width="43" height="23"></rect>
            <rect id="Rectangle" fill="#C0C5CA" fill-rule="nonzero" x="20" y="45.9387529" width="111" height="1"></rect>
            <rect id="Rectangle" fill="#ABB2B9" fill-rule="nonzero" x="30" y="53" width="93" height="3"></rect>
            <rect id="Rectangle" fill="#E0E2E5" fill-rule="nonzero" x="30" y="65" width="93" height="3"></rect>
            <rect id="Rectangle" fill="#E0E2E5" fill-rule="nonzero" x="30" y="59" width="93" height="3"></rect>
            <rect id="Rectangle" fill="#E0E2E5" fill-rule="nonzero" x="30" y="71" width="93" height="3"></rect>
            <path d="M45.5001139,78.9997233 C45.4356247,79.0032097 45.3728977,78.9736201 45.3272518,78.9181809 C45.2816059,78.8627417 45.2572433,78.7865565 45.2601139,78.7082312 L45.2601139,52.2796111 C45.2600545,52.2033706 45.2856544,52.1304132 45.3309755,52.077662 C45.3762966,52.0249107 45.4374006,51.9969496 45.5001139,52 C45.5628271,51.9969496 45.6239311,52.0249107 45.6692522,52.077662 C45.7145733,52.1304132 45.7401732,52.2033706 45.7401139,52.2796111 L45.7401139,78.7082312 C45.7401139,78.8692178 45.6326622,78.9997233 45.5001139,78.9997233 Z" id="Path" fill="#FFFFFF" fill-rule="nonzero"></path>
            <path d="M82.494995,78.9997233 C82.4322224,79 82.3721529,78.968703 82.3287202,78.9136582 C82.2852875,78.8586135 82.2622657,78.7843996 82.264995,78.7082312 L82.264995,52.2796111 C82.264995,52.1253322 82.3679695,52 82.494995,52 C82.5577082,51.9969496 82.6188122,52.0249107 82.6641333,52.077662 C82.7094544,52.1304132 82.7350543,52.2033706 82.734995,52.2796111 L82.734995,78.7082312 C82.7378655,78.7865565 82.7135029,78.8627417 82.667857,78.9181809 C82.6222112,78.9736201 82.5594841,79.0032097 82.494995,78.9997233 Z" id="Path" fill="#FFFFFF" fill-rule="nonzero"></path>
            <path d="M1,86.4046386 C2.72887759,92.531139 8.29531404,96.7610143 14.6345358,96.7653759 L56.4990071,96.7653759 L56.4990071,110.205011 L40.334602,110.205011 L40.334602,118 L108.11807,118 L108.11807,110.205011 L91.9536654,110.205011 L91.9536654,96.7653759 L133.732997,96.7653759 C141.582061,96.7722066 147.95982,90.4038302 148,82.5193622 L148,0 L87.0033924,0 L1,86.4046386 Z" id="Path" fill="#F0F1F3" fill-rule="nonzero" style="mix-blend-mode: multiply;"></path>
        </g>
        <g id="Group-2" transform="translate(195.000000, 159.000000)" fill-rule="nonzero">
            <path d="M29.2194765,58.56104 L29.1279113,71.1461697 C29.0666337,76.1594179 24.9850128,80.1911523 19.9713901,80.1907778 L16.7564338,80.1907778 C11.7431856,80.1295002 7.71145114,76.0478793 7.71182563,71.0342566 L7.80339084,58.449127 L29.2194765,58.56104 Z" id="Path" fill="#E0E2E5"></path>
            <path d="M20.0222597,81.3912995 L19.9510423,81.3912995 L16.7462599,81.3912995 C11.0629438,81.3186825 6.50673744,76.6669868 6.55199961,70.9833871 L6.65373873,57.1977357 L30.4810417,57.3605183 L30.3894764,71.1461697 C30.3338165,76.8089421 25.7361513,81.3748679 20.0731292,81.3912995 L20.0222597,81.3912995 Z M8.98356468,59.6191269 L8.90206499,70.993561 C8.8795824,75.3588739 12.3912381,78.9205662 16.7564338,78.9597344 L19.9612162,78.9597344 C22.0628768,78.9881622 24.0860072,78.1620201 25.567042,76.6706041 C27.0657214,75.2053972 27.9156973,73.2013593 27.9273896,71.105474 L28.0087809,59.720866 L8.98356468,59.6191269 Z" id="Shape" fill="#E0E2E5"></path>
            <path d="M29.168607,74.7274416 L29.1075635,74.7274416 L29.1075635,72.3263435 L29.1075635,72.3263435 C32.4789404,72.1906445 35.1421731,69.4180594 35.1421731,66.0439526 C35.1421731,62.6698458 32.4789404,59.8972607 29.1075635,59.7615617 L29.1075635,57.3503444 C33.9061013,57.3672011 37.7824197,61.2708496 37.7656177,66.0693874 C37.7487063,70.8679251 33.8450578,74.7442435 29.04652,74.7274416 L29.168607,74.7274416 Z" id="Path" fill="#E0E2E5"></path>
            <circle id="Oval" fill="#F0F1F3" cx="6.42991266" cy="20.8056509" r="6.42991266"></circle>
            <circle id="Oval" fill="#F0F1F3" cx="21.6500857" cy="5.4023475" r="5.4023475"></circle>
            <circle id="Oval" fill="#F0F1F3" cx="18.7403467" cy="43.8597365" r="7.07086914"></circle>
        </g>
    </g>
</svg>