<svg width="220" height="204" viewBox="0 0 220 204" fill="none" xmlns="http://www.w3.org/2000/svg">
<g clip-path="url(#clip0)">
<path d="M32.2178 32.2183C75.1756 -10.7394 144.824 -10.7394 187.782 32.2183C220.124 64.5603 228.116 112.031 211.759 151.85C188.448 123.082 152.834 104.695 112.922 104.695C70.8199 104.695 33.5005 125.154 10.3618 156.674C-8.72708 115.922 -1.44108 65.8773 32.2178 32.2183Z" fill="#E8EAEC"/>
<path d="M92.7841 44.2037C94.0704 44.2037 95.1093 43.1648 95.1093 41.8786V38.3909V37.2283C95.1093 33.3819 98.2259 30.2653 102.072 30.2653C105.919 30.2653 109.035 33.3819 109.035 37.2283C109.035 37.8714 109.555 38.3909 110.198 38.3909H115.998C118.558 38.3909 120.636 40.4686 120.636 43.0411C120.636 43.6842 121.156 44.2037 121.799 44.2037H136.739C138.668 44.2037 140.227 45.762 140.227 47.6914C140.227 49.6207 138.668 51.1791 136.739 51.1791H92.7841C90.8548 51.1791 89.2964 49.6207 89.2964 47.6914C89.2964 45.762 90.8548 44.2037 92.7841 44.2037Z" fill="#F3F4F5"/>
<path d="M56.658 134.154V162.748C56.658 165.692 59.045 168.066 61.9761 168.066H101.479C104.422 168.066 106.797 165.68 106.797 162.748V139.509C106.797 136.566 104.41 134.154 101.479 134.154H56.658Z" fill="#C5C9CE"/>
<path d="M82.5313 136.628H59.1192V162.748C59.1192 164.319 60.4054 165.605 61.9761 165.605H82.5313V136.628Z" fill="white"/>
<path d="M95.5669 146.881H88.6162C88.1339 146.881 87.7505 146.497 87.7505 146.015C87.7505 145.532 88.1339 145.149 88.6162 145.149H95.5669C96.0492 145.149 96.4326 145.532 96.4326 146.015C96.445 146.497 96.0492 146.881 95.5669 146.881Z" fill="#969EA7"/>
<path d="M99.0546 150.356H88.6162C88.1339 150.356 87.7505 149.972 87.7505 149.49C87.7505 149.008 88.1339 148.624 88.6162 148.624H99.0546C99.5369 148.624 99.9203 149.008 99.9203 149.49C99.9203 149.972 99.5246 150.356 99.0546 150.356Z" fill="#969EA7"/>
<path d="M97.3107 153.844H88.6162C88.1339 153.844 87.7505 153.46 87.7505 152.978C87.7505 152.495 88.1339 152.112 88.6162 152.112H97.3107C97.7931 152.112 98.1765 152.495 98.1765 152.978C98.1765 153.448 97.7931 153.844 97.3107 153.844Z" fill="#969EA7"/>
<path d="M81.3316 128.626C78.9323 128.626 76.9905 130.567 76.9905 132.967V140.796H85.6851V132.967C85.6851 130.567 83.7433 128.626 81.3316 128.626Z" fill="#969EA7"/>
<path d="M70.5346 150.504C66.1564 150.504 62.6193 154.054 62.6193 158.42H78.45C78.45 154.054 74.9128 150.504 70.5346 150.504Z" fill="#8241AA"/>
<path d="M70.5346 149.973C73.0824 149.973 75.1478 147.907 75.1478 145.359C75.1478 142.812 73.0824 140.746 70.5346 140.746C67.9868 140.746 65.9214 142.812 65.9214 145.359C65.9214 147.907 67.9868 149.973 70.5346 149.973Z" fill="#8241AA"/>
<path d="M115.998 134.154V162.748C115.998 165.692 118.385 168.066 121.316 168.066H160.819C163.763 168.066 166.137 165.68 166.137 162.748V139.509C166.137 136.566 163.75 134.154 160.819 134.154H115.998Z" fill="#C5C9CE"/>
<path d="M141.884 136.628H118.472V162.748C118.472 164.319 119.758 165.605 121.329 165.605H141.884V136.628Z" fill="white"/>
<path d="M154.92 146.881H147.969C147.487 146.881 147.103 146.497 147.103 146.015C147.103 145.532 147.487 145.149 147.969 145.149H154.92C155.402 145.149 155.785 145.532 155.785 146.015C155.785 146.497 155.402 146.881 154.92 146.881Z" fill="#969EA7"/>
<path d="M158.395 150.356H147.957C147.474 150.356 147.091 149.972 147.091 149.49C147.091 149.008 147.474 148.624 147.957 148.624H158.395C158.877 148.624 159.261 149.008 159.261 149.49C159.273 149.972 158.877 150.356 158.395 150.356Z" fill="#969EA7"/>
<path d="M156.663 153.844H147.969C147.487 153.844 147.103 153.46 147.103 152.978C147.103 152.495 147.487 152.112 147.969 152.112H156.663C157.146 152.112 157.529 152.495 157.529 152.978C157.529 153.448 157.133 153.844 156.663 153.844Z" fill="#969EA7"/>
<path d="M140.684 128.626C138.285 128.626 136.343 130.567 136.343 132.967V140.796H145.038V132.967C145.038 130.567 143.084 128.626 140.684 128.626Z" fill="#969EA7"/>
<path d="M129.887 150.504C125.509 150.504 121.972 154.054 121.972 158.42H137.803C137.803 154.054 134.253 150.504 129.887 150.504Z" fill="#8241AA"/>
<path d="M129.887 149.973C132.435 149.973 134.5 147.907 134.5 145.359C134.5 142.812 132.435 140.746 129.887 140.746C127.34 140.746 125.274 142.812 125.274 145.359C125.274 147.907 127.34 149.973 129.887 149.973Z" fill="#8241AA"/>
<path d="M56.2622 89.2346V117.829C56.2622 120.772 58.6492 123.147 61.5803 123.147H101.083C104.026 123.147 106.401 120.76 106.401 117.829V94.5898C106.401 91.6463 104.014 89.2346 101.083 89.2346H56.2622Z" fill="#C5C9CE"/>
<path d="M82.1355 91.7081H58.7234V117.829C58.7234 119.399 60.0096 120.686 61.5803 120.686H82.1355V91.7081Z" fill="white"/>
<path d="M95.1835 101.961H88.2328C87.7505 101.961 87.3671 101.578 87.3671 101.095C87.3671 100.613 87.7505 100.229 88.2328 100.229H95.1835C95.6658 100.229 96.0492 100.613 96.0492 101.095C96.0492 101.578 95.6658 101.961 95.1835 101.961Z" fill="#969EA7"/>
<path d="M98.6588 105.436H88.2204C87.7381 105.436 87.3547 105.053 87.3547 104.571C87.3547 104.088 87.7381 103.705 88.2204 103.705H98.6588C99.1411 103.705 99.5245 104.088 99.5245 104.571C99.5245 105.053 99.1411 105.436 98.6588 105.436Z" fill="#969EA7"/>
<path d="M96.9149 108.924H88.2204C87.7381 108.924 87.3547 108.541 87.3547 108.058C87.3547 107.576 87.7381 107.193 88.2204 107.193H96.9149C97.3973 107.193 97.7807 107.576 97.7807 108.058C97.793 108.528 97.3973 108.924 96.9149 108.924Z" fill="#969EA7"/>
<path d="M80.9482 83.7062C78.5489 83.7062 76.6072 85.6479 76.6072 88.0472V95.876H85.3017V88.0472C85.2893 85.6479 83.3476 83.7062 80.9482 83.7062Z" fill="#969EA7"/>
<path d="M70.1389 105.585C65.7607 105.585 62.2235 109.134 62.2235 113.5H78.0542C78.0666 109.134 74.517 105.585 70.1389 105.585Z" fill="#8241AA"/>
<path d="M70.1388 105.053C72.6866 105.053 74.752 102.987 74.752 100.44C74.752 97.8919 72.6866 95.8265 70.1388 95.8265C67.591 95.8265 65.5256 97.8919 65.5256 100.44C65.5256 102.987 67.591 105.053 70.1388 105.053Z" fill="#8241AA"/>
<path d="M134.179 46.6278L118.806 70.7325C117.223 73.206 117.952 76.4959 120.426 78.0789L153.732 99.3267C156.206 100.91 159.496 100.18 161.079 97.7065L173.582 78.116C175.166 75.6425 174.448 72.3156 171.975 70.7449L134.179 46.6278Z" fill="#C5C9CE"/>
<path d="M154.672 62.6193L134.933 50.0289L120.884 72.0558C120.03 73.3792 120.426 75.1478 121.749 76.0012L139.077 87.0579L154.672 62.6193Z" fill="white"/>
<path d="M160.151 78.2891L154.289 74.5541C153.881 74.2943 153.769 73.7625 154.029 73.3544C154.289 72.9463 154.821 72.8349 155.229 73.0947L161.091 76.8297C161.499 77.0894 161.611 77.6213 161.351 78.0294C161.091 78.4252 160.559 78.5488 160.151 78.2891Z" fill="#969EA7"/>
<path d="M161.215 83.0878L152.421 77.4729C152.013 77.2132 151.902 76.6814 152.162 76.2732C152.421 75.8651 152.953 75.7538 153.361 76.0135L162.155 81.6284C162.563 81.8882 162.674 82.42 162.414 82.8281C162.155 83.2362 161.611 83.3476 161.215 83.0878Z" fill="#969EA7"/>
<path d="M157.875 85.079L150.541 80.404C150.133 80.1443 150.022 79.6125 150.282 79.2044C150.541 78.7962 151.073 78.6849 151.481 78.9446L158.815 83.6196C159.224 83.8794 159.335 84.4112 159.075 84.8193C158.815 85.2275 158.284 85.3388 157.875 85.079Z" fill="#969EA7"/>
<path d="M157.962 55.2358C155.934 53.9495 153.25 54.5432 151.964 56.5591L147.759 63.1511L155.093 67.8261L159.298 61.2341C160.584 59.2182 159.99 56.5344 157.962 55.2358Z" fill="#969EA7"/>
<path d="M137.098 67.8756C133.412 65.5257 128.514 66.6017 126.165 70.2873L139.509 78.8087C141.859 75.1231 140.783 70.2255 137.098 67.8756Z" fill="#C0C5CA"/>
<path d="M139.856 68.1476C142.403 68.1476 144.469 66.0822 144.469 63.5344C144.469 60.9866 142.403 58.9213 139.856 58.9213C137.308 58.9213 135.243 60.9866 135.243 63.5344C135.243 66.0822 137.308 68.1476 139.856 68.1476Z" fill="#C0C5CA"/>
<path d="M39.2443 62.6811C40.6666 62.6811 41.8168 61.5309 41.8168 60.1086V56.2622V54.976C41.8168 50.7215 45.2673 47.2709 49.5218 47.2709C53.7763 47.2709 57.2269 50.7215 57.2269 54.976C57.2269 55.6809 57.7959 56.2622 58.5132 56.2622H64.932C67.7642 56.2622 70.0646 58.5626 70.0646 61.3948C70.0646 62.0998 70.6336 62.6811 71.3509 62.6811H87.8742C90.0014 62.6811 91.7205 64.4002 91.7205 66.5274C91.7205 68.6547 90.0014 70.3738 87.8742 70.3738H39.269C37.1418 70.3738 35.4224 68.6547 35.4224 66.5274C35.3979 64.4002 37.117 62.6811 39.2443 62.6811Z" fill="white"/>
<path d="M173.743 193.618C173.743 195.807 146.225 197.576 112.288 197.576C78.351 197.576 50.8328 195.807 50.8328 193.618C50.8328 191.429 78.351 189.661 112.288 189.661C146.225 189.661 173.743 191.429 173.743 193.618Z" fill="#F3F4F5"/>
</g>
<defs>
<clipPath id="clip0">
<rect width="220" height="204" fill="white"/>
</clipPath>
</defs>
</svg>
