<svg width="91" height="91" xmlns="http://www.w3.org/2000/svg" xmlns:xlink="http://www.w3.org/1999/xlink"><defs><circle id="a" cx="45.506" cy="45.428" r="45.271"/></defs><g fill="none" fill-rule="evenodd"><mask id="b" fill="#fff"><use xlink:href="#a"/></mask><use fill="#E8EAEC" fill-rule="nonzero" xlink:href="#a"/><g mask="url(#b)" fill-rule="nonzero"><circle fill="#E8EAEC" cx="45.506" cy="45.428" r="45.271"/><path d="M72.147 28.01H18.512a3.366 3.366 0 00-3.366 3.365v5.05H75.48v-5.05a3.366 3.366 0 00-3.332-3.365z" fill="#C5C9CE"/><path d="M62.167 36.424H47.913l.707-3.887a.892.892 0 01.841-.623h11.124a.926.926 0 01.859.623l.723 3.887z" fill="#E8EAEC"/><path d="M46.449 36.374l-.673-3.837a.892.892 0 00-.842-.623H33.776a.909.909 0 00-.858.623l-.673 3.92H15.146v58.196H75.48v-58.28H46.45zM69.774 31.611l1.313 1.128a.37.37 0 010 .555l-1.313 1.144a.37.37 0 01-.606-.218v-2.34a.37.37 0 01.606-.269zM66.644 31.611l-1.33 1.128a.37.37 0 000 .555l1.33 1.144a.354.354 0 00.673-.218v-2.34a.363.363 0 00-.673-.269z" fill="#FFF"/><circle fill="#FFF" cx="20.431" cy="32.739" r="1.212"/><circle fill="#FFF" cx="24.301" cy="32.739" r="1.212"/><circle fill="#FFF" cx="28.172" cy="32.739" r="1.212"/><path fill="#C5C9CE" d="M20.633 56.199h32.969v4.09H20.633zM55.469 63.216h15.634v4.09H55.469zM55.469 56.199h15.634v4.09H55.469zM20.633 63.216h32.969v4.09H20.633z"/><path fill="#8241AA" d="M55.469 70.234h15.634v4.09H55.469z"/><circle fill="#8241AA" cx="26.052" cy="47.834" r="5.066"/></g></g></svg>