<svg width="88" height="121" viewBox="0 0 88 121" fill="none" xmlns="http://www.w3.org/2000/svg">
<path fill-rule="evenodd" clip-rule="evenodd" d="M80.4012 0L76.5995 2.79774L72.8009 0L69.0008 2.79774L65.1991 0L61.4005 2.79774L57.6003 0L53.7986 2.79774L50 0V2.79774V72L53.8002 69.2007L57.6003 72L61.4005 69.2007L65.1991 72L69.0008 69.2007L72.8009 72L76.6011 69.2007L80.4012 72L84.2014 69.2007L88 71.9984V0.00156386L84.2014 2.79774L80.4012 0Z" fill="#E8EAEC"/>
<path d="M68.1314 31.7804V34.2688C65.3465 34.6277 63.4587 36.4062 63.4587 39.1209C63.4587 42.132 65.7756 43.0681 68.1314 43.7936V50.4554C66.4464 50.3072 65.0267 49.6598 63.8566 48.7861L62.9361 50.2214C64.2232 51.2043 65.9628 52.0624 68.1314 52.2262V54.6757H69.832V52.2106C72.7027 51.9298 75.0273 50.3228 75.0273 47.2493C75.0273 43.9652 72.3594 43.1149 69.832 42.3816V35.9694C71.1503 36.0708 72.6325 36.5389 73.787 37.3735L74.6997 35.9616C73.3423 34.9631 71.595 34.3468 69.832 34.222V31.7804H68.1314ZM68.1314 36.063V41.859C66.5947 41.3207 65.4089 40.5953 65.4089 38.9805C65.4089 37.4281 66.5167 36.3906 68.1314 36.063ZM69.832 44.3162C71.6028 44.8935 73.0537 45.6112 73.0537 47.3975C73.0537 48.9889 71.8992 50.1512 69.832 50.4242V44.3162Z" fill="#B93499"/>
<path d="M56 18.5H68" stroke="#969EA7" stroke-width="3" stroke-linecap="round" stroke-linejoin="round"/>
<path d="M77 18.5H82" stroke="#969EA7" stroke-width="3" stroke-linecap="round" stroke-linejoin="round"/>
<path d="M56 25.5H71" stroke="#969EA7" stroke-width="3" stroke-linecap="round" stroke-linejoin="round"/>
<path d="M77 25.5H82" stroke="#969EA7" stroke-width="3" stroke-linecap="round" stroke-linejoin="round"/>
<path fill-rule="evenodd" clip-rule="evenodd" d="M29.5001 114.878C27.2539 114.878 25.4312 113.049 25.4312 110.795C25.4312 108.541 27.2539 106.714 29.5001 106.714C31.7489 106.714 33.5691 108.541 33.5691 110.795C33.5691 113.049 31.7489 114.878 29.5001 114.878Z" fill="#8241AA"/>
<mask id="mask0" mask-type="alpha" maskUnits="userSpaceOnUse" x="0" y="21" width="59" height="100">
<path d="M48.2524 21H0V110.197C0 116.163 4.81186 121 10.7452 121H48.2524C54.1881 121 59 116.163 59 110.197V31.869C59 25.9027 54.1881 21 48.2524 21Z" fill="white"/>
</mask>
<g mask="url(#mask0)">
<path d="M48.2524 21H0V110.197C0 116.163 4.81186 121 10.7452 121H48.2524C54.1881 121 59 116.163 59 110.197V31.869C59 25.9027 54.1881 21 48.2524 21Z" fill="#8241AA"/>
<path d="M80 21H-20V121H80V21Z" fill="#8241AA"/>
</g>
<mask id="mask1" mask-type="alpha" maskUnits="userSpaceOnUse" x="7" y="28" width="46" height="72">
<path d="M52.8965 99.5714V32.0943C52.8965 29.9162 51.1476 28.1428 48.9972 28.1428H7.12061V99.5714H52.8965Z" fill="white"/>
</mask>
<g mask="url(#mask1)">
<path d="M52.8965 99.5714V32.0943C52.8965 29.9162 51.1476 28.1428 48.9972 28.1428H7.12061V99.5714H52.8965Z" fill="white"/>
<path fill-rule="evenodd" clip-rule="evenodd" d="M16 66.625H18.625V75.375H27.375V78H16V66.625ZM44 66.625V78H32.625V75.375H41.375V66.625H44ZM44 50V61.375H41.375V52.625H32.625V50H44ZM27.375 52.625H18.625V61.375H16V50H27.375V52.625Z" fill="#EC0677"/>
</g>
<g style="mix-blend-mode:multiply">
<path fill-rule="evenodd" clip-rule="evenodd" d="M0 88.1932V110.184C0 116.157 4.81186 121 10.7452 121H48.2524C54.1881 121 59 116.157 59 110.184V31.7584C59 30.8599 58.8589 30.0005 58.6546 29.1632L0 88.1932Z" fill="#E0E2E4"/>
</g>
<path fill-rule="evenodd" clip-rule="evenodd" d="M29.5001 114.878C27.2539 114.878 25.4312 113.049 25.4312 110.795C25.4312 108.541 27.2539 106.714 29.5001 106.714C31.7489 106.714 33.5691 108.541 33.5691 110.795C33.5691 113.049 31.7489 114.878 29.5001 114.878Z" fill="white"/>
</svg>
