<svg xmlns="http://www.w3.org/2000/svg" viewBox="0 0 174.76 54.14"><path d="M157.2,11.49l-3.46,3c-1.56-2.59-4-4.63-7.05-4.56a6.86,6.86,0,0,0-5.63,3.27,8.48,8.48,0,0,0,.34,9.17c1.56,2.65,4.48,3.33,7.33,2.85,1.76-.54,4.06-2.37,4.2-4.41H147c-.07-1.36.13-2.65,0-3.81h11.39c0,4.62-1.49,9-5.76,11.28-3.73,2.31-9.77,1.77-13.16-.88-4.07-2.92-5.49-7.75-4.61-12.51A13.49,13.49,0,0,1,143,6.12c4.82-1.29,10.17-.07,13.29,3.94A3.22,3.22,0,0,1,157.2,11.49Z" style="fill:#006554"/><path d="M157.2,11.49l-3.46,3c-1.56-2.59-4-4.63-7.05-4.56a6.86,6.86,0,0,0-5.63,3.27,8.48,8.48,0,0,0,.34,9.17c1.56,2.65,4.48,3.33,7.33,2.85,1.76-.54,4.06-2.37,4.2-4.41H147c-.07-1.36.13-2.65,0-3.81h11.39c0,4.62-1.49,9-5.76,11.28-3.73,2.31-9.77,1.77-13.16-.88-4.07-2.92-5.49-7.75-4.61-12.51A13.49,13.49,0,0,1,143,6.12c4.82-1.29,10.17-.07,13.29,3.94A3.22,3.22,0,0,1,157.2,11.49Z" style="fill:#006554"/><path d="M32.14,21.82A5,5,0,0,0,35.4,25c2,.2,3.8-.2,4.82-1.83.88-1.43.81-4,.81-6.05V6.05h4.61c-.13,5.84,0,15.29-.41,17.6A7.57,7.57,0,0,1,39,29.09c-3.6.61-7.26.2-9.77-2.58-1.76-2-1.9-4.49-1.9-7.21l.14-13.39c1.42.14,3.12,0,4.67,0Z" style="fill:#006554"/><path d="M32.14,21.82A5,5,0,0,0,35.4,25c2,.2,3.8-.2,4.82-1.83.88-1.43.81-4,.81-6.05V6.05h4.61c-.13,5.84,0,15.29-.41,17.6A7.57,7.57,0,0,1,39,29.09c-3.6.61-7.26.2-9.77-2.58-1.76-2-1.9-4.49-1.9-7.21l.14-13.39c1.42.14,3.12,0,4.67,0Z" style="fill:#006554"/><path d="M2.58,11.15l7.19-5.1h8.54L2.78,17.26v8l13.7-10.06,4.27-2.92V19L6.17,29.7H16.55c3.32-2.58,8.75-4.76,8.54-9.72a8.06,8.06,0,0,0-4.34-7.68,10.26,10.26,0,0,0,1.56-2.38,7.33,7.33,0,0,0-1.56-7.81C19.46.48,18.45,0,16.82,0,12,0,7.46.07,2.58,0Z" style="fill:#006554"/><path d="M2.58,11.15l7.19-5.1h8.54L2.78,17.26v8l13.7-10.06,4.27-2.92V19L6.17,29.7H16.55c3.32-2.58,8.75-4.76,8.54-9.72a8.06,8.06,0,0,0-4.34-7.68,10.26,10.26,0,0,0,1.56-2.38,7.33,7.33,0,0,0-1.56-7.81C19.46.48,18.45,0,16.82,0,12,0,7.46.07,2.58,0Z" style="fill:#006554"/><path d="M173.28,8.5a38.14,38.14,0,0,1-2.72,3.66c-1.08-1.08-2.51-2.58-4.27-1.83-.47.34-1.22.82-1.42,1.43a2.85,2.85,0,0,0,.2,2.38c2.44,2.58,6.85,2.17,8.27,6.05a7.6,7.6,0,0,1-.47,6.32,8.37,8.37,0,0,1-8.82,3.39,12.57,12.57,0,0,1-4.81-2.51v-.27L162,23.79c1.49,1.22,3.25,2.44,5.29,1.9a2.86,2.86,0,0,0,1.56-1.63,2.78,2.78,0,0,0-.61-2.86c-2.38-2-6-1.83-7.67-5a7.42,7.42,0,0,1-.13-6.12,6.94,6.94,0,0,1,6-4A8.68,8.68,0,0,1,173.28,8.5Z" style="fill:#006554"/><path d="M173.28,8.5a38.14,38.14,0,0,1-2.72,3.66c-1.08-1.08-2.51-2.58-4.27-1.83-.47.34-1.22.82-1.42,1.43a2.85,2.85,0,0,0,.2,2.38c2.44,2.58,6.85,2.17,8.27,6.05a7.6,7.6,0,0,1-.47,6.32,8.37,8.37,0,0,1-8.82,3.39,12.57,12.57,0,0,1-4.81-2.51v-.27L162,23.79c1.49,1.22,3.25,2.44,5.29,1.9a2.86,2.86,0,0,0,1.56-1.63,2.78,2.78,0,0,0-.61-2.86c-2.38-2-6-1.83-7.67-5a7.42,7.42,0,0,1-.13-6.12,6.94,6.94,0,0,1,6-4A8.68,8.68,0,0,1,173.28,8.5Z" style="fill:#006554"/><path d="M70.6,29,53.78,15.7s0-.14-.07-.14V29.09H49V6.32l.55.2L65.85,19.44H66V6.25H70.6Z" style="fill:#006554"/><path d="M70.6,29,53.78,15.7s0-.14-.07-.14V29.09H49V6.32l.55.2L65.85,19.44H66V6.25H70.6Z" style="fill:#006554"/><rect x="101.05" y="6.32" width="4.81" height="22.83" style="fill:#006554"/><rect x="101.05" y="6.32" width="4.81" height="22.83" style="fill:#006554"/><path d="M96.57,29.09,79.82,15.77a.38.38,0,0,0-.27-.07l.14,13.46H74.94V6.46l.54.2L91.89,19.57V6.25h4.68Z" style="fill:#006554"/><path d="M96.57,29.09,79.82,15.77a.38.38,0,0,0-.27-.07l.14,13.46H74.94V6.46l.54.2L91.89,19.57V6.25h4.68Z" style="fill:#006554"/><polygon points="131.5 29.09 114.75 15.77 114.68 15.77 114.68 29.29 109.93 29.29 109.93 6.52 110.48 6.73 126.82 19.57 126.95 6.32 131.5 6.32 131.5 29.09" style="fill:#006554"/><polygon points="131.5 29.09 114.75 15.77 114.68 15.77 114.68 29.29 109.93 29.29 109.93 6.52 110.48 6.73 126.82 19.57 126.95 6.32 131.5 6.32 131.5 29.09" style="fill:#006554"/><polygon points="3.54 30.94 55.48 30.94 55.48 19.34 69.85 30.94 81.52 30.94 81.52 19.67 95.68 30.94 116.5 30.94 116.5 19.64 130.77 30.94 174.1 30.94 174.16 53.53 3.54 53.53 3.54 30.94" style="fill:#ed1c2e"/><polygon points="3.54 30.94 55.48 30.94 55.48 19.34 69.85 30.94 81.52 30.94 81.52 19.67 95.68 30.94 116.5 30.94 116.5 19.64 130.77 30.94 174.1 30.94 174.16 53.53 3.54 53.53 3.54 30.94" style="fill:none;stroke:#ed1c2e;stroke-miterlimit:3.864;stroke-width:1.211px"/><path d="M62.08,34.2H56.91V50.38h5.17V43.85c0-2.77.71-4.89,3.57-4.89a3.86,3.86,0,0,1,2.19.54V34h-1a5,5,0,0,0-4.72,2.87h-.05V34.2" style="fill:#fff"/><path d="M47.44,50.77a4.65,4.65,0,0,0,3.08-2.19h.06v1.8h5.17V34.2H50.58v1.58a5.43,5.43,0,0,0-3.12-2l0,4.83a3.36,3.36,0,0,1,3.32,3.66c0,2-1.22,3.62-3.32,3.62v4.84" style="fill:#fff"/><path d="M46.4,33.67h-.33c-4.32,0-7.3,4-7.3,8.61s3,8.64,7.35,8.64h.28V45.79a3.38,3.38,0,0,1-2.29-3.48,3.47,3.47,0,0,1,2.28-3.51V33.67" style="fill:#fff"/><path d="M91,34.12a5.61,5.61,0,0,0-2.37,2.13h-.06V28.34l-5.17-3.95v26h5.17v-8.3c0-1.81.6-3.67,2.44-3.83V34.12" style="fill:#fff"/><path d="M92,38.35c1.35.45,1.54,2.11,1.54,3.73v8.3h5.17v-9.9c0-4.1-1.79-6.82-5.48-6.82a6,6,0,0,0-1.23.12v4.57" style="fill:#fff"/><path d="M108.37,50.9a8.29,8.29,0,0,0,8.23-8.59c0-5.31-3.78-8.36-8.23-8.59v5a3.4,3.4,0,0,1,2.79,3.62,3.33,3.33,0,0,1-2.79,3.59v5" style="fill:#fff"/><path d="M107.29,45.9a3.33,3.33,0,0,1-2.78-3.59,3.4,3.4,0,0,1,2.78-3.62l0-5a8.29,8.29,0,0,0-8.24,8.63,8.28,8.28,0,0,0,8.23,8.59v-5" style="fill:#fff"/><path d="M124.06,46.31c-1.66-.24-2-1.61-2-3.47V34.2h-5.17V44c0,5.1,3.11,6.82,7.21,7v-4.6" style="fill:#fff"/><path d="M125.13,50.91c4.11-.14,7.22-1.85,7.22-7V34.2h-5.17v8.64c0,1.88-.34,3.22-2,3.44v4.63" style="fill:#fff"/><path d="M75.74,50.91c3.2-.11,6.28-1.86,7.07-5.55h-5a2.48,2.48,0,0,1-2.11,1.47v4.08" style="fill:#fff"/><path d="M74.69,46.8c-1.68-.25-2.55-1.48-2.55-3.55H83v-.6c0-5.26-2.65-8.65-7.27-9v3.73a3,3,0,0,1,2.47,2.52h-6a2.93,2.93,0,0,1,2.46-2.5V33.67C70.14,33.82,67,37,67,42.31s3.25,8.3,7.71,8.58V46.8" style="fill:#fff"/><path d="M153.91,50.91c3.2-.11,6.27-1.86,7.07-5.55h-5a2.45,2.45,0,0,1-2.1,1.47v4.08" style="fill:#fff"/><path d="M152.86,46.8c-1.68-.25-2.55-1.48-2.55-3.55h10.87v-.6c0-5.26-2.65-8.65-7.27-9v3.73a3,3,0,0,1,2.47,2.52h-6a2.92,2.92,0,0,1,2.46-2.5V33.67c-4.55.15-7.72,3.37-7.71,8.64s3.25,8.3,7.71,8.58V46.8" style="fill:#fff"/><path d="M140.15,39.87c-.64-.18-1.28-.5-1.28-1.19s1-1.1,1.62-1.1a5.92,5.92,0,0,1,2.78.78L145,34.7a10.64,10.64,0,0,0-4.79-1c-3.18,0-6.41,1.77-6.41,5.74A3.92,3.92,0,0,0,137,43.66c.47.14.93.24,1.36.35l1.76-4.14" style="fill:#fff"/><path d="M139.41,44.33a1.19,1.19,0,0,1,.86,1.13c0,.88-1,1.23-1.62,1.23a7.8,7.8,0,0,1-4.09-1.64l-1.87,4a10.44,10.44,0,0,0,5.87,1.86c3.38,0,6.87-1.76,6.87-6,0-3-1.82-4.26-4.23-4.79l-1.79,4.23" style="fill:#fff"/><polyline points="18.48 34.18 12.97 34.19 20.17 50.38 23.34 50.38 24.05 48.52 18.48 34.18" style="fill:#fff"/><polyline points="28.27 34.19 25.3 34.19 22.43 41.43 24.61 47.09 26.75 41.51 30.16 50.38 33.34 50.38 33.95 49.01 28.27 34.19" style="fill:#fff"/><polyline points="34.56 47.63 40.54 34.19 35.14 34.19 32.22 41.58 34.56 47.63" style="fill:#fff"/><polyline points="0 12.91 9.77 6.05 18.31 6.05 0 19.37 0 12.91" style="fill:#ed1c2e"/></svg>
