<svg xmlns="http://www.w3.org/2000/svg" xmlns:xlink="http://www.w3.org/1999/xlink" viewBox="0 0 126.39 40"><defs><linearGradient id="a" x1="21.04" y1="31.44" x2="5.69" y2="16.1" gradientTransform="matrix(1, 0, 0, -1, 0, 42)" gradientUnits="userSpaceOnUse"><stop offset="0" stop-color="#00a0ff"/><stop offset="0.01" stop-color="#00a1ff"/><stop offset="0.26" stop-color="#00beff"/><stop offset="0.51" stop-color="#00d2ff"/><stop offset="0.76" stop-color="#00dfff"/><stop offset="1" stop-color="#00e3ff"/></linearGradient><linearGradient id="b" x1="32.05" y1="21.12" x2="9.92" y2="21.12" gradientTransform="matrix(1, 0, 0, -1, 0, 42)" gradientUnits="userSpaceOnUse"><stop offset="0" stop-color="#ffe000"/><stop offset="0.41" stop-color="#ffbd00"/><stop offset="0.78" stop-color="orange"/><stop offset="1" stop-color="#ff9c00"/></linearGradient><linearGradient id="c" x1="23.81" y1="19.02" x2="2.99" y2="-1.79" gradientTransform="matrix(1, 0, 0, -1, 0, 42)" gradientUnits="userSpaceOnUse"><stop offset="0" stop-color="#ff3a44"/><stop offset="1" stop-color="#c31162"/></linearGradient><linearGradient id="d" x1="7.78" y1="39.25" x2="17.07" y2="29.95" gradientTransform="matrix(1, 0, 0, -1, 0, 42)" gradientUnits="userSpaceOnUse"><stop offset="0" stop-color="#32a071"/><stop offset="0.07" stop-color="#2da771"/><stop offset="0.48" stop-color="#15cf74"/><stop offset="0.8" stop-color="#06e775"/><stop offset="1" stop-color="#00f076"/></linearGradient></defs><rect width="126.39" height="40" rx="5"/><path d="M44.47,12a2.49,2.49,0,0,1-.68,1.83,2.67,2.67,0,0,1-2,.81,2.82,2.82,0,0,1-2.85-2.86,2.82,2.82,0,0,1,2.85-2.87,2.93,2.93,0,0,1,1.13.23,2.39,2.39,0,0,1,.86.61l-.49.49a1.83,1.83,0,0,0-1.5-.66,2.12,2.12,0,0,0-2.13,2.2,2.16,2.16,0,0,0,3.66,1.58,1.72,1.72,0,0,0,.46-1.12h-2v-.66h2.66A2.12,2.12,0,0,1,44.47,12Z" style="fill:#fff;stroke:#fff;stroke-miterlimit:10;stroke-width:0.2px"/><path d="M48.68,9.67H46.19v1.74h2.25v.66H46.19v1.74h2.49v.67h-3.2V9h3.2Z" style="fill:#fff;stroke:#fff;stroke-miterlimit:10;stroke-width:0.2px"/><path d="M51.66,14.48H51V9.67H49.42V9h3.77v.68H51.66Z" style="fill:#fff;stroke:#fff;stroke-miterlimit:10;stroke-width:0.2px"/><path d="M55.92,14.48V9h.7v5.49Z" style="fill:#fff;stroke:#fff;stroke-miterlimit:10;stroke-width:0.2px"/><path d="M59.75,14.48H59V9.67H57.51V9h3.77v.68H59.75Z" style="fill:#fff;stroke:#fff;stroke-miterlimit:10;stroke-width:0.2px"/><path d="M68.42,13.77a2.85,2.85,0,0,1-4,0,2.79,2.79,0,0,1-.81-2,2.81,2.81,0,0,1,.81-2,2.71,2.71,0,0,1,2-.83,2.68,2.68,0,0,1,2,.84,2.79,2.79,0,0,1,.81,2A2.79,2.79,0,0,1,68.42,13.77Zm-3.5-.46a2.1,2.1,0,0,0,3,0,2.13,2.13,0,0,0,.61-1.57,2.14,2.14,0,0,0-.61-1.58,2.1,2.1,0,0,0-3,0,2.14,2.14,0,0,0-.61,1.58A2.13,2.13,0,0,0,64.92,13.31Z" style="fill:#fff;stroke:#fff;stroke-miterlimit:10;stroke-width:0.2px"/><path d="M70.22,14.48V9h.86l2.66,4.27h0l0-1.06V9h.71v5.49h-.74L70.92,10h0l0,1.06v3.42Z" style="fill:#fff;stroke:#fff;stroke-miterlimit:10;stroke-width:0.2px"/><path d="M63.42,22.48a3.89,3.89,0,1,0,3.9,3.89A3.84,3.84,0,0,0,63.42,22.48Zm0,6.25a2.36,2.36,0,1,1,2.19-2.36A2.25,2.25,0,0,1,63.42,28.73ZM54.9,22.48a3.89,3.89,0,1,0,3.9,3.89A3.84,3.84,0,0,0,54.9,22.48Zm0,6.25a2.36,2.36,0,0,1,0-4.71,2.36,2.36,0,0,1,0,4.71ZM44.77,23.68v1.65h3.94a3.37,3.37,0,0,1-.89,2.07,4,4,0,0,1-3,1.21,4.39,4.39,0,0,1,0-8.78,4.2,4.2,0,0,1,3,1.18l1.17-1.16a5.74,5.74,0,0,0-4.14-1.67,6,6,0,1,0,0,12.08A5.54,5.54,0,0,0,49,28.57a5.45,5.45,0,0,0,1.43-3.86,5.26,5.26,0,0,0-.09-1ZM86.2,25a3.61,3.61,0,0,0-3.33-2.48,3.7,3.7,0,0,0-3.67,3.89,3.81,3.81,0,0,0,3.86,3.89,3.89,3.89,0,0,0,3.25-1.72L85,27.65a2.23,2.23,0,0,1-1.92,1.08,2,2,0,0,1-1.88-1.18l5.2-2.15Zm-5.3,1.3a2.12,2.12,0,0,1,2-2.27,1.53,1.53,0,0,1,1.45.82ZM76.67,30h1.71V18.59H76.67Zm-2.8-6.68h-.06a2.72,2.72,0,0,0-2-.87,3.89,3.89,0,0,0,0,7.78,2.65,2.65,0,0,0,2-.88h.06v.56a2,2,0,0,1-2.08,2.28,2.17,2.17,0,0,1-2-1.38l-1.49.62a3.72,3.72,0,0,0,3.45,2.29c2,0,3.7-1.17,3.7-4.05v-7H73.87Zm-2,5.38a2.36,2.36,0,0,1,0-4.71A2.19,2.19,0,0,1,74,26.39,2.18,2.18,0,0,1,71.91,28.73Zm22.3-10.14H90.12V30h1.71V25.7h2.38a3.56,3.56,0,1,0,0-7.11Zm0,5.51H91.83V20.19h2.42a2,2,0,1,1,0,3.91Zm10.55-1.64a3.22,3.22,0,0,0-3,1.75l1.52.64a1.6,1.6,0,0,1,1.56-.84,1.64,1.64,0,0,1,1.79,1.47v.12a3.72,3.72,0,0,0-1.78-.45c-1.63,0-3.29.9-3.29,2.58a2.64,2.64,0,0,0,2.84,2.51,2.4,2.4,0,0,0,2.17-1.11h.06V30h1.65V25.62C108.27,23.59,106.75,22.46,104.8,22.46Zm-.21,6.27c-.56,0-1.34-.28-1.34-1,0-.89,1-1.22,1.81-1.22a3,3,0,0,1,1.56.38A2.06,2.06,0,0,1,104.59,28.73Zm9.68-6-2,5h0l-2-5h-1.84l3,6.93-1.73,3.85h1.78l4.69-10.78ZM98.9,30h1.71V18.59H98.9Z" style="fill:#fff"/><path d="M10.65,9.48a1.84,1.84,0,0,0-.43,1.29V31a1.81,1.81,0,0,0,.43,1.28l.06.07L22,21v-.27L10.71,9.42Z" style="fill:url(#a)"/><path d="M25.82,24.79,22,21v-.27L25.82,17l.09.05,4.47,2.54c1.28.73,1.28,1.92,0,2.64l-4.47,2.55Z" style="fill:url(#b)"/><path d="M25.91,24.75,22,20.88,10.65,32.28a1.49,1.49,0,0,0,1.9.06l13.36-7.59" style="fill:url(#c)"/><path d="M25.91,17,12.55,9.43a1.49,1.49,0,0,0-1.9.05L22,20.88Z" style="fill:url(#d)"/><path d="M25.82,24.66,12.55,32.2a1.53,1.53,0,0,1-1.84,0h0l-.06.07h0l.06.07h0a1.54,1.54,0,0,0,1.84,0l13.36-7.59Z" style="opacity:0.2;isolation:isolate"/><path d="M10.65,32.15a1.82,1.82,0,0,1-.43-1.29V31a1.81,1.81,0,0,0,.43,1.28l.06-.07Z" style="opacity:0.12;isolation:isolate"/><path d="M30.38,22.07l-4.56,2.59.09.09,4.47-2.55a1.6,1.6,0,0,0,1-1.32h0A1.69,1.69,0,0,1,30.38,22.07Z" style="opacity:0.12;isolation:isolate"/><path d="M12.55,9.56,30.38,19.7a1.67,1.67,0,0,1,1,1.18h0a1.6,1.6,0,0,0-1-1.32L12.55,9.43c-1.28-.73-2.33-.12-2.33,1.34v.13C10.22,9.44,11.27,8.84,12.55,9.56Z" style="fill:#fff;opacity:0.25;isolation:isolate"/></svg>
