<svg width="220" height="204" viewBox="0 0 220 204" fill="none" xmlns="http://www.w3.org/2000/svg">
<path d="M110 0C170.751 0 220 49.2487 220 110C220 133.775 212.457 155.789 199.634 173.778C186.075 160.167 167.39 151.656 146.688 151.392L8.0535 151.392C2.86064 138.615 0 124.642 0 110C0 49.2487 49.2487 0 110 0Z" fill="#E8EAEC"/>
<path d="M192.196 120.664C190.886 120.658 189.828 119.594 189.828 118.284V113.547C189.828 109.616 186.641 106.429 182.71 106.429C178.779 106.429 175.592 109.616 175.592 113.547C175.592 114.232 175.037 114.787 174.352 114.787H168.425C165.802 114.787 163.676 116.913 163.676 119.536C163.676 120.221 163.121 120.776 162.436 120.776H147.271C145.999 120.776 144.825 121.454 144.189 122.555C143.553 123.657 143.553 125.013 144.189 126.114C144.825 127.215 145.999 127.894 147.271 127.894H192.196C194.161 127.894 195.755 126.3 195.755 124.335C195.755 122.369 194.161 120.776 192.196 120.776V120.664Z" fill="white"/>
<path d="M75.0656 197.681C75.0656 199.243 34.6416 200.272 23.0724 200.272C11.5032 200.272 2.12878 199.032 2.12878 197.433C2.12878 195.833 11.5032 194.581 23.0724 194.581C34.6416 194.581 75.0656 196.106 75.0656 197.681Z" fill="#F3F4F5"/>
<path d="M99.196 175.51H36.6132C35.8873 175.51 35.2988 174.921 35.2988 174.195C35.2988 173.469 35.8873 172.881 36.6132 172.881H99.196C99.9219 172.881 100.51 173.469 100.51 174.195C100.51 174.921 99.9219 175.51 99.196 175.51Z" fill="#969EA7"/>
<path d="M99.7044 167.499H99.5432L37.4564 159.625C36.989 159.565 36.5891 159.261 36.4072 158.826C36.2253 158.391 36.2891 157.893 36.5746 157.518C36.8601 157.143 37.3238 156.949 37.7912 157.009L99.94 164.92C100.623 165.014 101.117 165.621 101.072 166.309C101.026 166.997 100.456 167.533 99.7664 167.536L99.7044 167.499Z" fill="#969EA7"/>
<path d="M99.94 161.969H99.7168C75.326 157.666 41.4368 141.372 41.0772 141.199C40.4243 140.886 40.1471 140.105 40.4572 139.45C40.7749 138.796 41.5603 138.519 42.218 138.83C42.5528 138.992 76.1444 155.136 100.176 159.377C100.877 159.467 101.382 160.095 101.318 160.799C101.255 161.503 100.646 162.031 99.94 161.994V161.969Z" fill="#969EA7"/>
<path d="M51.828 178.213L54.2956 182.23H81.526L83.9936 178.213H103.226V197.52H32.5956V178.213H51.828Z" fill="#B93499"/>
<path d="M82.146 57.2136L98.266 105.722L130.506 95.0336C132.75 94.2851 133.965 91.8608 133.222 89.6148L117.102 39.1468L82.146 57.2136Z" fill="#C5C9CE"/>
<path d="M125.013 92.318L124.331 90.2844L92.1528 100.961L92.8348 102.994C93.189 104.077 93.9599 104.973 94.977 105.485C95.9941 105.997 97.1734 106.083 98.2536 105.722L122.657 97.6128L130.432 95.0336C128.186 95.7774 125.761 94.5625 125.013 92.318Z" fill="#969EA7"/>
<path d="M79.1328 143.952L78.7484 142.116L80.286 141.41L79.9016 139.574L81.4516 138.868L81.0548 137.032L82.6048 136.326L82.208 134.49L83.758 133.784L83.3612 131.948L84.9112 131.229C79.9016 127.72 47.86 107.161 51.3196 95.8892C51.3196 95.8892 44.7972 104.408 41.288 108.426C36.1668 114.278 79.1452 144.026 79.1452 144.026V143.964L79.1328 143.952Z" fill="#C5C9CE"/>
<path d="M162.808 26.7096C163.182 25.474 162.546 24.1579 161.345 23.684C160.742 23.4781 160.081 23.5254 159.513 23.8151C158.945 24.1049 158.519 24.6123 158.332 25.2216L156.038 32.6616C155.852 33.2587 155.437 33.7575 154.883 34.0482C154.33 34.339 153.683 34.3977 153.086 34.2116L159.844 36.2948L162.808 26.7096Z" fill="#EAECED"/>
<path d="M162.808 26.7096C163.182 25.474 162.546 24.1579 161.345 23.684C160.742 23.4781 160.081 23.5254 159.513 23.8151C158.945 24.1049 158.519 24.6123 158.332 25.2216L156.038 32.6616C155.852 33.2587 155.437 33.7575 154.883 34.0482C154.33 34.339 153.683 34.3977 153.086 34.2116L159.844 36.2948L162.808 26.7096Z" fill="#EAECED"/>
<path d="M149.887 28.52C150.254 27.2882 149.619 25.9803 148.424 25.5068C147.821 25.3009 147.16 25.3482 146.592 25.6379C146.024 25.9277 145.598 26.4351 145.411 27.0444L143.117 34.4844C142.931 35.0815 142.516 35.5803 141.962 35.8711C141.409 36.1618 140.763 36.2206 140.166 36.0344L146.924 38.1176L149.887 28.52Z" fill="#969EA7"/>
<path d="M162.51 37.5968L163.986 32.7856C164.172 32.187 164.111 31.5392 163.818 30.9854C163.525 30.4315 163.023 30.0173 162.424 29.8344L148.3 25.5068C148.923 25.678 149.448 26.0975 149.753 26.6672C150.058 27.2369 150.115 27.9067 149.912 28.52L137.648 68.324C137.25 69.1566 137.374 70.1452 137.967 70.8532C138.559 71.5611 139.51 71.8579 140.4 71.6124C141.29 71.3668 141.954 70.6243 142.1 69.7128L151.673 72.6516L163.862 33.0336" fill="#C5C9CE"/>
<path d="M155.07 67.8652L155.38 66.8608L156.484 68.2992L158.195 67.7288L159.299 69.1672L161.01 68.5844L162.114 70.0352L163.825 69.4524L164.928 70.8908L166.64 70.3204L167.743 71.7588L169.454 71.1884L169.144 72.1928C168.763 73.4348 167.448 74.1338 166.206 73.7552L152.132 69.44C152.73 69.6213 153.376 69.5572 153.927 69.2618C154.479 68.9664 154.89 68.464 155.07 67.8652Z" fill="#EAECED"/>
<path d="M155.07 67.8652L155.38 66.8608L156.484 68.2992L158.195 67.7288L159.299 69.1672L161.01 68.5844L162.114 70.0352L163.825 69.4524L164.928 70.8908L166.64 70.3204L167.743 71.7588L169.454 71.1884L169.144 72.1928C168.763 73.4348 167.448 74.1338 166.206 73.7552L152.132 69.44C152.73 69.6213 153.376 69.5572 153.927 69.2618C154.479 68.9664 154.89 68.464 155.07 67.8652Z" fill="#EAECED"/>
<path d="M142.1 69.7128L142.41 68.7084L143.514 70.1468L145.225 69.564L146.328 71.0148L148.04 70.432L149.143 71.8704L150.854 71.3L151.958 72.7384L153.669 72.168L154.773 73.6064L156.484 73.036L156.174 74.0404C155.809 75.2847 154.506 75.9997 153.26 75.64L139.186 71.3124C140.432 71.6721 141.735 70.9571 142.1 69.7128Z" fill="#969EA7"/>
<path d="M58.338 71.0024L56.7756 71.7464L56.9864 73.47L55.424 74.2264L55.6348 75.95L54.0724 76.694L54.2832 78.4176L52.7208 79.174L52.9316 80.8852L51.3816 81.6416L52.262 82.1252L74.1728 94.0912L73.962 92.3676L75.5244 91.6112L75.3136 89.9L76.876 89.1436L76.6652 87.42L78.2276 86.6636L78.0168 84.9524L79.5792 84.196L79.3684 82.4724L80.9308 81.7284L58.1272 69.2788L58.338 71.0024Z" fill="#C5C9CE"/>
</svg>
