<?xml version="1.0" encoding="UTF-8"?>
<svg width="76px" height="68px" viewBox="0 0 76 68" version="1.1" xmlns="http://www.w3.org/2000/svg" xmlns:xlink="http://www.w3.org/1999/xlink">
    <!-- Generator: Sketch 60.1 (88133) - https://sketch.com -->
    <title>illustration/product/device/60 Bank </title>
    <desc>Created with Sketch.</desc>
    <g id="Page-1" stroke="none" stroke-width="1" fill="none" fill-rule="evenodd">
        <g id="illustration/product/device/60-Bank-">
            <g id="Group">
                <polygon id="Fill-1" fill="#E0E2E4" points="10 60 16 60 16 25 10 25"></polygon>
                <polygon id="Fill-2" fill="#C5C9CE" points="10 28 16 28 16 25 10 25"></polygon>
                <polygon id="Fill-3" fill="#DCDFE1" points="26 60 32 60 32 25 26 25"></polygon>
                <polygon id="Fill-4" fill="#C5C9CE" points="26 28 32 28 32 25 26 25"></polygon>
                <polygon id="Fill-5" fill="#DCDFE1" points="42 60 48 60 48 25 42 25"></polygon>
                <polygon id="Fill-6" fill="#C5C9CE" points="42 28 48 28 48 25 42 25"></polygon>
                <polygon id="Fill-7" fill="#DCDFE1" points="58 60 64 60 64 25 58 25"></polygon>
                <polygon id="Fill-8" fill="#C5C9CE" points="58 28 64 28 64 25 58 25"></polygon>
                <polygon id="Fill-9" fill="#C5C9CE" points="7 65 68 65 68 60 7 60"></polygon>
                <polygon id="Fill-12" fill="#DCDFE1" points="3 25 71 25 71 19 3 19"></polygon>
                <polygon id="Fill-13" fill="#C5C9CE" points="37.0008095 0 3 19 71 19"></polygon>
                <rect id="Rectangle" fill="#DCDFE1" fill-rule="nonzero" x="0" y="65" width="76" height="3" rx="1.5"></rect>
            </g>
        </g>
    </g>
</svg>