<svg width="36" height="36" xmlns="http://www.w3.org/2000/svg"><g stroke-width="1.5" fill="none" fill-rule="evenodd" stroke-linecap="round" stroke-linejoin="round"><path stroke="#2E3E4F" d="M12.006 34.772h23.25M15.756 31.892v-7.2M20.256 31.892v-7.2M27.756 31.892v-7.2M32.256 31.892v-7.2M14.256 24.692h7.5M26.256 24.692h7.5"/><path d="M.756 8.162a.75.75 0 01.75-.75h13.5a.75.75 0 01.75.75v8.58a.75.75 0 01-.75.75h-13.5a.75.75 0 01-.75-.75v-8.58z" stroke="#A476C1"/><path d="M3.3 7.412l1.137-5.057c.088-.388.488-.635.892-.55l13.104 2.736a.72.72 0 01.573.855l-1.659 7.331c-.088.388-.486.634-.89.55l-.701-.144M8.256 14.612c1.243 0 2.25-.967 2.25-2.16s-1.007-2.16-2.25-2.16-2.25.967-2.25 2.16 1.007 2.16 2.25 2.16z" stroke="#A476C1"/><path d="M19.5 15.332l4.084-2.613c.252-.161.58-.161.832 0l10.5 6.719a.713.713 0 01.334.599v1.055c0 .398-.336.72-.75.72h-21c-.414 0-.75-.322-.75-.72" stroke="#2E3E4F"/></g></svg>