<svg width="132" height="98" xmlns="http://www.w3.org/2000/svg"><g fill="none" fill-rule="evenodd"><path d="M12.52 82.424c0 1.922-1.579 3.477-3.53 3.477-1.951 0-3.532-1.555-3.532-3.477 0-1.92 1.58-3.478 3.531-3.478 1.952 0 3.532 1.557 3.532 3.478zM37.242 82.424c0 1.922-1.58 3.477-3.531 3.477-1.95 0-3.532-1.555-3.532-3.477 0-1.92 1.581-3.478 3.532-3.478 1.952 0 3.531 1.557 3.531 3.478z" fill="#E6D9EF"/><path fill="#E5D8EE" d="M5.458 82.424H1.043V74.6l3.531-3.477 4.415-7.824h7.946v15.647"/><path stroke="#E7DAF0" stroke-width="1.68" stroke-linecap="round" stroke-linejoin="round" d="M1.043 78.946h40.614"/><path d="M36.846 72.97c-6.244 6.146-11.192 4.963-14.984 1.23-3.792-3.736-4.996-8.607 1.249-14.753 3.705-3.65 14.359-4.302 14.359-4.302l3.746 3.687s-.625 10.45-4.37 14.138z" fill="#E5D8EE"/><path stroke="#F7F2FA" stroke-width="1.68" stroke-linecap="round" stroke-linejoin="round" d="M25.635 58.101l12.637 12.441"/><path stroke="#E5D8EE" stroke-width="2.333" d="M74.997 14.67L45.128 33.69v50.428h59.738V33.691z"/><path stroke="#E5D8EE" stroke-width="2.333" d="M33.665 40.378l41.323-25.707 41.324 25.707"/><path stroke="#E6D9EF" stroke-width="2.333" d="M45.128 33.748h59.738"/><path stroke="#F0F1F3" stroke-width="2.333" d="M95.799 60.858h10.174"/><path stroke="#E5D8EE" stroke-width="2.333" d="M45.128 50.315h10.173M53.601 33.748v49.774M62.904 33.748v49.774M72.208 33.748v49.774M81.512 33.748v49.774"/><path fill="#F7F2FA" d="M81.512 60.779h14.21v-20.17h-14.21z"/><path stroke="#E7DAF0" stroke-width="2.333" d="M81.512 60.779h14.21v-20.17h-14.21z"/><path fill="#F7F2FA" d="M53.435 60.779h14.21v-20.17h-14.21z"/><path stroke="#E7DAF0" stroke-width="2.333" d="M53.435 60.779h14.21v-20.17h-14.21z"/><path d="M47.735 12.616a.236.236 0 01-.235.237.236.236 0 01-.236-.237V9.237c0-.13.106-.237.236-.237s.235.106.235.237v3.379zM51.505 18c0 2.23-1.793 4.038-4.005 4.038-2.212 0-4.005-1.808-4.005-4.038 0-2.23 1.793-4.038 4.005-4.038 2.212 0 4.005 1.808 4.005 4.038zM44.5 13.836a.239.239 0 00.052-.332l-1.97-2.733a.234.234 0 00-.328-.052.239.239 0 00-.052.331l1.97 2.733c.076.107.223.13.328.053zm-2.005 2.274c.123.04.191.175.15.3a.235.235 0 01-.296.152l-3.186-1.044a.238.238 0 01.145-.452l3.187 1.044zm.15 3.48a.235.235 0 00-.296-.152l-3.186 1.044a.238.238 0 00.145.451l3.187-1.044a.238.238 0 00.15-.299zm1.526 2.626a.234.234 0 01.33-.052.239.239 0 01.051.331l-1.97 2.733a.234.234 0 01-.328.053.239.239 0 01-.052-.332l1.97-2.733zm3.329.93a.236.236 0 00-.236.238v3.379c0 .13.106.237.236.237s.235-.106.235-.237v-3.379a.236.236 0 00-.235-.237zm2.948-.65a.239.239 0 01.052-.332.234.234 0 01.329.052l1.969 2.733a.239.239 0 01-.052.332.234.234 0 01-.329-.053l-1.97-2.733zm1.906-2.906a.238.238 0 00.151.3l3.187 1.043a.238.238 0 00.146-.452l-3.187-1.043a.235.235 0 00-.297.152zm.297-3.028a.235.235 0 01-.297-.152.238.238 0 01.151-.3l3.187-1.044a.238.238 0 01.146.452l-3.187 1.044zM50.5 13.836a.234.234 0 00.329-.053l1.969-2.733a.239.239 0 00-.052-.331.234.234 0 00-.329.052l-1.97 2.733a.239.239 0 00.053.332zM118.207 95.335c0 1.123-6.715 2.033-14.998 2.033-8.284 0-15-.91-15-2.033 0-1.123 6.716-2.034 15-2.034 8.283 0 14.998.91 14.998 2.034z" fill="#E6D9EF"/><path stroke="#E5D8EE" stroke-width="2.333" d="M95.178 61.051h10.256"/><path d="M96.764 12.083h.094c-.684 0-1.24.553-1.24 1.236 0 .682.556 1.236 1.24 1.236 0 4.012 3.26 7.265 7.282 7.265 4.021 0 7.282-3.253 7.282-7.265V4.818h-7.282c-4.022 0-7.282 3.252-7.282 7.265h-.094z" fill="#D5D8DC"/><path d="M88.252 55.744v-12.97c.354-15.204 10.665-17.788 15.888-18.108M120.028 42.775c-.354-15.205-10.666-17.789-15.888-18.109" stroke="#D0D2D3" stroke-width="2.404" stroke-linecap="round" stroke-linejoin="round"/><path d="M86.994 42.746c.385-16.528 12.065-19.026 17.069-19.333a1.253 1.253 0 011.333 1.176 1.257 1.257 0 01-1.179 1.33c-5.354.328-14.383 2.958-14.707 16.885l-2.516-.058z" fill="#ED0677"/><path d="M97.806 57.053l-2.14-22.73c.189-8.108 5.688-9.486 8.474-9.657 2.785.171 8.285 1.55 8.473 9.658l-2.139 22.73H97.806z" fill="#ED0677"/><path d="M97.806 57.053l-2.14-22.73c.189-8.108 5.688-9.486 8.474-9.657 2.785.171 8.285 1.55 8.473 9.658l-2.139 22.73H97.806z" stroke="#ED0677" stroke-width="2.404"/><path d="M94.316 96.972V95.67c0-.718.584-1.3 1.305-1.3.72 0 1.304.582 1.304 1.3 0 .72-.584 1.302-1.304 1.302h-1.305z" fill="#2E3E4F"/><path stroke="#6100A5" stroke-width="2.404" d="M97.806 57.053V93.49"/><path d="M95.62 96.97a1.302 1.302 0 01-.921-2.22l2.184-2.18a1.306 1.306 0 011.845 0c.51.508.51 1.332 0 1.84l-2.185 2.18a1.302 1.302 0 01-.922.38z" fill="#2E3E4F"/><path fill="#2E3E4F" d="M96.502 93.406h2.608v-2.122h-2.608z"/><path d="M97.318 95.675c-.345.419-.462.489-.789.497h-2.213v.8h2.213c.327-.01.444-.079.79-.498l1.79-2.268v-.8l-1.79 2.269z" fill="#314152"/><path d="M113.963 96.972V95.67c0-.718-.584-1.3-1.304-1.3-.72 0-1.304.582-1.304 1.3 0 .72.584 1.302 1.304 1.302h1.304z" fill="#2E3E4F"/><path stroke="#6100A5" stroke-width="2.404" d="M110.474 57.053V93.49"/><path d="M112.659 96.97a1.3 1.3 0 00.922-2.221l-2.185-2.18a1.306 1.306 0 00-1.844 0 1.298 1.298 0 000 1.841l2.185 2.18a1.3 1.3 0 00.922.38z" fill="#2E3E4F"/><path fill="#2E3E4F" d="M109.169 93.406h2.609v-2.122h-2.609z"/><path d="M110.961 95.675c.345.419.463.489.79.497h2.212v.8h-2.212c-.327-.01-.445-.079-.79-.498l-1.791-2.268v-.8l1.791 2.269z" fill="#314152"/><path d="M111.422 14.555V11.09h-3.639a2.584 2.584 0 00-2.587 2.58v2.591h-1.056v5.559c4.021 0 7.282-3.253 7.282-7.265z" fill="#ABB2B9"/><path d="M101.824 14.15a.715.715 0 01-1.431 0 .715.715 0 011.431 0z" fill="#2E3E4F"/><path d="M101.417 17.762a3.857 3.857 0 005.445 0h-5.445z" fill="#ABB2B9"/><path d="M108.282 14.15a.715.715 0 01-1.431 0 .715.715 0 011.431 0z" fill="#2E3E4F"/><path fill="#6100A5" d="M97.502 53.826l.304 3.227h12.668l.303-3.227z"/><path stroke="#6100A5" stroke-width="2.404" d="M97.502 53.826l.304 3.227h12.668l.303-3.227z"/><path fill="#ED0677" d="M86.126 42.746h4.34v-2.382h-4.34zM117.512 40.675h4.341v-2.382h-4.341z"/><path d="M121.13 40.242c-1.447-14.28-12.174-16.538-16.913-16.828a1.257 1.257 0 00-1.333 1.175 1.256 1.256 0 001.179 1.33c5.007.307 13.23 2.629 14.538 14.323h2.529z" fill="#ED0677"/><path fill="#D1D3D4" d="M128.782 14.412l2.85 2.065-25.725 35.339-2.85-2.066z"/><path stroke="#ED0677" stroke-width="1.202" d="M104.14 23.446v19.668"/><path stroke="#D5D8DC" stroke-width="2.404" stroke-linecap="round" stroke-linejoin="round" d="M120.028 42.775l-13.387-7.665"/><path d="M95.947 8.449c0-4.666 3.791-8.449 8.468-8.449 4.678 0 8.469 3.783 8.469 8.449H95.947zM97.254 9.753c0 .72-.585 1.304-1.307 1.304a1.306 1.306 0 01-1.308-1.304c0-.72.586-1.304 1.308-1.304.722 0 1.307.584 1.307 1.304z" fill="#6100A5"/><path fill="#6100A5" d="M117.077 11.057h-21.13V8.448h16.937l4.193 1.305z"/><path d="M117.73 10.405a.653.653 0 11-1.305 0 .653.653 0 011.305 0zM111.61 4.52V.703a.708.708 0 00-.706-.704h-6.489a.708.708 0 00-.706.704V4.52h7.901z" fill="#6100A5"/></g></svg>