<?xml version="1.0" encoding="UTF-8"?>
<svg width="27px" height="29px" viewBox="0 0 27 29" version="1.1" xmlns="http://www.w3.org/2000/svg" xmlns:xlink="http://www.w3.org/1999/xlink">
    <!-- Generator: Sketch 55.2 (78181) - https://sketchapp.com -->
    <title>Group 11</title>
    <desc>Created with Sketch.</desc>
    <g id="Pathways-concepts" stroke="none" stroke-width="1" fill="none" fill-rule="evenodd">
        <g id="Dashboard---Slice-1-Copy-59" transform="translate(-375.000000, -274.000000)" fill="#AAAAAA">
            <g id="Group-23-Copy-5" transform="translate(356.000000, 274.000000)">
                <g id="Group-11" transform="translate(19.000000, 0.000000)">
                    <path d="M12.689527,16.6484846 L12.689527,11.773871 C12.689527,11.3461138 12.3811259,11 12,11 C11.618875,11 11.3104739,11.3461254 11.3104739,11.773871 L11.3104739,16.6484846 C10.400092,17.0248413 9.86139942,18.0783274 10.0310919,19.1484362 C10.2007809,20.2200541 11.0303538,21 12,21 C12.9696472,21 13.7992511,20.2200928 13.9689091,19.1484362 C14.1385981,18.0783274 13.5999089,17.024818 12.689527,16.6484846 Z M12.4134475,19.202878 C12.2464511,19.3918109 11.9946291,19.4477347 11.7750838,19.3464659 C11.5555662,19.2451972 11.4128066,19.0048754 11.4128066,18.7388611 C11.4128066,18.4728468 11.5555593,18.2325173 11.7750838,18.1312563 C11.9946015,18.0284785 12.2464442,18.0859113 12.4134475,18.2748442 C12.6410464,18.5302835 12.6410464,18.9459451 12.4134475,19.2028703 L12.4134475,19.202878 Z" id="Fill-1"></path>
                    <path d="M26.8445804,5.96152194 L21.8789945,1.19963902 C21.5697871,0.975527908 21.1377846,1.00482517 20.8634493,1.26994794 C20.5906195,1.53360454 20.5603029,1.95106332 20.7922113,2.24988562 L22.7323481,4.12479031 L19.822143,6.93714734 C17.9199165,5.62617649 15.6737426,4.86009043 13.3424744,4.72389736 L13.3424744,1.49992375 L16.0586658,1.49992375 C16.4861167,1.49992375 16.8347205,1.16449205 16.8347205,0.749961875 C16.8347205,0.335431698 16.4861012,0 16.0586658,0 L9.07417357,0 C8.64520934,0 8.29811888,0.335431698 8.29811888,0.749961875 C8.29811888,1.16449205 8.64522098,1.49992375 9.07417357,1.49992375 L11.790365,1.49992375 L11.790365,4.72535978 L11.790365,4.72389361 C7.93434324,4.95679052 4.40271237,6.89027098 2.21229801,9.96612711 C0.0235909685,13.0421332 -0.579675144,16.9208986 0.575288247,20.4832175 C1.73029044,24.0469988 4.51764607,26.8972664 8.13134473,28.2171993 C11.7463627,29.5354834 15.7871242,29.1751631 19.0915651,27.238724 C22.3943374,25.302285 24.5937928,22.006615 25.0543813,18.2991785 C25.5151638,14.5918545 24.187373,10.8858054 21.4514698,8.24931439 L21.0240189,7.87433345 L23.8175053,5.17477069 L25.7576421,7.04967537 L25.7591592,7.04967537 C26.0668533,7.2723203 26.5003691,7.24302679 26.7731911,6.97936645 C27.0460209,6.71570985 27.0763375,6.29825107 26.844429,5.99942876 L26.8445804,5.96152194 Z M23.5857715,16.8359691 C23.5812238,20.1463383 21.9836454,23.2676422 19.264311,25.2790399 C16.5435797,27.2916376 13.0089222,27.9669033 9.70137709,27.1056096 C6.39255151,26.2457783 3.68695325,23.9475576 2.38046518,20.8876757 C1.0723862,17.8277562 1.31187667,14.3532578 3.02769479,11.4884035 C4.7435129,8.62354911 7.74145097,6.69277227 11.1382423,6.26341909 C14.5349949,5.83425341 17.9438539,6.95627137 20.3643685,9.29990223 C22.4287904,11.3124999 23.5746739,14.0400363 23.5458823,16.8741422 L23.5857715,16.8359691 Z" id="Fill-2"></path>
                </g>
            </g>
        </g>
    </g>
</svg>