<?xml version="1.0" encoding="UTF-8"?>
<svg width="88px" height="80px" viewBox="0 0 88 80" version="1.1" xmlns="http://www.w3.org/2000/svg" xmlns:xlink="http://www.w3.org/1999/xlink">
    <!-- Generator: Sketch 59 (86127) - https://sketch.com -->
    <title>illustration/product/device/37 calender</title>
    <desc>Created with Sketch.</desc>
    <g id="Pay-runs-page" stroke="none" stroke-width="1" fill="none" fill-rule="evenodd">
        <g id="Pay-runs-empty-state-Copy" transform="translate(-612.000000, -328.000000)">
            <g id="illustration/product/device/37-calender" transform="translate(607.000000, 318.000000)">
                <g id="Group" transform="translate(5.439322, 10.061932)">
                    <path d="M87.5581736,22.04895 L87.5581736,7.3359 C87.5581736,3.3099 84.2739472,-1.42108547e-14 80.2242868,-1.42108547e-14 L7.92315472,-1.42108547e-14 L7.92315472,22.04895 L87.5581736,22.04895 Z" id="Fill-1" fill="#C5C9CE"></path>
                    <path d="M7.92249057,22.04895 L7.92249057,79.233 L79.6308679,79.233 C84.009283,79.233 87.5575094,75.70695 87.5575094,71.35755 L87.5575094,22.04895 L7.92249057,22.04895 Z" id="Fill-4" fill="#DCDFE1"></path>
                    <line x1="16.9685585" y1="12.19317" x2="39.5430491" y2="12.19317" id="Stroke-7" stroke="#FFFFFF" stroke-width="3.31867793" stroke-linecap="round" stroke-linejoin="round"></line>
                    <polygon id="Fill-9" fill="#FFFFFF" points="14.8959094 48.977775 33.3061736 48.977775 33.3061736 30.682575 14.8959094 30.682575"></polygon>
                    <polygon id="Fill-11" fill="#FFFFFF" points="38.3072302 48.977775 56.7174943 48.977775 56.7174943 30.682575 38.3072302 30.682575"></polygon>
                    <polygon id="Fill-12" fill="#FFFFFF" points="61.7185509 48.977775 80.1288151 48.977775 80.1288151 30.682575 61.7185509 30.682575"></polygon>
                    <polygon id="Fill-13" fill="#FFFFFF" points="14.8959094 72.242775 33.3061736 72.242775 33.3061736 53.947575 14.8959094 53.947575"></polygon>
                    <polygon id="Fill-14" fill="#FFFFFF" points="38.3072302 72.242775 56.7174943 72.242775 56.7174943 53.947575 38.3072302 53.947575"></polygon>
                    <polygon id="Fill-15" fill="#FFFFFF" points="61.7185509 72.242775 80.1288151 72.242775 80.1288151 53.947575 61.7185509 53.947575"></polygon>
                    <line x1="66.4240604" y1="35.538195" x2="75.0115321" y2="44.071995" id="Stroke-16" stroke="#EC0677" stroke-width="3.31867793" stroke-linecap="round" stroke-linejoin="round"></line>
                    <line x1="75.0112" y1="35.538195" x2="66.4237283" y2="44.071995" id="Stroke-17" stroke="#EC0677" stroke-width="3.31867793" stroke-linecap="round" stroke-linejoin="round"></line>
                    <path d="M71.7083774,71.360355 L71.7083774,67.423455 L-2.84217094e-14,67.423455 L-2.84217094e-14,71.360355 C-2.84217094e-14,75.708105 3.54656604,79.234155 7.92166038,79.234155 L55.4615849,79.234155 L79.6316981,79.234155 C75.2566038,79.234155 71.7083774,75.708105 71.7083774,71.360355" id="Fill-18" fill="#C5C9CE"></path>
                </g>
            </g>
        </g>
    </g>
</svg>