<?xml version="1.0" encoding="UTF-8"?>
<svg width="334px" height="213px" viewBox="0 0 334 213" version="1.1" xmlns="http://www.w3.org/2000/svg" xmlns:xlink="http://www.w3.org/1999/xlink">
    <title>Artboard</title>
    <defs>
        <linearGradient x1="-0.0267523599%" y1="50.1990886%" x2="100.062419%" y2="50.1990886%" id="linearGradient-1">
            <stop stop-color="#622E91" offset="36%"></stop>
            <stop stop-color="#712A8E" offset="46%"></stop>
            <stop stop-color="#992087" offset="64%"></stop>
            <stop stop-color="#DA117B" offset="90%"></stop>
            <stop stop-color="#ED0C77" offset="97%"></stop>
        </linearGradient>
    </defs>
    <g id="Artboard" stroke="none" stroke-width="1" fill="none" fill-rule="evenodd">
        <g id="inland-revenue">
            <path d="M330.322107,213 L3.6778927,213 C1.6180558,212.895086 0,211.135322 0,209 C0,206.864678 1.6180558,205.104914 3.6778927,205 L330.322107,205 C332.381944,205.104914 334,206.864678 334,209 C334,211.135322 332.381944,212.895086 330.322107,213 Z" id="Path" fill="#EDEDED" fill-rule="nonzero"></path>
            <g id="Group-5" transform="translate(24.000000, 72.000000)">
                <path d="M16.3949085,0.92 C12.2884097,0.92 8.35029609,2.54992883 5.44780786,5.45085238 C2.54531963,8.35177592 0.916488125,12.2857897 0.919998613,16.3865562 L0.919998613,90.4325285 C0.919998613,98.967152 7.84835803,105.885831 16.3949085,105.885831 L62.0763841,105.885831 L62.0763841,120.464419 L44.438185,120.464419 L44.438185,128.92 L118.401829,128.92 L118.401829,120.464419 L100.76363,120.464419 L100.76363,105.885831 L146.352203,105.885831 C154.916908,105.893241 161.876161,98.9851718 161.919999,90.4325285 L161.919999,0.92 L16.3949085,0.92 Z" id="Path" fill="#ED0677" fill-rule="nonzero"></path>
                <path d="M16.448104,100.92 C10.6516307,100.876756 5.96331724,96.1958668 5.92000429,90.408573 L5.92000429,16.4446656 C5.95610298,10.6522025 10.6465033,5.96333219 16.448104,5.92 L156.920004,5.92 L156.920004,90.408573 C156.876298,96.226699 152.139865,100.92 146.312347,100.92 L16.448104,100.92 Z" id="Path" fill="#F0F1F3" fill-rule="nonzero"></path>
                <path d="M28.6086773,18.919759 L138.244608,18.919759 C141.368715,18.919759 143.905406,21.4402879 143.920004,24.5584654 L143.920004,90.92 L28.5556362,90.92 C25.4431716,90.92 22.9199882,88.4016104 22.9199882,85.2950195 L22.9199882,24.5584654 C22.9164098,23.0551168 23.5158735,21.6128821 24.5846448,20.5535876 C25.6534161,19.494293 27.1025488,18.9060961 28.6086773,18.919759 Z" id="Path" fill="#FFFFFF" fill-rule="nonzero"></path>
                <path d="M22.9199888,23.92 C22.9164961,22.3299976 23.5089512,20.8038357 24.5666798,19.6782107 C25.6244085,18.5525858 27.0604921,17.92 28.5581071,17.92 L138.242119,17.92 C141.367596,17.92 143.905399,20.6017401 143.920004,23.92 L22.9199888,23.92 Z" id="Path" fill="#C0C5CA" fill-rule="nonzero"></path>
                <circle id="Oval" fill="#FFFFFF" fill-rule="nonzero" cx="32.4200043" cy="21.42" r="1.5"></circle>
                <circle id="Oval" fill="#FFFFFF" fill-rule="nonzero" cx="36.4200043" cy="21.42" r="1.5"></circle>
                <circle id="Oval" fill="#FFFFFF" fill-rule="nonzero" cx="41.4200043" cy="21.42" r="1.5"></circle>
                <path d="M50.9852632,33.3188892 L49.2726026,37.9894745 L47.4018501,33.1636343 C47.2627812,32.7293005 46.8510305,32.4352189 46.387428,32.4391114 L44.7933362,32.4391114 L47.9551713,40.0336642 L47.9551713,40.0336642 C48.0605658,40.2820721 48.0605658,40.5615309 47.9551713,40.8099388 L47.8892997,41.0040074 C47.5204189,41.8967232 47.0066207,42.1425434 45.8999784,42.0778539 L45.8999784,42.0778539 L46.6640886,43.915037 C48.1287885,43.9962514 49.4565192,43.0733224 49.8654466,41.6897166 L53.6596488,32.4261735 L52.2236486,32.4261735 C51.6669762,32.435725 51.176515,32.7879066 50.9984375,33.3059513 L50.9852632,33.3188892 Z M55.1483461,36.3722358 C55.0603855,35.6253879 55.416633,34.8952357 56.064454,34.4946137 C56.712275,34.0939917 57.5367111,34.0939917 58.1845321,34.4946137 C58.8323531,34.8952357 59.1886006,35.6253879 59.10064,36.3722358 C59.1886006,37.1190838 58.8323531,37.8492359 58.1845321,38.249858 C57.5367111,38.65048 56.712275,38.65048 56.064454,38.249858 C55.416633,37.8492359 55.0603855,37.1190838 55.1483461,36.3722358 L55.1483461,36.3722358 Z M53.1063276,36.3722358 C53.1063276,38.5480132 54.9023724,40.3118293 57.1179059,40.3118293 C59.3334394,40.3118293 61.1294842,38.5480132 61.1294842,36.3722358 C61.1294842,34.1964585 59.3334394,32.4326424 57.1179059,32.4326424 C54.9023724,32.4326424 53.1063276,34.1964585 53.1063276,36.3722358 L53.1063276,36.3722358 Z M39.0493357,33.3706408 C38.4177368,32.6399136 37.4822914,32.2305628 36.5066933,32.2579806 C35.546714,32.2096938 34.6105241,32.5612946 33.9283229,33.226328 C33.2461217,33.8913614 32.8811971,34.8081323 32.9232802,35.7512162 L32.9232802,40.2794845 L33.5819959,40.2794845 C33.9698085,40.2536708 34.3299833,40.0731659 34.5788245,39.7799148 C34.8276657,39.4866636 34.9435061,39.1062004 34.8994272,38.7269354 L34.8994272,35.7124025 C34.8798042,35.3076213 35.0368246,34.9138209 35.3311126,34.629754 C35.6254005,34.3456872 36.029044,34.1982964 36.4408218,34.2245429 C36.8559611,34.1656688 37.2748375,34.304448 37.5688174,34.5982624 C37.8627972,34.8920768 37.9967423,35.3058081 37.9295191,35.7124025 L37.9295191,40.2794845 L38.5882348,40.2794845 C38.9851857,40.2706911 39.3603387,40.0994078 39.6230369,39.8070257 C39.885735,39.5146436 40.0120791,39.1277624 39.9715376,38.7398733 L39.9715376,35.7124025 C39.9560994,35.3087797 40.1144508,34.9174314 40.4077713,34.6342983 C40.7010918,34.3511653 41.1022616,34.2024254 41.5129323,34.2245429 C41.9227352,34.1925049 42.3260938,34.339422 42.6155128,34.6261409 C42.9049319,34.9128597 43.0510051,35.3102483 43.0148039,35.7124025 L43.0148039,40.2794845 L43.6735196,40.2794845 C44.0639118,40.2539204 44.4263568,40.0716078 44.6756069,39.775427 C44.924857,39.4792463 45.0389138,39.0953377 44.9909509,38.7139974 L44.9909509,35.7512162 C45.0617232,34.8097415 44.7134876,33.8843605 44.0362871,33.2143489 C43.3590867,32.5443373 42.4194121,32.1954799 41.460235,32.2579806 C40.4907281,32.2418809 39.5640258,32.6495179 38.9307669,33.3706408 L39.0493357,33.3706408 Z M63.7248238,36.3851737 C63.6355182,35.6143299 64.0040289,34.8614437 64.6727825,34.4484458 C65.341536,34.0354479 66.1921486,34.0354479 66.8609022,34.4484458 C67.5296557,34.8614437 67.8981664,35.6143299 67.8088608,36.3851737 C67.8981664,37.1560176 67.5296557,37.9089038 66.8609022,38.3219017 C66.1921486,38.7348996 65.341536,38.7348996 64.6727825,38.3219017 C64.0040289,37.9089038 63.6355182,37.1560176 63.7248238,36.3851737 L63.7248238,36.3851737 Z M63.3032458,28.9846895 L63.3032458,28.9846895 C62.9086926,28.925856 62.5071167,29.0324524 62.1964711,29.2784776 C61.8858256,29.5245028 61.6946698,29.8873383 61.669631,30.2784805 L61.669631,40.2147949 L62.763099,40.2147949 C63.5535577,40.2147949 63.7248238,39.7360923 63.7379981,39.4514583 L63.7379981,39.3738308 C64.370297,40.0217877 65.2483052,40.3826218 66.1620717,40.3700499 C68.2941908,40.165304 69.9200043,38.4049237 69.9200043,36.3010773 C69.9200043,34.197231 68.2941908,32.4368507 66.1620717,32.2321048 C65.2933317,32.2188119 64.4547046,32.544521 63.8302183,33.1377585 L63.8302183,28.92 L63.3032458,28.9846895 Z" id="Shape" fill="url(#linearGradient-1)" fill-rule="nonzero"></path>
                <rect id="Rectangle" x="27.9200043" y="23.92" width="47" height="25"></rect>
                <rect id="Rectangle" fill="#C0C5CA" fill-rule="nonzero" x="22.9200043" y="50.8535052" width="121" height="1"></rect>
                <rect id="Rectangle" fill="#ABB2B9" fill-rule="nonzero" x="33.9200043" y="58.92" width="102" height="3"></rect>
                <rect id="Rectangle" fill="#E0E2E5" fill-rule="nonzero" x="33.9200043" y="71.92" width="102" height="3"></rect>
                <rect id="Rectangle" fill="#E0E2E5" fill-rule="nonzero" x="33.9200043" y="64.92" width="102" height="3"></rect>
                <rect id="Rectangle" fill="#E0E2E5" fill-rule="nonzero" x="33.9200043" y="77.92" width="102" height="3"></rect>
                <path d="M50.4201181,86.9196926 C50.355629,86.9235663 50.292902,86.890689 50.2472561,86.8290899 C50.2016102,86.7674908 50.1772476,86.6828406 50.1801181,86.5958124 L50.1801181,57.230679 C50.1800588,57.1459673 50.2056587,57.0649036 50.2509798,57.0062911 C50.2963009,56.9476786 50.3574049,56.9166107 50.4201181,56.9197491 C50.4828314,56.9166107 50.5439354,56.9476786 50.5892565,57.0062911 C50.6345776,57.0649036 50.6601775,57.1459673 50.6601181,57.230679 L50.6601181,86.5958124 C50.6601181,86.7746865 50.5526665,86.9196926 50.4201181,86.9196926 Z" id="Path" fill="#FFFFFF" fill-rule="nonzero"></path>
                <path d="M91.4149993,86.9196926 C91.3522267,86.92 91.2921572,86.8852256 91.2487245,86.8240647 C91.2052918,86.7629039 91.18227,86.680444 91.1849993,86.5958124 L91.1849993,57.230679 C91.1849993,57.059258 91.2879738,56.9197491 91.4149993,56.9197491 C91.4777125,56.9166107 91.5388165,56.9476786 91.5841376,57.0062911 C91.6294587,57.0649036 91.6550586,57.1459673 91.6549993,57.230679 L91.6549993,86.5958124 C91.6578698,86.6828406 91.6335072,86.7674908 91.5878613,86.8290899 C91.5422155,86.890689 91.4794884,86.9235663 91.4149993,86.9196926 Z" id="Path" fill="#FFFFFF" fill-rule="nonzero"></path>
                <path d="M1.92000429,94.6470656 C3.80177582,101.292761 9.86048216,105.8811 16.7603154,105.885831 L62.3270869,105.885831 L62.3270869,120.464419 L44.7331766,120.464419 L44.7331766,128.92 L118.511101,128.92 L118.511101,120.464419 L100.917191,120.464419 L100.917191,105.885831 L146.391293,105.885831 C154.934492,105.893241 161.876271,98.9851718 161.920004,90.4325285 L161.920004,0.92 L95.5291388,0.92 L1.92000429,94.6470656 Z" id="Path" fill="#F0F1F3" fill-rule="nonzero" style="mix-blend-mode: multiply;"></path>
            </g>
            <g id="Group-6" transform="translate(199.000000, 122.000000)" fill-rule="nonzero">
                <path d="M28.72,57.56 L28.63,69.93 C28.5697699,74.857552 24.55792,78.8203681 19.63,78.82 L16.47,78.82 C11.542448,78.7597699 7.57963191,74.74792 7.58,69.82 L7.67,57.45 L28.72,57.56 Z" id="Path" fill="#E0E2E5"></path>
                <path d="M19.68,80 L19.61,80 L16.46,80 C10.8738343,79.9286244 6.39551154,75.3564445 6.44,69.77 L6.54,56.22 L29.96,56.38 L29.87,69.93 C29.8152915,75.4959732 25.2962186,79.9838493 19.73,80 L19.68,80 Z M8.83,58.6 L8.74978794,69.78 C8.72779519,74.0706925 12.1794228,77.5715013 16.47,77.61 L19.62,77.61 C21.6857349,77.6379419 23.674282,76.8259218 25.13,75.36 C26.6030611,73.9198392 27.4385075,71.9500583 27.45,69.89 L27.53,58.7 L8.83,58.6 Z" id="Shape" fill="#E0E2E5"></path>
                <path d="M28.67,73.4501073 L28.61,73.4501073 L28.61,71.09 L28.61,71.09 C31.9237467,70.9566206 34.5414542,68.2314299 34.5414542,64.915 C34.5414542,61.5985701 31.9237467,58.8733794 28.61,58.74 L28.61,56.37 C33.3265118,56.3865685 37.1365685,60.2234882 37.1201073,64.94 C37.1034315,69.6565118 33.2665118,73.4665685 28.55,73.4501073 L28.67,73.4501073 Z" id="Path" fill="#E0E2E5"></path>
                <circle id="Oval" fill="#F0F1F3" cx="6.32" cy="20.45" r="6.32"></circle>
                <circle id="Oval" fill="#F0F1F3" cx="21.28" cy="5.31" r="5.31"></circle>
                <circle id="Oval" fill="#F0F1F3" cx="18.42" cy="43.11" r="6.95"></circle>
            </g>
        </g>
    </g>
</svg>