<?xml version="1.0" encoding="UTF-8"?>
<svg width="100px" height="79px" viewBox="0 0 100 79" version="1.1" xmlns="http://www.w3.org/2000/svg" xmlns:xlink="http://www.w3.org/1999/xlink">
    <!-- Generator: Sketch 59 (86127) - https://sketch.com -->
    <title>Image</title>
    <desc>Created with Sketch.</desc>
    <defs>
        <path d="M12.0391429,0.812241549 C12.3471104,1.12172922 12.353599,1.63985975 12.0536358,1.96951849 L7.24,7.258 L12.0454709,12.5390796 C12.3181648,12.8387693 12.3375926,13.2942209 12.1074908,13.6070762 L12.0309781,13.6963565 C11.7230107,14.0058442 11.2301855,13.9894923 10.9302222,13.6598336 L10.9302222,13.6598336 L6.173,8.431 L1.41637764,13.6598336 C1.11641438,13.9894923 0.623589176,14.0058442 0.315621742,13.6963565 C0.00765430684,13.3868688 0.00116564425,12.8687383 0.301128908,12.5390796 L5.106,7.259 L0.292964083,1.96951849 C0.0202702072,1.66982873 0.000842385903,1.21437715 0.230944215,0.901521883 L0.307456917,0.812241549 C0.615424352,0.50275388 1.10824956,0.51910576 1.40821282,0.848764496 L1.40821282,0.848764496 L6.173,6.086 L10.938387,0.848764496 C11.2383503,0.51910576 11.7311755,0.50275388 12.0391429,0.812241549 Z" id="path-1"></path>
    </defs>
    <g id="Page-1" stroke="none" stroke-width="1" fill="none" fill-rule="evenodd">
        <g id="STP-onboarding-landing-page-Copy-4" transform="translate(-618.000000, -195.000000)">
            <g id="Image" transform="translate(618.000000, 195.000000)">
                <g id="Group-3">
                    <g id="Group-2" transform="translate(0.000000, 0.767606)">
                        <path d="M7.04225352,0 L95.7746479,0 C98.1082454,-4.28674913e-16 100,1.89175458 100,4.22535211 L100,77.4647887 L100,77.4647887 L7.04225352,77.4647887 C3.1529243,77.4647887 7.58173282e-15,74.3118644 0,70.4225352 L0,7.04225352 C-2.2526623e-15,3.1529243 3.1529243,1.60263661e-15 7.04225352,0 Z" id="Rectangle" fill="#F3F4F5" fill-rule="nonzero"></path>
                        <polygon id="Fill-29" fill="#C5C9CE" points="12.8211268 52.9033803 49.2605634 52.9033803 49.2605634 29.2780282 12.8211268 29.2780282"></polygon>
                        <path d="M31.0411268,43.7694366 C25.9960563,43.7694366 21.9059155,47.858169 21.9059155,52.9032394 L40.1749296,52.9032394 C40.1749296,47.858169 36.0847887,43.7694366 31.0411268,43.7694366" id="Fill-31" fill="#FFFFFF"></path>
                        <path d="M36.3695775,37.8371831 C36.3695775,40.7808451 33.983662,43.1653521 31.0414085,43.1653521 C28.0977465,43.1653521 25.7132394,40.7808451 25.7132394,37.8371831 C25.7132394,34.8949296 28.0977465,32.5090141 31.0414085,32.5090141 C33.983662,32.5090141 36.3695775,34.8949296 36.3695775,37.8371831" id="Fill-32" fill="#FFFFFF"></path>
                        <line x1="14.1439437" y1="59.6240845" x2="35.2777465" y2="59.6240845" id="Stroke-33" stroke="#969EA7" stroke-width="2.81690141" stroke-linecap="round" stroke-linejoin="round"></line>
                        <line x1="14.1439437" y1="63.8880282" x2="44.3608451" y2="63.8880282" id="Stroke-34" stroke="#969EA7" stroke-width="2.81690141" stroke-linecap="round" stroke-linejoin="round"></line>
                        <path d="M4.22535211,8.97060204e-14 L95.7746479,8.97060204e-14 C98.1082454,8.92773455e-14 100,1.89175458 100,4.22535211 L100,14.084507 L100,14.084507 L0,14.084507 L0,4.22535211 C-2.85783275e-16,1.89175458 1.89175458,9.01346953e-14 4.22535211,8.97060204e-14 Z" id="Rectangle" fill="#B93499" fill-rule="nonzero"></path>
                        <path d="M89.428169,5.73665994 L90.9535211,7.0577867 C91.1478873,7.22680078 91.1478873,7.52680078 90.9535211,7.69440642 L89.428169,9.01553318 C89.156338,9.25074444 88.7323944,9.0577867 88.7323944,8.69863177 L88.7323944,6.0549698 C88.7323944,5.69581487 89.156338,5.50144867 89.428169,5.73665994" id="Fill-8" fill="#FFFFFF"></path>
                        <path d="M86.178169,5.73665994 L84.6528169,7.0577867 C84.4584507,7.22680078 84.4584507,7.52680078 84.6528169,7.69440642 L86.178169,9.01553318 C86.45,9.25074444 86.8739437,9.0577867 86.8739437,8.69863177 L86.8739437,6.0549698 C86.8739437,5.69581487 86.45,5.50144867 86.178169,5.73665994" id="Fill-10" fill="#FFFFFF"></path>
                        <path d="M11.2676056,7.04225352 C11.2676056,7.8201604 10.6373788,8.45070423 9.85986305,8.45070423 C9.08234728,8.45070423 8.45070423,7.8201604 8.45070423,7.04225352 C8.45070423,6.26434664 9.08234728,5.63380282 9.85986305,5.63380282 C10.6373788,5.63380282 11.2676056,6.26434664 11.2676056,7.04225352" id="Fill-12" fill="#FFFFFF"></path>
                        <path d="M15.4929577,7.04225352 C15.4929577,7.8201604 14.8627309,8.45070423 14.0852152,8.45070423 C13.3076994,8.45070423 12.6760563,7.8201604 12.6760563,7.04225352 C12.6760563,6.26434664 13.3076994,5.63380282 14.0852152,5.63380282 C14.8627309,5.63380282 15.4929577,6.26434664 15.4929577,7.04225352" id="Fill-14" fill="#FFFFFF"></path>
                        <path d="M19.7183099,7.04225352 C19.7183099,7.8201604 19.088083,8.45070423 18.3105673,8.45070423 C17.5330515,8.45070423 16.9014085,7.8201604 16.9014085,7.04225352 C16.9014085,6.26434664 17.5330515,5.63380282 18.3105673,5.63380282 C19.088083,5.63380282 19.7183099,6.26434664 19.7183099,7.04225352" id="Fill-16" fill="#FFFFFF"></path>
                        <path d="M47.8873239,14.084507 L67.6056338,14.084507 L66.4867687,10.8119593 C66.2919327,10.2420871 65.7563158,9.85915493 65.1540572,9.85915493 L50.3389005,9.85915493 C49.736642,9.85915493 49.2010251,10.2420871 49.0061891,10.8119593 L47.8873239,14.084507 L47.8873239,14.084507 Z" id="Path-9" fill="#C5C9CE" fill-rule="nonzero"></path>
                        <path d="M29.5774648,14.084507 L49.2957746,14.084507 L48.1769095,10.8119593 C47.9820735,10.2420871 47.4464566,9.85915493 46.8441981,9.85915493 L32.0290414,9.85915493 C31.4267828,9.85915493 30.8911659,10.2420871 30.6963299,10.8119593 L29.5774648,14.084507 L29.5774648,14.084507 Z" id="Path-9" fill="#F3F4F5" fill-rule="nonzero"></path>
                    </g>
                    <g id="illustration/product/device/circle-icon---tick-done-complete-finish" transform="translate(57.000000, 28.000000)" fill="#FFFFFF">
                        <circle id="Oval" cx="15.1971831" cy="15.080136" r="15.080136"></circle>
                        <g id="Group" transform="translate(0.299302, 0.958405)" stroke="#EA1177" stroke-linecap="round" stroke-linejoin="round" stroke-width="1.78727538">
                            <path d="M29.9295136,14.928078 C29.9295136,23.1720951 23.2287007,29.8561559 14.9640219,29.8561559 C6.69934306,29.8561559 -3.55271368e-15,23.1720951 -3.55271368e-15,14.928078 C-3.55271368e-15,6.68406083 6.69934306,7.10542736e-15 14.9640219,7.10542736e-15 C23.2287007,7.10542736e-15 29.9295136,6.68406083 29.9295136,14.928078 Z" id="Stroke-22"></path>
                        </g>
                    </g>
                </g>
                <g id="swatch/dusk" transform="translate(66.000000, 37.000000)">
                    <mask id="mask-2" fill="white">
                        <use xlink:href="#path-1"></use>
                    </mask>
                    <use id="Mask" fill="#EA1177" fill-rule="nonzero" xlink:href="#path-1"></use>
                    <g id="illustration/product/swatches/tertiary_candy" mask="url(#mask-2)" fill="#EC0677">
                        <g transform="translate(6.500000, 7.500000) scale(1, -1) translate(-6.500000, -7.500000) translate(-8.000000, -7.000000)" id="swatch/tertiary_candy">
                            <polygon points="0 0 29 0 29 29 0 29"></polygon>
                        </g>
                    </g>
                </g>
            </g>
        </g>
    </g>
</svg>