<svg height="17" viewBox="0 0 53 17" width="53" xmlns="http://www.w3.org/2000/svg"><g fill="none" fill-rule="evenodd"><path d="m1-2h51v25h-51z"/><g fill="#007dba" fill-rule="nonzero" transform="translate(1)"><path d="m39.0865549 8.42987591c0-.78778783.6448814-1.68453434 1.5355378-1.68453434.5019314 0 .8895029.16968545 1.2435409.41932052.2256714.15998664.485453.28196443.6734713.33229338.212324.05417352.726367.17291838.7349358-.49359067.0102989-.43356291-.3455517-1.50069387-1.3256857-2.36266447-.7872545-.66318873-1.7855972-1.05743215-2.8745709-1.05743215-2.5448385 0-4.6085083 2.16720291-4.6085083 4.84660773 0 2.68010379 2.0636698 4.85123869 4.6085083 4.85123869 1.0889737 0 2.0873164-.3936318 2.8745709-1.0575195.980134-.8632813 1.3359846-1.9297132 1.3256857-2.36266451-.0085688-.66650904-.5226118-.5458419-.7349358-.4942023-.1880183.0490183-.4477999.17160773-.6734713.33290502-.354038.24902343-.7416095.41932049-1.2435409.41932049-.8906564-.0019223-1.5355378-.89744549-1.5355378-1.68907789m4.6577787-8.57322163c-.1551439.19869449-.3814745.54715255-.4855354 1.26259251-.1399015.99294819.0796729 1.87886.2792261 2.41238179.2616767.70128495.8566286 1.56526521 1.6316891 2.1620477.8188931.62972347 2.0551835.95555098 3.3437104.64317948.3626067-.08833779.567021-.18384046.8212824-.32643915.3455516-.18646176.8280386-.67804276.9150444-1.10846011.0663255-.33998253-.1180676-.60578228-.2573923-.73614823-.9471772-.86703845-4.6151821-4.15301193-5.08358-4.50915913-.4654318-.34976871-.9126551-.12127879-1.1644447.20000514m-.2063093 13.47347862c-.1995532.5335218-.4191276 1.4187346-.2792261 2.4116828.1040609.7155273.3303915 1.0671309.4855354 1.2632915.2517896.3212839.6990129.5516088 1.1644447.2000051.4683979-.3542249 4.1364028-3.6394993 5.08358-4.5066252.1393247-.1303659.3237178-.3961657.2573923-.7368472-.0870058-.4329513-.5694928-.92261-.9150444-1.1083728-.2542614-.1446083-.4586757-.2381013-.8212824-.3290604-1.2885269-.3116725-2.5248173.0193102-3.3437104.6431795-.7750605.5974815-1.3700124 1.462685-1.6316891 2.1627467" transform="matrix(0 1 -1 0 50.79577 -33.933196)"/><path d="m18.9518333-5.79691612v4.04990749l-2.0635875-1.66199116v4.49954769l1.986963 1.60327406c.7896439.59940378 1.5866208.65742187 2.1397176.65742187h.3126772c.3613709 0 .5578756-.23740234.5578756-.58970497v-8.55845498c0-.34513775-.179532-.57808388-.5469175-.57808388h-1.837916c-.3699396 0-.5488124.23294613-.5488124.57808388m-7.2901999 23.05458982c-.3455516.064484-.515938.3128958-.515938.636102v1.1445467c0 1.191031.595611 2.2420847 1.4954129 2.8310906 0 0 1.6469316 1.0922955 3.5005845 2.3162675v-7.7706671zm.0310618-12.7992804c-.3675503 0-.5469998.23224712-.5469998.58000617v2.32981085c0 .34513775.1794495.57808388.5469998.57808388h4.1637569l-3.7433935 2.2084447c-.6898673.4413394-.9521207 1.1845652-.9673632 2.051691v1.7220189c0 .3419922.1794495.57555.5469998.57555h4.4514694v-2.8943514l.7440812-.445184v3.3395354h4.4503159c.3673855 0 .549966-.2335578.549966-.57555v-2.3355777c0-.34706-.1825805-.5767732-.549966-.5767732l-4.1899575.0013106 3.7737961-2.22915295c.6862421-.43679585.9484955-1.18264289.9661274-2.04391447v-1.70594161c0-.34775905-.1825805-.58000617-.549966-.58000617h-4.4503159v2.87364309l-.7440812.44396073v-3.31760382zm5.1955506 11.818565v3.8375822c.5061334-.0980366 4.2696305-.8058748 4.4886282-.8478156.3388779-.065183.5116537-.2890419.5116537-.6174034v-2.6401727c0-.2418585-.0717634-.3638363-.2019426-.4774259-.0907135-.0774157-.2282255-.1096577-.4295913-.0734838zm4.3268105 11.2669037c.1684914.1045113.3455516.1045113.4604883.0406564.1344636-.0735537.2129831-.2374198.2129831-.4142265v-2.7420538c0-.3457494-.1758243-.654888-.4386545-.8271073l-4.5616274-3.0259406v4.1047014c2.1299129 1.4090881 4.2775401 2.828513 4.3268105 2.8639704m-7.1393403-24.85912721v-3.85820313l2.0659768 1.66391345v-4.49823705l-2.0349974-1.64067126c-.6290622-.50652241-1.1923756-.62386924-1.6906818-.62386924h-.7087351c-.3632658 0-.5615831.23285876-.5615831.58769531v8.36937192c0 .34522512.1794495.57616159.5469998.57616159h1.837916c.366232 0 .5451048-.23093647.5451048-.57616159" transform="matrix(0 1 -1 0 27.143741 -5.890483)"/></g></g></svg>
