<svg height="21" viewBox="0 0 138 21" width="138" xmlns="http://www.w3.org/2000/svg"><g fill="none" fill-rule="evenodd"><path d="m0-2h138v25h-138z"/><g fill-rule="nonzero"><path d="m5.21511323 8.70075122h2.68074206c0-1.60749365-1.17542515-3.25028451-3.89257419-3.25028451-2.68148506 0-4.0032811 1.93546354-4.0032811 4.19963232 0 2.41050517 1.57887386 4.12683187 4.18680197 4.12683187 2.49722119 0 3.70979631-1.5699904 3.70979631-3.2502846h-2.64507808c-.10996392.5485775-.36704174 1.1317168-1.1018682 1.1317168-.77123345 0-1.35894602-.5831393-1.35894602-2.08106456 0-1.46115732.6976765-1.93546354 1.35894602-1.93546354.69767649 0 .99116128.58461 1.06546123 1.05891622zm9.76821397 4.89381078v-5.58798919h2.2765503v.47504158c.4041917-.43827366.9919043-.76698076 1.7995447-.76698076.7712334 0 1.5788739.36547503 1.8366947.87654918.3306347-.47504159 1.0654612-.84051475 1.8731016-.84051475.9547543 0 1.5424669.43827366 1.8359517.87654731.2942278-.43827365 1.0283112-.91258174 1.7995447-.91258174.9919043 0 1.5060599.40150759 1.9095086.91258174.400567-.57237071 1.0596429-.91350084 1.7631377-.91258174 1.7259878 0 2.1673295 1.13171857 2.1673295 2.37373907v3.5061893h-2.4608143v-3.1039482c0-.54857745-.1842638-.76697892-.5877125-.76697892-.4041917 0-.6612696.36547312-.6612696.80301142v3.0679157h-2.4972211v-3.1039482c0-.54857745-.1463709-.76697892-.5505626-.76697892-.4041918 0-.6612696.36547312-.6612696.80301142v3.0679157h-2.4608142v-3.1039482c0-.54857745-.1835209-.76697892-.5877126-.76697892-.3677847 0-.6241195.36547312-.6241195.80301142v3.0679157h-2.4608142v-3.1039482c0-.54857745-.1835209-.76697892-.5877126-.76697892s-.6612695.36547312-.6612695.80301142v3.0679157zm30.6294098-3.9812309v3.9812309h-2.4608142v-3.1039482c0-.54857745-.2199279-.76697892-.6241196-.76697892s-.6612695.36547312-.6612695.80301142v3.0679157h-2.4608142v-5.58798919h2.2765503v.47504158c.4041917-.43827366 1.1754252-.7669789 1.7995447-.7669789.8083834-.03676792 2.1309225.43827366 2.1309225 1.89869561zm5.6557119 4.0187341c-.1099639-.4022411-.2942278-.9133152-.4777487-1.5354285-.1463709-.4743062-.2570778-.8758119-.2570778-1.0942134 0 .2184015-.0735569.6206426-.2206708 1.0942134-.1835209.5485774-.3298918 1.1331874-.4770057 1.4979253h-2.5707781l-1.7259878-5.62402176h2.6443351c.1099639.36547317.2199279.87654732.4034487 1.38762147.109964.43827366.1842639.80374679.1842639 1.02288369 0-.2191369.1099639-.58461003.2199278-1.02288369.1842639-.54784207.3306348-1.02288366.4405987-1.38762147h2.2401434c.1099639.36547317.2570778.84051476.4041917 1.38762147.1099639.43827366.2199278.80374679.2199278 1.02288369 0-.2191369.109964-.58461003.2206709-1.02288369.1471139-.51107415.2934848-1.02288366.4034487-1.38762147h2.6071851l-1.6888378 5.62402176zm17.5541053-7.99922959h2.4608142v7.96172639h-2.4608142zm7.0146579 6.20936709v1.6060229c-.1099639.0735359-.6241195.2926727-1.432503.2926727-1.6152808 0-2.0566225-.8044822-2.0566225-2.3009367v-2.0089994h-.7340834v-1.57072573h.7340834v-2.22740086h2.4608143v2.22740086h.9911612v1.57072573h-.9911612v1.5707257c0 .4743063.1463708.6206426.3291487.8030115.1493429.1823689.5527916.1095684.6991625.0375033zm6.7583231-2.44800842v4.19963232h-2.4608142v-3.1039482c0-.54857741-.2570778-.76697888-.6241195-.76697888-.4049348 0-.6620126.36547318-.6620126.80301148v3.0679156h-2.5336281l-.036407-7.92495842h2.3872573v2.77524293c.3291487-.43827366 1.1754251-.80374683 1.7995447-.80374683 1.2118321.00147072 2.1301794.80448219 2.1301794 1.75383zm20.6382958.84051472-1.064718 1.0228837v2.3369693h-.514156v-8.0712948h.514156v5.1857481l3.084934-2.92157932h.587712l-2.202993 2.1185678 2.460071 3.68855822h-.549819zm-4.1125017-2.04503193c-.9547543 0-1.7995447.76697891-1.7995447 1.71632671v3.68855822h-.5134127v-5.77035809h.5134127v.98611573c.2206708-.36547317.8083834-1.09568415 1.8731016-1.09568415 1.5424668 0 1.9823228 1.13171671 1.9823228 2.04503195v3.83489456h-.513413v-3.5789898c0-1.49718988-.7719763-1.82589513-1.5424667-1.82589513zm-10.6865613-2.52007353c1.432503 0 2.3493643.80374682 2.3129573 1.93546354 0 .98611573-.5877126 1.5339578-1.1390182 1.78986255.4777487.18310427 1.5424669.62137797 1.5424669 2.00826407-.0364069 1.6074936-1.2482391 2.1913683-2.4236642 2.1913683h-3.4163115v-7.92495846zm-.1099639 3.54222183c.7340834 0 1.9095086-.25590475 1.8723586-1.5339578 0-1.24202049-.9547543-1.53395781-1.6888378-1.49718988h-2.679999v3.03114768zm-2.4972212 3.87166243h2.8271129c1.3596891 0 1.9095087-.693443 1.9095087-1.6802941 0-.9853804-.8068975-1.67955882-1.7616518-1.67955882h-2.9749698zm10.7601182.1463363v.3287053c-.1842639.108833-.4049347.108833-.5134126.108833-.1842639 0-.6620126-.108833-.6620126-1.0228836-.5513056.7669789-1.285389 1.0956841-2.1665864 1.0956841-.9183473 0-1.7995447-.4382736-1.7995447-1.6802941 0-1.2052526.9911613-1.4971899 1.39461-1.5699904.4049347-.0735358 1.396096-.2198722 1.6531738-.2559047.2570778-.0735359.9183473-.0735359.9183473-.65814588v-.51180951c0-.43827365-.3306347-1.02214829-1.6167668-1.02214829-1.4325029 0-1.6888378 1.20525256-1.6888378 1.31482097h-.4034487c0-.69344305.5134127-1.71632671 2.0202156-1.71632671 2.1301794 0 2.2029934 1.13245207 2.2029934 1.82589513v3.28631709c-.000743.4037118.2199278.5860807.6612695.4772476zm-1.2118321-1.7898625v-.9868511l-2.0202156.3287052c-.5513056.1088331-1.396096.3287053-1.396096 1.3140857 0 .986851.7719765 1.2067232 1.432503 1.2067232.9911613 0 1.9838086-.6574105 1.9838086-1.862663zm-84.0644452-3.83489452c2.3508503 0 3.4519755 1.46042195 3.4519755 3.10394822 0 2.156071-1.6895808 3.0679156-3.3420116 3.0679156-2.09302945 0-3.2684546-1.3140857-3.2684546-2.9568765 0-1.5714611.88119736-3.21498732 3.1584907-3.21498732zm.1099639 4.60187342c.6612696 0 .7712335-.875812.7712335-1.460422 0-.5485774-.1099639-1.42512471-.7712335-1.42512471-.6612695 0-.7348264.87581191-.7348264 1.42512471 0 .58461.0735569 1.460422.7348264 1.460422zm24.2752785-4.60187342c2.3501073 0 3.4519755 1.46042195 3.4519755 3.10394822 0 2.156071-1.6895808 3.0679156-3.3420116 3.0679156-2.0930295 0-3.2684547-1.3140857-3.2684547-2.9568765 0-1.5714611.8811974-3.21498732 3.1584908-3.21498732zm.1099639 4.60187342c.6612695 0 .7348265-.875812.7348265-1.460422 0-.5485774-.073557-1.42512471-.7348265-1.42512471s-.7712335.87581191-.7712335 1.42512471c0 .58461.110707 1.460422.7712335 1.460422zm21.9615781-.875812c0 .4743063.3306348.8390441.7712334.8390441.2942278 0 .6241196-.1088331.7340835-.3272346h2.3508503c-.5141556 1.3140857-1.8366947 1.9347282-3.1956407 1.9347282-2.0566225 0-3.2684546-1.3140856-3.2684546-2.9568765 0-1.57146105.8811973-3.21498727 3.1948977-3.21498727 2.3508503 0 3.4155685 1.46042196 3.4155685 3.10394817 0 .2559048 0 .4022411-.036407.6221133h-3.9661311zm1.432503-1.46189264c-.073557-.36473781-.3306348-.69344306-.6976765-.69344306-.4405987 0-.6612696.29193732-.6976765.69344306zm6.904694 3.72532614-.1835209-.4022411c-.3677847.4022411-1.358946.6581458-1.7995447.6581458-.4041917 0-2.2037364-.1463363-2.2037364-1.8251598 0-1.8994309 2.4972212-1.9729668 3.0113768-2.04576727.4777487-.07353585.8447904-.21913683.8447904-.51107415 0-.25590475-.1835209-.47504158-.5141556-.47504158-.4405987 0-.6976765.36473781-.6976765.73021098h-2.2765504c0-1.38835683 1.1754252-2.19136829 2.9006699-2.19136829 2.828599 0 3.1220838.95008316 3.1220838 2.48330561v1.8266305c0 .4382736 0 .9493478.0735569 1.3140856l.1463709.4382737zm-1.3225391-2.0810646c-.2942278.1448657-.3306347.3287053-.1835209.5471068.1471139.2198721.5513056.2559047.9183474 0 .3306347-.2559048.2570778-.6934431.2570778-.875812-.4405987.1463363-.7340835.2176661-.9919043.3287052z" fill="#000"/><g transform="translate(116.815891)"><path d="m15.2332209 11.277-4.645843 9.723 10.6152423-10.38555-2.6615805-2.5809" fill="#000"/><path d="m0 10.6155 10.5873779 10.3845 4.645843-9.723 3.3078188-3.24345-7.9525901-7.8015" fill="#fc0"/></g></g></g></svg>
