<svg height="21" viewBox="0 0 56 21" width="56" xmlns="http://www.w3.org/2000/svg"><g fill="none" fill-rule="evenodd"><path d="m0-2h56v25h-56z"/><g fill-rule="nonzero"><g fill="#000"><path d="m27.3230755 6.52770036c-.059464-.34350697-.1874713-1.03049599-.1874713-1.03049599l-2.953786.1648777v1.52979048l.8321622.10540939v8.01521806h2.7023391v-6.55871394c.80471-.85650319 1.2985328-1.2182819 2.1536117-1.2182819.9418918 0 1.3671237.65494908 1.3671237 2.1205683v5.65642754h2.702339v-6.13278889c0-2.56942649-1.2254062-3.92971111-3.5390369-3.92971111-1.2208706 0-2.0850207.35725024-3.0772815 1.27785823"/><path d="m45.3939394 2.31826698v1.50846022l1.0266996.12157703c-.0047536.29718284 0 11.17580647 0 11.17580647 1.3799427.4052486 2.8822501.6258893 4.1397461.6258893 3.4568642 0 5.4396149-1.9542345 5.4396149-5.3628514 0-2.89528621-1.5636127-4.6964364-4.0785228-4.6964364-1.0784977 0-1.9592284.32869827-2.8069297 1.0041153v-4.5073275zm6.014147 5.60595641c1.1208705 0 1.690731.91858742 1.690731 2.73321621 0 1.3328299-.4097291 2.9178323-2.3689412 2.9178323-.6593515 0-1.2244666-.1576017-1.6154107-.3061849v-4.07952476c.7865108-.86900248 1.4976357-1.26527349 2.2936209-1.26527349"/><path d="m38.3133493 12.6369652c0-.5180991.2215771-1.2103725 2.129838-1.2103725h.9857927v1.4872398c-.6466319.5627608-1.2299785.8263073-1.8766025.8263073-.800391 0-1.2390282-.3930348-1.2390282-1.1031746m-1.8540175-6.35109325-.1447015.05362328.4838466 2.01431661.1899188-.07146529c.8320257-.33050674 1.8313537-.52701199 2.6725079-.52701199 1.4876995 0 1.7680843.5359573 1.7680843 1.53196638v.30817585h-.9495938c-3.2150992 0-4.8430305 1.06744201-4.8430305 3.17104971 0 1.871386 1.2616133 2.9834735 3.3733518 2.9834735 1.094311 0 1.9987347-.3305067 2.8217107-.9959767.0588037.2590415.1537434.7414079.1537434.7414079l2.9845275-.0937556v-1.4962338s-.6918492-.0625443-.9044238-.0848346v-4.74766164c0-2.2778145-1.329447-3.38544556-4.0742742-3.38544556-1.1666303 0-2.4871062.22330879-3.531683.59848539"/></g><path d="m13.3559139.16799521-3.60755735 4.2951708-5.14629418-2.41747353c-.15011828-.06803978-.27678159-.07709914-.35652682-.01358491-.07974524.05898043-.10315938.18142571-.07037305.340166l1.21503714 5.39274328-5.15094762 2.39928895c-.15011827.0680398-.23925202.1632741-.23925202.2585167 0 .0952096.08442316.1905015.23457409.2630751l5.1134752 2.4355757-1.26663315 5.4018767c-.03747243.1587486-.01872805.2811938.06100085.340166.07974523.0635143.20641671.0589805.36122108-.0135849l5.14629419-2.3539511 3.58412694 4.3314576c.1031593.1315293.215797.1904851.3143111.1678161.0984815-.0226442.1735732-.1179197.2157971-.2811938l1.2947987-5.3701154 5.7467509.0046078c.1688953 0 .286162-.0453955.328394-.1315293.0469507-.0906841.0140501-.2086367-.0891093-.340166l-3.5419194-4.3359832 3.5935154-4.33598312c.1031594-.12246173.1407298-.24492347.0984733-.33109019-.0469507-.09068406-.1641929-.14061336-.3330882-.14061336l-1.4542402-.00928975-.2674012.11344352-5.3761904 5.5378904-.121969.0499293.0234223-.1179361c.1078455-.1315294 3.0868621-3.63295753 4.5880449-5.39274332l.0234223-.12246173-.1266633-.07709914-1.885867-.01358492c-.1923421 0-.3424603.13607134-.3987669.19049329-.8725605.89803629-5.2260558 5.37916662-5.3198593 5.48350142l-.1219854.0499293.0234223-.1179362 4.5176719-5.30659301c.1125315-.1269873.1735732-.20863669.1501183-.32202262l-1.2290791-5.39274327c-.0374725-.15874853-.1125316-.25853308-.2111192-.28121026-.0984814-.02264428-.2111028.03622919-.3189972.16327408" fill="#de2619"/></g></g></svg>
