<svg height="16" viewBox="0 0 84 16" width="84" xmlns="http://www.w3.org/2000/svg"><g fill="none" fill-rule="evenodd"><path d="m-1-4h84v25h-84z"/><g fill-rule="nonzero"><path d="m0 0c.44548485.18692144.73791682 1.3302803.73791682 1.3302803l2.76289785 9.5507304c.31850001 1.1952056 1.32619098 1.8248717 2.45400245 1.8248717h6.05778228c-.4338155-.0770881-.9095254-1.3473352-.9095254-1.3473352l-3.07179328-9.49956576c-.44207463-1.45102881-1.18753125-1.85898144-2.31671559-1.85898144zm25.6383192 0c-1.13193 0-1.8643499.40795263-2.2995547 1.85898144l-3.0889541 9.49956576s-.4709049 1.2702471-.9095254 1.3473352h6.0577822c1.133303 0 2.1313784-.6296661 2.4540025-1.8248717l2.7628978-9.5507304s.3013337-1.14335886.7550777-1.3302803zm-13.3168244.0682195v12.6376629h6.7442165v-12.6376629z" fill="#ed1a3a"/><path d="m52.2974137 2.94117647-2.6705178.25310523v1.3836419h-1.0854363v1.3836419h1.0854363v4.2690415c0 .6715725.1295687 1.1750832.3618121 1.5186313.2460322.3536724.5926937.6256762 1.0682071.8268104.4748353.2092337 1.1495397.3037263 2.0158102.3037263.3673254 0 .8635359-.063445 1.4989358-.2193578v-1.3498946c-.3128813.0600703-.5816395.1012421-.8097699.1012421-.4810378 0-.8538821-.0978673-1.1026654-.3037263-.2474106-.2024841-.3618231-.5973283-.3618121-1.18115769v-3.96531521h2.1019559v-1.3836419h-2.1019559zm-17.1430014 1.45113663c-1.0234003 0-1.8883145.1856105-2.5843721.5568315-.7001815.36919615-1.2184453.87405671-1.5850815 1.51863136-.3666308.64524958-.5513327 1.35529411-.5513327 2.10921021 0 .81803609.2101956 1.58747603.6374784 2.27794703.4293614.6965456 1.0558021 1.2020811 1.8607479 1.535505.7987488.3313992 1.7291172.4893368 2.7911218.4893368 1.1281536 0 2.3087058-.1457886 3.5664335-.4555894v-1.5186313c-1.1095571.3232997-2.1129826.4893367-2.9978716.4893367-.6905332 0-1.2267153-.101917-1.636769-.2868526-.4086698-.1849355-.7429208-.4285915-.9820614-.742442-.2398297-.3138504-.3845545-.74986638-.4479578-1.29927346h6.0991181c-.0234151-1.79670963-.4010946-3.01633934-1.1543529-3.67846262-.7470503-.65942348-1.7566838-.99554722-3.0151007-.99554722zm9.3037394 0c-1.3741967 0-2.3962408.22813218-3.0667882.69182095-.6712475.45356457-.999285 1.03874385-.9992905 1.73798922 0 .58855402.2053825 1.05359269.6547076 1.41738927.4396878.37459573 1.1378184.72286852 2.0674977 1.02929458l.8959156.28685259c.4562278.14376377.7870275.30575112 1.0165197.45558939.2191547.1613124.3273538.3563722.3273538.5905789 0 .2639044-.1516.4663885-.4479578.6411999-.2942739.1727865-.6981141.2699789-1.1888112.2699789-.9338198 0-2.0544035-.230157-3.3769128-.6749473v1.6029998c1.2143103.294277 2.4051779.4387157 3.5664334.4387157 1.3631702 0 2.4003703-.2605296 3.1184757-.7761893.7132867-.5136349 1.0682071-1.1042138 1.0682071-1.7886103 0-.52038435-.197118-.97192408-.585791-1.34989455-.3969596-.37459573-1.2239697-.75931568-2.4982264-1.16428404l-.7753116-.25310522c-.4624303-.14038904-.7794411-.27605344-.9476031-.42184205-.1805614-.15118819-.2756773-.33342395-.2756663-.52308413 0-.2470307.1357546-.43871573.4134995-.59057886.2729097-.15456293.6891494-.23623155 1.2404986-.23623155.7084625 0 1.5981812.14038904 2.6705178.42184205v-1.51863136c-1.1123137-.19370987-2.0709545-.28685259-2.8772676-.28685259zm17.2463763 0c-.7270645 0-1.3659268.14983829-1.8952062.43871573-.529974.2956269-.955873.716794-1.292186 1.29927349v-1.55237872h-2.6705178v11.0691352h2.6705178v-3.7965784c.3590444.2969768.6781392.5176846.9476031.6411999.2749827.128915.5437519.2348817.8442282.3037263.2942849.0668198.6326543.0843684.9820614.0843684 1.3170015 0 2.3321374-.4292664 3.0667882-1.2823998.7325999-.8490837 1.1026654-1.90065151 1.1026654-3.17225216 0-1.20613077-.3252863-2.18007968-.9820614-2.91914694-.6553912-.73974221-1.583014-1.113663-2.7738927-1.113663zm8.7524068 0c-1.196392 0-2.3941623.19370987-3.6008918.57370518v1.51863136c1.0585588-.48191235 2.1033343-.72556832 3.1184757-.72556832.5147958 0 .9414006.08436841 1.2749568.25310523.3397478.17413639.4996453.51295992.4996453 1.0124209v.72556832h-.706395c-1.7808047 0-3.0626532.26255449-3.859329.79306304-.7890784.53725803-1.1888111 1.2108554-1.1888111 2.00796809 0 .652674.266018 1.1960066.7925407 1.6536208.5320526.44884 1.2384311.6749473 2.1191851.6749473.3418098 0 .6588426-.0357722.9648323-.1012421.3025383-.0688446.5995743-.1518631.8786865-.2868526.2798124-.1363393.6264518-.3516475 1.0165197-.6580736h.1033748c.1874532.4319663.473457.7086947.8269991.8436841.3549259.1383642.7787575.2024842 1.2749569.2024842.4348471 0 .9338198-.0587204 1.4989358-.2024842l-.0344583-1.2317787c-.1481652.0161987-.2791122.0168737-.3790412.0168737-.1646941 0-.332178-.051296-.4996453-.1518632-.1647162-.0944926-.2412081-.3496227-.2412081-.793063v-3.59409424c.0000055-.6796719-.1778048-1.17913288-.5168744-1.51863135-.3452831-.34084838-.8035674-.59462855-1.3783318-.75931568-.5761537-.16198735-1.2377419-.25310523-1.9641227-.25310523zm10.5270089 0c-1.7180906 0-3.0426729.39754394-3.9282456 1.18115772-.8897131.78361378-1.3266443 1.80683384-1.3266443 3.0541364 0 1.19533161.4162672 2.21247718 1.2577277 3.03726268.8387149.8133115 2.1005777 1.2149051 3.7731833 1.2149051.9420897 0 1.958626-.1100164 3.049559-.3543473v-1.5186314c-.8290666.2632295-1.6291826.4049684-2.4120806.4049684-.540306 0-1.0316813-.1127162-1.4644775-.3205999-.4314178-.2099086-.762212-.538608-.9992905-.9955473-.2439648-.45626432-.3618287-.95370046-.3618121-1.48488396 0-.68304664.2032874-1.31817202.6202493-1.88985236.4169453-.57370518 1.0771552-.84368409 1.9813519-.84368409.6381676 0 1.4961846.14308883 2.5671429.43871573v-1.60299977c-1.0399513-.21800796-1.9572256-.32059995-2.7566635-.32059995zm-45.9156772 1.3836419c.4734405 0 .8593899.15456293 1.1543529.47246309.2983923.31655027.4479578.83760956.4479578 1.5692524h-3.4802877c.0833781-.67022263.290828-1.16968361.6202493-1.51863135.3314778-.34827279.7491233-.52308414 1.2577277-.52308414zm25.6542001.35434732c.6099118 0 1.0688963.23353176 1.395561.67494727.3307941.44006562.4996452 1.04549332.4996452 1.80548395 0 .74446683-.1722914 1.39444106-.5168744 1.97422076-.3445664.5750551-.8587007.8605578-1.5678524.8605578-.3321724 0-.6629776-.0614202-.9820614-.1856105-.3218349-.1275651-.6657342-.3644716-1.0337488-.7086947v-3.18912581c.3245861-.38134521.6684909-.67764706 1.050978-.89430513.3859274-.22070776.7773791-.33747364 1.1543528-.33747364zm10.4064049 2.88539958h.6202493v1.6367471c-.3246137.2443309-.6443701.4177924-.9648322.5399578-.3197785.1275651-.6381676.2024842-.9476031.2024842-.3445885 0-.6367893-.1059667-.8959157-.3037262-.2487889-.1984345-.3790412-.4468151-.3790412-.7593157 0-.37864544.2170872-.69452077.6374784-.9449262.4231369-.24905555 1.0640722-.371221 1.9296645-.371221z" fill="#2d373c"/></g></g></svg>
