<?xml version="1.0" encoding="UTF-8"?>
<svg width="430px" height="248px" viewBox="0 0 430 248" version="1.1" xmlns="http://www.w3.org/2000/svg" xmlns:xlink="http://www.w3.org/1999/xlink">
    <!-- Generator: Sketch 59 (86127) - https://sketch.com -->
    <title>landing page</title>
    <desc>Created with Sketch.</desc>
    <g id="Page-1" stroke="none" stroke-width="1" fill="none" fill-rule="evenodd">
        <g id="STP-onboarding-landing-page-Copy-3" transform="translate(-735.000000, -165.000000)">
            <g id="landing-page" transform="translate(735.000000, 165.000000)">
                <g id="SVG-CHARACTERS-SIDE-VIEW-FINAL-S-03">
                    <path d="M53.1878371,28.3319379 L53.6148096,28.4024253 C51.6132034,28.0624586 49.5854856,28.835417 48.295478,30.4301346 C47.0054703,32.0248523 46.6491557,34.1990535 47.3607543,36.1337377 C48.0723529,38.068422 49.7437561,39.4696647 51.7453623,39.8096312 C49.5518163,51.8949104 53.9334214,64.2448417 63.2065064,72.1138528 C72.4795914,79.9828639 85.2014608,82.1467034 96.4836217,77.7738965 C107.765783,73.4010896 115.85297,63.1719523 117.637609,51.0171229 L125,6.05792922 L92.0538767,0.465931262 C83.3171314,-1.02194157 74.3577069,1.08600985 67.148221,6.3256729 C59.9387351,11.5653359 55.0702997,19.5071062 53.6148096,28.4024253 L53.1878371,28.3319379 Z" id="Path" fill="#D5D8DC" fill-rule="nonzero"></path>
                    <path d="M86,61 C88.7605346,64.6070006 92.946412,67.0433484 97.6355918,67.7723791 C102.324772,68.5014098 107.132587,67.4633188 111,64.8867708 L86,61 Z" id="Path" fill="#ABB2B9" fill-rule="nonzero"></path>
                    <path d="M118.381509,50.7521536 L121,35 C115.12961,34.9884956 110.113598,39.2295127 109.146652,45.0219801 L107.159405,56.926708 L102.319872,56.119806 L99,76 C109.264811,71.3437585 116.533708,61.8747331 118.381509,50.7521536 Z" id="Path" fill="#ABB2B9" fill-rule="nonzero"></path>
                    <circle id="Oval" fill="#2E3E4F" fill-rule="nonzero" cx="92" cy="44" r="3"></circle>
                    <circle id="Oval" fill="#2E3E4F" fill-rule="nonzero" cx="114" cy="49" r="3"></circle>
                    <path d="M125,6.99264642 L92.1366906,1.46091019 C83.4219061,-0.0109286984 74.4850023,2.07430655 67.2936383,7.25750478 C60.1022742,12.440703 55.2460762,20.2968894 53.7942446,29.0963488 L53,33.8843221 C57.5907746,34.6495266 61.9353497,31.5386877 62.7381295,26.9115454 L62.7381295,26.9115454 C63.5466087,22.2880427 67.8870019,19.180198 72.476259,19.9387686 L113.166906,26.8069537 C117.756164,27.5655243 122.096557,24.4576797 122.905036,19.834177 L125,6.99264642 Z" id="Path" fill="#2E3E4F" fill-rule="nonzero"></path>
                    <path d="M153,176 C151.370071,105.472138 103.9981,93.4787912 80,92" id="Path" stroke="#D5D8DC" stroke-width="7.776" stroke-linecap="round" stroke-linejoin="round"></path>
                    <path d="M153,176 C151.370071,105.472138 103.9981,93.4787912 80,92" id="Path" stroke="#FFFFFF" stroke-width="7.776" stroke-linecap="round" stroke-linejoin="round"></path>
                    <path d="M48.8426366,242 L39,136.722158 C39.8684679,99.1727505 65.1814133,92.7905138 78,92 C90.8185867,92.7905138 116.131532,99.1727505 117,136.722158 L107.145784,242 L48.8426366,242 Z" id="Path" fill="#FFFFFF" fill-rule="nonzero"></path>
                    <polygon id="Path" stroke="#6100A5" stroke-width="7.776" fill="#6100A5" fill-rule="nonzero" points="47 228 48.3989765 242 106.612585 242 108 228"></polygon>
                    <path d="M158,176.035545 L158,175.907349 C156.521934,112.100809 118.93017,93.3376065 93,88 L93,248 L112.284691,248 L122.759176,136.85425 L122.759176,136.504625 C122.503133,125.549712 120.338406,116.960594 117.044763,110.212834 C132.640107,121.004589 145.581916,140.676816 146.419875,176.10547" id="Path" fill="#6100A5" fill-rule="nonzero"></path>
                    <line x1="78.5" y1="87" x2="78.5" y2="178" id="Path" stroke="#2E3E4F" stroke-width="3.888"></line>
                    <path d="M5,176 C6.62992874,105.472138 54.0019002,93.4787912 78,92" id="Path" stroke="#FFFFFF" stroke-width="7.776" stroke-linecap="round" stroke-linejoin="round"></path>
                    <path d="M11.6710875,176.168256 C12.4530504,143.064406 23.8557029,123.770322 38.1177719,112.557165 C35.0404464,120.202195 33.4558805,128.36352 33.4493369,136.601994 L33.4493369,136.951314 L43.9533156,248 L66,248 L66,88 C39.8450928,93.1466414 1.51724138,111.660578 0,175.970308" id="Path" fill="#6100A5" fill-rule="nonzero"></path>
                    <line x1="62" y1="183" x2="5" y2="176" id="Path" stroke="#D5D8DC" stroke-width="7.776" stroke-linecap="round" stroke-linejoin="round"></line>
                    <path d="M45.2973759,187 C45.0554889,187 44.8251203,187 44.5832333,187 L5.21324445,181.930222 C3.12609701,181.72388 1.31185448,180.356423 0.476697045,178.360124 C-0.358460386,176.363826 -0.0825780034,174.054101 1.19695906,172.329991 C2.47649612,170.605882 4.55752126,169.739798 6.63001116,170.068856 L46,175.126676 L45.2973759,187 Z" id="Path" fill="#6100A5" fill-rule="nonzero"></path>
                    <path d="M163.03,122 L67.9233333,122 C61.3409239,122.006346 56.0064313,127.269861 56,133.764688 L56,199 L175,199 L175,133.764688 C174.961564,127.265044 169.617391,122.012535 163.03,122 Z" id="Path" fill="#EAECED" fill-rule="nonzero"></path>
                    <path d="M42,200 C42,203.869565 48.6835006,207 56.921032,207 L175.985492,207 C184.223024,207 191,203.869565 191,200 L42,200 Z" id="Path" fill="#EAECED" fill-rule="nonzero"></path>
                    <path d="M162.085355,122 L144.143847,122 L67,199 L174,199 L174,133.764688 C173.961752,127.256074 168.63857,122 162.085355,122 Z" id="Path" fill="#D9D9D9" fill-rule="nonzero" style="mix-blend-mode: multiply;"></path>
                </g>
                <g id="illustration/product/bespoke/BESPOKE-FINAL-S-01" transform="translate(154.000000, 76.000000)">
                    <path d="M184.748196,32.5419231 C184.455721,32.5419231 184.017007,32.5419231 183.724532,32.5419231 C181.823441,14.2749817 166.468476,0.0998351648 147.603805,0.0998351648 C130.493988,0.0998351648 116.162687,11.9368132 112.360505,28.0117216 C108.558324,25.3812821 104.024953,23.7737912 99.1991071,23.7737912 C86.6226599,23.7737912 76.3860167,33.8571429 76.3860167,46.4247985 C74.3386881,45.5479853 71.9988839,44.9634432 69.512842,44.9634432 C60.2998632,44.9634432 52.8417375,52.4163553 52.8417375,61.6228938 C52.8417375,70.8294322 60.2998632,78.2823443 69.512842,78.2823443 L184.748196,78.2823443 C197.324644,78.2823443 207.561287,68.0528571 207.561287,55.4852015 C207.561287,42.9175458 197.324644,32.5419231 184.748196,32.5419231 Z" id="Path" fill="#F0F1F3" fill-rule="nonzero"></path>
                    <g id="Group" transform="translate(0.342382, 57.238828)">
                        <line x1="4.38713278" y1="4.82247253" x2="72.0952153" y2="4.82247253" id="Path" stroke="#EC0677" stroke-width="2.916" stroke-linejoin="round" stroke-dasharray="3.207600116729736,3.207600116729736"></line>
                        <path d="M4.53337054,9.20653846 C2.04732863,9.20653846 0.146237759,7.30677656 0.146237759,4.82247253 C0.146237759,2.3381685 2.04732863,0.438406593 4.53337054,0.438406593 C7.01941244,0.438406593 8.92050331,2.3381685 8.92050331,4.82247253 C8.92050331,7.30677656 7.01941244,9.20653846 4.53337054,9.20653846 Z" id="Path" fill="#EC0677" fill-rule="nonzero"></path>
                        <path d="M71.8027398,9.20653846 C74.2887817,9.20653846 76.1898726,7.30677656 76.1898726,4.82247253 C76.1898726,2.3381685 74.2887817,0.438406593 71.8027398,0.438406593 C69.3166979,0.438406593 67.415607,2.3381685 67.415607,4.82247253 C67.415607,7.30677656 69.4629356,9.20653846 71.8027398,9.20653846 Z" id="Path" fill="#EC0677" fill-rule="nonzero"></path>
                    </g>
                </g>
                <g id="Group" transform="translate(260.000000, 86.000000)">
                    <g id="illustration/product/device/60-Bank-" transform="translate(59.572650, 0.000000)">
                        <g id="Group" transform="translate(-0.500000, 0.505051)">
                            <polygon id="Fill-1" fill="#E0E2E4" points="14.58 87.48 23.328 87.48 23.328 36.45 14.58 36.45"></polygon>
                            <polygon id="Fill-2" fill="#C5C9CE" points="14.58 40.824 23.328 40.824 23.328 36.45 14.58 36.45"></polygon>
                            <polygon id="Fill-3" fill="#DCDFE1" points="37.908 87.48 46.656 87.48 46.656 36.45 37.908 36.45"></polygon>
                            <polygon id="Fill-4" fill="#C5C9CE" points="37.908 40.824 46.656 40.824 46.656 36.45 37.908 36.45"></polygon>
                            <polygon id="Fill-5" fill="#DCDFE1" points="61.236 87.48 69.984 87.48 69.984 36.45 61.236 36.45"></polygon>
                            <polygon id="Fill-6" fill="#C5C9CE" points="61.236 40.824 69.984 40.824 69.984 36.45 61.236 36.45"></polygon>
                            <polygon id="Fill-7" fill="#DCDFE1" points="84.564 87.48 93.312 87.48 93.312 36.45 84.564 36.45"></polygon>
                            <polygon id="Fill-8" fill="#C5C9CE" points="84.564 40.824 93.312 40.824 93.312 36.45 84.564 36.45"></polygon>
                            <polygon id="Fill-9" fill="#C5C9CE" points="10.206 94.77 99.144 94.77 99.144 87.48 10.206 87.48"></polygon>
                            <polygon id="Fill-12" fill="#DCDFE1" points="4.374 36.45 103.518 36.45 103.518 27.702 4.374 27.702"></polygon>
                            <polygon id="Fill-13" fill="#C5C9CE" points="53.9471803 0 4.374 27.702 103.518 27.702"></polygon>
                            <rect id="Rectangle" fill="#DCDFE1" fill-rule="nonzero" x="0" y="94.77" width="110.808" height="4.374" rx="2.187"></rect>
                        </g>
                    </g>
                    <text id="ato" font-family="SFProText-Bold, SF Pro Text" font-size="32.076" font-weight="bold" letter-spacing="-0.352835986" fill="#8241AA">
                        <tspan x="0" y="50.1176471">ato</tspan>
                    </text>
                </g>
            </g>
        </g>
    </g>
</svg>